<?xml version="1.0" encoding="UTF-8"?><svg id="a" xmlns="http://www.w3.org/2000/svg" viewBox="0 0 549.57 331.73"><defs><style>.b{fill:#9ea0a3;}.c{fill:#caccce;}.d{fill:#a1a3a6;}.e{fill:#b1b3b6;}.f{fill:#bfc1c3;}.g{fill:#75766e;}.h{fill:#abadaf;}.i{fill:#83847a;}.j{fill:#e4e4e5;}.k{fill:#66686c;}.l{fill:#00f432;}.m{fill:#53544f;}.n{fill:#909295;}.o{fill:#000da2;}</style></defs><g><path class="d" d="M42.04,277.8c.33-1,.51-2.08,.51-3.2,0-5.76-4.72-10.44-10.53-10.44-5.3,0-8.35,2.53-10.29,7.75l-.25,1.17-10.48,42.9c-.44,1.21-.7,2.52-.7,3.88,0,6.32,5.17,11.43,11.54,11.43,5.94,0,10.84-4.45,11.47-10.18l.07,.02,8.67-43.34h0Z"/><path class="i" d="M42.04,277.8l.41,.13c.34-1.05,.53-2.16,.53-3.33,0-6-4.91-10.86-10.97-10.86-2.72,0-4.92,.66-6.67,2.01-1.75,1.35-3.03,3.37-4.02,6.02v.03l-.27,1.19-10.48,42.89,.42,.1-.4-.14c-.46,1.26-.72,2.61-.72,4.03,0,6.55,5.36,11.86,11.97,11.86,6.17,0,11.24-4.62,11.89-10.56l-.43-.05-.13,.4,.07,.02,.46,.15,8.76-43.81-.42-.08,.41,.13-.41-.13-.42-.08-8.66,43.34,.42,.08,.13-.4-.07-.02-.5-.17-.06,.52c-.61,5.51-5.32,9.8-11.04,9.8-3.07,0-5.84-1.23-7.86-3.22-2.01-1.99-3.25-4.74-3.25-7.78,0-1.31,.24-2.57,.67-3.74v-.02l10.5-42.92,.25-1.18-.42-.09,.4,.15c.95-2.57,2.16-4.43,3.74-5.64,1.58-1.22,3.55-1.83,6.14-1.83,2.79,0,5.32,1.12,7.15,2.93,1.83,1.81,2.96,4.32,2.96,7.08,0,1.07-.17,2.1-.49,3.07v.05l.41,.08h0Z"/><path class="d" d="M42.04,277.8c.33-1,.51-2.08,.51-3.2,0-5.76-4.72-10.44-10.53-10.44-5.3,0-8.35,2.53-10.29,7.75l-.25,1.17-10.48,42.9c-.44,1.21-.7,2.52-.7,3.88,0,6.32,5.17,11.43,11.54,11.43,5.94,0,10.84-4.45,11.47-10.18l.07,.02,8.67-43.34h0Z"/><path class="i" d="M42.04,277.8l.41,.13c.34-1.05,.53-2.16,.53-3.33,0-6-4.91-10.86-10.97-10.86-2.72,0-4.92,.66-6.67,2.01-1.75,1.35-3.03,3.37-4.02,6.02v.03l-.27,1.19-10.48,42.89,.42,.1-.4-.14c-.46,1.26-.72,2.61-.72,4.03,0,6.55,5.36,11.86,11.97,11.86,6.17,0,11.24-4.62,11.89-10.56l-.43-.05-.13,.4,.07,.02,.46,.15,8.76-43.81-.42-.08,.41,.13-.41-.13-.42-.08-8.66,43.34,.42,.08,.13-.4-.07-.02-.5-.17-.06,.52c-.61,5.51-5.32,9.8-11.04,9.8-3.07,0-5.84-1.23-7.86-3.22-2.01-1.99-3.25-4.74-3.25-7.78,0-1.31,.24-2.57,.67-3.74v-.02l10.5-42.92,.25-1.18-.42-.09,.4,.15c.95-2.57,2.16-4.43,3.74-5.64,1.58-1.22,3.55-1.83,6.14-1.83,2.79,0,5.32,1.12,7.15,2.93,1.83,1.81,2.96,4.32,2.96,7.08,0,1.07-.17,2.1-.49,3.07v.05l.41,.08h0Z"/><path class="e" d="M16.89,307l4.34-17.79s0,1.52,.43,2.27c0,0,2.27,3.56,6.48,3.56,.49,0,1-.05,1.54-.16h0l-2.97,11.76s-2.15-.77-4.84-.77c-1.59,0-3.36,.27-4.98,1.13h0Zm19.1-39.65v16.44c.64,1.01,1,2.19,1,3.43,0,3.84-3.47,6.96-7.74,6.96s-7.74-3.12-7.74-6.96c0-.81,.15-1.58,.43-2.29v-4.36l-7.67,29.23s4.02-2.53,8.79-2.53c.71,0,1.44,.06,2.17,.19,5.66,.99,7.74,6.04,7.74,6.04l7.88-37.71s.36-5.4-4.23-8.1c-.21-.13-.43-.24-.65-.34h0Z"/><path class="f" d="M21.23,289.21l-4.34,17.79c1.62-.86,3.39-1.13,4.98-1.13,2.68,0,4.84,.77,4.84,.77l2.97-11.76c-.54,.11-1.05,.16-1.54,.16-4.21,0-6.48-3.56-6.48-3.56-.43-.75-.43-2.27-.43-2.27h0Z"/><path class="b" d="M35.99,283.79v3.15h0c0,3.84-3.14,6.96-7.02,6.96s-7.02-3.12-7.02-6.96v-2.01c-.28,.72-.43,1.49-.43,2.29,0,3.84,3.47,6.96,7.74,6.96s7.74-3.12,7.74-6.96c0-1.25-.37-2.42-1-3.43h0Z"/><path class="d" d="M33.02,320.02c0,6.15-5.03,11.13-11.23,11.13s-11.23-4.98-11.23-11.13,5.03-11.14,11.23-11.14,11.23,4.99,11.23,11.14h0Z"/><path class="i" d="M33.02,320.02h-.43c0,2.96-1.21,5.63-3.16,7.57-1.96,1.94-4.65,3.13-7.64,3.13s-5.68-1.2-7.64-3.13c-1.96-1.94-3.16-4.61-3.16-7.57s1.21-5.63,3.16-7.57c1.96-1.94,4.65-3.14,7.64-3.14s5.68,1.2,7.64,3.14c1.96,1.94,3.16,4.61,3.16,7.57h.86c0-6.39-5.22-11.56-11.67-11.56s-11.67,5.17-11.67,11.56,5.22,11.56,11.67,11.56,11.67-5.17,11.67-11.56h-.43Z"/><path class="k" d="M21.46,329.87c-5.31,0-9.62-4.27-9.62-9.54s4.31-9.53,9.62-9.53,9.62,4.27,9.62,9.53-4.31,9.54-9.62,9.54h0Zm.32-20.56c-2.99,0-5.68,1.2-7.64,3.14-1.96,1.94-3.16,4.61-3.16,7.57s1.21,5.63,3.16,7.57c1.96,1.94,4.65,3.13,7.64,3.13s5.68-1.2,7.64-3.13c1.96-1.94,3.16-4.61,3.16-7.57h0c0-2.96-1.21-5.63-3.16-7.57-1.96-1.94-4.65-3.14-7.64-3.14h0Z"/><path class="m" d="M21.79,308.88c-6.2,0-11.23,4.99-11.23,11.14s5.03,11.13,11.23,11.13,11.23-4.98,11.23-11.13h-.43c0,2.96-1.21,5.63-3.16,7.57-1.96,1.94-4.65,3.13-7.64,3.13s-5.68-1.2-7.64-3.13c-1.96-1.94-3.16-4.61-3.16-7.57s1.21-5.63,3.16-7.57c1.96-1.94,4.65-3.14,7.64-3.14s5.68,1.2,7.64,3.14c1.96,1.94,3.16,4.61,3.16,7.57h.43c0-6.15-5.03-11.14-11.23-11.14h0Z"/><path class="e" d="M20.75,312.57c-4.05,0-7.33,3.25-7.33,7.27s3.28,7.26,7.33,7.26,7.33-3.25,7.33-7.26-3.28-7.27-7.33-7.27h0Z"/><path class="d" d="M508.35,277.8c-.33-1-.51-2.08-.51-3.2,0-5.76,4.72-10.44,10.53-10.44,5.3,0,8.35,2.53,10.29,7.75l.25,1.17,10.48,42.9c.44,1.21,.7,2.52,.7,3.88,0,6.32-5.17,11.43-11.54,11.43-5.94,0-10.83-4.45-11.47-10.18l-.07,.02-8.66-43.34h0Z"/><path class="i" d="M508.35,277.8l.41-.13c-.31-.96-.49-1.99-.49-3.07,0-2.76,1.13-5.27,2.96-7.08,1.83-1.81,4.35-2.93,7.14-2.93,2.59,0,4.56,.61,6.14,1.83,1.58,1.22,2.79,3.08,3.74,5.64l.4-.15-.42,.09,.25,1.17h0l10.49,42.93v.02c.44,1.17,.68,2.43,.68,3.74,0,3.04-1.24,5.79-3.25,7.78-2.01,1.99-4.79,3.22-7.86,3.22-5.72,0-10.43-4.29-11.04-9.8l-.06-.52-.11,.03-8.58-42.89v-.03l-.42,.13-.42,.08,8.76,43.82,.53-.18-.14-.4-.43,.05c.66,5.94,5.73,10.56,11.89,10.56,6.61,0,11.97-5.31,11.97-11.86,0-1.42-.27-2.77-.72-4.03l-.4,.14,.42-.1-10.48-42.89-.25-1.16v-.03l-.02-.03c-.99-2.65-2.27-4.67-4.02-6.02-1.75-1.35-3.95-2.01-6.67-2.01-6.06,0-10.97,4.86-10.97,10.86,0,1.16,.19,2.28,.53,3.33l.41-.13-.42,.08,.42-.08h0Z"/><path class="d" d="M508.35,277.8c-.33-1-.51-2.08-.51-3.2,0-5.76,4.72-10.44,10.53-10.44,5.3,0,8.35,2.53,10.29,7.75l.25,1.17,10.48,42.9c.44,1.21,.7,2.52,.7,3.88,0,6.32-5.17,11.43-11.54,11.43-5.94,0-10.83-4.45-11.47-10.18l-.07,.02-8.66-43.34h0Z"/><path class="i" d="M508.35,277.8l.41-.13c-.31-.96-.49-1.99-.49-3.07,0-2.76,1.13-5.27,2.96-7.08,1.83-1.81,4.35-2.93,7.14-2.93,2.59,0,4.56,.61,6.14,1.83,1.58,1.22,2.79,3.08,3.74,5.64l.4-.15-.42,.09,.25,1.17h0l10.49,42.93v.02c.44,1.17,.68,2.43,.68,3.74,0,3.04-1.24,5.79-3.25,7.78-2.01,1.99-4.79,3.22-7.86,3.22-5.72,0-10.43-4.29-11.04-9.8l-.06-.52-.11,.03-8.58-42.89v-.03l-.42,.13-.42,.08,8.76,43.82,.53-.18-.14-.4-.43,.05c.66,5.94,5.73,10.56,11.89,10.56,6.61,0,11.97-5.31,11.97-11.86,0-1.42-.27-2.77-.72-4.03l-.4,.14,.42-.1-10.48-42.89-.25-1.16v-.03l-.02-.03c-.99-2.65-2.27-4.67-4.02-6.02-1.75-1.35-3.95-2.01-6.67-2.01-6.06,0-10.97,4.86-10.97,10.86,0,1.16,.19,2.28,.53,3.33l.41-.13-.42,.08,.42-.08h0Z"/><path class="e" d="M522.25,295.05c4.21,0,6.48-3.56,6.48-3.56,.43-.75,.43-2.27,.43-2.27l4.34,17.79c-1.62-.86-3.4-1.13-4.98-1.13-2.69,0-4.84,.77-4.84,.77l-2.98-11.76c.54,.11,1.06,.16,1.55,.16h0Zm-7.92-27.66c-.19,.09-.38,.19-.57,.31-4.59,2.7-4.23,8.1-4.23,8.1l7.88,37.71s2.08-5.04,7.74-6.04c.73-.13,1.46-.19,2.17-.19,4.78,0,8.79,2.53,8.79,2.53l-7.74-29.51v4.45c.32,.77,.5,1.6,.5,2.48,0,3.84-3.47,6.96-7.74,6.96s-7.74-3.12-7.74-6.96c0-1.2,.34-2.33,.93-3.32v-16.52h0Z"/><path class="f" d="M529.16,289.21s0,1.52-.43,2.27c0,0-2.28,3.56-6.48,3.56-.49,0-1-.05-1.55-.16l2.98,11.76s2.15-.77,4.84-.77c1.58,0,3.36,.27,4.98,1.13l-4.34-17.79h0Z"/><path class="b" d="M514.33,283.91c-.59,.99-.93,2.11-.93,3.32,0,3.84,3.47,6.96,7.74,6.96s7.74-3.12,7.74-6.96c0-.88-.18-1.71-.5-2.48v2.19h0c0,3.84-3.14,6.96-7.02,6.96s-7.02-3.12-7.02-6.96v-3.03h0Z"/><path class="d" d="M517.37,320.02c0,6.15,5.03,11.13,11.23,11.13s11.23-4.98,11.23-11.13-5.03-11.14-11.23-11.14-11.23,4.99-11.23,11.14h0Z"/><path class="i" d="M517.37,320.02h-.43c0,6.38,5.22,11.56,11.67,11.56s11.66-5.17,11.66-11.56-5.22-11.56-11.66-11.56-11.67,5.17-11.67,11.56h.86c0-2.96,1.21-5.63,3.16-7.57,1.96-1.94,4.66-3.14,7.64-3.14s5.68,1.2,7.64,3.14c1.96,1.94,3.16,4.61,3.16,7.57s-1.21,5.63-3.16,7.57c-1.96,1.94-4.66,3.13-7.64,3.13s-5.68-1.2-7.64-3.13c-1.95-1.94-3.16-4.61-3.16-7.57h-.43Z"/><path class="k" d="M528.93,329.87c-5.31,0-9.62-4.27-9.62-9.54s4.31-9.53,9.62-9.53,9.62,4.27,9.62,9.53-4.31,9.54-9.62,9.54h0Zm-.32-20.56c-2.99,0-5.68,1.2-7.64,3.14-1.95,1.94-3.16,4.61-3.16,7.57s1.21,5.63,3.16,7.57c1.96,1.94,4.66,3.13,7.64,3.13s5.68-1.2,7.64-3.13c1.96-1.94,3.16-4.61,3.16-7.57s-1.21-5.63-3.16-7.57c-1.96-1.94-4.66-3.14-7.64-3.14h0Z"/><path class="m" d="M517.8,320.02c0-2.96,1.21-5.63,3.16-7.57,1.96-1.94,4.66-3.14,7.64-3.14s5.68,1.2,7.64,3.14c1.96,1.94,3.16,4.61,3.16,7.57s-1.21,5.63-3.16,7.57c-1.96,1.94-4.66,3.13-7.64,3.13s-5.68-1.2-7.64-3.13c-1.95-1.94-3.16-4.61-3.16-7.57h0Zm10.81-11.14c-6.2,0-11.23,4.99-11.23,11.14h0c0,6.15,5.03,11.13,11.23,11.13s11.23-4.98,11.23-11.13-5.03-11.14-11.23-11.14h0Z"/><path class="e" d="M529.64,312.57c-4.04,0-7.33,3.25-7.33,7.27s3.28,7.26,7.33,7.26,7.33-3.25,7.33-7.26-3.28-7.27-7.33-7.27h0Z"/><path class="d" d="M35.57,286.94c0,3.61-2.95,6.53-6.59,6.53s-6.59-2.93-6.59-6.53V15.35c0-3.61,2.95-6.54,6.59-6.54s6.59,2.92,6.59,6.54V286.94h0Z"/><path class="i" d="M35.57,286.94h-.43c0,3.37-2.76,6.1-6.16,6.11-3.4,0-6.16-2.74-6.16-6.11V15.35c0-3.38,2.76-6.1,6.16-6.11,3.4,0,6.16,2.73,6.16,6.11V286.94h.86V15.35c0-3.85-3.14-6.96-7.02-6.96s-7.02,3.12-7.02,6.96V286.94c0,3.84,3.14,6.96,7.02,6.96s7.02-3.12,7.02-6.96h-.43Z"/><path class="e" d="M31.62,18.33h-3.15V238.8c.69-1.84,1.79-3.39,3.15-4.45V18.33h0Z"/><path class="e" d="M25.46,18.33h-1.43V282.19c0,3.56,1.7,6.45,3.8,6.45s3.8-2.89,3.8-6.45v-30.01c-1.36-1.06-2.47-2.61-3.15-4.46v32.23c0,3.54-.67,6.41-1.51,6.41s-1.51-2.87-1.51-6.41V18.33h0Z"/><path class="f" d="M28.47,18.33h-3.01V279.96c0,3.54,.67,6.41,1.51,6.41s1.51-2.87,1.51-6.41v-32.23c-.51-1.35-.79-2.87-.79-4.47s.28-3.11,.79-4.46V18.33h0Z"/><path class="d" d="M527.94,286.94c0,3.61-2.95,6.53-6.59,6.53s-6.59-2.93-6.59-6.53V15.35c0-3.61,2.95-6.54,6.59-6.54s6.59,2.92,6.59,6.54V286.94h0Z"/><path class="i" d="M527.94,286.94h-.43c0,3.37-2.76,6.1-6.16,6.11-3.4,0-6.16-2.74-6.16-6.11V15.35c0-3.38,2.76-6.1,6.16-6.11,3.4,0,6.16,2.73,6.16,6.11V286.94h.86V15.35c0-3.85-3.14-6.96-7.02-6.96s-7.02,3.12-7.02,6.96V286.94c0,3.84,3.14,6.96,7.02,6.96s7.02-3.12,7.02-6.96h-.43Z"/><path class="e" d="M524,18.33h-3.15V235.62c1.48,1.89,2.4,4.5,2.4,7.37s-.91,5.48-2.4,7.37v31.83c0,3.21-.55,5.87-1.26,6.36,.2,.06,.41,.09,.61,.09,2.1,0,3.8-2.89,3.8-6.45V18.33h0Z"/><path class="e" d="M517.84,18.33h-1.43V232.67c.49,.11,.97,.28,1.43,.5V18.33h0Z"/><path class="e" d="M517.84,252.82c-.46,.22-.94,.38-1.43,.5v28.87c0,2.71,.98,5.02,2.37,5.98-.55-.96-.94-3.27-.94-5.98v-29.37h0Z"/><path class="e" d="M518.78,288.17c.17,.3,.36,.47,.56,.47,.09,0,.17-.03,.24-.09-.28-.08-.55-.21-.81-.38h0Z"/><path class="f" d="M520.85,18.33h-3.01V233.16c1.14,.54,2.17,1.39,3.01,2.46V18.33h0Z"/><path class="f" d="M520.85,250.36c-.84,1.07-1.87,1.92-3.01,2.46v29.37c0,2.71,.39,5.02,.94,5.98,.26,.18,.53,.31,.81,.38,.72-.5,1.26-3.16,1.26-6.36v-31.83h0Z"/><path class="n" d="M515.19,232.5v1.87c.42,.1,.83,.23,1.22,.4v-2.1c-.4-.09-.8-.15-1.22-.16h0Z"/><path class="g" d="M514.92,232.5v1.81c.09,.02,.18,.04,.27,.06v-1.87c-.09,0-.18,0-.27,0h0Z"/><path class="n" d="M516.41,251.75c-.39,.16-.8,.29-1.22,.39v1.33c.41-.01,.82-.07,1.22-.16v-1.57h0Z"/><path class="g" d="M515.19,252.14c-.09,.02-.18,.04-.27,.06v1.28c.09,0,.18,0,.27,0v-1.33h0Z"/><path class="b" d="M517.84,251.02c-.45,.28-.93,.52-1.43,.73v1.57c.49-.11,.97-.28,1.43-.5v-1.8h0Zm3.01-15.4v2.91c.84,1.38,1.32,3,1.32,4.73h0c0,1.73-.48,3.35-1.32,4.73v2.38c1.48-1.9,2.4-4.5,2.4-7.37s-.91-5.48-2.4-7.37h0Zm-4.44-2.96v2.1c.5,.2,.98,.44,1.43,.73v-2.33c-.46-.22-.94-.38-1.43-.5h0Z"/><path class="h" d="M520.85,247.99c-.75,1.23-1.78,2.27-3.01,3.04v1.8c1.14-.54,2.17-1.39,3.01-2.46v-2.38h0Zm-3.01-14.82v2.33c1.23,.76,2.26,1.81,3.01,3.04v-2.91c-.84-1.07-1.87-1.92-3.01-2.46h0Z"/><path class="j" d="M36.01,232.77h-.02v1.85s.01,0,.02,0v-1.84h0Z"/><path class="n" d="M35.14,232.83c-1.28,.17-2.47,.7-3.51,1.52v3.49c.91-1.22,2.11-2.22,3.51-2.87v-2.14h0Z"/><path class="g" d="M35.99,232.77c-.29,0-.58,.02-.86,.06v2.14c.28-.13,.57-.25,.86-.35v-1.85h0Z"/><path class="j" d="M35.99,251.9v1.86h.02v-1.85s-.01,0-.02,0h0Z"/><path class="n" d="M31.62,248.68v3.5c1.04,.81,2.23,1.35,3.51,1.52v-2.16c-1.4-.65-2.61-1.65-3.51-2.87h0Z"/><path class="g" d="M35.14,251.55v2.16c.28,.03,.57,.05,.86,.05v-1.86c-.29-.1-.58-.22-.86-.35h0Z"/><path class="b" d="M31.62,234.35c-1.36,1.06-2.47,2.61-3.15,4.45v8.93c.69,1.84,1.79,3.39,3.15,4.46v-3.5c-1.13-1.52-1.79-3.39-1.79-5.42s.67-3.91,1.79-5.42v-3.49h0Z"/><path class="h" d="M28.47,238.8c-.51,1.35-.79,2.87-.79,4.46s.28,3.11,.79,4.47v-8.93h0Z"/><path class="e" d="M521.74,243.26c0,4.82-3.95,8.74-8.81,8.74H39.08c-4.87,0-8.81-3.92-8.81-8.74s3.95-8.73,8.81-8.73h473.85c4.87,0,8.81,3.91,8.81,8.73h0Z"/><path class="i" d="M521.74,243.26h-.43c0,2.3-.94,4.37-2.46,5.87-1.52,1.51-3.61,2.44-5.93,2.44H39.08c-2.32,0-4.41-.93-5.93-2.44-1.52-1.5-2.46-3.58-2.46-5.87s.94-4.37,2.46-5.88c1.52-1.5,3.61-2.43,5.93-2.43h473.85c2.32,0,4.41,.93,5.93,2.43,1.52,1.51,2.46,3.58,2.46,5.88h.86c0-5.06-4.14-9.16-9.24-9.16H39.08c-5.11,0-9.25,4.1-9.25,9.16s4.14,9.16,9.25,9.16h473.85c5.11,0,9.24-4.1,9.24-9.16h-.43Z"/><path class="f" d="M43.83,248.23c-4.72,0-8.55-1.84-8.55-4.1s3.83-4.1,8.55-4.1H503.52c4.72,0,8.55,1.84,8.55,4.1s-3.83,4.1-8.55,4.1H43.83Zm465.57-10.87H42.04c-4.8,0-8.69,2.77-8.69,6.18s3.89,6.18,8.69,6.18H509.4c4.8,0,8.69-2.77,8.69-6.18s-3.9-6.18-8.69-6.18h0Z"/><path class="c" d="M503.52,240.03H43.83c-4.72,0-8.55,1.84-8.55,4.1s3.83,4.1,8.55,4.1H503.52c4.72,0,8.55-1.84,8.55-4.1s-3.83-4.1-8.55-4.1h0Z"/><g><polygon class="o" points="525.59 .43 481.16 .43 439.88 .43 398.59 .43 357.31 .43 312.87 .43 271.59 .43 230.31 .43 189.03 .43 144.59 .43 103.31 .43 62.03 .43 20.74 .43 .43 .43 .43 22.61 .43 39.63 26.12 39.63 67.4 39.63 108.68 39.63 153.12 39.63 194.4 39.63 235.68 39.63 276.96 39.63 321.4 39.63 362.68 39.63 403.97 39.63 445.25 39.63 489.68 39.63 530.96 39.63 549.14 39.63 549.14 19.79 549.14 .43 525.59 .43 525.59 .43"/><polygon class="o" points="525.59 .43 525.59 0 481.16 0 439.88 0 398.59 0 357.31 0 312.87 0 271.59 0 230.31 0 189.03 0 144.59 0 103.31 0 62.03 0 20.74 0 0 0 0 22.61 0 40.06 26.12 40.06 67.4 40.06 108.68 40.06 153.12 40.06 194.4 40.06 235.68 40.06 276.96 40.06 321.4 40.06 362.68 40.06 403.97 40.06 445.25 40.06 489.68 40.06 530.96 40.06 549.57 40.06 549.57 19.79 549.57 0 525.59 0 525.59 .43 525.59 .85 548.71 .85 548.71 19.79 548.71 39.2 530.96 39.2 489.68 39.2 445.25 39.2 403.97 39.2 362.68 39.2 321.4 39.2 276.96 39.2 235.68 39.2 194.4 39.2 153.12 39.2 108.68 39.2 67.4 39.2 26.12 39.2 .86 39.2 .86 22.61 .86 .85 20.74 .85 62.03 .85 103.31 .85 144.59 .85 189.03 .85 230.31 .85 271.59 .85 312.87 .85 357.31 .85 398.59 .85 439.88 .85 481.16 .85 525.59 .85 525.59 .43 525.59 .43"/><polygon class="o" points="189.03 4.97 153.12 44.18 194.4 44.18 230.31 4.97 189.03 4.97 189.03 4.97"/><polygon class="o" points="189.03 4.97 188.71 4.69 152.15 44.61 194.59 44.61 231.28 4.55 188.84 4.55 188.71 4.69 189.03 4.97 189.03 5.4 229.34 5.4 194.21 43.75 154.09 43.75 189.35 5.26 189.03 4.97 189.03 5.4 189.03 4.97 189.03 4.97"/><polygon class="o" points="103.31 4.97 67.4 44.18 108.68 44.18 144.59 4.97 103.31 4.97 103.31 4.97"/><polygon class="o" points="103.31 4.97 102.99 4.69 66.43 44.61 108.87 44.61 145.56 4.55 103.12 4.55 102.99 4.69 103.31 4.97 103.31 5.4 143.62 5.4 108.49 43.75 68.37 43.75 103.63 5.26 103.31 4.97 103.31 5.4 103.31 4.97 103.31 4.97"/><polygon class="o" points="230.31 4.97 194.4 44.18 235.68 44.18 271.59 4.97 230.31 4.97 230.31 4.97"/><polygon class="o" points="230.31 4.97 229.99 4.69 193.43 44.61 235.87 44.61 272.56 4.55 230.12 4.55 229.99 4.69 230.31 4.97 230.31 5.4 270.62 5.4 235.49 43.75 195.37 43.75 230.63 5.26 230.31 4.97 230.31 5.4 230.31 4.97 230.31 4.97"/><polygon class="o" points="20.74 4.97 .43 27.15 .43 44.18 26.12 44.18 62.03 4.97 20.74 4.97 20.74 4.97"/><polygon class="o" points="20.74 4.97 20.43 4.69 0 26.99 0 44.61 26.31 44.61 63 4.55 20.55 4.55 20.43 4.69 20.74 4.97 20.74 5.4 61.06 5.4 25.92 43.75 .86 43.75 .86 27.32 21.06 5.26 20.74 4.97 20.74 5.4 20.74 4.97 20.74 4.97"/><polygon class="o" points=".43 4.97 .43 27.15 20.74 4.97 .43 4.97 .43 4.97"/><polygon class="o" points=".43 4.97 0 4.97 0 28.25 21.71 4.55 0 4.55 0 4.97 .43 4.97 .43 5.4 19.77 5.4 .86 26.05 .86 4.97 .43 4.97 .43 5.4 .43 4.97 .43 4.97"/><polygon class="o" points="62.03 4.97 26.12 44.18 67.4 44.18 103.31 4.97 62.03 4.97 62.03 4.97"/><polygon class="o" points="62.03 4.97 61.71 4.69 25.15 44.61 67.59 44.61 104.28 4.55 61.84 4.55 61.71 4.69 62.03 4.97 62.03 5.4 102.34 5.4 67.21 43.75 27.09 43.75 62.34 5.26 62.03 4.97 62.03 5.4 62.03 4.97 62.03 4.97"/><polygon class="o" points="271.59 4.97 235.68 44.18 276.96 44.18 312.87 4.97 271.59 4.97 271.59 4.97"/><polygon class="o" points="271.59 4.97 271.27 4.69 234.71 44.61 277.16 44.61 313.85 4.55 271.4 4.55 271.27 4.69 271.59 4.97 271.59 5.4 311.9 5.4 276.77 43.75 236.65 43.75 271.91 5.26 271.59 4.97 271.59 5.4 271.59 4.97 271.59 4.97"/><polygon class="o" points="144.59 4.97 108.68 44.18 153.12 44.18 189.03 4.97 144.59 4.97 144.59 4.97"/><polygon class="o" points="144.59 4.97 144.27 4.69 107.71 44.61 153.31 44.61 190 4.55 144.4 4.55 144.27 4.69 144.59 4.97 144.59 5.4 188.06 5.4 152.93 43.75 109.65 43.75 144.91 5.26 144.59 4.97 144.59 5.4 144.59 4.97 144.59 4.97"/><polygon class="o" points="481.16 4.97 445.25 44.18 489.68 44.18 525.59 4.97 481.16 4.97 481.16 4.97"/><polygon class="o" points="481.16 4.97 480.84 4.69 444.28 44.61 489.87 44.61 526.56 4.55 480.97 4.55 480.84 4.69 481.16 4.97 481.16 5.4 524.62 5.4 489.49 43.75 446.22 43.75 481.48 5.26 481.16 4.97 481.16 5.4 481.16 4.97 481.16 4.97"/><polygon class="o" points="549.14 4.97 525.59 4.97 489.68 44.18 530.96 44.18 549.14 24.33 549.14 4.97 549.14 4.97"/><polygon class="o" points="549.14 4.97 549.14 4.55 525.4 4.55 488.71 44.61 531.15 44.61 549.57 24.5 549.57 4.55 549.14 4.55 549.14 4.97 548.71 4.97 548.71 24.17 530.77 43.75 490.65 43.75 525.78 5.4 549.14 5.4 549.14 4.97 548.71 4.97 549.14 4.97 549.14 4.97"/><polygon class="o" points="312.87 4.97 276.96 44.18 321.4 44.18 357.31 4.97 312.87 4.97 312.87 4.97"/><polygon class="o" points="312.87 4.97 312.56 4.69 275.99 44.61 321.59 44.61 358.28 4.55 312.68 4.55 312.56 4.69 312.87 4.97 312.87 5.4 356.34 5.4 321.21 43.75 277.93 43.75 313.19 5.26 312.87 4.97 312.87 5.4 312.87 4.97 312.87 4.97"/><polygon class="o" points="549.14 24.33 530.96 44.18 549.14 44.18 549.14 24.33 549.14 24.33"/><polygon class="o" points="549.14 24.33 548.82 24.05 529.99 44.61 549.57 44.61 549.57 23.23 548.82 24.05 549.14 24.33 548.71 24.33 548.71 43.75 531.94 43.75 549.46 24.62 549.14 24.33 548.71 24.33 549.14 24.33 549.14 24.33"/><polygon class="o" points="357.31 4.97 321.4 44.18 362.68 44.18 398.59 4.97 357.31 4.97 357.31 4.97"/><polygon class="o" points="357.31 4.97 356.99 4.69 320.43 44.61 362.87 44.61 399.56 4.55 357.12 4.55 356.99 4.69 357.31 4.97 357.31 5.4 397.62 5.4 362.49 43.75 322.37 43.75 357.63 5.26 357.31 4.97 357.31 5.4 357.31 4.97 357.31 4.97"/><polygon class="o" points="439.88 4.97 403.97 44.18 445.25 44.18 481.16 4.97 439.88 4.97 439.88 4.97"/><polygon class="o" points="439.88 4.97 439.55 4.69 402.99 44.61 445.44 44.61 482.13 4.55 439.68 4.55 439.55 4.69 439.88 4.97 439.88 5.4 480.19 5.4 445.06 43.75 404.93 43.75 440.19 5.26 439.88 4.97 439.88 5.4 439.88 4.97 439.88 4.97"/><polygon class="o" points="398.59 4.97 362.68 44.18 403.97 44.18 439.88 4.97 398.59 4.97 398.59 4.97"/><polygon class="o" points="398.59 4.97 398.27 4.69 361.71 44.61 404.15 44.61 440.85 4.55 398.4 4.55 398.27 4.69 398.59 4.97 398.59 5.4 438.9 5.4 403.77 43.75 363.65 43.75 398.91 5.26 398.59 4.97 398.59 5.4 398.59 4.97 398.59 4.97"/><path class="o" d="M491.83,41.19h-43.27l-2.34,2.56h43.27l2.34-2.56h0Zm32.79-35.79h-43.27l-3.12,3.41h43.27l3.12-3.41h0Z"/><path class="o" d="M489.49,43.75h-43.27l-.39,.43h43.27l.39-.43h0Zm35.52-38.78h-43.27l-.39,.43h43.27l-3.12,3.41h0l3.51-3.84h0Z"/><path class="o" d="M533.12,41.19h-40.12l-2.34,2.56h40.12l2.34-2.56h0Zm15.6-35.79h-22.93l-3.12,3.41h18.03v24.12l3.88-4.23,4.15-4.53V5.4h0Z"/><path class="o" d="M492.99,41.19h-1.16l-2.34,2.56-.39,.43h41.28l.39-.43h-40.12l2.34-2.56h0Zm55.72-36.22h0Zm.43,0h-24.13l-3.51,3.84h1.16l3.12-3.41h22.93V24.17l-4.15,4.53,4.26-4.65,.32-.35V4.97h0Z"/><polygon class="o" points="548.71 25.44 540.69 34.2 540.69 41.19 534.28 41.19 531.94 43.75 548.71 43.75 548.71 25.44 548.71 25.44"/><path class="o" d="M548.71,24.33h0Zm.43-.64l-.32,.35-4.26,4.65-3.88,4.23v1.27l8.03-8.77v18.32h-16.78l2.34-2.56h-1.16l-2.34,2.56-.39,.43h18.76V23.7h0Z"/><path class="o" d="M447.4,41.19h-40.12l-2.34,2.56h40.12l2.34-2.56h0ZM480.19,5.4h-40.12l-3.12,3.41h40.12l3.12-3.41h0Z"/><path class="o" d="M448.56,41.19h-1.16l-2.34,2.56h-40.12l-.39,.43h41.28l.39-.43,2.34-2.56h0ZM481.74,4.97h-41.28l-3.51,3.84h0l3.12-3.41h40.12l-3.12,3.41h1.16l3.12-3.41,.39-.43h0Z"/><path class="o" d="M356.34,5.4h-32.49c-.18,1.12-.38,2.26-.58,3.41h29.94l3.12-3.41h0Z"/><path class="o" d="M356.73,4.97h-32.81c-.02,.14-.05,.28-.07,.43h32.49l-3.12,3.41h0l3.51-3.84h0Z"/><polygon class="o" points="397.62 5.4 357.5 5.4 354.38 8.81 394.34 8.81 394.5 8.81 397.62 5.4 397.62 5.4"/><polygon class="o" points="398.01 4.97 357.31 4.97 356.73 4.97 353.22 8.81 354.21 8.81 354.38 8.81 357.5 5.4 397.62 5.4 394.5 8.81 394.5 8.81 398.01 4.97 398.01 4.97"/><path class="o" d="M406.12,41.19h-40.12l-2.34,2.56h40.12l2.34-2.56h0ZM438.9,5.4h-40.12l-3.12,3.41h40.12l3.12-3.41h0Z"/><path class="o" d="M407.28,41.19h-1.16l-2.34,2.56h-40.12l2.34-2.56h-1.16l-2.73,2.98h42.45l.39-.43,2.34-2.56h0ZM440.46,4.97h-42.45l-3.51,3.84h1.16l3.12-3.41h40.12l-3.12,3.41h1.16l3.51-3.84h0Z"/><path class="o" d="M185.51,41.19h-29.08l-2.34,2.56h28.24c.97-1.11,2.04-1.95,3.18-2.56h0Zm11.04,0h-.31c.07,.03,.15,.06,.22,.09l.09-.09h0ZM229.34,5.4h-40.12l-3.12,3.41h40.12l3.12-3.41h0Z"/><path class="o" d="M156.43,41.19h0l-2.73,2.98h28.28c.12-.15,.24-.29,.36-.43h-28.24l2.34-2.56h0Zm40.12,0h0l-.09,.09h0l.09-.09h0ZM229.73,4.97h-40.12l-3.51,3.84h0l3.12-3.41h40.12l-3.12,3.41h0l3.51-3.84h0Z"/><path class="o" d="M110.83,41.19h-40.12l-2.34,2.56h40.12l2.34-2.56h0ZM143.62,5.4h-40.12l-3.12,3.41h40.12l3.12-3.41h0Z"/><path class="o" d="M110.83,41.19h0l-2.34,2.56h-40.12l-.39,.43h40.12l2.73-2.98h0ZM144.01,4.97h-40.12l-3.51,3.84h0l3.12-3.41h40.12l-3.12,3.41h0l3.51-3.84h0Z"/><path class="o" d="M237.83,41.19h-40.12l-.42,.46c1.21,.58,2.39,1.28,3.52,2.09h34.68l2.34-2.56h0Zm30.06-35.79h-37.39l-3.12,3.41h39.76c.25-1.15,.5-2.29,.75-3.41h0Z"/><path class="o" d="M197.71,41.19h-1.16l-.09,.09c.28,.12,.55,.24,.82,.37l.42-.46h0Zm40.12,0h0l-2.34,2.56h-34.68c.2,.14,.39,.28,.58,.43h33.71l2.73-2.98h0Zm30.15-36.22h-38.26l-3.51,3.84h1.16l3.12-3.41h37.39c.03-.14,.06-.28,.09-.43h0Z"/><path class="o" d="M7.31,20.27L.86,27.32v16.44H25.92l2.34-2.56H7.31V20.27h0ZM61.06,5.4H20.93l-3.12,3.41H57.93l3.12-3.41h0Z"/><path class="o" d="M.86,27.32l-.43,.47v16.39H25.53l.39-.43H.86V27.32H.86ZM61.45,4.97H21.32l-3.51,3.84h0l3.12-3.41H61.06l-3.12,3.41h0l3.51-3.84h0Z"/><polygon class="o" points="19.77 5.4 .86 5.4 .86 26.05 7.31 19 7.31 8.81 16.65 8.81 19.77 5.4 19.77 5.4"/><polygon class="o" points="21.32 4.97 20.74 4.97 .43 4.97 .43 27.15 .43 27.79 .86 27.32 7.31 20.27 7.31 19 .86 26.05 .86 5.4 19.77 5.4 16.65 8.81 17.81 8.81 21.32 4.97 21.32 4.97"/><path class="o" d="M69.55,41.19H29.43l-2.34,2.56h40.12l2.34-2.56h0ZM102.34,5.4H62.22l-3.12,3.41h40.12l3.12-3.41h0Z"/><path class="o" d="M70.71,41.19h-1.16l-2.34,2.56H27.09l2.34-2.56h-1.16l-2.34,2.56-.39,.43h42.44l.39-.43,2.34-2.56h0ZM103.89,4.97H61.45l-3.51,3.84h1.16l3.12-3.41h40.12l-3.12,3.41h1.16l3.51-3.84h0Z"/><path class="o" d="M155.27,41.19h-43.27l-2.34,2.56h43.27l2.34-2.56h0ZM188.06,5.4h-43.27l-3.12,3.41h43.27l3.12-3.41h0Z"/><path class="o" d="M156.43,41.19h-1.16l-2.34,2.56h-43.27l2.34-2.56h-1.16l-2.73,2.98h45.6l2.73-2.98h0ZM189.61,4.97h-45.6l-3.51,3.84h1.16l3.12-3.41h43.27l-3.12,3.41h1.16l3.51-3.84h0Z"/><polygon class="o" points="517.47 13.21 474.19 13.21 471.57 16.08 516.59 14.17 517.47 13.21 517.47 13.21"/><polygon class="o" points="517.47 13.21 517.47 13.21 516.59 14.17 516.59 14.17 517.47 13.21 517.47 13.21"/><polygon class="o" points="539.11 13.21 518.63 13.21 517.8 14.12 539.11 13.21 539.11 13.21"/><polygon class="o" points="518.63 13.21 517.47 13.21 516.59 14.17 517.8 14.12 518.63 13.21 518.63 13.21"/><polygon class="o" points="473.03 13.21 432.91 13.21 428.62 17.9 470.36 16.13 473.03 13.21 473.03 13.21"/><path class="o" d="M432.91,13.21h0l-4.29,4.69h0l4.29-4.69h0Zm41.28,0h-1.16l-2.67,2.91,1.21-.05,2.62-2.86h0Z"/><path class="o" d="M349.18,13.21h-26.74c-.66,3.13-1.45,6.23-2.36,9.29l21.43-.91,7.68-8.38h0Z"/><polygon class="o" points="349.18 13.21 349.18 13.21 341.51 21.59 341.51 21.59 349.18 13.21 349.18 13.21"/><polygon class="o" points="390.46 13.21 350.34 13.21 342.72 21.54 384.46 19.77 390.46 13.21 390.46 13.21"/><path class="o" d="M350.34,13.21h-1.16l-7.68,8.38,1.21-.05,7.63-8.33h0Zm40.12,0h0l-6.01,6.56h0l6.01-6.56h0Z"/><polygon class="o" points="431.75 13.21 391.63 13.21 385.67 19.72 427.41 17.95 431.75 13.21 431.75 13.21"/><path class="o" d="M391.63,13.21h-1.16l-6.01,6.56,1.21-.05,5.96-6.5h0Zm41.28,0h-1.16l-4.34,4.74,1.21-.05,4.29-4.69h0Z"/><polygon class="o" points="222.18 13.21 182.06 13.21 167.63 28.96 209.37 27.19 222.18 13.21 222.18 13.21"/><path class="o" d="M182.06,13.21h0l-14.43,15.75h0l14.43-15.75h0Zm40.12,0h0l-12.81,13.98h0l12.81-13.98h0Z"/><polygon class="o" points="136.46 13.21 96.34 13.21 78.45 32.75 120.19 30.98 136.46 13.21 136.46 13.21"/><path class="o" d="M96.34,13.21h0l-17.89,19.53,17.89-19.53h0Zm40.12,0h0l-16.27,17.77h0l16.27-17.77h0Z"/><polygon class="o" points="263.47 13.21 223.35 13.21 210.58 27.14 252.32 25.37 263.47 13.21 263.47 13.21"/><path class="o" d="M223.35,13.21h-1.16l-12.81,13.98,1.21-.05,12.76-13.93h0Zm40.12,0h0l-11.14,12.16h0l11.14-12.16h0Z"/><polygon class="o" points="53.9 13.21 13.78 13.21 9.89 17.45 9.89 35.66 34.29 34.62 51.79 15.51 53.9 13.21 53.9 13.21"/><path class="o" d="M13.78,13.21h0l-3.89,4.24,3.89-4.24h0Zm40.12,0h0l-2.1,2.3,2.1-2.3h0Z"/><polygon class="o" points="12.62 13.21 9.89 13.21 9.89 16.19 12.62 13.21 12.62 13.21"/><polygon class="o" points="13.78 13.21 12.62 13.21 9.89 16.19 9.89 17.45 13.78 13.21 13.78 13.21"/><polygon class="o" points="95.18 13.21 55.06 13.21 35.5 34.57 77.24 32.8 95.18 13.21 95.18 13.21"/><path class="o" d="M55.06,13.21h-1.16l-2.1,2.3-17.5,19.11,1.21-.05L55.06,13.21h0Zm41.28,0h-1.16l-17.94,19.58,1.21-.05,17.89-19.53h0Z"/><path class="o" d="M266.16,13.21h-1.53l-11.09,12.11,9.92-.42c.93-3.94,1.84-7.87,2.7-11.69h0Z"/><polygon class="o" points="264.63 13.21 263.47 13.21 252.32 25.37 253.53 25.32 264.63 13.21 264.63 13.21"/><polygon class="o" points="180.9 13.21 137.63 13.21 121.4 30.93 166.42 29.01 180.9 13.21 180.9 13.21"/><path class="o" d="M137.63,13.21h-1.16l-16.27,17.77,1.21-.05,16.23-17.71h0Zm44.44,0h-1.16l-14.48,15.8,1.21-.05,14.43-15.75h0Z"/></g><g><polygon class="o" points="525.59 65.15 481.16 65.15 439.88 65.15 398.59 65.15 357.31 65.15 312.87 65.15 271.59 65.15 230.31 65.15 189.03 65.15 144.59 65.15 103.31 65.15 62.03 65.15 20.74 65.15 .43 65.15 .43 87.33 .43 104.35 26.12 104.35 67.4 104.35 108.68 104.35 153.12 104.35 194.4 104.35 235.68 104.35 276.96 104.35 321.4 104.35 362.68 104.35 403.97 104.35 445.25 104.35 489.68 104.35 530.96 104.35 549.14 104.35 549.14 84.51 549.14 65.15 525.59 65.15 525.59 65.15"/><polygon class="o" points="525.59 65.15 525.59 64.72 481.16 64.72 439.88 64.72 398.59 64.72 357.31 64.72 312.87 64.72 271.59 64.72 230.31 64.72 189.03 64.72 144.59 64.72 103.31 64.72 62.03 64.72 20.74 64.72 0 64.72 0 87.33 0 104.78 26.12 104.78 67.4 104.78 108.68 104.78 153.12 104.78 194.4 104.78 235.68 104.78 276.96 104.78 321.4 104.78 362.68 104.78 403.97 104.78 445.25 104.78 489.68 104.78 530.96 104.78 549.57 104.78 549.57 84.51 549.57 64.72 525.59 64.72 525.59 65.15 525.59 65.57 548.71 65.57 548.71 84.51 548.71 103.93 530.96 103.93 489.68 103.93 445.25 103.93 403.97 103.93 362.68 103.93 321.4 103.93 276.96 103.93 235.68 103.93 194.4 103.93 153.12 103.93 108.68 103.93 67.4 103.93 26.12 103.93 .86 103.93 .86 87.33 .86 65.57 20.74 65.57 62.03 65.57 103.31 65.57 144.59 65.57 189.03 65.57 230.31 65.57 271.59 65.57 312.87 65.57 357.31 65.57 398.59 65.57 439.88 65.57 481.16 65.57 525.59 65.57 525.59 65.15 525.59 65.15"/><polygon class="o" points="189.03 69.69 153.12 108.9 194.4 108.9 230.31 69.69 189.03 69.69 189.03 69.69"/><polygon class="o" points="189.03 69.69 188.71 69.41 152.15 109.33 194.59 109.33 231.28 69.27 188.84 69.27 188.71 69.41 189.03 69.69 189.03 70.12 229.34 70.12 194.21 108.47 154.09 108.47 189.35 69.98 189.03 69.69 189.03 70.12 189.03 69.69 189.03 69.69"/><polygon class="o" points="103.31 69.69 67.4 108.9 108.68 108.9 144.59 69.69 103.31 69.69 103.31 69.69"/><polygon class="o" points="103.31 69.69 102.99 69.41 66.43 109.33 108.87 109.33 145.56 69.27 103.12 69.27 102.99 69.41 103.31 69.69 103.31 70.12 143.62 70.12 108.49 108.47 68.37 108.47 103.63 69.98 103.31 69.69 103.31 70.12 103.31 69.69 103.31 69.69"/><polygon class="o" points="230.31 69.69 194.4 108.9 235.68 108.9 271.59 69.69 230.31 69.69 230.31 69.69"/><polygon class="o" points="230.31 69.69 229.99 69.41 193.43 109.33 235.87 109.33 272.56 69.27 230.12 69.27 229.99 69.41 230.31 69.69 230.31 70.12 270.62 70.12 235.49 108.47 195.37 108.47 230.63 69.98 230.31 69.69 230.31 70.12 230.31 69.69 230.31 69.69"/><polygon class="o" points="20.74 69.69 .43 91.87 .43 108.9 26.12 108.9 62.03 69.69 20.74 69.69 20.74 69.69"/><polygon class="o" points="20.74 69.69 20.43 69.41 0 91.71 0 109.33 26.31 109.33 63 69.27 20.55 69.27 20.43 69.41 20.74 69.69 20.74 70.12 61.06 70.12 25.92 108.47 .86 108.47 .86 92.04 21.06 69.98 20.74 69.69 20.74 70.12 20.74 69.69 20.74 69.69"/><polygon class="o" points=".43 69.69 .43 91.87 20.74 69.69 .43 69.69 .43 69.69"/><polygon class="o" points=".43 69.69 0 69.69 0 92.98 21.71 69.27 0 69.27 0 69.69 .43 69.69 .43 70.12 19.77 70.12 .86 90.77 .86 69.69 .43 69.69 .43 70.12 .43 69.69 .43 69.69"/><polygon class="o" points="62.03 69.69 26.12 108.9 67.4 108.9 103.31 69.69 62.03 69.69 62.03 69.69"/><polygon class="o" points="62.03 69.69 61.71 69.41 25.15 109.33 67.59 109.33 104.28 69.27 61.84 69.27 61.71 69.41 62.03 69.69 62.03 70.12 102.34 70.12 67.21 108.47 27.09 108.47 62.34 69.98 62.03 69.69 62.03 70.12 62.03 69.69 62.03 69.69"/><polygon class="o" points="271.59 69.69 235.68 108.9 276.96 108.9 312.87 69.69 271.59 69.69 271.59 69.69"/><polygon class="o" points="271.59 69.69 271.27 69.41 234.71 109.33 277.16 109.33 313.85 69.27 271.4 69.27 271.27 69.41 271.59 69.69 271.59 70.12 311.9 70.12 276.77 108.47 236.65 108.47 271.91 69.98 271.59 69.69 271.59 70.12 271.59 69.69 271.59 69.69"/><polygon class="o" points="144.59 69.69 108.68 108.9 153.12 108.9 189.03 69.69 144.59 69.69 144.59 69.69"/><polygon class="o" points="144.59 69.69 144.27 69.41 107.71 109.33 153.31 109.33 190 69.27 144.4 69.27 144.27 69.41 144.59 69.69 144.59 70.12 188.06 70.12 152.93 108.47 109.65 108.47 144.91 69.98 144.59 69.69 144.59 70.12 144.59 69.69 144.59 69.69"/><polygon class="o" points="481.16 69.69 445.25 108.9 489.68 108.9 525.59 69.69 481.16 69.69 481.16 69.69"/><polygon class="o" points="481.16 69.69 480.84 69.41 444.28 109.33 489.87 109.33 526.56 69.27 480.97 69.27 480.84 69.41 481.16 69.69 481.16 70.12 524.62 70.12 489.49 108.47 446.22 108.47 481.48 69.98 481.16 69.69 481.16 70.12 481.16 69.69 481.16 69.69"/><polygon class="o" points="549.14 69.69 525.59 69.69 489.68 108.9 530.96 108.9 549.14 89.05 549.14 69.69 549.14 69.69"/><polygon class="o" points="549.14 69.69 549.14 69.27 525.4 69.27 488.71 109.33 531.15 109.33 549.57 89.22 549.57 69.27 549.14 69.27 549.14 69.69 548.71 69.69 548.71 88.89 530.77 108.47 490.65 108.47 525.78 70.12 549.14 70.12 549.14 69.69 548.71 69.69 549.14 69.69 549.14 69.69"/><polygon class="o" points="312.87 69.69 276.96 108.9 321.4 108.9 357.31 69.69 312.87 69.69 312.87 69.69"/><polygon class="o" points="312.87 69.69 312.56 69.41 275.99 109.33 321.59 109.33 358.28 69.27 312.68 69.27 312.56 69.41 312.87 69.69 312.87 70.12 356.34 70.12 321.21 108.47 277.93 108.47 313.19 69.98 312.87 69.69 312.87 70.12 312.87 69.69 312.87 69.69"/><polygon class="o" points="549.14 89.05 530.96 108.9 549.14 108.9 549.14 89.05 549.14 89.05"/><polygon class="o" points="549.14 89.05 548.82 88.77 529.99 109.33 549.57 109.33 549.57 87.95 548.82 88.77 549.14 89.05 548.71 89.05 548.71 108.47 531.94 108.47 549.46 89.34 549.14 89.05 548.71 89.05 549.14 89.05 549.14 89.05"/><polygon class="o" points="357.31 69.69 321.4 108.9 362.68 108.9 398.59 69.69 357.31 69.69 357.31 69.69"/><polygon class="o" points="357.31 69.69 356.99 69.41 320.43 109.33 362.87 109.33 399.56 69.27 357.12 69.27 356.99 69.41 357.31 69.69 357.31 70.12 397.62 70.12 362.49 108.47 322.37 108.47 357.63 69.98 357.31 69.69 357.31 70.12 357.31 69.69 357.31 69.69"/><polygon class="o" points="439.88 69.69 403.97 108.9 445.25 108.9 481.16 69.69 439.88 69.69 439.88 69.69"/><polygon class="o" points="439.88 69.69 439.55 69.41 402.99 109.33 445.44 109.33 482.13 69.27 439.68 69.27 439.55 69.41 439.88 69.69 439.88 70.12 480.19 70.12 445.06 108.47 404.93 108.47 440.19 69.98 439.88 69.69 439.88 70.12 439.88 69.69 439.88 69.69"/><polygon class="o" points="398.59 69.69 362.68 108.9 403.97 108.9 439.88 69.69 398.59 69.69 398.59 69.69"/><polygon class="o" points="398.59 69.69 398.27 69.41 361.71 109.33 404.15 109.33 440.85 69.27 398.4 69.27 398.27 69.41 398.59 69.69 398.59 70.12 438.9 70.12 403.77 108.47 363.65 108.47 398.91 69.98 398.59 69.69 398.59 70.12 398.59 69.69 398.59 69.69"/><path class="o" d="M491.83,105.92h-43.27l-2.34,2.55h43.27l2.34-2.55h0Zm32.79-35.8h-43.27l-3.12,3.41h43.27l3.12-3.41h0Z"/><path class="o" d="M489.49,108.47h-43.27l-.39,.43h43.27l.39-.43h0Zm35.52-38.78h-43.27l-.39,.43h43.27l-3.12,3.41h0l3.51-3.84h0Z"/><path class="o" d="M533.12,105.92h-40.12l-2.34,2.55h40.12l2.34-2.55h0Zm15.6-35.8h-22.93l-3.12,3.41h18.03v24.12l3.88-4.23,4.15-4.53v-18.77h0Z"/><path class="o" d="M492.99,105.92h-1.16l-2.34,2.55-.39,.43h41.28l.39-.43h-40.12l2.34-2.55h0Zm55.72-36.22h0Zm.43,0h-24.13l-3.51,3.84h1.16l3.12-3.41h22.93v18.77l-4.15,4.53,4.26-4.65,.32-.35v-18.72h0Z"/><polygon class="o" points="548.71 90.16 540.69 98.92 540.69 105.92 534.28 105.92 531.94 108.47 548.71 108.47 548.71 90.16 548.71 90.16"/><path class="o" d="M548.71,89.05h0Zm.43-.64l-.32,.35-4.26,4.65-3.88,4.23v1.27l8.03-8.77v18.32h-16.78l2.34-2.55h-1.16l-2.34,2.55-.39,.43h18.76v-20.48h0Z"/><path class="o" d="M447.4,105.92h-40.12l-2.34,2.55h40.12l2.34-2.55h0Zm32.79-35.8h-40.12l-3.12,3.41h40.12l3.12-3.41h0Z"/><path class="o" d="M448.56,105.92h-1.16l-2.34,2.55h-40.12l-.39,.43h41.28l.39-.43,2.34-2.55h0Zm33.18-36.22h-41.28l-3.51,3.84h0l3.12-3.41h40.12l-3.12,3.41h1.16l3.12-3.41,.39-.43h0Z"/><path class="o" d="M356.34,70.12h-32.49c-.18,1.12-.38,2.26-.58,3.41h29.94l3.12-3.41h0Z"/><path class="o" d="M356.73,69.69h-32.81c-.02,.14-.05,.28-.07,.43h32.49l-3.12,3.41h0l3.51-3.84h0Z"/><polygon class="o" points="397.62 70.12 357.5 70.12 354.38 73.53 394.34 73.53 394.5 73.53 397.62 70.12 397.62 70.12"/><polygon class="o" points="398.01 69.69 357.31 69.69 356.73 69.69 353.22 73.53 354.21 73.53 354.38 73.53 357.5 70.12 397.62 70.12 394.5 73.53 394.5 73.53 398.01 69.69 398.01 69.69"/><path class="o" d="M406.12,105.92h-40.12l-2.34,2.55h40.12l2.34-2.55h0Zm32.79-35.8h-40.12l-3.12,3.41h40.12l3.12-3.41h0Z"/><path class="o" d="M407.28,105.92h-1.16l-2.34,2.55h-40.12l2.34-2.55h-1.16l-2.73,2.98h42.45l.39-.43,2.34-2.55h0Zm33.18-36.22h-42.45l-3.51,3.84h1.16l3.12-3.41h40.12l-3.12,3.41h1.16l3.51-3.84h0Z"/><path class="o" d="M185.51,105.92h-29.08l-2.34,2.55h28.24c.97-1.11,2.04-1.95,3.18-2.55h0Zm11.04,0h-.31c.07,.03,.15,.06,.22,.09l.09-.09h0Zm32.79-35.8h-40.12l-3.12,3.41h40.12l3.12-3.41h0Z"/><path class="o" d="M156.43,105.92h0l-2.73,2.98h28.28c.12-.15,.24-.29,.36-.43h-28.24l2.34-2.55h0Zm40.12,0h0l-.09,.09h0l.09-.09h0Zm33.18-36.22h-40.12l-3.51,3.84h0l3.12-3.41h40.12l-3.12,3.41h0l3.51-3.84h0Z"/><path class="o" d="M110.83,105.92h-40.12l-2.34,2.55h40.12l2.34-2.55h0Zm32.79-35.8h-40.12l-3.12,3.41h40.12l3.12-3.41h0Z"/><path class="o" d="M110.83,105.92h0l-2.34,2.55h-40.12l-.39,.43h40.12l2.73-2.98h0Zm33.18-36.22h-40.12l-3.51,3.84h0l3.12-3.41h40.12l-3.12,3.41h0l3.51-3.84h0Z"/><path class="o" d="M237.83,105.92h-40.12l-.42,.46c1.21,.58,2.39,1.29,3.52,2.09h34.68l2.34-2.55h0Zm30.06-35.8h-37.39l-3.12,3.41h39.76c.25-1.15,.5-2.29,.75-3.41h0Z"/><path class="o" d="M197.71,105.92h-1.16l-.09,.09c.28,.12,.55,.24,.82,.37l.42-.46h0Zm40.12,0h0l-2.34,2.55h-34.68c.2,.14,.39,.28,.58,.43h33.71l2.73-2.98h0Zm30.15-36.22h-38.26l-3.51,3.84h1.16l3.12-3.41h37.39c.03-.14,.06-.28,.09-.43h0Z"/><path class="o" d="M7.31,85l-6.45,7.04v16.43H25.92l2.34-2.55H7.31v-20.92h0Zm53.74-14.88H20.93l-3.12,3.41H57.93l3.12-3.41h0Z"/><path class="o" d="M.86,92.04l-.43,.47v16.39H25.53l.39-.43H.86v-16.43H.86Zm60.58-22.34H21.32l-3.51,3.84h0l3.12-3.41H61.06l-3.12,3.41h0l3.51-3.84h0Z"/><polygon class="o" points="19.77 70.12 .86 70.12 .86 90.77 7.31 83.72 7.31 73.53 16.65 73.53 19.77 70.12 19.77 70.12"/><polygon class="o" points="21.32 69.69 20.74 69.69 .43 69.69 .43 91.87 .43 92.51 .86 92.04 7.31 85 7.31 83.72 .86 90.77 .86 70.12 19.77 70.12 16.65 73.53 17.81 73.53 21.32 69.69 21.32 69.69"/><path class="o" d="M69.55,105.92H29.43l-2.34,2.55h40.12l2.34-2.55h0Zm32.79-35.8H62.22l-3.12,3.41h40.12l3.12-3.41h0Z"/><path class="o" d="M70.71,105.92h-1.16l-2.34,2.55H27.09l2.34-2.55h-1.16l-2.34,2.55-.39,.43h42.44l.39-.43,2.34-2.55h0Zm33.18-36.22H61.45l-3.51,3.84h1.16l3.12-3.41h40.12l-3.12,3.41h1.16l3.51-3.84h0Z"/><path class="o" d="M155.27,105.92h-43.27l-2.34,2.55h43.27l2.34-2.55h0Zm32.79-35.8h-43.27l-3.12,3.41h43.27l3.12-3.41h0Z"/><path class="o" d="M156.43,105.92h-1.16l-2.34,2.55h-43.27l2.34-2.55h-1.16l-2.73,2.98h45.6l2.73-2.98h0Zm33.18-36.22h-45.6l-3.51,3.84h1.16l3.12-3.41h43.27l-3.12,3.41h1.16l3.51-3.84h0Z"/><polygon class="o" points="517.47 77.93 474.19 77.93 471.57 80.8 516.59 78.89 517.47 77.93 517.47 77.93"/><polygon class="o" points="517.47 77.93 517.47 77.93 516.59 78.89 516.59 78.89 517.47 77.93 517.47 77.93"/><polygon class="o" points="539.11 77.93 518.63 77.93 517.8 78.84 539.11 77.93 539.11 77.93"/><polygon class="o" points="518.63 77.93 517.47 77.93 516.59 78.89 517.8 78.84 518.63 77.93 518.63 77.93"/><polygon class="o" points="473.03 77.93 432.91 77.93 428.62 82.62 470.36 80.85 473.03 77.93 473.03 77.93"/><path class="o" d="M432.91,77.93h0l-4.29,4.69h0l4.29-4.69h0Zm41.28,0h-1.16l-2.67,2.92,1.21-.05,2.62-2.86h0Z"/><path class="o" d="M349.18,77.93h-26.74c-.66,3.13-1.45,6.23-2.36,9.29l21.43-.91,7.68-8.38h0Z"/><polygon class="o" points="349.18 77.93 349.18 77.93 341.51 86.31 341.51 86.31 349.18 77.93 349.18 77.93"/><polygon class="o" points="390.46 77.93 350.34 77.93 342.72 86.26 384.46 84.49 390.46 77.93 390.46 77.93"/><path class="o" d="M350.34,77.93h-1.16l-7.68,8.38,1.21-.05,7.63-8.33h0Zm40.12,0h0l-6.01,6.56h0l6.01-6.56h0Z"/><polygon class="o" points="431.75 77.93 391.63 77.93 385.67 84.44 427.41 82.67 431.75 77.93 431.75 77.93"/><path class="o" d="M391.63,77.93h-1.16l-6.01,6.56,1.21-.05,5.96-6.51h0Zm41.28,0h-1.16l-4.34,4.74,1.21-.05,4.29-4.69h0Z"/><polygon class="o" points="222.18 77.93 182.06 77.93 167.63 93.69 209.37 91.92 222.18 77.93 222.18 77.93"/><path class="o" d="M182.06,77.93h0l-14.43,15.76h0l14.43-15.76h0Zm40.12,0h0l-12.81,13.99h0l12.81-13.99h0Z"/><polygon class="o" points="136.46 77.93 96.34 77.93 78.45 97.47 120.19 95.7 136.46 77.93 136.46 77.93"/><path class="o" d="M96.34,77.93h0l-17.89,19.54,17.89-19.54h0Zm40.12,0h0l-16.27,17.77h0l16.27-17.77h0Z"/><polygon class="o" points="263.47 77.93 223.35 77.93 210.58 91.87 252.32 90.09 263.47 77.93 263.47 77.93"/><path class="o" d="M223.35,77.93h-1.16l-12.81,13.99,1.21-.05,12.76-13.93h0Zm40.12,0h0l-11.14,12.16h0l11.14-12.16h0Z"/><polygon class="o" points="53.9 77.93 13.78 77.93 9.89 82.18 9.89 100.38 34.29 99.34 51.79 80.23 53.9 77.93 53.9 77.93"/><path class="o" d="M13.78,77.93h0l-3.89,4.24,3.89-4.24h0Zm40.12,0h0l-2.1,2.3,2.1-2.3h0Z"/><polygon class="o" points="12.62 77.93 9.89 77.93 9.89 80.91 12.62 77.93 12.62 77.93"/><polygon class="o" points="13.78 77.93 12.62 77.93 9.89 80.91 9.89 82.18 13.78 77.93 13.78 77.93"/><polygon class="o" points="95.18 77.93 55.06 77.93 35.5 99.29 77.24 97.52 95.18 77.93 95.18 77.93"/><path class="o" d="M55.06,77.93h-1.16l-2.1,2.3-17.5,19.11,1.21-.05,19.56-21.36h0Zm41.28,0h-1.16l-17.94,19.59,1.21-.05,17.89-19.54h0Z"/><path class="o" d="M266.16,77.93h-1.53l-11.09,12.11,9.92-.42c.93-3.94,1.84-7.87,2.7-11.69h0Z"/><polygon class="o" points="264.63 77.93 263.47 77.93 252.32 90.09 253.53 90.04 264.63 77.93 264.63 77.93"/><polygon class="o" points="180.9 77.93 137.63 77.93 121.4 95.65 166.42 93.74 180.9 77.93 180.9 77.93"/><path class="o" d="M137.63,77.93h-1.16l-16.27,17.77,1.21-.05,16.23-17.72h0Zm44.44,0h-1.16l-14.48,15.81,1.21-.05,14.43-15.76h0Z"/></g><g><polygon class="o" points="525.59 128.12 481.16 128.12 439.88 128.12 398.59 128.12 357.31 128.12 312.87 128.12 271.59 128.12 230.31 128.12 189.03 128.12 144.59 128.12 103.31 128.12 62.03 128.12 20.74 128.12 .43 128.12 .43 150.3 .43 167.33 26.12 167.33 67.4 167.33 108.68 167.33 153.12 167.33 194.4 167.33 235.68 167.33 276.96 167.33 321.4 167.33 362.68 167.33 403.97 167.33 445.25 167.33 489.68 167.33 530.96 167.33 549.14 167.33 549.14 147.48 549.14 128.12 525.59 128.12 525.59 128.12"/><polygon class="o" points="525.59 128.12 525.59 127.7 481.16 127.7 439.88 127.7 398.59 127.7 357.31 127.7 312.87 127.7 271.59 127.7 230.31 127.7 189.03 127.7 144.59 127.7 103.31 127.7 62.03 127.7 20.74 127.7 0 127.7 0 150.3 0 167.75 26.12 167.75 67.4 167.75 108.68 167.75 153.12 167.75 194.4 167.75 235.68 167.75 276.96 167.75 321.4 167.75 362.68 167.75 403.97 167.75 445.25 167.75 489.68 167.75 530.96 167.75 549.57 167.75 549.57 147.48 549.57 127.7 525.59 127.7 525.59 128.12 525.59 128.55 548.71 128.55 548.71 147.48 548.71 166.9 530.96 166.9 489.68 166.9 445.25 166.9 403.97 166.9 362.68 166.9 321.4 166.9 276.96 166.9 235.68 166.9 194.4 166.9 153.12 166.9 108.68 166.9 67.4 166.9 26.12 166.9 .86 166.9 .86 150.3 .86 128.55 20.74 128.55 62.03 128.55 103.31 128.55 144.59 128.55 189.03 128.55 230.31 128.55 271.59 128.55 312.87 128.55 357.31 128.55 398.59 128.55 439.88 128.55 481.16 128.55 525.59 128.55 525.59 128.12 525.59 128.12"/><polygon class="o" points="189.03 132.67 153.12 171.87 194.4 171.87 230.31 132.67 189.03 132.67 189.03 132.67"/><polygon class="o" points="189.03 132.67 188.71 132.38 152.15 172.3 194.59 172.3 231.28 132.24 188.84 132.24 188.71 132.38 189.03 132.67 189.03 133.09 229.34 133.09 194.21 171.45 154.09 171.45 189.35 132.95 189.03 132.67 189.03 133.09 189.03 132.67 189.03 132.67"/><polygon class="o" points="103.31 132.67 67.4 171.87 108.68 171.87 144.59 132.67 103.31 132.67 103.31 132.67"/><polygon class="o" points="103.31 132.67 102.99 132.38 66.43 172.3 108.87 172.3 145.56 132.24 103.12 132.24 102.99 132.38 103.31 132.67 103.31 133.09 143.62 133.09 108.49 171.45 68.37 171.45 103.63 132.95 103.31 132.67 103.31 133.09 103.31 132.67 103.31 132.67"/><polygon class="o" points="230.31 132.67 194.4 171.87 235.68 171.87 271.59 132.67 230.31 132.67 230.31 132.67"/><polygon class="o" points="230.31 132.67 229.99 132.38 193.43 172.3 235.87 172.3 272.56 132.24 230.12 132.24 229.99 132.38 230.31 132.67 230.31 133.09 270.62 133.09 235.49 171.45 195.37 171.45 230.63 132.95 230.31 132.67 230.31 133.09 230.31 132.67 230.31 132.67"/><polygon class="o" points="20.74 132.67 .43 154.84 .43 171.87 26.12 171.87 62.03 132.67 20.74 132.67 20.74 132.67"/><polygon class="o" points="20.74 132.67 20.43 132.38 0 154.68 0 172.3 26.31 172.3 63 132.24 20.55 132.24 20.43 132.38 20.74 132.67 20.74 133.09 61.06 133.09 25.92 171.45 .86 171.45 .86 155.01 21.06 132.95 20.74 132.67 20.74 133.09 20.74 132.67 20.74 132.67"/><polygon class="o" points=".43 132.67 .43 154.84 20.74 132.67 .43 132.67 .43 132.67"/><polygon class="o" points=".43 132.67 0 132.67 0 155.95 21.71 132.24 0 132.24 0 132.67 .43 132.67 .43 133.09 19.77 133.09 .86 153.74 .86 132.67 .43 132.67 .43 133.09 .43 132.67 .43 132.67"/><polygon class="o" points="62.03 132.67 26.12 171.87 67.4 171.87 103.31 132.67 62.03 132.67 62.03 132.67"/><polygon class="o" points="62.03 132.67 61.71 132.38 25.15 172.3 67.59 172.3 104.28 132.24 61.84 132.24 61.71 132.38 62.03 132.67 62.03 133.09 102.34 133.09 67.21 171.45 27.09 171.45 62.34 132.95 62.03 132.67 62.03 133.09 62.03 132.67 62.03 132.67"/><polygon class="o" points="271.59 132.67 235.68 171.87 276.96 171.87 312.87 132.67 271.59 132.67 271.59 132.67"/><polygon class="o" points="271.59 132.67 271.27 132.38 234.71 172.3 277.16 172.3 313.85 132.24 271.4 132.24 271.27 132.38 271.59 132.67 271.59 133.09 311.9 133.09 276.77 171.45 236.65 171.45 271.91 132.95 271.59 132.67 271.59 133.09 271.59 132.67 271.59 132.67"/><polygon class="o" points="144.59 132.67 108.68 171.87 153.12 171.87 189.03 132.67 144.59 132.67 144.59 132.67"/><polygon class="o" points="144.59 132.67 144.27 132.38 107.71 172.3 153.31 172.3 190 132.24 144.4 132.24 144.27 132.38 144.59 132.67 144.59 133.09 188.06 133.09 152.93 171.45 109.65 171.45 144.91 132.95 144.59 132.67 144.59 133.09 144.59 132.67 144.59 132.67"/><polygon class="o" points="481.16 132.67 445.25 171.87 489.68 171.87 525.59 132.67 481.16 132.67 481.16 132.67"/><polygon class="o" points="481.16 132.67 480.84 132.38 444.28 172.3 489.87 172.3 526.56 132.24 480.97 132.24 480.84 132.38 481.16 132.67 481.16 133.09 524.62 133.09 489.49 171.45 446.22 171.45 481.48 132.95 481.16 132.67 481.16 133.09 481.16 132.67 481.16 132.67"/><polygon class="o" points="549.14 132.67 525.59 132.67 489.68 171.87 530.96 171.87 549.14 152.03 549.14 132.67 549.14 132.67"/><polygon class="o" points="549.14 132.67 549.14 132.24 525.4 132.24 488.71 172.3 531.15 172.3 549.57 152.19 549.57 132.24 549.14 132.24 549.14 132.67 548.71 132.67 548.71 151.86 530.77 171.45 490.65 171.45 525.78 133.09 549.14 133.09 549.14 132.67 548.71 132.67 549.14 132.67 549.14 132.67"/><polygon class="o" points="312.87 132.67 276.96 171.87 321.4 171.87 357.31 132.67 312.87 132.67 312.87 132.67"/><polygon class="o" points="312.87 132.67 312.56 132.38 275.99 172.3 321.59 172.3 358.28 132.24 312.68 132.24 312.56 132.38 312.87 132.67 312.87 133.09 356.34 133.09 321.21 171.45 277.93 171.45 313.19 132.95 312.87 132.67 312.87 133.09 312.87 132.67 312.87 132.67"/><polygon class="o" points="549.14 152.03 530.96 171.87 549.14 171.87 549.14 152.03 549.14 152.03"/><polygon class="o" points="549.14 152.03 548.82 151.74 529.99 172.3 549.57 172.3 549.57 150.92 548.82 151.74 549.14 152.03 548.71 152.03 548.71 171.45 531.94 171.45 549.46 152.31 549.14 152.03 548.71 152.03 549.14 152.03 549.14 152.03"/><polygon class="o" points="357.31 132.67 321.4 171.87 362.68 171.87 398.59 132.67 357.31 132.67 357.31 132.67"/><polygon class="o" points="357.31 132.67 356.99 132.38 320.43 172.3 362.87 172.3 399.56 132.24 357.12 132.24 356.99 132.38 357.31 132.67 357.31 133.09 397.62 133.09 362.49 171.45 322.37 171.45 357.63 132.95 357.31 132.67 357.31 133.09 357.31 132.67 357.31 132.67"/><polygon class="o" points="439.88 132.67 403.97 171.87 445.25 171.87 481.16 132.67 439.88 132.67 439.88 132.67"/><polygon class="o" points="439.88 132.67 439.55 132.38 402.99 172.3 445.44 172.3 482.13 132.24 439.68 132.24 439.55 132.38 439.88 132.67 439.88 133.09 480.19 133.09 445.06 171.45 404.93 171.45 440.19 132.95 439.88 132.67 439.88 133.09 439.88 132.67 439.88 132.67"/><polygon class="o" points="398.59 132.67 362.68 171.87 403.97 171.87 439.88 132.67 398.59 132.67 398.59 132.67"/><polygon class="o" points="398.59 132.67 398.27 132.38 361.71 172.3 404.15 172.3 440.85 132.24 398.4 132.24 398.27 132.38 398.59 132.67 398.59 133.09 438.9 133.09 403.77 171.45 363.65 171.45 398.91 132.95 398.59 132.67 398.59 133.09 398.59 132.67 398.59 132.67"/><path class="o" d="M491.83,168.89h-43.27l-2.34,2.56h43.27l2.34-2.56h0Zm32.79-35.8h-43.27l-3.12,3.41h43.27l3.12-3.41h0Z"/><path class="o" d="M489.49,171.45h-43.27l-.39,.43h43.27l.39-.43h0Zm35.52-38.78h-43.27l-.39,.43h43.27l-3.12,3.41h0l3.51-3.84h0Z"/><path class="o" d="M533.12,168.89h-40.12l-2.34,2.56h40.12l2.34-2.56h0Zm15.6-35.8h-22.93l-3.12,3.41h18.03v24.12l3.88-4.23,4.15-4.53v-18.77h0Z"/><path class="o" d="M492.99,168.89h-1.16l-2.34,2.56-.39,.43h41.28l.39-.43h-40.12l2.34-2.56h0Zm55.72-36.22h0Zm.43,0h-24.13l-3.51,3.84h1.16l3.12-3.41h22.93v18.77l-4.15,4.53,4.26-4.65,.32-.34v-18.73h0Z"/><polygon class="o" points="548.71 153.13 540.69 161.89 540.69 168.89 534.28 168.89 531.94 171.45 548.71 171.45 548.71 153.13 548.71 153.13"/><path class="o" d="M548.71,152.03h0Zm.43-.63l-.32,.34-4.26,4.65-3.88,4.23v1.27l8.03-8.76v18.31h-16.78l2.34-2.56h-1.16l-2.34,2.56-.39,.43h18.76v-20.48h0Z"/><path class="o" d="M447.4,168.89h-40.12l-2.34,2.56h40.12l2.34-2.56h0Zm32.79-35.8h-40.12l-3.12,3.41h40.12l3.12-3.41h0Z"/><path class="o" d="M448.56,168.89h-1.16l-2.34,2.56h-40.12l-.39,.43h41.28l.39-.43,2.34-2.56h0Zm33.18-36.22h-41.28l-3.51,3.84h0l3.12-3.41h40.12l-3.12,3.41h1.16l3.12-3.41,.39-.43h0Z"/><path class="o" d="M356.34,133.09h-32.49c-.18,1.12-.38,2.26-.58,3.41h29.94l3.12-3.41h0Z"/><path class="o" d="M356.73,132.67h-32.81c-.02,.14-.05,.28-.07,.43h32.49l-3.12,3.41h0l3.51-3.84h0Z"/><polygon class="o" points="397.62 133.09 357.5 133.09 354.38 136.5 394.34 136.5 394.5 136.5 397.62 133.09 397.62 133.09"/><polygon class="o" points="398.01 132.67 357.31 132.67 356.73 132.67 353.22 136.5 354.21 136.5 354.38 136.5 357.5 133.09 397.62 133.09 394.5 136.5 394.5 136.5 398.01 132.67 398.01 132.67"/><path class="o" d="M406.12,168.89h-40.12l-2.34,2.56h40.12l2.34-2.56h0Zm32.79-35.8h-40.12l-3.12,3.41h40.12l3.12-3.41h0Z"/><path class="o" d="M407.28,168.89h-1.16l-2.34,2.56h-40.12l2.34-2.56h-1.16l-2.73,2.98h42.45l.39-.43,2.34-2.56h0Zm33.18-36.22h-42.45l-3.51,3.84h1.16l3.12-3.41h40.12l-3.12,3.41h1.16l3.51-3.84h0Z"/><path class="o" d="M185.51,168.89h-29.08l-2.34,2.56h28.24c.97-1.11,2.04-1.95,3.18-2.56h0Zm11.04,0h-.31c.07,.03,.15,.06,.22,.09l.09-.09h0Zm32.79-35.8h-40.12l-3.12,3.41h40.12l3.12-3.41h0Z"/><path class="o" d="M156.43,168.89h0l-2.73,2.98h28.28c.12-.15,.24-.29,.36-.43h-28.24l2.34-2.56h0Zm40.12,0h0l-.09,.09h0l.09-.09h0Zm33.18-36.22h-40.12l-3.51,3.84h0l3.12-3.41h40.12l-3.12,3.41h0l3.51-3.84h0Z"/><path class="o" d="M110.83,168.89h-40.12l-2.34,2.56h40.12l2.34-2.56h0Zm32.79-35.8h-40.12l-3.12,3.41h40.12l3.12-3.41h0Z"/><path class="o" d="M110.83,168.89h0l-2.34,2.56h-40.12l-.39,.43h40.12l2.73-2.98h0Zm33.18-36.22h-40.12l-3.51,3.84h0l3.12-3.41h40.12l-3.12,3.41h0l3.51-3.84h0Z"/><path class="o" d="M237.83,168.89h-40.12l-.42,.46c1.21,.58,2.39,1.29,3.52,2.1h34.68l2.34-2.56h0Zm30.06-35.8h-37.39l-3.12,3.41h39.76c.25-1.15,.5-2.29,.75-3.41h0Z"/><path class="o" d="M197.71,168.89h-1.16l-.09,.09c.28,.12,.55,.24,.82,.37l.42-.46h0Zm40.12,0h0l-2.34,2.56h-34.68c.2,.14,.39,.28,.58,.43h33.71l2.73-2.98h0Zm30.15-36.22h-38.26l-3.51,3.84h1.16l3.12-3.41h37.39c.03-.14,.06-.28,.09-.43h0Z"/><path class="o" d="M7.31,147.97l-6.45,7.04v16.43H25.92l2.34-2.56H7.31v-20.92h0Zm53.74-14.88H20.93l-3.12,3.41H57.93l3.12-3.41h0Z"/><path class="o" d="M.86,155.01l-.43,.47v16.39H25.53l.39-.43H.86v-16.43H.86Zm60.58-22.34H21.32l-3.51,3.84h0l3.12-3.41H61.06l-3.12,3.41h0l3.51-3.84h0Z"/><polygon class="o" points="19.77 133.09 .86 133.09 .86 153.74 7.31 146.7 7.31 136.5 16.65 136.5 19.77 133.09 19.77 133.09"/><polygon class="o" points="21.32 132.67 20.74 132.67 .43 132.67 .43 154.84 .43 155.48 .86 155.01 7.31 147.97 7.31 146.7 .86 153.74 .86 133.09 19.77 133.09 16.65 136.5 17.81 136.5 21.32 132.67 21.32 132.67"/><path class="o" d="M69.55,168.89H29.43l-2.34,2.56h40.12l2.34-2.56h0Zm32.79-35.8H62.22l-3.12,3.41h40.12l3.12-3.41h0Z"/><path class="o" d="M70.71,168.89h-1.16l-2.34,2.56H27.09l2.34-2.56h-1.16l-2.34,2.56-.39,.43h42.44l.39-.43,2.34-2.56h0Zm33.18-36.22H61.45l-3.51,3.84h1.16l3.12-3.41h40.12l-3.12,3.41h1.16l3.51-3.84h0Z"/><path class="o" d="M155.27,168.89h-43.27l-2.34,2.56h43.27l2.34-2.56h0Zm32.79-35.8h-43.27l-3.12,3.41h43.27l3.12-3.41h0Z"/><path class="o" d="M156.43,168.89h-1.16l-2.34,2.56h-43.27l2.34-2.56h-1.16l-2.73,2.98h45.6l2.73-2.98h0Zm33.18-36.22h-45.6l-3.51,3.84h1.16l3.12-3.41h43.27l-3.12,3.41h1.16l3.51-3.84h0Z"/><polygon class="o" points="517.47 140.91 474.19 140.91 471.57 143.77 516.59 141.86 517.47 140.91 517.47 140.91"/><polygon class="o" points="517.47 140.91 517.47 140.91 516.59 141.86 516.59 141.86 517.47 140.91 517.47 140.91"/><polygon class="o" points="539.11 140.91 518.63 140.91 517.8 141.81 539.11 140.91 539.11 140.91"/><polygon class="o" points="518.63 140.91 517.47 140.91 516.59 141.86 517.8 141.81 518.63 140.91 518.63 140.91"/><polygon class="o" points="473.03 140.91 432.91 140.91 428.62 145.59 470.36 143.82 473.03 140.91 473.03 140.91"/><path class="o" d="M432.91,140.91h0l-4.29,4.68h0l4.29-4.68h0Zm41.28,0h-1.16l-2.67,2.91,1.21-.05,2.62-2.86h0Z"/><path class="o" d="M349.18,140.91h-26.74c-.66,3.13-1.45,6.23-2.36,9.29l21.43-.91,7.68-8.38h0Z"/><polygon class="o" points="349.18 140.91 349.18 140.91 341.51 149.29 341.51 149.29 349.18 140.91 349.18 140.91"/><polygon class="o" points="390.46 140.91 350.34 140.91 342.72 149.24 384.46 147.46 390.46 140.91 390.46 140.91"/><path class="o" d="M350.34,140.91h-1.16l-7.68,8.38,1.21-.05,7.63-8.33h0Zm40.12,0h0l-6.01,6.56h0l6.01-6.56h0Z"/><polygon class="o" points="431.75 140.91 391.63 140.91 385.67 147.41 427.41 145.64 431.75 140.91 431.75 140.91"/><path class="o" d="M391.63,140.91h-1.16l-6.01,6.56,1.21-.05,5.96-6.5h0Zm41.28,0h-1.16l-4.34,4.73,1.21-.05,4.29-4.68h0Z"/><polygon class="o" points="222.18 140.91 182.06 140.91 167.63 156.66 209.37 154.89 222.18 140.91 222.18 140.91"/><path class="o" d="M182.06,140.91h0l-14.43,15.75h0l14.43-15.75h0Zm40.12,0h0l-12.81,13.98h0l12.81-13.98h0Z"/><polygon class="o" points="136.46 140.91 96.34 140.91 78.45 160.44 120.19 158.67 136.46 140.91 136.46 140.91"/><path class="o" d="M96.34,140.91h0l-17.89,19.53,17.89-19.53h0Zm40.12,0h0l-16.27,17.76h0l16.27-17.76h0Z"/><polygon class="o" points="263.47 140.91 223.35 140.91 210.58 154.84 252.32 153.07 263.47 140.91 263.47 140.91"/><path class="o" d="M223.35,140.91h-1.16l-12.81,13.98,1.21-.05,12.76-13.93h0Zm40.12,0h0l-11.14,12.16h0l11.14-12.16h0Z"/><polygon class="o" points="53.9 140.91 13.78 140.91 9.89 145.15 9.89 163.35 34.29 162.31 51.79 143.2 53.9 140.91 53.9 140.91"/><path class="o" d="M13.78,140.91h0l-3.89,4.24,3.89-4.24h0Zm40.12,0h0l-2.1,2.3,2.1-2.3h0Z"/><polygon class="o" points="12.62 140.91 9.89 140.91 9.89 143.88 12.62 140.91 12.62 140.91"/><polygon class="o" points="13.78 140.91 12.62 140.91 9.89 143.88 9.89 145.15 13.78 140.91 13.78 140.91"/><polygon class="o" points="95.18 140.91 55.06 140.91 35.5 162.27 77.24 160.5 95.18 140.91 95.18 140.91"/><path class="o" d="M55.06,140.91h-1.16l-2.1,2.3-17.5,19.11,1.21-.05,19.56-21.36h0Zm41.28,0h-1.16l-17.94,19.59,1.21-.05,17.89-19.53h0Z"/><path class="o" d="M266.16,140.91h-1.53l-11.09,12.11,9.92-.42c.93-3.95,1.84-7.87,2.7-11.69h0Z"/><polygon class="o" points="264.63 140.91 263.47 140.91 252.32 153.07 253.53 153.02 264.63 140.91 264.63 140.91"/><polygon class="o" points="180.9 140.91 137.63 140.91 121.4 158.62 166.42 156.71 180.9 140.91 180.9 140.91"/><path class="o" d="M137.63,140.91h-1.16l-16.27,17.76,1.21-.05,16.23-17.71h0Zm44.44,0h-1.16l-14.48,15.8,1.21-.05,14.43-15.75h0Z"/></g></g><polygon class="l" points="31.6 3.37 59.51 5.25 48.2 38.21 20.67 36.35 31.6 3.37"/><polygon class="l" points="107.87 4.85 135.77 6.73 124.46 39.69 96.93 37.84 107.87 4.85"/><polygon class="l" points="183.35 3.6 211.26 5.48 199.95 38.44 172.42 36.58 183.35 3.6"/><polygon class="l" points="337.76 6.41 365.66 8.29 354.35 41.25 326.82 39.39 337.76 6.41"/><polygon class="l" points="413.24 5.15 441.15 7.03 429.84 39.99 402.31 38.13 413.24 5.15"/><polygon class="l" points="490.78 6.2 518.69 8.08 507.38 41.04 479.85 39.19 490.78 6.2"/><polygon class="l" points="259.62 5.08 287.52 6.96 276.21 39.92 248.68 38.07 259.62 5.08"/><polygon class="l" points="25.39 70.36 53.3 72.24 41.98 105.2 14.45 103.34 25.39 70.36"/><polygon class="l" points="101.65 71.85 129.56 73.73 118.25 106.69 90.72 104.83 101.65 71.85"/><polygon class="l" points="177.14 70.59 205.05 72.47 193.73 105.43 166.2 103.57 177.14 70.59"/><polygon class="l" points="331.54 73.4 359.45 75.28 348.13 108.24 320.61 106.38 331.54 73.4"/><polygon class="l" points="407.03 72.14 434.94 74.02 423.62 106.98 396.09 105.13 407.03 72.14"/><polygon class="l" points="484.57 73.19 512.48 75.07 501.16 108.03 473.63 106.18 484.57 73.19"/><polygon class="l" points="253.4 72.08 281.31 73.96 270 106.92 242.47 105.06 253.4 72.08"/><polygon class="l" points="25.39 131.74 53.3 133.62 41.98 166.58 14.45 164.72 25.39 131.74"/><polygon class="l" points="101.65 133.22 129.56 135.1 118.25 168.06 90.72 166.21 101.65 133.22"/><polygon class="l" points="177.14 131.97 205.05 133.85 193.73 166.81 166.2 164.95 177.14 131.97"/><polygon class="l" points="331.54 134.77 359.45 136.65 348.13 169.61 320.61 167.76 331.54 134.77"/><polygon class="l" points="407.03 133.52 434.94 135.4 423.62 168.36 396.09 166.5 407.03 133.52"/><polygon class="l" points="484.57 134.57 512.48 136.45 501.16 169.41 473.63 167.55 484.57 134.57"/><polygon class="l" points="253.4 133.45 281.31 135.33 270 168.29 242.47 166.44 253.4 133.45"/></svg>