<?xml version="1.0" encoding="UTF-8"?><svg xmlns="http://www.w3.org/2000/svg" viewBox="0 0 915.52 439.39"><defs><style>.d{opacity:.18;}.e,.f,.g,.h,.i{fill:#000385;}.f{opacity:.5;}.g{opacity:.33;}.j{opacity:.52;}.k,.l,.i{opacity:.29;}.k,.m{fill:#658280;}.n{fill:#95a9a7;}.l,.o{fill:#b5c3c2;}.h{opacity:.4;}</style></defs><g id="a"/><g id="b"><g class="d"><g><g><rect class="o" x="250.09" y="315.24" width="40.4" height="77.59"/><rect class="o" x="256.69" y="365.79" width="27.2" height="32.6"/><rect class="o" x="262.74" y="383.83" width="15.09" height="18.08"/><polygon class="o" points="275.43 392.63 265.14 392.63 265.14 404.95 268.85 404.95 272.53 404.95 275.43 404.95 275.43 392.63"/><g><polygon class="o" points="269.61 397.99 268.49 397.99 268.49 410.32 268.9 410.32 269.29 410.32 269.61 410.32 269.61 397.99"/><polygon class="o" points="272.08 402.25 270.96 402.25 270.96 414.58 271.36 414.58 271.76 414.58 272.08 414.58 272.08 402.25"/></g><rect class="o" x="249.01" y="392.2" width="42.55" height=".83"/><rect class="o" x="255.69" y="397.99" width="29.18" height=".8"/><rect class="o" x="261.64" y="401.64" width="16.82" height=".61"/><rect class="l" x="259.19" y="393.65" width="1.26" height="3.42"/><rect class="l" x="262.69" y="393.65" width="1.26" height="3.42"/><rect class="l" x="266.18" y="393.65" width="1.26" height="3.42"/><rect class="l" x="269.68" y="393.65" width="1.26" height="3.42"/><rect class="l" x="273.18" y="393.65" width="1.26" height="3.42"/><rect class="l" x="276.68" y="393.65" width="1.26" height="3.42"/><rect class="l" x="280.18" y="393.65" width="1.26" height="3.42"/><rect class="o" x="253.63" y="385.68" width="3.06" height="4.05"/><rect class="l" x="259.68" y="385.68" width="3.06" height="4.05"/><rect class="o" x="265.73" y="385.68" width="3.06" height="4.05"/><rect class="o" x="271.78" y="385.68" width="3.06" height="4.05"/><rect class="o" x="277.83" y="385.68" width="3.05" height="4.05"/><rect class="o" x="283.88" y="385.68" width="3.05" height="4.05"/><rect class="o" x="253.63" y="379.36" width="3.06" height="4.05"/><rect class="o" x="259.68" y="379.36" width="3.06" height="4.05"/><rect class="o" x="265.73" y="379.36" width="3.06" height="4.05"/><rect class="l" x="271.78" y="379.36" width="3.06" height="4.05"/><rect class="o" x="277.83" y="379.36" width="3.05" height="4.05"/><rect class="o" x="283.88" y="379.36" width="3.05" height="4.05"/><rect class="o" x="253.63" y="373.05" width="3.06" height="4.05"/><rect class="o" x="259.68" y="373.05" width="3.06" height="4.05"/><rect class="o" x="265.73" y="373.05" width="3.06" height="4.05"/><rect class="o" x="271.78" y="373.05" width="3.06" height="4.05"/><rect class="l" x="277.83" y="373.05" width="3.05" height="4.05"/><rect class="l" x="283.88" y="373.05" width="3.05" height="4.05"/><rect class="l" x="253.63" y="366.73" width="3.06" height="4.05"/><rect class="o" x="259.68" y="366.73" width="3.06" height="4.05"/><rect class="o" x="265.73" y="366.73" width="3.06" height="4.05"/><rect class="o" x="271.78" y="366.73" width="3.06" height="4.05"/><rect class="o" x="277.83" y="366.73" width="3.05" height="4.05"/><rect class="o" x="283.88" y="366.73" width="3.05" height="4.05"/><rect class="o" x="253.63" y="360.41" width="3.06" height="4.05"/><rect class="l" x="259.68" y="360.41" width="3.06" height="4.05"/><rect class="o" x="265.73" y="360.41" width="3.06" height="4.05"/><rect class="l" x="271.78" y="360.41" width="3.06" height="4.05"/><rect class="o" x="277.83" y="360.41" width="3.05" height="4.05"/><rect class="o" x="283.88" y="360.41" width="3.05" height="4.05"/><rect class="o" x="253.63" y="354.09" width="3.06" height="4.05"/><rect class="o" x="259.68" y="354.09" width="3.06" height="4.05"/><rect class="o" x="265.73" y="354.09" width="3.06" height="4.05"/><rect class="o" x="271.78" y="354.09" width="3.06" height="4.05"/><rect class="o" x="277.83" y="354.09" width="3.05" height="4.05"/><rect class="l" x="283.88" y="354.09" width="3.05" height="4.05"/><rect class="o" x="253.63" y="347.77" width="3.06" height="4.05"/><rect class="l" x="259.68" y="347.77" width="3.06" height="4.05"/><rect class="l" x="265.73" y="347.77" width="3.06" height="4.05"/><rect class="o" x="271.78" y="347.77" width="3.06" height="4.05"/><rect class="o" x="277.83" y="347.77" width="3.05" height="4.05"/><rect class="o" x="283.88" y="347.77" width="3.05" height="4.05"/><rect class="o" x="253.63" y="341.46" width="3.06" height="4.05"/><rect class="o" x="259.68" y="341.46" width="3.06" height="4.05"/><rect class="o" x="265.73" y="341.46" width="3.06" height="4.05"/><rect class="o" x="271.78" y="341.46" width="3.06" height="4.05"/><rect class="l" x="277.83" y="341.46" width="3.05" height="4.05"/><rect class="o" x="283.88" y="341.46" width="3.05" height="4.05"/><rect class="o" x="253.63" y="335.14" width="3.06" height="4.05"/><rect class="l" x="259.68" y="335.14" width="3.06" height="4.05"/><rect class="o" x="265.73" y="335.14" width="3.06" height="4.05"/><rect class="o" x="271.78" y="335.14" width="3.06" height="4.05"/><rect class="o" x="277.83" y="335.14" width="3.05" height="4.05"/><rect class="o" x="283.88" y="335.14" width="3.05" height="4.05"/><rect class="o" x="253.63" y="328.82" width="3.06" height="4.05"/><rect class="o" x="259.68" y="328.82" width="3.06" height="4.05"/><rect class="o" x="265.73" y="328.82" width="3.06" height="4.05"/><rect class="l" x="271.78" y="328.82" width="3.06" height="4.05"/><rect class="o" x="277.83" y="328.82" width="3.05" height="4.05"/><rect class="l" x="283.88" y="328.82" width="3.05" height="4.05"/><rect class="l" x="253.63" y="322.5" width="3.06" height="4.05"/><rect class="o" x="259.68" y="322.5" width="3.06" height="4.05"/><rect class="l" x="265.73" y="322.5" width="3.06" height="4.05"/><rect class="o" x="271.78" y="322.5" width="3.06" height="4.05"/><rect class="o" x="277.83" y="322.5" width="3.05" height="4.05"/><rect class="o" x="283.88" y="322.5" width="3.05" height="4.05"/></g><g><rect class="o" x="132.76" y="324.52" width="64.94" height="65.36"/><rect class="o" x="130.91" y="389.15" width="68.63" height="1.85"/><rect class="o" x="134.94" y="384.58" width="60.58" height="8.78"/><rect class="o" x="139.58" y="387.36" width="23.99" height="9.59"/><polygon class="o" points="153.46 394.25 139.58 394.25 139.58 399.3 149.53 399.3 153.46 394.25"/><rect class="o" x="145.17" y="392.25" width="1.35" height="11.25"/><ellipse class="o" cx="145.84" cy="404.08" rx="1.21" ry=".58"/></g><polygon class="o" points="735.49 319.54 664.4 319.54 655.53 415.64 735.49 407.63 735.49 319.54"/><polygon class="o" points="425.34 374.42 425.34 406.55 414.19 406.55 414.19 415.15 410.21 415.15 410.21 427.78 388.26 427.78 388.26 437.05 386.31 437.05 386.31 427.78 382.01 427.78 382.01 439.39 380.06 439.39 380.06 427.78 366.19 427.78 366.19 406.55 359.02 406.55 359.02 374.42 352.88 374.42 352.88 315.9 429.66 315.9 429.66 374.42 425.34 374.42"/></g><rect class="o" x="41.99" y="310.99" width="849.37" height="9.75"/><polygon class="n" points="541.96 313.38 504.35 313.38 519 349.71 541.96 349.71 541.96 313.38"/><g><rect class="n" x="11.52" y="296.59" width="891.8" height="15.37"/><polygon class="n" points="511.14 380.62 511.14 396.72 499.06 396.72 499.06 402.85 492.6 402.85 492.6 408 490.33 408 490.33 416.83 489.75 416.83 489.75 408 487.48 408 487.48 402.85 481.02 402.85 481.02 396.72 469.03 396.72 469.03 380.62 466.54 380.62 466.54 351.38 447.96 351.38 447.96 318.06 466.54 318.06 485.12 318.06 513.54 318.06 513.54 380.62 511.14 380.62"/><polygon class="n" points="580.54 362.12 522.09 362.12 522.09 361.61 524.73 361.61 524.73 313.92 577.9 313.92 577.9 361.61 580.54 361.61 580.54 362.12"/><rect class="n" x="262.17" y="310.52" width="51.83" height="39.73"/><rect class="n" x="165.23" y="310.52" width="89.13" height="19.37"/><rect class="n" x="213" y="325.6" width="19.57" height="47.57"/><rect class="n" x="217.32" y="359.99" width="1.02" height="25.87"/><rect class="n" x="220.63" y="358.03" width="1.02" height="25.87"/><rect class="n" x="214.51" y="369.74" width="11.96" height="6.38"/><rect class="n" x="250.87" y="310.52" width="34.05" height="32.61"/><rect class="n" x="322.39" y="310.52" width="63.92" height="67.13"/><rect class="n" x="328.67" y="368.77" width="51.36" height="11.18"/><rect class="n" x="317.44" y="375.46" width="73.83" height=".78"/><rect class="n" x="310.81" y="310.52" width="30.12" height="33.9"/><rect class="n" x="95.09" y="310.52" width="34.56" height="35.19"/><g><rect class="n" x="106.27" y="310.52" width="68.87" height="44.75"/><rect class="n" x="102.25" y="355.27" width="74.66" height="1.72"/><rect class="n" x="109.32" y="352.57" width="30.26" height="9.07"/><rect class="n" x="149.47" y="356.13" width="5.08" height="5.52"/><rect class="n" x="159.64" y="356.13" width="5.59" height="5.52"/></g><rect class="n" x="76.28" y="310.52" width="36.09" height="13.61"/><rect class="n" x="62.66" y="310.52" width="17.09" height="19.37"/><rect class="n" x="41.99" y="310.52" width="29.2" height="6.8"/><rect class="n" x="380.03" y="310.52" width="359.85" height="15.08"/><path class="n" d="M715.47,365.26c0-1.15-1.94-2.09-4.32-2.09s-4.26,.9-4.32,2.03l-5.07,.08c-.26-3.41-1.88-6.7-4.74-9.72l4.65-1.04c.62,.79,2.2,1.35,4.05,1.35,2.39,0,4.32-.93,4.32-2.09s-1.94-2.09-4.32-2.09-4.32,.93-4.32,2.09c0,.18,.05,.35,.13,.51l-4.71,1.05c-2.6-2.68-6.17-5.14-10.62-7.29-.35-.17-.71-.34-1.07-.5l4.26-2.19c.7,.23,1.55,.37,2.46,.37,2.39,0,4.32-.93,4.32-2.09s-1.94-2.09-4.32-2.09-4.32,.93-4.32,2.09c0,.63,.57,1.19,1.48,1.57l-4.23,2.18c-3-1.35-6.26-2.51-9.74-3.47l26.07-23.19h4.68v-.66h2.29v-1.32h-119.14v1.32h2.29v.66h4.68l26.07,23.19c-4.03,1.12-7.78,2.5-11.16,4.13-.35,.17-.7,.34-1.04,.52l-3.31-1.5c.63-.36,1.01-.83,1.01-1.34,0-1.15-1.94-2.09-4.32-2.09s-4.32,.93-4.32,2.09,1.94,2.09,4.32,2.09c1.16,0,2.21-.22,2.99-.58l3.31,1.5c-4.81,2.5-8.49,5.38-10.9,8.5l-4.23-.75c.12-.19,.19-.4,.19-.61,0-1.15-1.94-2.09-4.32-2.09s-4.32,.93-4.32,2.09,1.94,2.09,4.32,2.09c1.78,0,3.3-.52,3.97-1.26l4.23,.75c-2.09,2.78-3.17,5.74-3.17,8.78,0,.24,0,.48,.02,.72l-5.15,.08c-.18-1.07-2.04-1.91-4.31-1.91-2.39,0-4.32,.93-4.32,2.09s1.94,2.09,4.32,2.09,4.26-.9,4.32-2.03l5.15-.08c.26,3.41,1.88,6.7,4.74,9.72l-3.99,.89c-.69-.71-2.18-1.21-3.92-1.21-2.39,0-4.32,.93-4.32,2.09s1.94,2.09,4.32,2.09,4.32-.93,4.32-2.09c0-.23-.08-.46-.23-.66l4.02-.89c2.6,2.68,6.17,5.14,10.62,7.29,.35,.17,.71,.34,1.07,.5l-3.15,1.62c-.76-.32-1.75-.51-2.84-.51-2.39,0-4.32,.93-4.32,2.09s1.94,2.09,4.32,2.09,4.32-.93,4.32-2.09c0-.54-.43-1.04-1.14-1.41l3.16-1.63c5.36,2.41,11.58,4.22,18.31,5.38l-1.74,2.39c-.38-.05-.78-.08-1.19-.08-2.39,0-4.32,.93-4.32,2.09s1.94,2.09,4.32,2.09,4.32-.93,4.32-2.09c0-.87-1.11-1.62-2.68-1.93l1.74-2.39c5.55,.93,11.45,1.41,17.5,1.41,.5,0,.99,0,1.49-.01l.2,2.94c-2.1,.14-3.71,1.01-3.71,2.06,0,1.15,1.94,2.09,4.32,2.09s4.32-.93,4.32-2.09-1.94-2.09-4.32-2.09c-.05,0-.09,0-.14,0l-.2-2.92c6.28-.11,12.37-.74,18.06-1.85l1.82,2.13c-1.51,.33-2.57,1.06-2.57,1.91,0,1.15,1.94,2.09,4.32,2.09s4.32-.93,4.32-2.09-1.94-2.09-4.32-2.09c-.46,0-.9,.03-1.31,.1l-1.82-2.14c6.35-1.28,12.19-3.15,17.2-5.57,.35-.17,.7-.34,1.04-.52l3.31,1.5c-.63,.36-1.01,.83-1.01,1.34,0,1.15,1.94,2.09,4.32,2.09s4.32-.93,4.32-2.09-1.94-2.09-4.32-2.09c-1.16,0-2.21,.22-2.99,.58l-3.31-1.5c4.81-2.5,8.49-5.38,10.9-8.5l4.23,.75c-.12,.19-.19,.4-.19,.61,0,1.15,1.94,2.09,4.32,2.09s4.32-.93,4.32-2.09-1.94-2.09-4.32-2.09c-1.78,0-3.3,.52-3.97,1.26l-4.23-.75c2.09-2.78,3.17-5.74,3.17-8.78,0-.24,0-.48-.02-.72l5.06-.08c.18,1.07,2.04,1.91,4.31,1.91,2.39,0,4.32-.93,4.32-2.09Zm-18.2,9.51l-14.03-2.49c1.42-1.89,2.19-3.92,2.19-6.05,0-.15,0-.31-.01-.46l14.92-.23c.01,.23,.02,.46,.02,.7,0,2.96-1.06,5.84-3.09,8.54Zm-12.56-8.54c0,2.08-.76,4.07-2.15,5.93l-31.25-5.55c.06-.1,.09-.2,.1-.3l33.28-.52c0,.15,.01,.3,.01,.45Zm-72.39,0c0-2.08,.76-4.07,2.15-5.93l31.25,5.55c-.06,.1-.09,.2-.1,.3l-33.28,.52c0-.15-.01-.3-.01-.45Zm38.83,.59l31.25,5.55c-1.67,2.13-4.17,4.07-7.32,5.71l-24.28-10.98c.14-.09,.26-.18,.36-.28Zm23.6,11.43c-3.43,1.74-7.6,3.15-12.26,4.09l-12.65-14.86c.23-.06,.44-.13,.63-.21l24.28,10.98Zm-12.71,4.18c-3.77,.73-7.84,1.17-12.11,1.25l-1.08-16.06c.19-.01,.37-.03,.54-.06l12.65,14.86Zm-12.59,1.26c-.31,0-.62,0-.94,0-4.13,0-8.1-.34-11.81-.95l11.07-15.15c.19,.02,.39,.04,.59,.04l1.08,16.06Zm-13.19-1.03c-4.6-.8-8.78-2.04-12.3-3.62l22.76-11.72c.19,.07,.39,.13,.62,.18l-11.07,15.15Zm-12.65-3.77c-3.24-1.49-5.92-3.26-7.85-5.23l30.23-6.73c.11,.09,.23,.17,.37,.25l-22.76,11.72Zm-8.05-5.44c-1.89-2-3.02-4.21-3.2-6.53l33.28-.52c.03,.11,.08,.22,.16,.32l-30.23,6.73Zm-.92-13.36c1.67-2.13,4.17-4.07,7.32-5.71l24.01,10.85,.2,.18c-.11,.07-.2,.15-.28,.23l-31.25-5.55Zm7.65-5.88c2.32-1.18,4.97-2.2,7.88-3.03l15.07,13.4-22.95-10.38Zm8.71-3.26c1.15-.31,2.33-.59,3.55-.83l12.65,14.86c-.11,.03-.22,.06-.32,.09l-15.88-14.12Zm3.99-.92c3.77-.73,7.85-1.17,12.11-1.25l1.08,16.06c-.19,.01-.37,.03-.54,.06l-12.65-14.86Zm25.33-.31l-11.07,15.15c-.19-.02-.39-.04-.59-.04l-1.08-16.06c.31,0,.62,0,.94,0,4.13,0,8.1,.34,11.81,.95Zm.45,.08c1.83,.32,3.58,.71,5.26,1.16l-15.88,14.12c-.14-.05-.29-.09-.45-.12l11.07-15.15Zm6.1,1.39c2.23,.64,4.31,1.39,6.21,2.23l-20.7,10.66,14.49-12.89Zm6.56,2.39c3.24,1.49,5.92,3.26,7.85,5.23l-30.23,6.73c-.05-.04-.11-.09-.17-.13l.6-.53,21.96-11.31Zm8.05,5.44c1.89,2,3.02,4.21,3.2,6.53l-33.28,.52c-.03-.11-.08-.22-.16-.32l30.23-6.73Zm-50.83-8.37l-7.13-6.34c1.65-.44,3.34-.83,5.07-1.18l5.68,6.67c-1.24,.25-2.45,.54-3.62,.85Zm-1.62-7.61c5.53-1.08,11.45-1.7,17.56-1.8l.49,7.2c-4.35,.08-8.52,.53-12.36,1.28l-5.68-6.67Zm18.04-1.81c.48,0,.96,0,1.44,0,5.88,0,11.62,.47,17.02,1.37l-4.97,6.8c-3.78-.63-7.83-.97-12.04-.97-.32,0-.64,0-.96,0l-.48-7.2Zm18.91,1.44c2.6,.45,5.11,.99,7.53,1.64l-7.13,6.34c-1.71-.46-3.5-.85-5.37-1.18l4.97-6.8Zm20.53,40.58l-10.91-4.93c3.22-1.68,5.77-3.65,7.47-5.82l14.03,2.49c-2.34,3.03-5.92,5.84-10.6,8.26Zm-18.07,6.09l-5.68-6.68c4.76-.96,9.01-2.39,12.51-4.17l10.91,4.93c-.33,.17-.67,.33-1.01,.5-4.88,2.35-10.55,4.18-16.73,5.42Zm-18,1.89l-.48-7.2c4.35-.08,8.52-.53,12.36-1.28l5.68,6.68c-5.53,1.08-11.45,1.7-17.56,1.8Zm-18.94-1.36l4.97-6.8c3.78,.63,7.83,.97,12.05,.97,.32,0,.64,0,.96,0l.49,7.2c-.48,0-.96,0-1.44,0-5.88,0-11.62-.47-17.02-1.37Zm-18.26-5.31l10.22-5.26c3.6,1.61,7.86,2.87,12.56,3.69l-4.97,6.8c-6.55-1.13-12.59-2.89-17.8-5.23Zm-11.72-7.74l13.58-3.02c1.97,2.02,4.7,3.82,8.01,5.34l-10.22,5.26c-.35-.16-.69-.32-1.04-.49-4.34-2.09-7.81-4.49-10.33-7.09Zm-4.82-9.67l14.92-.23c.19,2.37,1.34,4.62,3.27,6.67l-13.58,3.02c-2.79-2.94-4.36-6.14-4.61-9.46Zm3.05-9.47l14.03,2.49c-1.42,1.89-2.19,3.92-2.19,6.05,0,.15,0,.31,.01,.46l-14.92,.23c-.01-.23-.02-.46-.02-.7,0-2.96,1.06-5.84,3.09-8.54Zm10.76-8.48l10.91,4.93c-3.22,1.68-5.77,3.65-7.47,5.83l-14.03-2.49c2.34-3.03,5.92-5.84,10.6-8.26Zm12.16-4.68l7.14,6.35c-2.98,.85-5.69,1.89-8.06,3.1l-10.91-4.93c.33-.17,.67-.34,1.01-.5,3.28-1.58,6.92-2.92,10.82-4.01Zm51.52-.84c-2.48-.66-5.07-1.22-7.74-1.68l1.55-2.12c.44,.07,.9,.11,1.39,.11,2.39,0,4.32-.93,4.32-2.09s-1.94-2.09-4.32-2.09-4.32,.93-4.32,2.09c0,.84,1.02,1.56,2.49,1.89l-1.55,2.13c-5.55-.93-11.45-1.41-17.49-1.41-.5,0-1,0-1.49,.01l-.15-2.19c2.21-.09,3.94-.99,3.94-2.08,0-1.15-1.94-2.09-4.32-2.09s-4.32,.93-4.32,2.09,1.88,2.06,4.22,2.09l.15,2.19c-6.28,.11-12.37,.74-18.06,1.85l-1.82-2.13c1.51-.33,2.57-1.06,2.57-1.91,0-1.15-1.94-2.09-4.32-2.09s-4.32,.93-4.32,2.09,1.94,2.09,4.32,2.09c.46,0,.9-.03,1.31-.1l1.82,2.14c-1.78,.36-3.52,.76-5.21,1.21l-25.82-22.96h103.01l-25.82,22.96Zm9.59,4.21l-10.22,5.26c-1.94-.87-4.07-1.63-6.36-2.28l7.14-6.35c3.37,.94,6.53,2.06,9.44,3.37Zm11.72,7.74l-13.58,3.02c-1.97-2.02-4.7-3.82-8.01-5.34l10.22-5.26c.35,.16,.69,.32,1.04,.49,4.34,2.09,7.81,4.49,10.33,7.09Zm4.82,9.67l-14.92,.23c-.19-2.37-1.34-4.62-3.27-6.67l13.58-3.02c2.79,2.94,4.36,6.14,4.61,9.46Z"/><rect class="n" x="721.59" y="310.52" width="55.57" height="39.28"/><rect class="n" x="769.02" y="310.74" width="55.57" height="23.79"/><rect class="n" x="553.53" y="318.06" width="31.17" height="19.96"/><rect class="n" x="749.37" y="310.52" width="39.3" height="76.64"/><polygon class="n" points="853.39 310.52 801.55 310.52 801.55 355.27 840.85 355.27 853.39 310.52"/><rect class="n" x="830.69" y="310.52" width="45.4" height="10.22"/><rect class="n" x="778.51" y="382.34" width="1.36" height="20.83"/><rect class="n" x="783.08" y="377.87" width="1.36" height="20.83"/><rect class="n" x="774.36" y="375" width="1.36" height="20.83"/><rect class="n" x="803.58" y="351.84" width="18.55" height="7.05"/><rect class="n" x="805.62" y="357.44" width="14.49" height="3.96"/><rect class="n" x="829.5" y="353.98" width="3.56" height="2.85"/><rect class="n" x="834.32" y="353.98" width="5.08" height="5.44"/></g><g><g><rect class="m" x="553.37" y="296.59" width="47.12" height="73.28"/><rect class="m" x="549.85" y="368.69" width="54.16" height=".74"/><rect class="m" x="551.31" y="358.4" width="51.23" height=".74"/><rect class="m" x="551.31" y="348.43" width="51.23" height=".74"/><rect class="m" x="551.31" y="338.47" width="51.23" height=".74"/><rect class="m" x="551.31" y="328.5" width="51.23" height=".74"/><rect class="m" x="551.31" y="318.53" width="51.23" height=".74"/><rect class="m" x="551.31" y="308.56" width="51.23" height=".74"/><rect class="m" x="548.06" y="369.44" width="57.74" height="2.02"/><rect class="k" x="557.61" y="360.43" width="4.9" height="5.85"/><rect class="m" x="568.56" y="360.43" width="4.9" height="5.85"/><rect class="m" x="579.51" y="360.43" width="4.9" height="5.85"/><rect class="m" x="590.46" y="360.43" width="4.9" height="5.85"/><rect class="m" x="557.61" y="350.86" width="4.9" height="5.85"/><rect class="k" x="568.56" y="350.86" width="4.9" height="5.85"/><rect class="m" x="579.51" y="350.86" width="4.9" height="5.85"/><rect class="m" x="590.46" y="350.86" width="4.9" height="5.85"/><rect class="m" x="557.61" y="340.89" width="4.9" height="5.85"/><rect class="m" x="568.56" y="340.89" width="4.9" height="5.85"/><rect class="m" x="579.51" y="340.89" width="4.9" height="5.85"/><rect class="k" x="590.46" y="340.89" width="4.9" height="5.85"/><rect class="m" x="557.61" y="330.92" width="4.9" height="5.85"/><rect class="k" x="568.56" y="330.92" width="4.9" height="5.85"/><rect class="k" x="579.51" y="330.92" width="4.9" height="5.85"/><rect class="m" x="590.46" y="330.92" width="4.9" height="5.85"/><rect class="k" x="557.61" y="320.96" width="4.9" height="5.85"/><rect class="m" x="568.56" y="320.96" width="4.9" height="5.85"/><rect class="m" x="579.51" y="320.96" width="4.9" height="5.85"/><rect class="m" x="590.46" y="320.96" width="4.9" height="5.85"/><rect class="m" x="557.61" y="310.99" width="4.9" height="5.85"/><rect class="m" x="568.56" y="310.99" width="4.9" height="5.85"/><rect class="k" x="579.51" y="310.99" width="4.9" height="5.85"/><rect class="m" x="590.46" y="310.99" width="4.9" height="5.85"/><rect class="m" x="557.61" y="301.02" width="4.9" height="5.85"/><rect class="k" x="568.56" y="301.02" width="4.9" height="5.85"/><rect class="m" x="579.51" y="301.02" width="4.9" height="5.85"/><rect class="k" x="590.46" y="301.02" width="4.9" height="5.85"/><rect class="m" x="556.34" y="370.45" width="16.03" height="3.81"/><rect class="m" x="555.26" y="373.71" width="18.2" height=".65"/></g><g><polygon class="m" points="485.84 296.59 423.07 296.59 423.07 366.22 485.84 373.62 485.84 296.59"/><rect class="m" x="420.31" y="296.59" width="5.51" height="70.85"/><rect class="m" x="436" y="296.59" width="5.52" height="72.85"/><rect class="m" x="451.69" y="296.59" width="5.51" height="74.92"/><rect class="m" x="467.39" y="296.59" width="5.51" height="76.61"/><rect class="m" x="483.08" y="296.59" width="5.51" height="78.41"/><rect class="k" x="427.25" y="356.12" width="7.32" height="5.38"/><rect class="k" x="442.95" y="356.12" width="7.32" height="5.38"/><rect class="m" x="458.64" y="356.12" width="7.32" height="5.38"/><rect class="k" x="474.33" y="356.12" width="7.32" height="5.38"/><rect class="m" x="427.25" y="346.75" width="7.32" height="5.38"/><rect class="m" x="442.95" y="346.75" width="7.32" height="5.38"/><rect class="k" x="458.64" y="346.75" width="7.32" height="5.38"/><rect class="k" x="474.33" y="346.75" width="7.32" height="5.38"/><rect class="k" x="427.25" y="337.38" width="7.32" height="5.38"/><rect class="k" x="442.95" y="337.38" width="7.32" height="5.38"/><rect class="k" x="458.64" y="337.38" width="7.32" height="5.38"/><rect class="m" x="474.33" y="337.38" width="7.32" height="5.38"/><rect class="k" x="427.25" y="328.01" width="7.32" height="5.38"/><rect class="m" x="442.95" y="328.01" width="7.32" height="5.38"/><rect class="k" x="458.64" y="328.01" width="7.32" height="5.38"/><rect class="k" x="474.33" y="328.01" width="7.32" height="5.38"/><rect class="k" x="427.25" y="318.64" width="7.32" height="5.38"/><rect class="k" x="442.95" y="318.64" width="7.32" height="5.38"/><rect class="m" x="458.64" y="318.64" width="7.32" height="5.38"/><rect class="k" x="474.33" y="318.64" width="7.32" height="5.38"/><rect class="m" x="427.25" y="309.27" width="7.32" height="5.38"/><rect class="m" x="442.95" y="309.27" width="7.32" height="5.38"/><rect class="k" x="458.64" y="309.27" width="7.32" height="5.38"/><rect class="k" x="474.33" y="309.27" width="7.32" height="5.38"/><rect class="k" x="427.25" y="299.9" width="7.32" height="5.38"/><rect class="m" x="442.95" y="299.9" width="7.32" height="5.38"/><rect class="k" x="458.64" y="299.9" width="7.32" height="5.38"/><rect class="m" x="474.33" y="299.9" width="7.32" height="5.38"/></g><polygon class="m" points="244.02 362.88 244.02 362.16 242.52 362.16 242.52 360.1 268.79 360.1 268.79 296.59 225.69 296.59 225.69 356.78 225.69 360.1 225.69 362.16 224.13 362.16 224.13 362.88 244.02 362.88"/><rect class="m" x="317.44" y="296.59" width="36.92" height="37.44"/><g><rect class="m" x="156.54" y="296.59" width="30.01" height="46.03"/><rect class="m" x="180.6" y="296.59" width="32.7" height="36.44"/><rect class="m" x="167.34" y="338.96" width="13.27" height="5.51"/><rect class="m" x="182.85" y="332.28" width="34.86" height="1.35"/></g><rect class="m" x="209.79" y="296.59" width="36.66" height="20.81"/><rect class="m" x="91.3" y="296.59" width="29.82" height="37.73"/><rect class="m" x="65.42" y="296.59" width="39.23" height="18.93"/><rect class="m" x="22.22" y="296.59" width="24.54" height="22.02"/><rect class="m" x="41.99" y="296.59" width="58" height="6.9"/><rect class="m" x="0" y="296.59" width="29.73" height="9.13"/><rect class="m" x="121.12" y="296.59" width="46.21" height="13.93"/><rect class="m" x="256.69" y="296.59" width="71.99" height="6"/><rect class="m" x="384.32" y="296.59" width="71.99" height="6"/><polygon class="m" points="325.87 320.2 298.51 320.2 286.94 299.59 325.87 299.59 325.87 320.2"/><rect class="m" x="338.52" y="327.33" width=".76" height="22.87"/><rect class="m" x="342.33" y="328.97" width="1.02" height="13.49"/><rect class="m" x="336.88" y="333.39" width="13.84" height="6.68"/><rect class="m" x="334.54" y="339.99" width="18.33" height=".6"/><rect class="m" x="347.64" y="296.59" width="44.73" height="19.31"/><rect class="m" x="383.81" y="299.9" width="28.74" height="37.26"/><rect class="m" x="496.05" y="296.59" width="45.91" height="33.57"/><rect class="m" x="481.65" y="296.59" width="52.35" height="12.37"/><rect class="m" x="539.42" y="296.59" width="34.04" height="4.43"/><rect class="m" x="591.85" y="296.59" width="55.34" height="12.37"/><g><rect class="m" x="613.9" y="296.59" width="68.87" height="44.75" transform="translate(1296.66 637.94) rotate(180)"/><rect class="m" x="612.12" y="341.34" width="74.66" height="1.72" transform="translate(1298.9 684.4) rotate(180)"/><rect class="m" x="649.45" y="338.65" width="30.26" height="9.07" transform="translate(1329.16 686.37) rotate(180)"/><rect class="m" x="634.48" y="342.2" width="5.08" height="5.52" transform="translate(1274.04 689.92) rotate(180)"/><rect class="m" x="623.81" y="342.2" width="5.59" height="5.52" transform="translate(1253.2 689.92) rotate(180)"/></g><g><rect class="m" x="730.1" y="296.59" width="54.51" height="65.36" transform="translate(1514.72 658.54) rotate(180)"/><rect class="m" x="728.56" y="361.23" width="57.61" height="1.85" transform="translate(1514.72 724.3) rotate(180)"/><rect class="m" x="731.94" y="356.66" width="50.85" height="8.78" transform="translate(1514.72 722.1) rotate(180)"/><rect class="m" x="758.76" y="359.44" width="20.14" height="9.59" transform="translate(1537.65 728.47) rotate(180)"/><polygon class="m" points="767.24 366.33 778.89 366.33 778.89 371.38 770.54 371.38 767.24 366.33"/><rect class="m" x="773.07" y="364.32" width="1.13" height="11.25" transform="translate(1547.26 739.89) rotate(180)"/><path class="m" d="M772.62,376.15c0-.32,.45-.58,1.01-.58s1.01,.26,1.01,.58-.45,.58-1.01,.58-1.01-.26-1.01-.58Z"/></g><rect class="m" x="777.15" y="296.59" width="24.4" height="26.98"/><rect class="m" x="707.66" y="296.59" width="27.82" height="40.14"/><polygon class="m" points="721.59 296.59 682.4 296.59 682.4 318.06 715.47 310.99 721.59 296.59"/><rect class="m" x="793.54" y="296.59" width="59.85" height="11.66"/><rect class="m" x="831.28" y="296.59" width="34.77" height="46.54"/><rect class="m" x="857.92" y="296.59" width="57.6" height="8.69"/><rect class="m" x="829.5" y="342.46" width="38.14" height="1.53"/><rect class="m" x="860.63" y="341.17" width=".76" height="9.38"/><rect class="m" x="855.55" y="341.84" width=".76" height="7.52"/><polygon class="m" points="878.92 325.6 863.42 325.6 863.42 304.28 885.53 304.28 878.92 325.6"/></g></g></g><g id="c"><g><g><g><rect class="e" x="250.09" y="96.5" width="40.4" height="160.8"/><rect class="e" x="256.69" y="84.97" width="27.2" height="67.58"/><rect class="e" x="262.74" y="77.66" width="15.09" height="37.48"/><polygon class="e" points="275.43 96.92 265.14 96.92 265.14 71.37 268.85 71.37 272.53 71.37 275.43 71.37 275.43 96.92"/><g><polygon class="e" points="269.61 85.8 268.49 85.8 268.49 60.25 268.9 60.25 269.29 60.25 269.61 60.25 269.61 85.8"/><polygon class="e" points="272.08 76.97 270.96 76.97 270.96 51.42 271.36 51.42 271.76 51.42 272.08 51.42 272.08 76.97"/></g><rect class="e" x="249.01" y="96.09" width="42.55" height="1.71"/><rect class="e" x="255.69" y="84.15" width="29.18" height="1.65"/><rect class="e" x="261.64" y="76.97" width="16.82" height="1.26"/><rect class="i" x="259.19" y="87.71" width="1.26" height="7.08"/><rect class="i" x="262.69" y="87.71" width="1.26" height="7.08"/><rect class="i" x="266.18" y="87.71" width="1.26" height="7.08"/><rect class="i" x="269.68" y="87.71" width="1.26" height="7.08"/><rect class="i" x="273.18" y="87.71" width="1.26" height="7.08"/><rect class="i" x="276.68" y="87.71" width="1.26" height="7.08"/><rect class="i" x="280.18" y="87.71" width="1.26" height="7.08"/><rect class="e" x="253.63" y="102.91" width="3.06" height="8.4"/><rect class="i" x="259.68" y="102.91" width="3.06" height="8.4"/><rect class="e" x="265.73" y="102.91" width="3.06" height="8.4"/><rect class="e" x="271.78" y="102.91" width="3.06" height="8.4"/><rect class="e" x="277.83" y="102.91" width="3.05" height="8.4"/><rect class="e" x="283.88" y="102.91" width="3.05" height="8.4"/><rect class="e" x="253.63" y="116.01" width="3.06" height="8.4"/><rect class="e" x="259.68" y="116.01" width="3.06" height="8.4"/><rect class="e" x="265.73" y="116.01" width="3.06" height="8.4"/><rect class="i" x="271.78" y="116.01" width="3.06" height="8.4"/><rect class="e" x="277.83" y="116.01" width="3.05" height="8.4"/><rect class="e" x="283.88" y="116.01" width="3.05" height="8.4"/><rect class="e" x="253.63" y="129.1" width="3.06" height="8.4"/><rect class="e" x="259.68" y="129.1" width="3.06" height="8.4"/><rect class="e" x="265.73" y="129.1" width="3.06" height="8.4"/><rect class="e" x="271.78" y="129.1" width="3.06" height="8.4"/><rect class="i" x="277.83" y="129.1" width="3.05" height="8.4"/><rect class="i" x="283.88" y="129.1" width="3.05" height="8.4"/><rect class="i" x="253.63" y="142.19" width="3.06" height="8.4"/><rect class="e" x="259.68" y="142.19" width="3.06" height="8.4"/><rect class="e" x="265.73" y="142.19" width="3.06" height="8.4"/><rect class="e" x="271.78" y="142.19" width="3.06" height="8.4"/><rect class="e" x="277.83" y="142.19" width="3.05" height="8.4"/><rect class="e" x="283.88" y="142.19" width="3.05" height="8.4"/><rect class="e" x="253.63" y="155.29" width="3.06" height="8.4"/><rect class="i" x="259.68" y="155.29" width="3.06" height="8.4"/><rect class="e" x="265.73" y="155.29" width="3.06" height="8.4"/><rect class="i" x="271.78" y="155.29" width="3.06" height="8.4"/><rect class="e" x="277.83" y="155.29" width="3.05" height="8.4"/><rect class="e" x="283.88" y="155.29" width="3.05" height="8.4"/><rect class="e" x="253.63" y="168.38" width="3.06" height="8.4"/><rect class="e" x="259.68" y="168.38" width="3.06" height="8.4"/><rect class="e" x="265.73" y="168.38" width="3.06" height="8.4"/><rect class="e" x="271.78" y="168.38" width="3.06" height="8.4"/><rect class="e" x="277.83" y="168.38" width="3.05" height="8.4"/><rect class="i" x="283.88" y="168.38" width="3.05" height="8.4"/><rect class="e" x="253.63" y="181.48" width="3.06" height="8.4"/><rect class="i" x="259.68" y="181.48" width="3.06" height="8.4"/><rect class="i" x="265.73" y="181.48" width="3.06" height="8.4"/><rect class="e" x="271.78" y="181.48" width="3.06" height="8.4"/><rect class="e" x="277.83" y="181.48" width="3.05" height="8.4"/><rect class="e" x="283.88" y="181.48" width="3.05" height="8.4"/><rect class="e" x="253.63" y="194.57" width="3.06" height="8.4"/><rect class="e" x="259.68" y="194.57" width="3.06" height="8.4"/><rect class="e" x="265.73" y="194.57" width="3.06" height="8.4"/><rect class="e" x="271.78" y="194.57" width="3.06" height="8.4"/><rect class="i" x="277.83" y="194.57" width="3.05" height="8.4"/><rect class="e" x="283.88" y="194.57" width="3.05" height="8.4"/><rect class="e" x="253.63" y="207.67" width="3.06" height="8.4"/><rect class="i" x="259.68" y="207.67" width="3.06" height="8.4"/><rect class="e" x="265.73" y="207.67" width="3.06" height="8.4"/><rect class="e" x="271.78" y="207.67" width="3.06" height="8.4"/><rect class="e" x="277.83" y="207.67" width="3.05" height="8.4"/><rect class="e" x="283.88" y="207.67" width="3.05" height="8.4"/><rect class="e" x="253.63" y="220.76" width="3.06" height="8.4"/><rect class="e" x="259.68" y="220.76" width="3.06" height="8.4"/><rect class="e" x="265.73" y="220.76" width="3.06" height="8.4"/><rect class="i" x="271.78" y="220.76" width="3.06" height="8.4"/><rect class="e" x="277.83" y="220.76" width="3.05" height="8.4"/><rect class="i" x="283.88" y="220.76" width="3.05" height="8.4"/><rect class="i" x="253.63" y="233.86" width="3.06" height="8.4"/><rect class="e" x="259.68" y="233.86" width="3.06" height="8.4"/><rect class="i" x="265.73" y="233.86" width="3.06" height="8.4"/><rect class="e" x="271.78" y="233.86" width="3.06" height="8.4"/><rect class="e" x="277.83" y="233.86" width="3.05" height="8.4"/><rect class="e" x="283.88" y="233.86" width="3.05" height="8.4"/></g><g><rect class="e" x="132.76" y="102.62" width="64.94" height="135.46"/><rect class="e" x="130.91" y="100.29" width="68.63" height="3.83"/><rect class="e" x="134.94" y="95.39" width="60.58" height="18.2"/><rect class="e" x="139.58" y="87.94" width="23.99" height="19.88"/><polygon class="e" points="153.46 93.54 139.58 93.54 139.58 83.08 149.53 83.08 153.46 93.54"/><rect class="e" x="145.17" y="74.39" width="1.35" height="23.31"/><path class="e" d="M147.05,73.18c0,.67-.54,1.21-1.21,1.21s-1.21-.54-1.21-1.21,.54-1.21,1.21-1.21,1.21,.54,1.21,1.21Z"/></g><polygon class="e" points="735.49 248.39 664.4 248.39 655.53 49.22 735.49 65.82 735.49 248.39"/><polygon class="e" points="425.34 134.65 425.34 68.06 414.19 68.06 414.19 50.23 410.21 50.23 410.21 24.07 388.26 24.07 388.26 4.84 386.31 4.84 386.31 24.07 382.01 24.07 382.01 0 380.06 0 380.06 24.07 366.19 24.07 366.19 68.06 359.02 68.06 359.02 134.65 352.88 134.65 352.88 255.93 429.66 255.93 429.66 134.65 425.34 134.65"/></g><rect class="e" x="41.99" y="245.92" width="849.37" height="20.2"/><polygon class="e" points="541.96 261.17 504.35 261.17 519 185.86 541.96 185.86 541.96 261.17"/><g><rect class="e" x="11.52" y="264.11" width="891.8" height="31.85"/><polygon class="e" points="511.14 121.8 511.14 88.43 499.06 88.43 499.06 75.72 492.6 75.72 492.6 65.05 490.33 65.05 490.33 46.75 489.75 46.75 489.75 65.05 487.48 65.05 487.48 75.72 481.02 75.72 481.02 88.43 469.03 88.43 469.03 121.8 466.54 121.8 466.54 182.4 447.96 182.4 447.96 251.47 466.54 251.47 485.12 251.47 513.54 251.47 513.54 121.8 511.14 121.8"/><polygon class="e" points="580.54 160.14 522.09 160.14 522.09 161.2 524.73 161.2 524.73 260.04 577.9 260.04 577.9 161.2 580.54 161.2 580.54 160.14"/><rect class="e" x="262.17" y="184.76" width="51.83" height="82.34"/><rect class="e" x="165.23" y="226.95" width="89.13" height="40.15"/><rect class="e" x="213" y="137.24" width="19.57" height="98.6"/><rect class="e" x="217.32" y="110.94" width="1.02" height="53.62"/><rect class="e" x="220.63" y="115" width="1.02" height="53.62"/><rect class="e" x="214.51" y="131.14" width="11.96" height="13.21"/><rect class="e" x="250.87" y="199.5" width="34.05" height="67.6"/><rect class="e" x="322.39" y="127.97" width="63.92" height="139.13"/><rect class="e" x="328.67" y="123.18" width="51.36" height="23.17"/><rect class="e" x="317.44" y="130.88" width="73.83" height="1.63"/><rect class="e" x="310.81" y="196.83" width="30.12" height="70.26"/><rect class="e" x="95.09" y="194.16" width="34.56" height="72.93"/><g><rect class="e" x="106.27" y="174.34" width="68.87" height="92.75"/><rect class="e" x="102.25" y="170.78" width="74.66" height="3.56"/><rect class="e" x="109.32" y="161.13" width="30.26" height="18.81"/><rect class="e" x="149.47" y="161.13" width="5.08" height="11.44"/><rect class="e" x="159.64" y="161.13" width="5.59" height="11.44"/></g><rect class="e" x="76.28" y="238.89" width="36.09" height="28.21"/><rect class="e" x="62.66" y="226.95" width="17.09" height="40.15"/><rect class="e" x="41.99" y="252.99" width="29.2" height="14.1"/><rect class="e" x="380.03" y="235.84" width="359.85" height="31.26"/><path class="e" d="M711.15,149.32c-2.27,0-4.12,1.74-4.31,3.96l-5.06-.16c.01-.5,.02-.99,.02-1.49,0-6.3-1.09-12.44-3.17-18.19l4.23-1.56c.66,1.53,2.19,2.61,3.97,2.61,2.39,0,4.32-1.94,4.32-4.32s-1.94-4.32-4.32-4.32-4.32,1.94-4.32,4.32c0,.44,.07,.87,.19,1.27l-4.23,1.56c-2.41-6.46-6.09-12.44-10.9-17.61l3.31-3.1c.78,.74,1.83,1.2,2.99,1.2,2.39,0,4.32-1.94,4.32-4.32s-1.94-4.32-4.32-4.32-4.32,1.94-4.32,4.32c0,1.06,.38,2.03,1.01,2.78l-3.31,3.1c-.34-.36-.69-.72-1.04-1.07-5.01-5.01-10.85-8.9-17.2-11.55l1.82-4.43c.41,.13,.85,.2,1.31,.2,2.39,0,4.32-1.94,4.32-4.32s-1.94-4.32-4.32-4.32-4.32,1.94-4.32,4.32c0,1.76,1.05,3.28,2.57,3.95l-1.82,4.42c-5.69-2.3-11.78-3.62-18.06-3.84l.2-6.06s.09,0,.14,0c2.39,0,4.32-1.94,4.32-4.32s-1.94-4.32-4.32-4.32-4.32,1.94-4.32,4.32c0,2.18,1.61,3.98,3.71,4.28l-.2,6.09c-.5-.01-.99-.02-1.49-.02-6.05,0-11.94,1-17.5,2.93l-1.74-4.95c1.57-.65,2.68-2.19,2.68-4,0-2.39-1.94-4.32-4.32-4.32s-4.32,1.94-4.32,4.32,1.94,4.32,4.32,4.32c.41,0,.81-.06,1.19-.17l1.74,4.95c-6.73,2.4-12.95,6.17-18.31,11.15l-3.16-3.37c.71-.77,1.14-1.8,1.14-2.92,0-2.39-1.94-4.32-4.32-4.32s-4.32,1.94-4.32,4.32,1.94,4.32,4.32,4.32c1.09,0,2.08-.4,2.84-1.07l3.15,3.37c-.36,.34-.72,.69-1.07,1.04-4.46,4.46-8.03,9.57-10.62,15.12l-4.02-1.85c.15-.43,.23-.9,.23-1.38,0-2.39-1.94-4.32-4.32-4.32s-4.32,1.94-4.32,4.32,1.94,4.32,4.32,4.32c1.74,0,3.23-1.02,3.92-2.5l3.99,1.84c-2.87,6.27-4.49,13.09-4.74,20.16l-5.15-.17c-.06-2.33-1.97-4.2-4.32-4.2s-4.32,1.94-4.32,4.32,1.94,4.32,4.32,4.32,4.12-1.74,4.31-3.96l5.15,.17c-.01,.5-.02,.99-.02,1.49,0,6.3,1.09,12.44,3.17,18.19l-4.23,1.56c-.66-1.53-2.19-2.61-3.97-2.61-2.39,0-4.32,1.94-4.32,4.32s1.94,4.32,4.32,4.32,4.32-1.94,4.32-4.32c0-.44-.07-.87-.19-1.27l4.23-1.56c2.41,6.47,6.09,12.44,10.9,17.61l-3.31,3.1c-.78-.74-1.83-1.2-2.99-1.2-2.39,0-4.32,1.94-4.32,4.32s1.94,4.32,4.32,4.32,4.32-1.94,4.32-4.32c0-1.06-.38-2.03-1.01-2.78l3.31-3.1c.34,.36,.69,.72,1.04,1.07,3.38,3.38,7.13,6.24,11.16,8.56l-26.07,48.06h-4.68v1.37h-2.29v2.73h119.14v-2.73h-2.29v-1.37h-4.68l-26.07-48.06c3.47-2,6.74-4.41,9.74-7.19l4.23,4.51c-.91,.79-1.48,1.96-1.48,3.26,0,2.39,1.94,4.32,4.32,4.32s4.32-1.94,4.32-4.32-1.94-4.32-4.32-4.32c-.92,0-1.76,.29-2.46,.77l-4.26-4.54c.36-.34,.72-.69,1.07-1.04,4.46-4.46,8.03-9.57,10.62-15.12l4.71,2.17c-.09,.34-.13,.69-.13,1.06,0,2.39,1.94,4.32,4.32,4.32s4.32-1.94,4.32-4.32-1.94-4.32-4.32-4.32c-1.85,0-3.43,1.17-4.05,2.8l-4.65-2.15c2.87-6.27,4.49-13.09,4.74-20.16l5.07,.16c.06,2.33,1.97,4.21,4.32,4.21s4.32-1.94,4.32-4.32-1.94-4.32-4.32-4.32Zm-10.79,2.31c0,.48,0,.96-.02,1.44l-14.92-.48c0-.32,.01-.64,.01-.96,0-4.4-.77-8.62-2.19-12.53l14.03-5.17c2.03,5.6,3.09,11.57,3.09,17.7Zm-15.66,.94l-33.28-1.08c-.01-.22-.05-.43-.1-.63l31.25-11.51c1.39,3.84,2.15,7.97,2.15,12.28,0,.31,0,.62-.01,.94Zm-72.37-1.87l33.28,1.08c.01,.22,.05,.43,.1,.63l-31.25,11.51c-1.39-3.84-2.15-7.97-2.15-12.28,0-.31,0-.62,.01-.94Zm38.46-.87l24.28-22.76c3.15,3.4,5.66,7.41,7.32,11.83l-31.25,11.5c-.1-.21-.22-.4-.36-.58Zm-.33-.35c-.19-.17-.4-.32-.63-.43l12.65-30.8c4.66,1.96,8.83,4.86,12.26,8.48l-24.28,22.76Zm-1.07-.62c-.17-.06-.36-.09-.54-.12l1.08-33.28c4.27,.16,8.34,1.07,12.11,2.59l-12.65,30.8Zm-1.02-.13c-.2,.01-.4,.04-.59,.09l-11.07-31.4c3.7-1.28,7.67-1.98,11.81-1.98,.31,0,.62,0,.94,.01l-1.08,33.28Zm-1.04,.25c-.22,.1-.43,.23-.62,.37l-22.76-24.28c3.53-3.26,7.7-5.83,12.3-7.5l11.07,31.4Zm-.97,.7c-.14,.16-.27,.33-.37,.52l-30.23-13.95c1.93-4.09,4.6-7.77,7.85-10.85l22.76,24.29Zm-.58,.95c-.08,.21-.13,.43-.16,.66l-33.28-1.08c.19-4.81,1.31-9.38,3.2-13.54l30.23,13.95Zm.1,2.22c.08,.17,.17,.33,.28,.47l-.2,.36-24.01,22.5c-3.15-3.4-5.66-7.41-7.32-11.83l31.25-11.5Zm-.65,2.18l-15.07,27.78c-2.91-1.72-5.56-3.84-7.88-6.27l22.95-21.51Zm1.64-1.01c.1,.07,.21,.13,.32,.19l-12.65,30.8c-1.22-.51-2.4-1.09-3.55-1.73l15.88-29.27Zm.76,.37c.18,.06,.36,.09,.54,.12l-1.08,33.28c-4.27-.16-8.34-1.07-12.11-2.59l12.65-30.8Zm.88,33.42c-.31,0-.62,0-.94-.01l1.08-33.28c.2-.01,.4-.04,.59-.09l11.07,31.4c-3.7,1.28-7.67,1.98-11.81,1.98Zm1.19-33.54c.16-.07,.31-.16,.45-.25l15.88,29.27c-1.68,.93-3.44,1.73-5.26,2.39l-11.07-31.41Zm2.67,1.82l20.7,22.09c-1.89,1.75-3.97,3.3-6.21,4.62l-14.49-26.71Zm-.91-1.67l-.6-1.1c.06-.09,.12-.18,.17-.27l30.23,13.95c-1.93,4.09-4.6,7.77-7.85,10.85l-21.96-23.43Zm-.22-1.81c.08-.21,.13-.43,.16-.66l33.28,1.08c-.19,4.81-1.31,9.38-3.2,13.54l-30.23-13.95Zm-16.98,33.06l-5.68,13.83c-1.73-.72-3.42-1.54-5.07-2.45l7.13-13.15c1.17,.65,2.38,1.24,3.62,1.76Zm.44,.18c3.84,1.56,8.01,2.48,12.36,2.65l-.49,14.92c-6.11-.22-12.03-1.5-17.56-3.74l5.68-13.83Zm12.84,2.67c.32,0,.64,.01,.96,.01,4.22,0,8.27-.71,12.04-2.02l4.97,14.1c-5.4,1.87-11.13,2.84-17.02,2.84-.48,0-.96,0-1.44-.02l.48-14.92Zm13.46-2.17c1.86-.67,3.66-1.49,5.37-2.44l7.13,13.15c-2.42,1.33-4.93,2.47-7.53,3.39l-4.97-14.1Zm36.09-52.88l-14.03,5.17c-1.7-4.51-4.26-8.6-7.47-12.07l10.91-10.22c4.68,5.03,8.25,10.84,10.6,17.13Zm-11.93-18.51c.34,.34,.68,.69,1.01,1.04l-10.91,10.22c-3.5-3.69-7.76-6.65-12.51-8.65l5.68-13.83c6.18,2.57,11.86,6.36,16.73,11.23Zm-17.18-11.41l-5.68,13.83c-3.84-1.55-8.01-2.48-12.36-2.65l.48-14.92c6.11,.22,12.03,1.5,17.56,3.74Zm-19.48-3.77c.48,0,.96,0,1.44,.02l-.49,14.92c-.32,0-.64-.01-.96-.01-4.22,0-8.27,.71-12.05,2.02l-4.97-14.1c5.4-1.87,11.13-2.84,17.02-2.84Zm-17.47,3l4.97,14.1c-4.7,1.7-8.96,4.32-12.56,7.65l-10.22-10.91c5.21-4.85,11.26-8.51,17.8-10.85Zm-19.19,12.18c.34-.34,.69-.68,1.04-1.01l10.22,10.91c-3.31,3.14-6.04,6.9-8.01,11.07l-13.58-6.27c2.52-5.39,6-10.36,10.33-14.7Zm-10.54,15.14l13.58,6.27c-1.93,4.24-3.08,8.91-3.27,13.81l-14.92-.49c.25-6.87,1.83-13.5,4.61-19.6Zm-4.65,21.52c0-.48,0-.96,.02-1.44l14.92,.48c0,.32-.01,.64-.01,.96,0,4.4,.77,8.62,2.19,12.53l-14.03,5.17c-2.03-5.6-3.09-11.57-3.09-17.7Zm3.25,18.15l14.03-5.17c1.7,4.51,4.26,8.6,7.47,12.07l-10.91,10.22c-4.68-5.03-8.25-10.84-10.6-17.13Zm11.93,18.51c-.34-.34-.68-.69-1.01-1.04l10.91-10.22c2.37,2.49,5.08,4.66,8.06,6.41l-7.14,13.15c-3.91-2.25-7.55-5.04-10.82-8.31Zm88.16,57.64h-103.01l25.82-47.59c1.69,.93,3.43,1.77,5.21,2.51l-1.82,4.43c-.41-.13-.85-.2-1.31-.2-2.39,0-4.32,1.94-4.32,4.32s1.94,4.32,4.32,4.32,4.32-1.94,4.32-4.32c0-1.76-1.05-3.28-2.57-3.95l1.82-4.42c5.69,2.3,11.78,3.62,18.06,3.84l-.15,4.53c-2.34,.05-4.22,1.97-4.22,4.32s1.94,4.32,4.32,4.32,4.32-1.94,4.32-4.32c0-2.26-1.73-4.11-3.94-4.31l.15-4.54c.5,.01,.99,.02,1.49,.02,6.05,0,11.94-1,17.49-2.93l1.55,4.41c-1.47,.69-2.49,2.18-2.49,3.92,0,2.39,1.94,4.32,4.32,4.32s4.32-1.94,4.32-4.32-1.94-4.32-4.32-4.32c-.49,0-.95,.08-1.39,.23l-1.55-4.39c2.67-.95,5.25-2.12,7.74-3.49l25.82,47.59Zm-25.67-49.33l-7.14-13.15c2.29-1.35,4.42-2.94,6.36-4.73l10.22,10.91c-2.91,2.7-6.07,5.04-9.44,6.98Zm10.82-8.31c-.34,.34-.69,.68-1.04,1.01l-10.22-10.91c3.31-3.14,6.04-6.9,8.01-11.07l13.58,6.27c-2.52,5.39-6,10.36-10.33,14.7Zm10.54-15.14l-13.58-6.27c1.93-4.24,3.08-8.91,3.27-13.81l14.92,.48c-.25,6.87-1.83,13.5-4.61,19.6Z"/><rect class="e" x="721.59" y="185.68" width="55.57" height="81.42"/><rect class="e" x="769.02" y="217.33" width="55.57" height="49.3"/><rect class="e" x="553.53" y="210.09" width="31.17" height="41.38"/><rect class="e" x="749.37" y="108.25" width="39.3" height="158.85"/><polygon class="e" points="853.39 267.1 801.55 267.1 801.55 174.34 840.85 174.34 853.39 267.1"/><rect class="e" x="830.69" y="245.92" width="45.4" height="21.17"/><rect class="e" x="778.51" y="75.06" width="1.36" height="43.17"/><rect class="e" x="783.08" y="84.33" width="1.36" height="43.17"/><rect class="e" x="774.36" y="90.29" width="1.36" height="43.17"/><rect class="e" x="803.58" y="166.85" width="18.55" height="14.61"/><rect class="e" x="805.62" y="161.64" width="14.49" height="8.21"/><rect class="e" x="829.5" y="171.13" width="3.56" height="5.9"/><rect class="e" x="834.32" y="165.74" width="5.08" height="11.28"/></g><g><g><rect class="e" x="553.37" y="144.08" width="47.12" height="151.88"/><rect class="e" x="549.85" y="144.98" width="54.16" height="1.54"/><rect class="e" x="551.31" y="166.32" width="51.23" height="1.53"/><rect class="e" x="551.31" y="186.98" width="51.23" height="1.53"/><rect class="e" x="551.31" y="207.64" width="51.23" height="1.53"/><rect class="e" x="551.31" y="228.3" width="51.23" height="1.53"/><rect class="e" x="551.31" y="248.96" width="51.23" height="1.53"/><rect class="e" x="551.31" y="269.62" width="51.23" height="1.53"/><rect class="e" x="548.06" y="140.79" width="57.74" height="4.2"/><rect class="i" x="557.61" y="151.51" width="4.9" height="12.13"/><rect class="e" x="568.56" y="151.51" width="4.9" height="12.13"/><rect class="e" x="579.51" y="151.51" width="4.9" height="12.13"/><rect class="e" x="590.46" y="151.51" width="4.9" height="12.13"/><rect class="e" x="557.61" y="171.35" width="4.9" height="12.13"/><rect class="i" x="568.56" y="171.35" width="4.9" height="12.13"/><rect class="e" x="579.51" y="171.35" width="4.9" height="12.13"/><rect class="e" x="590.46" y="171.35" width="4.9" height="12.13"/><rect class="e" x="557.61" y="192.01" width="4.9" height="12.13"/><rect class="e" x="568.56" y="192.01" width="4.9" height="12.13"/><rect class="e" x="579.51" y="192.01" width="4.9" height="12.13"/><rect class="i" x="590.46" y="192.01" width="4.9" height="12.13"/><rect class="e" x="557.61" y="212.67" width="4.9" height="12.13"/><rect class="i" x="568.56" y="212.67" width="4.9" height="12.13"/><rect class="i" x="579.51" y="212.67" width="4.9" height="12.13"/><rect class="e" x="590.46" y="212.67" width="4.9" height="12.13"/><rect class="i" x="557.61" y="233.33" width="4.9" height="12.13"/><rect class="e" x="568.56" y="233.33" width="4.9" height="12.13"/><rect class="e" x="579.51" y="233.33" width="4.9" height="12.13"/><rect class="e" x="590.46" y="233.33" width="4.9" height="12.13"/><rect class="e" x="557.61" y="253.99" width="4.9" height="12.13"/><rect class="e" x="568.56" y="253.99" width="4.9" height="12.13"/><rect class="i" x="579.51" y="253.99" width="4.9" height="12.13"/><rect class="e" x="590.46" y="253.99" width="4.9" height="12.13"/><rect class="e" x="557.61" y="274.65" width="4.9" height="12.13"/><rect class="i" x="568.56" y="274.65" width="4.9" height="12.13"/><rect class="e" x="579.51" y="274.65" width="4.9" height="12.13"/><rect class="i" x="590.46" y="274.65" width="4.9" height="12.13"/><rect class="e" x="556.34" y="135" width="16.03" height="7.89"/><rect class="e" x="555.26" y="134.77" width="18.2" height="1.35"/></g><g><polygon class="e" points="485.84 295.96 423.07 295.96 423.07 151.65 485.84 136.3 485.84 295.96"/><rect class="e" x="420.31" y="149.12" width="5.51" height="146.85"/><rect class="e" x="436" y="144.98" width="5.52" height="150.98"/><rect class="e" x="451.69" y="140.68" width="5.51" height="155.28"/><rect class="e" x="467.39" y="137.18" width="5.51" height="158.78"/><rect class="e" x="483.08" y="133.45" width="5.51" height="162.51"/><rect class="i" x="427.25" y="161.44" width="7.32" height="11.15"/><rect class="i" x="442.95" y="161.44" width="7.32" height="11.15"/><rect class="e" x="458.64" y="161.44" width="7.32" height="11.15"/><rect class="i" x="474.33" y="161.44" width="7.32" height="11.15"/><rect class="e" x="427.25" y="180.86" width="7.32" height="11.15"/><rect class="e" x="442.95" y="180.86" width="7.32" height="11.15"/><rect class="i" x="458.64" y="180.86" width="7.32" height="11.15"/><rect class="i" x="474.33" y="180.86" width="7.32" height="11.15"/><rect class="i" x="427.25" y="200.28" width="7.32" height="11.15"/><rect class="i" x="442.95" y="200.28" width="7.32" height="11.15"/><rect class="i" x="458.64" y="200.28" width="7.32" height="11.15"/><rect class="e" x="474.33" y="200.28" width="7.32" height="11.15"/><rect class="i" x="427.25" y="219.69" width="7.32" height="11.15"/><rect class="e" x="442.95" y="219.69" width="7.32" height="11.15"/><rect class="i" x="458.64" y="219.69" width="7.32" height="11.15"/><rect class="i" x="474.33" y="219.69" width="7.32" height="11.15"/><rect class="i" x="427.25" y="239.11" width="7.32" height="11.15"/><rect class="i" x="442.95" y="239.11" width="7.32" height="11.15"/><rect class="e" x="458.64" y="239.11" width="7.32" height="11.15"/><rect class="i" x="474.33" y="239.11" width="7.32" height="11.15"/><rect class="e" x="427.25" y="258.53" width="7.32" height="11.15"/><rect class="e" x="442.95" y="258.53" width="7.32" height="11.15"/><rect class="i" x="458.64" y="258.53" width="7.32" height="11.15"/><rect class="i" x="474.33" y="258.53" width="7.32" height="11.15"/><rect class="i" x="427.25" y="277.95" width="7.32" height="11.15"/><rect class="e" x="442.95" y="277.95" width="7.32" height="11.15"/><rect class="i" x="458.64" y="277.95" width="7.32" height="11.15"/><rect class="e" x="474.33" y="277.95" width="7.32" height="11.15"/></g><polygon class="e" points="244.02 158.57 244.02 160.07 242.52 160.07 242.52 164.34 268.79 164.34 268.79 295.96 225.69 295.96 225.69 171.2 225.69 164.34 225.69 160.07 224.13 160.07 224.13 158.57 244.02 158.57"/><rect class="e" x="317.44" y="218.36" width="36.92" height="77.61"/><g><rect class="e" x="156.54" y="200.57" width="30.01" height="95.4"/><rect class="e" x="180.6" y="220.44" width="32.7" height="75.52"/><rect class="e" x="167.34" y="196.74" width="13.27" height="11.42"/><rect class="e" x="182.85" y="219.2" width="34.86" height="2.79"/></g><rect class="e" x="209.79" y="252.83" width="36.66" height="43.13"/><rect class="e" x="91.3" y="217.75" width="29.82" height="78.21"/><rect class="e" x="65.42" y="256.73" width="39.23" height="39.23"/><rect class="e" x="22.22" y="250.31" width="24.54" height="45.65"/><rect class="e" x="41.99" y="281.66" width="58" height="14.3"/><rect class="e" x="0" y="277.04" width="29.73" height="18.92"/><rect class="e" x="121.12" y="267.1" width="46.21" height="28.86"/><rect class="e" x="256.69" y="283.53" width="71.99" height="12.43"/><rect class="e" x="384.32" y="283.53" width="71.99" height="12.43"/><polygon class="e" points="325.87 247.02 298.51 247.02 286.94 289.74 325.87 289.74 325.87 247.02"/><rect class="e" x="338.52" y="184.86" width=".76" height="47.39"/><rect class="e" x="342.33" y="200.9" width="1.02" height="27.97"/><rect class="e" x="336.88" y="205.85" width="13.84" height="13.84"/><rect class="e" x="334.54" y="204.78" width="18.33" height="1.24"/><rect class="e" x="347.64" y="255.93" width="44.73" height="40.03"/><rect class="e" x="383.81" y="211.87" width="28.74" height="77.23"/><rect class="e" x="496.05" y="226.39" width="45.91" height="69.57"/><rect class="e" x="481.65" y="270.33" width="52.35" height="25.64"/><rect class="e" x="539.42" y="286.79" width="34.04" height="9.18"/><rect class="e" x="591.85" y="270.33" width="55.34" height="25.64"/><g><rect class="e" x="613.9" y="203.21" width="68.87" height="92.75" transform="translate(1296.66 499.17) rotate(180)"/><rect class="e" x="612.12" y="199.65" width="74.66" height="3.56" transform="translate(1298.9 402.85) rotate(180)"/><rect class="e" x="649.45" y="189.99" width="30.26" height="18.81" transform="translate(1329.16 398.79) rotate(180)"/><rect class="e" x="634.48" y="189.99" width="5.08" height="11.44" transform="translate(1274.04 391.42) rotate(180)"/><rect class="e" x="623.81" y="189.99" width="5.59" height="11.44" transform="translate(1253.2 391.42) rotate(180)"/></g><g><rect class="e" x="730.1" y="160.5" width="54.51" height="135.46" transform="translate(1514.72 456.46) rotate(180)"/><rect class="e" x="728.56" y="158.17" width="57.61" height="3.83" transform="translate(1514.72 320.16) rotate(180)"/><rect class="e" x="731.94" y="153.27" width="50.85" height="18.2" transform="translate(1514.72 324.73) rotate(180)"/><rect class="e" x="758.76" y="145.82" width="20.14" height="19.88" transform="translate(1537.65 311.52) rotate(180)"/><polygon class="e" points="767.24 151.42 778.89 151.42 778.89 140.96 770.54 140.96 767.24 151.42"/><rect class="e" x="773.07" y="132.27" width="1.13" height="23.31" transform="translate(1547.26 287.85) rotate(180)"/><path class="e" d="M772.62,131.06c0,.67,.45,1.21,1.01,1.21s1.01-.54,1.01-1.21-.45-1.21-1.01-1.21-1.01,.54-1.01,1.21Z"/></g><rect class="e" x="777.15" y="240.04" width="24.4" height="55.92"/><rect class="e" x="707.66" y="212.77" width="27.82" height="83.19"/><polygon class="e" points="721.59 295.96 682.4 295.96 682.4 251.47 715.47 266.12 721.59 295.96"/><rect class="e" x="793.54" y="271.8" width="59.85" height="24.16"/><rect class="e" x="831.28" y="199.5" width="34.77" height="96.46"/><rect class="e" x="857.92" y="277.95" width="57.6" height="18.01"/><rect class="e" x="829.5" y="197.73" width="38.14" height="3.16"/><rect class="e" x="860.63" y="184.12" width=".76" height="19.44"/><rect class="e" x="855.55" y="186.58" width=".76" height="15.59"/><polygon class="e" points="878.92 235.84 863.42 235.84 863.42 280.03 885.53 280.03 878.92 235.84"/></g></g><g><g class="j"><rect class="e" x="159.64" y="205.4" width="2.27" height="2.27"/><rect class="e" x="164.2" y="205.4" width="2.27" height="2.27"/><rect class="e" x="159.64" y="210.73" width="2.27" height="2.27"/><rect class="e" x="164.2" y="210.73" width="2.27" height="2.27"/><rect class="e" x="159.64" y="215.89" width="2.27" height="2.27"/><rect class="e" x="169.27" y="205.4" width="2.27" height="2.27"/></g><rect class="f" x="325.87" y="137.18" width="1.55" height="8.57"/><rect class="f" x="331.21" y="137.18" width="1.55" height="8.57"/><rect class="f" x="336.55" y="137.18" width="1.55" height="8.57"/><rect class="f" x="341.89" y="137.18" width="1.55" height="8.57"/><rect class="f" x="347.23" y="137.18" width="1.55" height="8.57"/><rect class="f" x="352.57" y="137.18" width="1.55" height="8.57"/><rect class="f" x="357.9" y="137.18" width="1.55" height="8.57"/><rect class="f" x="363.24" y="137.18" width="1.55" height="8.57"/><rect class="f" x="368.58" y="137.18" width="1.55" height="8.57"/><rect class="f" x="373.92" y="137.18" width="1.55" height="8.57"/><rect class="f" x="379.26" y="137.18" width="1.55" height="8.57"/><rect class="f" x="325.87" y="149.12" width="1.55" height="8.57"/><rect class="f" x="331.21" y="149.12" width="1.55" height="8.57"/><rect class="f" x="336.55" y="149.12" width="1.55" height="8.57"/><rect class="f" x="341.89" y="149.12" width="1.55" height="8.57"/><rect class="f" x="347.23" y="149.12" width="1.55" height="8.57"/><rect class="f" x="352.57" y="149.12" width="1.55" height="8.57"/><rect class="f" x="357.9" y="149.12" width="1.55" height="8.57"/><rect class="f" x="363.24" y="149.12" width="1.55" height="8.57"/><rect class="f" x="368.58" y="149.12" width="1.55" height="8.57"/><rect class="f" x="373.92" y="149.12" width="1.55" height="8.57"/><rect class="f" x="379.26" y="149.12" width="1.55" height="8.57"/><rect class="f" x="325.87" y="161.05" width="1.55" height="8.57"/><rect class="f" x="331.21" y="161.05" width="1.55" height="8.57"/><rect class="f" x="336.55" y="161.05" width="1.55" height="8.57"/><rect class="f" x="341.89" y="161.05" width="1.55" height="8.57"/><rect class="f" x="347.23" y="161.05" width="1.55" height="8.57"/><rect class="f" x="352.57" y="161.05" width="1.55" height="8.57"/><rect class="f" x="357.9" y="161.05" width="1.55" height="8.57"/><rect class="f" x="363.24" y="161.05" width="1.55" height="8.57"/><rect class="f" x="368.58" y="161.05" width="1.55" height="8.57"/><rect class="f" x="373.92" y="161.05" width="1.55" height="8.57"/><rect class="f" x="379.26" y="161.05" width="1.55" height="8.57"/><rect class="f" x="341.89" y="172.99" width="1.55" height="8.57"/><rect class="f" x="347.23" y="172.99" width="1.55" height="8.57"/><rect class="f" x="352.57" y="172.99" width="1.55" height="8.57"/><rect class="f" x="357.9" y="172.99" width="1.55" height="8.57"/><rect class="f" x="363.24" y="172.99" width="1.55" height="8.57"/><rect class="f" x="368.58" y="172.99" width="1.55" height="8.57"/><rect class="f" x="373.92" y="172.99" width="1.55" height="8.57"/><rect class="f" x="379.26" y="172.99" width="1.55" height="8.57"/><rect class="f" x="347.23" y="185.59" width="1.55" height="8.57"/><rect class="f" x="352.57" y="185.59" width="1.55" height="8.57"/><rect class="f" x="357.9" y="185.59" width="1.55" height="8.57"/><rect class="f" x="363.24" y="185.59" width="1.55" height="8.57"/><rect class="f" x="368.58" y="185.59" width="1.55" height="8.57"/><rect class="f" x="373.92" y="185.59" width="1.55" height="8.57"/><rect class="f" x="379.26" y="185.59" width="1.55" height="8.57"/><rect class="g" x="429.08" y="158.46" width="3.66" height="9.28"/><rect class="g" x="429.08" y="176.22" width="3.66" height="9.28"/><rect class="g" x="429.08" y="193.97" width="3.66" height="9.28"/><rect class="g" x="429.08" y="211.73" width="3.66" height="9.28"/><rect class="g" x="429.08" y="228.47" width="3.66" height="9.28"/><rect class="g" x="429.08" y="246.22" width="3.66" height="9.28"/><rect class="g" x="444.78" y="158.46" width="3.66" height="9.28"/><rect class="g" x="444.78" y="176.22" width="3.66" height="9.28"/><rect class="g" x="444.78" y="193.97" width="3.66" height="9.28"/><rect class="g" x="444.78" y="211.73" width="3.66" height="9.28"/><rect class="g" x="444.78" y="228.47" width="3.66" height="9.28"/><rect class="g" x="444.78" y="246.22" width="3.66" height="9.28"/><rect class="g" x="460.47" y="158.46" width="3.66" height="9.28"/><rect class="g" x="460.47" y="176.22" width="3.66" height="9.28"/><rect class="g" x="460.47" y="193.97" width="3.66" height="9.28"/><rect class="g" x="460.47" y="211.73" width="3.66" height="9.28"/><rect class="g" x="460.47" y="228.47" width="3.66" height="9.28"/><rect class="g" x="460.47" y="246.22" width="3.66" height="9.28"/><rect class="g" x="476.16" y="158.46" width="3.66" height="9.28"/><rect class="g" x="476.16" y="176.22" width="3.66" height="9.28"/><rect class="g" x="476.16" y="193.97" width="3.66" height="9.28"/><rect class="g" x="476.16" y="211.73" width="3.66" height="9.28"/><rect class="g" x="476.16" y="228.47" width="3.66" height="9.28"/><rect class="g" x="476.16" y="246.22" width="3.66" height="9.28"/><rect class="f" x="370.13" y="29.01" width="3.05" height="8.12"/><rect class="f" x="377.65" y="29.01" width="3.05" height="8.12"/><rect class="f" x="385.16" y="29.01" width="3.05" height="8.12"/><rect class="f" x="392.67" y="29.01" width="3.05" height="8.12"/><rect class="f" x="370.13" y="42.54" width="3.05" height="8.12"/><rect class="f" x="377.65" y="42.54" width="3.05" height="8.12"/><rect class="f" x="385.16" y="42.54" width="3.05" height="8.12"/><rect class="f" x="392.67" y="42.54" width="3.05" height="8.12"/><rect class="f" x="370.13" y="56.07" width="3.05" height="8.12"/><rect class="f" x="377.65" y="56.07" width="3.05" height="8.12"/><rect class="f" x="401.2" y="29.01" width="3.05" height="8.12"/><rect class="h" x="167.34" y="111.31" width="1.94" height="7.45"/><rect class="h" x="174.17" y="111.31" width="1.94" height="7.45"/><rect class="h" x="182.16" y="111.31" width="1.94" height="7.45"/><rect class="h" x="189" y="111.31" width="1.94" height="7.45"/><rect class="h" x="152.16" y="111.31" width="1.94" height="7.45"/><rect class="h" x="158.99" y="111.31" width="1.94" height="7.45"/><rect class="h" x="167.34" y="124.24" width="1.94" height="7.45"/><rect class="h" x="174.17" y="124.24" width="1.94" height="7.45"/><rect class="h" x="182.16" y="124.24" width="1.94" height="7.45"/><rect class="h" x="189" y="124.24" width="1.94" height="7.45"/><rect class="h" x="152.16" y="124.24" width="1.94" height="7.45"/><rect class="h" x="158.99" y="124.24" width="1.94" height="7.45"/><rect class="h" x="167.34" y="137.17" width="1.94" height="7.45"/><rect class="h" x="174.17" y="137.17" width="1.94" height="7.45"/><rect class="h" x="182.16" y="137.17" width="1.94" height="7.45"/><rect class="h" x="189" y="137.17" width="1.94" height="7.45"/><rect class="h" x="152.16" y="137.17" width="1.94" height="7.45"/><rect class="h" x="158.99" y="137.17" width="1.94" height="7.45"/><rect class="f" x="528.74" y="168.38" width="3" height="11.55"/><rect class="f" x="537.92" y="168.38" width="3" height="11.55"/><rect class="f" x="546.56" y="168.38" width="3" height="11.55"/><rect class="g" x="735.49" y="170.78" width="2.28" height="6.49"/><rect class="g" x="742.63" y="170.78" width="2.28" height="6.49"/><rect class="g" x="735.49" y="170.78" width="2.28" height="6.49"/><rect class="g" x="742.63" y="170.78" width="2.28" height="6.49"/><rect class="g" x="749.37" y="170.78" width="2.28" height="6.49"/><rect class="g" x="756.51" y="170.78" width="2.28" height="6.49"/><rect class="g" x="735.49" y="182.43" width="2.28" height="6.49"/><rect class="g" x="742.63" y="182.43" width="2.28" height="6.49"/><rect class="g" x="735.49" y="182.43" width="2.28" height="6.49"/><rect class="g" x="742.63" y="182.43" width="2.28" height="6.49"/><rect class="g" x="749.37" y="182.43" width="2.28" height="6.49"/><rect class="g" x="756.51" y="182.43" width="2.28" height="6.49"/><rect class="g" x="735.49" y="194.83" width="2.28" height="6.49"/><rect class="g" x="742.63" y="194.83" width="2.28" height="6.49"/><rect class="g" x="735.49" y="194.83" width="2.28" height="6.49"/><rect class="g" x="742.63" y="194.83" width="2.28" height="6.49"/><rect class="g" x="749.37" y="194.83" width="2.28" height="6.49"/><rect class="g" x="756.51" y="194.83" width="2.28" height="6.49"/><rect class="g" x="764.31" y="170.78" width="2.28" height="6.49"/><rect class="g" x="764.31" y="182.43" width="2.28" height="6.49"/><rect class="g" x="771.45" y="170.78" width="2.28" height="6.49"/><rect class="g" x="557.61" y="151.51" width="2.45" height="10.13"/><rect class="g" x="569.79" y="151.51" width="2.45" height="10.13"/><rect class="g" x="581.96" y="151.51" width="2.45" height="10.13"/><rect class="g" x="594.13" y="151.51" width="2.45" height="10.13"/><rect class="g" x="557.61" y="172.35" width="2.45" height="10.13"/><rect class="g" x="569.79" y="172.35" width="2.45" height="10.13"/><rect class="g" x="581.96" y="172.35" width="2.45" height="10.13"/><rect class="g" x="594.13" y="172.35" width="2.45" height="10.13"/><rect class="g" x="557.61" y="193.71" width="2.45" height="10.13"/><rect class="g" x="569.79" y="193.71" width="2.45" height="10.13"/><rect class="g" x="581.96" y="193.71" width="2.45" height="10.13"/><rect class="g" x="594.13" y="193.71" width="2.45" height="10.13"/><rect class="g" x="557.61" y="215.07" width="2.45" height="10.13"/><rect class="g" x="569.79" y="215.07" width="2.45" height="10.13"/><rect class="g" x="581.96" y="215.07" width="2.45" height="10.13"/><rect class="g" x="594.13" y="215.07" width="2.45" height="10.13"/><rect class="g" x="557.61" y="234.47" width="2.45" height="10.13"/><rect class="g" x="569.79" y="234.47" width="2.45" height="10.13"/><rect class="g" x="581.96" y="234.47" width="2.45" height="10.13"/><rect class="g" x="557.61" y="256.11" width="2.45" height="10.13"/><rect class="g" x="569.79" y="256.11" width="2.45" height="10.13"/><rect class="g" x="581.96" y="256.11" width="2.45" height="10.13"/><rect class="g" x="594.13" y="234.47" width="2.45" height="10.13"/><rect class="g" x="834.36" y="205.04" width="2.5" height="5.81"/><rect class="g" x="834.36" y="214.43" width="2.5" height="5.81"/><rect class="g" x="840.78" y="205.04" width="2.5" height="5.81"/></g></g></svg>