<?xml version="1.0" encoding="UTF-8"?><svg id="a" xmlns="http://www.w3.org/2000/svg" viewBox="0 0 45.5 45.5"><defs><style>.b{fill:#fff;}.c{stroke:#fff;stroke-width:8px;}.c,.d{fill:none;stroke-miterlimit:10;}.d{stroke:#000;stroke-width:2px;}.e{fill:#2f4899;}</style></defs><circle class="c" cx="22.62" cy="22.54" r="17.96"/><rect class="e" x="19.32" y="25.36" width=".03" height=".04"/><rect class="e" x="19.32" y="18.59" width=".03" height=".04"/><rect class="e" x="26.11" y="25.36" width=".03" height=".04"/><rect class="e" x="26.11" y="18.59" width=".03" height=".04"/><g><path class="b" d="M19.32,25.36v.04h.03v-.04h-.03Zm0-6.77v.04h.03v-.04h-.03Zm3.28,17.84c-1.12,0-2.21-.13-3.25-.38h0v2.56h.05v.04h6.67v-.04h.04v-2.62c-1.12,.29-2.3,.44-3.51,.44Zm3.47-31.05v-.05c-2.23,0-4.45,0-6.67,0v.04h-.04v3.6c1.04-.25,2.13-.38,3.25-.38,1.21,0,2.39,.15,3.51,.44v-3.66h-.05Zm.04,19.98v.04h.03v-.04h-.03Zm0-6.77v.04h.03v-.04h-.03Z"/><polygon points="19.35 5.34 19.39 5.34 19.39 5.38 19.35 5.34"/><path d="M26.07,5.34h-6.67V1.83c1.08-.17,2.2-.26,3.34-.26s2.25,.09,3.33,.26v3.51Z"/><polygon points="26.07 5.38 26.07 5.34 26.11 5.34 26.07 5.38"/><polygon points="19.39 38.61 19.39 38.65 19.35 38.65 19.39 38.61"/><path d="M19.39,38.65h6.67v4.75c-1.08,.17-2.2,.26-3.33,.26s-2.26-.09-3.34-.26v-4.75Z"/><polygon points="26.11 38.65 26.07 38.65 26.07 38.61 26.11 38.65"/><polygon points="26.14 18.59 26.14 18.63 26.11 18.63 26.14 18.59"/><polygon points="26.11 25.36 26.14 25.36 26.14 25.4 26.11 25.36"/><polygon points="19.32 25.36 19.35 25.36 19.32 25.4 19.32 25.36"/><polygon points="19.35 18.63 19.32 18.63 19.32 18.59 19.35 18.63"/><path d="M12.52,4.21v.97h-1.58c.51-.34,1.04-.67,1.58-.97Z"/><path d="M34.48,5.15h-1.59v-.97c.55,.3,1.08,.62,1.59,.97Z"/><polygon points="19.32 18.59 19.35 18.59 19.35 18.63 19.32 18.59"/><polygon points="26.14 18.59 26.11 18.63 26.11 18.59 26.14 18.59"/><path d="M5.77,18.55v6.88H1.88c-.13-.92-.19-1.87-.19-2.82,0-1.39,.13-2.74,.4-4.06h3.68Z"/><polygon points="19.32 25.4 19.35 25.36 19.35 25.4 19.32 25.4"/><polygon points="26.14 25.4 26.11 25.4 26.11 25.36 26.14 25.4"/><path d="M12.62,41.08c-1.16-.64-2.26-1.38-3.28-2.23h3.27c0,.75,0,1.5,0,2.23Z"/><path d="M43.39,18.58c.26,1.3,.39,2.65,.39,4.03,0,.95-.07,1.9-.19,2.82h-3.88v-6.85h3.68Z"/><path d="M36.17,38.81c-1.01,.84-2.08,1.58-3.23,2.22v-2.22h3.23Z"/><path d="M12.8,5.38h6.55v3.6c-2.14,.51-4.08,1.51-5.71,2.88h-.85V5.38Z"/><polygon points="19.39 5.38 19.35 5.38 19.35 5.34 19.39 5.38"/><polygon points="26.11 5.34 26.11 5.38 26.07 5.38 26.11 5.34"/><path d="M32.65,5.38v6.48h-1.1c-1.56-1.31-3.41-2.28-5.44-2.81,0-1.23,0-2.45,0-3.66h6.55Z"/><path d="M19.35,36.05c0,.85,0,1.71,0,2.56h-6.55v-6.2c1.78,1.76,4.03,3.04,6.54,3.64h0Z"/><polygon points="19.35 38.65 19.35 38.61 19.39 38.61 19.35 38.65"/><polygon points="26.07 38.61 26.11 38.61 26.11 38.65 26.07 38.61"/><path d="M32.66,32.13v6.48h-6.55v-2.62c2.54-.66,4.8-2.02,6.55-3.86Z"/><path d="M5.79,10.13v1.71h-1.13c.34-.59,.72-1.16,1.13-1.71Z"/><path d="M39.69,10.14c.41,.55,.79,1.12,1.14,1.71h-1.14v-1.71Z"/><path d="M12.56,12.11v.77c-1.5,1.57-2.65,3.49-3.29,5.63h-3.22v-6.4h6.51Z"/><path d="M39.4,12.1v6.42h-3.47c-.59-1.99-1.62-3.8-2.97-5.3v-1.12h6.44Z"/><path d="M12.31,31.89H6.05v-6.43h2.95c.52,2.44,1.69,4.65,3.31,6.43Z"/><path d="M39.41,25.48v6.39h-6.5c1.6-1.77,2.76-3.96,3.29-6.39h3.21Z"/><path d="M5.77,32.13v2.95c-.68-.93-1.29-1.91-1.81-2.95h1.81Z"/><path d="M39.67,32.15h1.83c-.52,1.04-1.14,2.03-1.83,2.96v-2.96Z"/><rect class="b" x="26.11" y="25.36" width=".03" height=".04"/></g><circle class="d" cx="22.75" cy="22.75" r="21.75"/></svg>