<?xml version="1.0" encoding="UTF-8"?><svg id="a" xmlns="http://www.w3.org/2000/svg" viewBox="0 0 140.75 111.43"><defs><style>.b{fill:#ed20de;stroke:#a8ef11;stroke-miterlimit:10;}</style></defs><g><path class="b" d="M87.95,58.56c-2.28-1.92-2.73-4-2.7-6.9,.04-2.88-1.77-7.88-1.74-10.76,.07-5.89,1.18-11.11,2.98-15.14-1.62-.97-2.51-1.87-4.46-.47-2.39,1.71-1.05,6.1-3.31,10.41-1.87,3.55-4.46,6.98-3.71,12.23,.45,3.1-.72,6.19,.21,10.26-4.79-1.88-5.1-4.62-6.7-9.32-.94-2.75-1.61-5.57-2.56-8.32-.94-2.73-2.34-5.06-3.69-7.58-1.58-2.96-1.1-5.59-.73-8.76,.24-2.1-2.37-6.93-3.66-8.7-1.37-1.87-2.83-1.94-4.32-1.45-.32,.48-.61,.97-.87,1.5-1.3,2.66-1.92,5.65-2.42,8.63-.73,1.72-2.98,7.07-3.46,8.62-1.44,4.63-1.96,17.84-3.03,28.57,6.71,2.18,15.2,5.42,22.1,6.93,4.1,.89,14.96-.65,15.69-.9,4.45,.67,7,2.65,9.56,3.57,1.2,.43,3.16,.7,5.51,.81-.1-1.72-.37-3.41-.95-5.03-1.43-3.99-4.69-5.61-7.74-8.17Z"/><g><g><path class="b" d="M117.92,54.94c-2.06,.28-3.56-1.3-5.06-.99-1.27,.26-2.52,1.64-3.61,2.23-2.36,1.26-2.57,.18-5,.42-2.75,.27-6.91,.5-9.15-.34-.31,.18-.62,.34-.91,.47-.9,.41-2.53,2.27-3.49,2.65-.39,.15-.78,.29-1.17,.42,2.54,1.94,4.99,3.62,6.17,6.93,.58,1.62,.85,3.32,.95,5.03,7.75,.36,21.73-1.69,24.07-4.71,.35-4.22,.19-8.1-.42-12.41-.11,.04-2.28,.28-2.37,.29Z"/><path class="b" d="M104.24,56.6c2.43-.24,2.65,.84,5-.42,1.08-.58,2.33-1.97,3.61-2.23,1.5-.31,3,1.27,5.06,.99,.09-.01,2.26-.25,2.37-.29-.53-3.73-.64-7.18-1.19-10.9-1.8,.76-7.18,1.52-8.58,2.75-3.99,3.53-2.74,5.61-10.2,6.56-.9,.11-3.22,2.05-5.23,3.21,2.24,.83,6.4,.61,9.15,.34Z"/></g><path class="b" d="M94.18,56.73c2.17-.98,5.11-3.55,6.14-3.68,7.46-.95,6.21-3.03,10.2-6.56,1.39-1.23,3.39-1.97,5.19-2.73-2.17-6.89-5.36-13.46-9.31-19.16-1.52-2.19-3.2-4.74-6.04-5.21-2.54-.42-5.46,.61-7.85,1.79-2.49,1.55-4.75,3.23-6,4.58-1.8,4.02-2.92,9.24-2.98,15.14-.03,2.88,1.77,7.88,1.74,10.76-.04,2.89,.42,4.98,2.7,6.9,.52,.44,1.05,.85,1.57,1.25,.39-.13,.78-.26,1.17-.42,.96-.38,2.59-2.24,3.49-2.65Z"/><g><path class="b" d="M92.17,21.34c-.63-2.34-2.3-4.59-3.52-6.44-.99-1.49-2.07-2.91-3.21-4.28-2.46,9.81-13.64,20.64-22.46,23.63,1.12,2.04,2.21,4.03,2.99,6.29,.94,2.75,1.62,5.57,2.56,8.32,1.6,4.71,1.92,7.45,6.7,9.32-.93-4.07,.23-7.16-.21-10.26-.76-5.25,1.84-8.67,3.71-12.23,2.27-4.31,.92-8.7,3.31-10.41,1.95-1.4,2.85-.49,4.46,.47,1.26-1.35,3.51-3.03,6-4.58-.11,.05-.22,.11-.33,.16Z"/><path class="b" d="M85.44,10.62c-1.42-1.7-2.93-3.33-4.55-4.85-2.11-1.98-5.2-5.66-8.46-4.69-1.99,.59-3.93,2.13-5.72,3.15-2.11,1.2-4.24,2.37-6.31,3.65-2.64,1.64-5.12,3.57-6.83,6.16,1.5-.49,2.95-.42,4.32,1.45,1.29,1.77,3.9,6.6,3.66,8.7-.37,3.18-.85,5.8,.73,8.76,.23,.44,.47,.86,.7,1.29,8.82-2.99,20-13.82,22.46-23.63Z"/></g></g><path class="b" d="M89.05,24.92c-.29,0-.56,.02-.83,.06,1.78-1.13,3.68-2.14,5.49-2.94,.03-.02,.07-.02,.1-.04,.23,.04,.45,.07,.68,.11-1.96,.56-3.81,1.53-5.44,2.82Zm14.66-1.02c.78,.44,1.51,1.01,2.16,1.79,.1,.12,.19,.25,.28,.37-.78-.78-1.59-1.52-2.44-2.15Z"/><path class="b" d="M101.68,69.67c-1.95-.5-5.85-3.22-6.09-3.77-.73-1.64-2.28-4.5-6.07-6.1-.26,2.44,3.03,4.32,3.61,4.93,.26,.3,.01,2.09-.95,2.31-1.03,.24-2.82-1.12-3.58-1.79-2.36-2.09-4.37-1.67-6.58-3.73-.86-.81-.02-3.57-2.73-6.35-2.35-2.4-3.19-7.63-3.29-14.26-2.28,4.67-2.03,11.78-1.78,19.95-1.94,1.45-2.64,4.87-4.03,6.87-.46-1.72-1.45-3.43-2.4-4.62-1.91-2.4-4.07-2.96-6.66-4.2-4.09-1.97-4.71-7.15-6.27-11.09-.84-2.14-4.57-9.36-9.15-9.31-1.57,4.92-2.24,21.14-2.4,23.01,4.21,1.03,17.42,6.44,22.71,7.07,1.53,.45,14.99,.43,15.86-.7,4.4,1.4,8,4.12,13.85,4.35,7.25,.29,16.62-1.29,18.54-2.23-4.24-2.67-8.9-.41-12.61-.33Z"/><path class="b" d="M85.83,9.73c-1.31-1.54-3.34-2.67-4.88-4.16-3.09-2.99-6.18-5.97-8.79-4.81-3.91,1.74-14.84,8.43-16.37,9.97-.72,.73-2.17,2.81-2.7,4.08,.5-.11,1.7-.15,2.13,.04,2.17,.96,3.17,2.77,4.28,4.97,1.25,2.46,.92,4.67,.85,7.23-.02,.77,.22,1.46,.32,2.18,.44,3.26,2.33,4.48,3.61,7.45,.1-1.39-.11-3.78-1.44-5.43-.71-.88-.03-3.75,.44-4.9,.49-1.19,1.16-2.3,.81-3.64-.5-1.9-2.61-3.35-3.45-5.11-1.09-2.3-1.29-4.91,.26-7.14,.43-.62,1.03-1.15,1.65-1.64,1.59-.99,3.17-2.01,4.74-3.03,1.9-1.24,3.77-2.75,6.12-2.83,.98-.03,1.93,.17,2.85,.53,2.05,1.16,3.96,3.01,5.46,4.16,1.36,1.05,2.59,1.9,3.63,3.27,1.11,1.46,2.3,3.44,3.82,4.77-1.14-2.1-1.96-4.33-3.34-5.95Z"/><path class="b" d="M107.04,25.27c-1.54-2.7-4.74-6.57-7.69-7.09-1.19-.21-2.41,.18-3.72,.47-3.45,.76-8.63,2.94-11.33,4.54-2.49,1.49-4.08,3.17-3.96,6.33,1.02-1.31,3.42-.68,2.98,1.16-1,4.21-1.05,10.63,.82,14.46,1.34-4.07-.44-6.9,.33-10.3,.5-2.18,1.27-5.06,2.35-7.07,1.26-2.33,3.16-2.88,5.32-3.88,1.37-.63,2.81-1.46,4.27-1.87,3.8-1.07,6.45,.43,9.02,3.09,2.47,2.57,4.15,5.61,6.23,8.47-.14-3-3.03-5.56-4.61-8.32Z"/><path class="b" d="M118.53,42.88c-2.36-1.16-4.15-1.75-4.93-4.94-.25,3.95-1.18,4.44-2.09,4.87-2.13,.37-6.49,.53-8.16,1.23-1.89,.79-1.44,1.63-2.04,3.09-.85,2.04-2.77,4.37-4.83,4.99-2.28,.69-3.7,2.75-4.02,5.96,1.04-1.02,3.15-2.72,5.71-3.17,2.61-.46,5.21-.87,7.06-1.85,1.8-.95,3.92-1.76,4.58-2.13,2.54-1.43,1.52-3.51,1.83-3.62,2.3-.83,3.92,.81,5.15-.86,.55-.75,1.73-1.64,2.23-2.42,.24-.44-.11-.96-.5-1.14Z"/><path class="b" d="M80.07,65.61c-1.6-.37-2.16-.52-3.1-1.96-1.25-1.92-1.94-3.89-2.85-5.96-.04,4.42,.84,6.1,1,7.74-.91,1.64-4.02,2.54-5.39,3.48,2.31,.36,8.66,.42,9.14,.26,2.23-.75,2.33-.69,4.68-.68,.24-2.27-2.33-2.61-3.49-2.88Z"/><path class="b" d="M55,65.45c-.54-1.8-4.63-4.04-5.91-5.2-.69-.62-.55-2.67-2.98-3.36-.3-2.85-.03-7.73-1.83-9.26-.2,2.88-.98,11.28-.99,14.14,1.85,.8,7.96,2.41,11.7,3.67Z"/></g><g><g><path class="b" d="M5.16,80.09c.57,.38,1.66-.25,2.36-1.85,3.26-7.47,3.4-17.37,8.96-23.31,1.72-1.84,1.04,.3,.94,1.09-1.07,8.2,1.35,12.29,1.17,19.59-.04,1.43-1.44,5.62-1.64,7.34-.33,2.84-.17,5.62-.74,8.4,.02,.02,.03,.03,.05,.05,.29,.25,.59,.47,.91,.68,.41-.6,.92-1.55,1.64-3.07,1.18-2.49,3.02-2.38,2.88-1.79-.07,.44-.15,.89-.24,1.34-.19,1.42-.23,2.36-.04,3.8,.52-.06,2.97,.33,3.55,.42,.45,.07,2.19,1.65,3.56,3.03,2.37,.67,4.75,1.34,7.13,2-.31-9.78-1.82-19.48-4.62-28.86-2.74-9.19-8.03-19.02-6.58-31.92-4.39,4.21-12.59,13.6-16.26,19.61-4.48,7.32-6.97,15.61-7.66,24.13-.04,.54,.41,1.03,.9,1.19,.5-.96,1.07-1.83,1.56-2.34,.54-.55,1.36-.08,2.19,.48Z"/><path class="b" d="M24.94,92.77c-.59-.09-3.04-.49-3.55-.42-.19-1.43-.15-2.38,.04-3.8,.09-.45,.17-.9,.24-1.34,.14-.59-1.7-.7-2.88,1.79-.72,1.52-1.23,2.48-1.64,3.07,2.15,1.4,4.88,1.9,7.3,2.58,1.35,.38,2.69,.76,4.04,1.14-1.37-1.38-3.11-2.96-3.56-3.03Z"/><path class="b" d="M10.79,85.11c2.51,1.48,3.29,4.38,5.41,6.24,.57-2.78,.41-5.56,.74-8.4,.2-1.72,1.6-5.91,1.64-7.34,.18-7.3-2.24-11.39-1.17-19.59,.1-.78,.78-2.93-.94-1.09-5.56,5.94-5.7,15.84-8.96,23.31-.7,1.6-1.8,2.23-2.36,1.85-.83-.56-1.66-1.03-2.19-.48-.5,.51-1.07,1.37-1.56,2.34,0,0,.01,0,.02,0,3.03,.93,6.63,1.54,9.38,3.15Z"/></g><path class="b" d="M46.08,66.41c1.79-1.31,3.71-2.41,5.71-3.35,2.44-1.15,5.82-3.11,7.68-5.46-.07-.08-.13-.17-.19-.25-7.22-5.91-15.94-11.81-20.66-14.68-3.7-2.25-9.58-6.14-14.06-5.77-.04,.04-.08,.08-.13,.12-1.44,12.91,3.84,22.73,6.58,31.92,1.39,4.67,2.46,9.41,3.23,14.2,1.68-3.57,3.83-7.48,4.95-9.27,1.81-2.88,4.14-5.45,6.89-7.46Z"/><path class="b" d="M45.29,53.48c-1.51-1.11-3.83-.84-5.31,.15-.35-.23-2.6-1.38-3.08-1.4-1.4-.06-6.57,1.33-8.04-.6-1.06-1.39-1.38-1.14-1.14,.59,.51,3.66,1.63,6.28,4.2,8.94,.58,.6,1.55-.16,2.31-.53,3.31-1.59,7.29-4.56,11.25-4.4,1.25-1.09,.27-2.42-.19-2.76Z"/><g><path class="b" d="M68.01,73.25c-2.27-5.18-4.91-11.27-8.54-15.65-.42,.53-.93,1.04-1.48,1.53,.09,.06,.18,.13,.22,.23,.88,2.1,2.4,3.72,2.34,6.11-.06,2.34-1.22,4.47-1.96,6.63-.47,1.37-.39,2.77-.66,4.17-.29,1.47-.85,2.48-.56,4.05,.42,2.23,1.23,5.63,2.26,8.16,3.05-1.08,6.04-2.4,8.3-4.62,3.26-3.21,1.68-6.92,.07-10.6Z"/><path class="b" d="M48.09,65.75c-.24-.01-.44-.24-.38-.45-.55,.35-1.1,.72-1.63,1.11-2.75,2.01-5.08,4.58-6.89,7.46-1.13,1.79-3.28,5.7-4.95,9.27,.77,4.85,1.24,9.74,1.39,14.66h0c3.47-2.09,9.27-4.29,14.37-6.07-.89-3.34-.81-6.86-.9-10.36-.13-5.06-1.84-10.55-1.02-15.61Z"/><path class="b" d="M57.99,59.13c-.15-.09-.32-.1-.46,.05-1.27,1.49-3.48,2-5.17,2.9-1.62,.87-3.11,1.91-4.54,3.05-.06,.05-.09,.11-.11,.16,1.31-.83,2.67-1.58,4.07-2.24,1.88-.89,4.33-2.27,6.2-3.93Z"/><path class="b" d="M57.93,76.26c.27-1.4,.19-2.8,.66-4.17,.74-2.16,1.9-4.29,1.96-6.63,.06-2.39-1.46-4.01-2.34-6.11-.04-.1-.12-.18-.22-.23-1.88,1.66-4.32,3.04-6.2,3.93-1.4,.66-2.76,1.41-4.07,2.24-.07,.21,.14,.44,.38,.45-.82,5.06,.89,10.55,1.02,15.61,.09,3.5,0,7.02,.9,10.36,1.72-.6,3.35-1.16,4.8-1.64,1.56-.53,3.21-1.04,4.84-1.61-1.03-2.53-1.84-5.93-2.26-8.16-.3-1.57,.27-2.58,.56-4.05Z"/></g><path class="b" d="M55.42,54.3c-2-.01-3.98-.27-5.97-.08-2.5,.24-4.94,.98-7.29,1.83-2.02,.73-3.6,2.08-5.54,2.86-2.66,1.08-5.31-.34-6.73-2-1.55-2.3-2.19-7.51-2.82-10.59-.31-1.52-2.9-6.76-2.53-9.43-1.23-.02-9.55,9.21-11.11,12.4,2.5-1.2,5.66-7.22,8.28-3.37,1.61,2.36,2.47,6.89,2.98,9.27,.81,3.82,2.3,10.24,5.41,14.66,1.4,1.99,2.65,6.84,2.49,8.36-.36,3.29-.33,5.86,2.33,10.06,.45-2.62,1.61-3.66,2.52-7.7,.83-3.71,3.61-6.8,5.67-9.82,2.95-4.33,9.44-7.18,13.11-9.29,1.03-.59,3.11-1.33,4.32-2.47-1.66-2.93-3.82-3.68-5.12-4.69Z"/><path class="b" d="M58.63,56.37c-1.38-1.08-21.47-15.9-24.89-17.3-1.21-.5-6.09-3.52-9.93-2.08-2.08,.78-4.58,4.39-6.07,6.47,1.28-1.06,4.26-2.8,5.8-2.56,1.51,.24,2.2,3.05,2.85,4.46,1.17,3.69,1.68,7.66,3.08,11.27,1.04,2.66,3.33,4.93,5.07,6.34,.42,.34,1.99,1.68,1.54,3.57-.34,1.44-.33,2.89,.1,4.42,.11,.4,.35,.17,.49-.23,.8-2.17,.86-4.38,2.09-6.49,.13-.23,.06-.57-.18-.7-1.27-.64,.05-1.69,.79-2.39,.92-.87,1.19-2.18,2.22-2.9,1.28-.89,4.9-2.59,8.4-1.92,1.87,.36,3.08-.35,4.76,.18,2.26,.71,4.76,2.23,5.78,2.47,.3-.22-1.54-2.32-1.92-2.62Zm-12.94-1.77c-1.97,.5-7.4,3.32-8.22,3.73-2.81,1.4-5.48,.4-6.63-1.46-1.73-4.59-2.29-8.8-4.16-13.29-.15-.43-.52-1.55-.7-2.22-.15-.56,.11-2.26,.7-2.56,2.24-1.12,8.16,1.84,9.64,2.73,3.7,2.22,13.34,9.88,14.64,10.99,.3,.26,.26,1-.39,1.16-1.3,.31-3.31,.68-4.89,.92Z"/></g><g><path class="b" d="M139.88,86.06c-.31-5.41,.31-12.35-2.38-17.29-2.4,1.45-4.82,3.13-6.2,5.6-.88,1.58-.15,3.82-1.11,5.22,.77,3.05,1.47,6.46,2.58,9.6,.91,2.58,3.02,6.34,4.2,10.44,4.45-2.97,3.18-8.93,2.91-13.57Z"/><g><path class="b" d="M136.96,99.63c-1.18-4.1-3.29-7.87-4.2-10.44-1.11-3.13-1.81-6.55-2.58-9.6-.18,.27-.43,.51-.76,.71-1.47,.86-3.86,1.34-5.76,1.73-.2,3.22-1.04,6.4-.06,9.68,.63,2.1,1.49,4.16,2.38,6.16,.56,1.26,1.4,2.59,1.82,3.97,3.17-.05,6.32-.51,8.78-1.94,.14-.08,.25-.17,.38-.26Z"/><path class="b" d="M123.61,91.7c-.99-3.28-.15-6.45,.06-9.68-.31,.06-.6,.13-.88,.19-2.45,.54-4.67,.65-6.69,.56,.64,3.98,1.45,7.93,2.21,11.88,.4,2.09,.87,4.18,1.21,6.29,.03,.17,.04,.33,.06,.49,2.44,.18,5.34,.45,8.22,.4-.42-1.38-1.26-2.71-1.82-3.97-.89-2-1.75-4.06-2.38-6.16Z"/></g><g><path class="b" d="M119.58,101.42c-.02-.16-.03-.32-.06-.49-.34-2.1-.81-4.2-1.21-6.29-.76-3.95-1.58-7.9-2.21-11.88-4.57-.21-8.13-1.48-10.98-1.36-4.11,.18-8.23,.21-12.35,.3-2.67,.06-7.72-.75-9.44,.89-.51,.49-1.31,1.7-2.04,3.17,.23,.55,.51,1.08,.83,1.6,.36,0,.75,0,1.19-.06,2.08-.31,2.82-1.88,5.06-1.56,3.56,.51,5.74,4.36,8.61,6.16,3.93,2.46,8.62,3.61,13.11,4.56,1.16,.24,2.62,.28,3.31,1.4,.49,.79,.67,2.01,.78,3.08,1.86,.19,3.68,.35,5.41,.47h0Z"/><path class="b" d="M110.08,96.47c-4.49-.94-9.18-2.09-13.11-4.56-2.87-1.8-5.05-5.65-8.61-6.16-2.24-.32-2.97,1.25-5.06,1.56-.44,.06-.82,.06-1.19,.06,.43,.7,.93,1.38,1.53,2.02,7.29,7.85,19.69,10.42,30.51,11.55-.11-1.07-.28-2.28-.78-3.08-.69-1.12-2.15-1.15-3.31-1.4Z"/></g><g><path class="b" d="M81.29,85.78c.25-.5,.5-.96,.75-1.38-.44-.06-.87-.16-1.28-.29,.13,.57,.3,1.13,.52,1.67Z"/><path class="b" d="M137.38,68.54c-2.59-4.53-7.45-5.12-12.22-5.16-8.3-.08-17.54,.55-26.15,2.84-1.02,.99-1.84,2.19-2.81,3.29-1.2,1.36-3.21,2.31-4.07,3.88-3.14,5.72,6.95,6.49,10.09,8.01,.05,.02,.06,.07,.05,.12,.95-.03,1.9-.06,2.85-.1,4.11-.18,9.68,2.55,17.67,.8,1.97-.43,4.93-.92,6.63-1.91,2.07-1.21,.82-4.04,1.87-5.92,1.38-2.48,3.8-4.16,6.2-5.6-.04-.08-.08-.15-.12-.23Z"/><path class="b" d="M83.34,82.6c-.34,.32-.8,.97-1.29,1.79,.22,.03,.44,.06,.66,.07,2.81,.2,5.75-.5,8.51-.91,3.43-.51,6.86-1.04,10.29-1.56,.24-.04,.32-.22,.3-.41,.11,0,.23,.02,.35,.03,.06,0,.1-.05,.11-.1-3.16,.1-6.33,.13-9.5,.2-2.67,.06-7.72-.75-9.44,.89Z"/><path class="b" d="M92.12,73.39c.86-1.58,2.87-2.52,4.07-3.88,.97-1.1,1.79-2.29,2.81-3.29-3.79,1.01-7.47,2.34-10.88,4.07-2.06,1.05-6.1,3.8-6.87,6.24-.86,2.72-1.03,5.25-.48,7.57,.41,.13,.83,.23,1.28,.29,.49-.82,.95-1.47,1.29-1.79,1.72-1.63,6.76-.83,9.44-.89,3.16-.07,6.33-.1,9.5-.2,0-.05,0-.09-.05-.12-3.14-1.52-13.23-2.29-10.09-8.01Z"/></g><path class="b" d="M137.5,68.77c-1.83-4.31-6.1-4.85-8.23-5.13-4.63-.62-9.53-.99-14.12,.05,1.26,.16,5.6,1.23,9.65,.61,2.35-.36,3.18,.24,4.58,.23,.78,0,3,.29,3.93,1,.44,.33,1.71,1.62,.76,2.23-1.9,1.23-3.22,2.23-3.9,4.17-.76,2.16-2.32,4.14-4.15,5.49-3.86,2.86-8.48,3.84-13.04,3.04-1.83-.32-5.69,.13-7.89,.23-.73-.01-1.46,0-2.21,.03-.83,.04-1.66,.11-2.5,.18-.6,.03-1.21,.05-1.81,.08-1.48,.07-5.51-.47-9.24-.16-3.3,.27-4.47,.37-5.65-.32-3.33-1.94-.11-7.04,2.45-8.98-.07,0-.15,0-.23,.03-1.68,.66-3.97,2.38-5.08,5.29-.98,2.55-.68,6.77,.67,9.26,.43-1.18,1.53-2.31,2.53-3,.51-.35,.95-.63,1.57-.71,.53-.07,2.91,.25,3.69,.29,4.4,.26,9.01-.33,13.41-.53,1.68-.08,3.35-.27,5.03-.23,1.72,.04,4.1,.63,5.93,.9,.46,.74,1.4,2.89,1.67,3.46,1.92,4.06,1.71,8.28,3.77,12.34-.2-3.02-.59-6.8-1.4-9.73-.44-1.61-.52-3.7-.99-5.78,2.95,.25,6.82,.44,10.22-1.29,.86-.63,1.64-.71,2.04,.6,.95,3.1,1.71,4.78,3.46,7.52,1.09,1.71,1.51,2.27,3.02,5.53-.81-3.19-2.27-6.44-2.93-9.69-.57-2.79-1.42-5.88-1.7-8.72-.26-2.61,1.72-4.39,4.2-5.86,1.27-.76,3.02-.66,2.46-2.41Z"/></g><g><g><path class="b" d="M75.85,102.19c-.67,.5-1.44,.95-2.21,1.37,.48-3.1,.66-7.15,.88-9.7,.03-.37,.23-3.66,.19-4.94,.03-.83-1.36-2.56-.21-3.23,.3-.17,.66-.31,1.01-.48,.14,.85,.38,1.72,.44,2.46,.41,4.63,.41,9.74-.11,14.52Z"/><path class="b" d="M76.99,83.26c-.04-.28-.03-.98-.08-1.26,3.05,3.77,2.22,11.04,1.59,15.24-.22,1.44-.48,2.81-1.52,3.95-.32,.35-.71,.68-1.13,1,.52-4.79,.52-9.9,.11-14.52-.07-.74-.3-1.61-.44-2.46,.75-.35,1.46-.81,1.47-1.95Z"/></g><g><path class="b" d="M47.88,86.76c1.05-2.28,2.6-3.94,4.75-5,4.36,6.29,13.76,4.51,20.33,4.17,1-.05,2.62-.04,3.75-.5-.27,.48-.53,.97-.62,1.54-.09,.55,0,1.05-.2,1.59-.4,1.05-1.16,1.46-2.17,1.87-3.3,1.34-6.12,2.65-8.96,4.87-2.6,2.04-5.03,4.29-7.69,6.25-1.41,1.03-2.87,1.99-4.44,2.77-.88,.43-2.67,1.51-3.71,1.32-1.12-.21-2.63-2.19-3.37-2.95-1.57-1.6-3-3.34-4.25-5.21,2.02-3.07,4.93-7.11,6.59-10.71Z"/><g><path class="b" d="M53.9,81.22c1.65-.58,3.39-.84,5.15-.97,.24,1,1.58,1.97,2.62,2.44,2.75,1.25,7.92,1.98,10.66,.27,1.4-.88,1.17-1.64,.41-2.26,.77,.12,1.54,.26,2.29,.43,1.73,.4,2.84,1.21,2.29,3.04-.13,.44-.37,.85-.61,1.26-1.13,.46-2.75,.45-3.75,.5-6.57,.35-15.97,2.12-20.33-4.17,.4-.2,.82-.38,1.27-.54Z"/><path class="b" d="M72.32,82.96c-2.74,1.71-7.91,.98-10.66-.27-1.04-.47-2.38-1.44-2.62-2.44,1.39-.1,2.79-.12,4.16-.12,3.11,0,6.39,.09,9.53,.58,.75,.62,.99,1.38-.41,2.26Z"/></g><path class="b" d="M42.14,96.2c2.85,3.08,5.47,4.59,7.95,7.97,0,.01-.34,1.36-.34,1.37,.09,.07,1.44,1.45-.66,1.36-1.99-.09-7.09-1.37-7.91-2.14-2.19-2.05-1.59-5.63,.96-8.56Z"/><g><path class="b" d="M49.75,105.54c2.33-1.31,3.12-3.44,4.82-5.04,1.99-1.87,3.92-3.92,6.21-5.43,2.01-1.32,4.38-2.21,6.67-3.05-.48,3.93-.49,11.21-.6,14.77-3.04,1.1-6.9,2.02-10.3,1.6-2.16-.34-5.3-1.31-7.47-1.49-.36-.36,.68-.83,.66-1.36Z"/><path class="b" d="M68.81,91.52c1.14-.42,2.29-.83,3.46-1.18,.59-.18,2.11-.61,2.41-1.22,.03-.06,.04-.13,.04-.21,.04,1.29-.16,4.57-.19,4.94-.22,2.56-.4,6.61-.88,9.7-.88,.48-1.76,.92-2.5,1.33-.96,.53-2.47,1.24-4.28,1.9,.11-3.56,.12-10.84,.6-14.77,.46-.17,.91-.33,1.36-.5Z"/></g><path class="b" d="M47.22,96.2c1.94-1.84,5.15-3.01,7.8-2.12-.6,1.46-2.58,5.85-3.54,8.9-.08,.25-2.16-.65-2.4-.83-1.01-.77-3.27-1.94-3.49-3.29-.16-1.02,.97-2.04,1.62-2.65Z"/><path class="b" d="M48.46,101.02c.24,.19,1.9,2.15,2.82-.3,.46-1.22,1.14-3.52,1.43-4.52,.32-1.11,1.89-2.72,3.19-3.35-.53,.85-3.16,5.85-2.26,6.51,.68,.5,2.52-.86,2.99-1.2,1.88-1.44,3.39-3.02,5.41-4.25,2.3-1.55,4.54-3.3,7.68-3.66,4.41-.52,4.22-3.05,3.62-3.61-.46-.43-2.43-.2-2.66-.55,3.19-.75,4.76-1.48,5.57-2.21,.5-.45,.33-1.44-1.06-2.7,2.8,.59,2.5,2.16,2.27,2.77-.15,.39-1.2,1.39-1.2,2.48,0,.77,.26,1.84-.74,4.76-.15,.44-1.18,6.84-1.54,9.7-.91-1.1-.3-6-.12-8.65-1.35,.27-2.89,.85-4.24,.97-1.05,.09-1.53-.53-3.05,.15-1.22,.55-2.78,.78-3.89,1.51-.82,.57-4.65,4.42-5.8,5.53-1.41,1.36-.61,2.57-3.16,3.34-1.07,.32-2.31,1.16-4.43,2.56-.12-1.16,.18-2.12-1.42-3.3-3.89-2.86-4.47-4.9-5.71-6.8,3.44,1.13,4.49,3.33,6.32,4.82Z"/><path class="b" d="M50.26,83.39c1.62-2.22,5.97-3.26,7-2.92-.82,.23-4.91,1.59-3.66,2.48,3.4,2.42,5.68,2.41,7.36,2.62,2.26,.28,5.14,.76,7.07,.71-1.3,.91-6.11,.31-8.97,.42-.99,.04-4.38,.1-6.04-.83-1.07-.6-3.33-1.68-2.75-2.48Z"/></g></g><g><path class="b" d="M92.66,101.1c.49,.35,1.94,.44,2.45,.75,.85,.5,.8,1.5,1.62,2.74,1.3,1.98,2.37,2.06,5.42,1.31-1.01-1.42-2.47-2.41-3.59-3.58-1.08-1.13-2.39-2.96-4.08-2.97-.58,0-1.11-.14-1.69,.11-.35,.15-.64,.39-.91,.65,0,.03,0,.05,0,.08,.1,.4,.48,.68,.79,.9Z"/><g><path class="b" d="M99.9,107.09c.72-.14,1.63-.33,2.25,.03,.51,.29,.68,1.91,.74,2.4,.01,.1,.02,.21,.03,.32,.14-.04,.28-.07,.43-.11,.01-1.63-.48-2.84-1.19-3.84-3.05,.75-4.12,.67-5.42-1.31-.82-1.24-.77-2.25-1.62-2.74-.52-.3-1.96-.39-2.45-.75-.31-.22-.69-.51-.79-.9,0-.03,0-.05,0-.08-.32,.32-.59,.68-.84,1.03-.36,.52-.72,1.11-1.05,1.72,.73,.21,2.05,.9,2.62,1.39,1.04,.89,2.81,1.67,2.97,3.05,.11,.93,.32,2.12,.2,3.6,.29,0,.6-.02,.89-.02,.03-.69,.72-1.4,1.41-2.48,.37-.58,1.17-1.19,1.83-1.32Z"/><path class="b" d="M102.89,109.53c-.06-.49-.23-2.11-.74-2.4-.62-.36-1.53-.17-2.25-.03-.66,.13-1.46,.74-1.83,1.32-.69,1.08-1.37,1.8-1.41,2.48,1.92-.05,3.99-.42,6.25-1.05,0-.11-.01-.22-.03-.32Z"/></g><g><path class="b" d="M93.99,106.34c.95,.18,1.21,.21,1.59,1.02v-.04c-.17-1.38-1.94-2.16-2.98-3.05-.57-.48-1.89-1.17-2.62-1.39-.71,1.33-1.27,2.81-1.35,4.19,.51,.5,1.18,1.16,1.93,1.79,.05-.45,.38-2.36,.81-2.72,.66-.56,1.95,.07,2.62,.2Z"/><path class="b" d="M95.57,107.36c-.37-.81-.63-.84-1.59-1.02-.67-.13-1.96-.76-2.62-.2-.43,.36-.75,2.27-.81,2.72,1.05,.89,2.24,1.72,3.35,1.9,.57,.09,1.16,.14,1.77,.16,.03,0,.07,0,.1,0,.02-.28,.08-.53,.08-.78,0-1.1-.18-2.03-.28-2.78Z"/></g><path class="b" d="M101.26,106.1c-.51-.04-1.46,.01-1.97-.07-1.27-.22-1.54-.86-1.62-.96-.69-.88-.9-1.08-1.39-2.04-.16-.31-.21-1.12-.54-1.26-.11-.05-.82-.34-1.08-.46-.25-.13-1.02-.14-1.45-.45-.4-.29-.47-.89-.46-.99,.03-.23,.82-.54,.76-.55-.76-.07-1.12,.19-1.74,.89-.23,.26,.88,1.04,.91,1.05,.6,.38,1.96,.55,2.26,.95,.36,.49,.08,1.35-.11,1.89-.38,1.1-.29,2.52-.25,2.66,.24,.71,.59,.44,.72,.55,.31,.26,.1,1.47,.5,1.93,.06-.51-.14-2.25,.42-2.9,.16-.19,.53-.1,1.61,0,.94,.09,1.42,.44,3.42-.23Z"/></g><g><g><path class="b" d="M77.65,108.74c.14-.01,.08-.77,.22-.83,.53-.22,.87-.26,1.44-.41,.99-.25,2.23,0,3.23-.04,1.52-.06,3.01-.31,4.5-.63-.71,.06-.91-.31-.82-.46-.64-1.5-.93-2.31-2.61-2.34-2.15-.04-4.27,.75-6.21,1.59-.44,.19-1.14,.42-1.77,.75-.1,.37-.26,.78-.3,1.04-.12,.79,1.64,1.38,2.31,1.32Z"/><path class="b" d="M74.32,108.01c.02,1.14,1.63,1.74,2.47,2.06,1.94,.75,3.95,.68,5.97,.71,1.16,.02,2.86,.06,3.88-.62,.98-.65,1.2-2.07,.57-3.08-1.48,.32-3.13,.32-4.64,.37-1.01,.04-2.24-.22-3.23,.04-.58,.15-.91,.19-1.44,.41-.15,.06-.08,.82-.22,.83-.66,.06-2.42-.54-2.31-1.32,.04-.26,.2-.67,.3-1.04-.72,.38-1.34,.89-1.32,1.64Z"/></g><path class="b" d="M85.81,105.43c-1.35,.34-2.75,1.29-4.14,1.38-.71,.04-1.96-.17-2.58,.22-.04,.03-.45,.67-1.22,.89,.86,.69,2.83,.04,3.89,0,.66-.02,1.4,.19,2.38,.08,1.07-.12,2.39-.57,3.06-.9-.13-.39-.73-.5-.96-.72-.09-.26-.25-.67-.42-.95Z"/><path class="b" d="M85.42,104.78c-1.13-1.54-4.14-.7-5.03-.43-1.21,.37-2.93,.98-3.99,1.67-.53,.35,.63-.03,.78-.07,1.23-.31,3.04-1.1,4.29-1.35,.74-.15,3.48,.46,3.95,.18Z"/></g></svg>