<?xml version="1.0" encoding="UTF-8"?><svg xmlns="http://www.w3.org/2000/svg" viewBox="0 0 116.62 100.18"><defs><style>.b{isolation:isolate;}.c{opacity:.6;}.c,.d,.e,.f,.g{fill:#793a9b;}.c,.h,.e,.i,.f{mix-blend-mode:multiply;}.d{opacity:.7;}.h{fill:#c5f523;}.h,.i,.f{opacity:.5;}.e{opacity:.3;}.i{fill:#79fa24;}</style></defs><g class="b"><g id="a"><g><path class="c" d="M36.78,92.07c3.2,2.06,6.39,4.14,9.9,5.63,3.63,1.54,7.3,2.34,11.24,2.47,.74,.02,1.48,.02,2.21,0h.02c1.65-.05,3.29-.2,4.93-.41,.04,0,.07,0,.11-.01,.77-.1,1.55-.22,2.32-.34,.14-.02,.28-.04,.42-.07,.73-.12,1.46-.24,2.19-.37,4.01-.7,8-1.53,11.96-2.45,8.06-1.87,16.47-2.57,24.27-5.52,2.55-.96,4.88-2.49,6.5-4.7,.22-.3,.42-.62,.61-.95,.06-.11,.12-.23,.18-.34,.12-.22,.24-.45,.34-.68,.06-.14,.12-.28,.18-.42,.09-.22,.18-.43,.26-.66,.05-.15,.11-.3,.16-.45,.07-.22,.14-.45,.21-.67,.04-.15,.09-.3,.13-.46,.06-.24,.12-.48,.17-.72,.03-.14,.07-.28,.1-.42,.06-.27,.11-.55,.16-.82,.02-.11,.04-.21,.06-.32,.06-.37,.12-.73,.17-1.1h0c.06-.42,.11-.83,.15-1.24,.28-2.55,.45-5.1,.6-7.66,0-.14,.02-.29,.03-.43,.07-1.31,.14-2.62,.22-3.94-.02-.96-.02-1.93-.02-2.89,0-.51,0-1.02,.01-1.53v-.75c.05-2.44,.1-4.88,0-7.32,0-.06,0-.13,0-.2,0,.01,0,.02,0,.04-.09-2.07-.28-4.14-.69-6.19-.18-.91-.38-1.83-.6-2.75-.11-.46-.23-.92-.34-1.38-.11-.45-.22-.9-.34-1.35-.16-.61-.34-1.22-.52-1.84-.08-.29-.16-.57-.24-.85-.21-.7-.44-1.41-.66-2.11-.06-.18-.12-.36-.17-.54-.25-.77-.52-1.53-.8-2.29-.04-.11-.08-.21-.12-.32-.3-.81-.61-1.61-.94-2.4-.02-.05-.04-.1-.06-.15-.34-.83-.7-1.65-1.07-2.46,0-.01-.01-.02-.01-.04-.64-1.41-1.32-2.8-2.04-4.14-1.47-2.69-3.3-5.06-5.38-7.19-3.6-2.07-7.01-4.47-10.46-6.79h0c-1.08-.73-2.17-1.45-3.26-2.15-.49-.09-.97-.19-1.45-.29-1.95-.22-3.91-.45-5.86-.64-4.11-.42-8.18-1.05-12.32-.9-7.89,.3-15.6,4.13-22.48,7.72-.99,.51-1.97,1.05-2.94,1.6-.47,.26-.93,.52-1.4,.79-.3,.17-.59,.35-.89,.52-2.47,1.44-4.89,2.98-7.24,4.6,.01-.01,.02-.03,.03-.04-.6,.41-1.19,.83-1.78,1.25-2.26,1.3-4.32,2.9-6.02,4.97-2.34,2.84-3.92,6.25-5.46,9.57-1.8,3.88-3.74,7.67-5.75,11.44-1.9,3.56-3.8,7.11-5.85,10.58-1.75,2.96-3.39,6.05-4.06,9.46-.03,.15-.05,.3-.08,.45,0,0,.01,0,.02-.02-.96,6.2,4.31,9.83,9.18,12.5,7.29,3.99,15.27,6.53,22.28,11.06Z"/><g><g><path class="g" d="M111.16,41.07c-1.55-7.67-4.15-15.71-7.91-22.6-1.47-2.69-3.3-5.06-5.38-7.19-4.73-2.72-9.12-6-13.71-8.94-.49-.09-.97-.18-1.45-.29-1.96-.22-3.91-.45-5.86-.64-4.11-.41-8.18-1.06-12.32-.9-7.89,.3-15.6,4.13-22.48,7.72-4.88,2.55-9.71,5.47-14.22,8.73-2.26,1.3-4.32,2.89-6.02,4.97-2.34,2.84-3.92,6.25-5.46,9.57-1.8,3.88-3.74,7.67-5.75,11.44-1.9,3.56-3.8,7.11-5.85,10.59-1.75,2.96-3.39,6.05-4.06,9.46-1.29,6.47,4.13,10.2,9.12,12.93,7.29,3.99,15.27,6.53,22.28,11.06,3.2,2.06,6.39,4.14,9.9,5.63,3.63,1.54,7.3,2.34,11.24,2.47,4.13,.14,8.15-.5,12.2-1.21,4.01-.7,8-1.53,11.96-2.45,8.06-1.87,16.48-2.57,24.27-5.53,2.55-.96,4.88-2.49,6.5-4.7,1.89-2.57,2.52-6.14,2.87-9.24,.44-4,.62-8.01,.85-12.03-.15-6.29,.55-12.62-.71-18.85Z"/><path class="g" d="M54.37,95.57h0c-.39,0-.77,0-1.16-.02-4-.13-7.74-.95-11.41-2.51-3.48-1.48-6.69-3.55-9.79-5.55l-.18-.12c-4.03-2.6-8.46-4.58-12.75-6.49-3.15-1.4-6.41-2.86-9.5-4.55-5.37-2.94-10.68-6.84-9.36-13.45,.69-3.49,2.39-6.68,4.12-9.61,1.99-3.36,3.82-6.78,5.84-10.57,2.36-4.42,4.18-8.05,5.74-11.42,1.55-3.33,3.14-6.78,5.52-9.67,1.62-1.96,3.63-3.63,6.16-5.08,4.28-3.1,9.08-6.05,14.23-8.74C49.34,3.87,56.74,.32,64.5,.02c3.25-.12,6.52,.25,9.66,.6,.91,.1,1.81,.21,2.72,.3,1.95,.2,3.9,.42,5.84,.64,.55,.11,1.03,.21,1.51,.29,.06,.01,.12,.04,.17,.07,1.72,1.1,3.43,2.27,5.09,3.4,2.78,1.89,5.65,3.84,8.6,5.54,.04,.02,.07,.05,.1,.08,2.26,2.31,4.04,4.69,5.46,7.29,3.5,6.41,6.25,14.27,7.96,22.74,.88,4.38,.81,8.86,.73,13.19-.03,1.88-.07,3.83-.02,5.74l-.1,1.89c-.18,3.34-.37,6.8-.75,10.2-.33,2.99-.96,6.77-2.96,9.47-1.55,2.1-3.87,3.79-6.72,4.87-5.16,1.95-10.65,2.94-15.96,3.89-2.76,.5-5.61,1.01-8.37,1.65-4.25,.99-8.18,1.79-11.99,2.45-3.75,.65-7.42,1.24-11.14,1.24ZM65.85,.97c-.44,0-.87,0-1.31,.03-7.56,.29-14.85,3.79-22.27,7.66-5.11,2.67-9.88,5.59-14.16,8.69-2.47,1.42-4.39,3.01-5.93,4.88-2.3,2.79-3.87,6.18-5.39,9.46-1.57,3.38-3.4,7.03-5.77,11.47-2.02,3.8-3.86,7.22-5.86,10.6-1.69,2.85-3.34,5.96-4,9.31-1.19,5.98,3.56,9.5,8.88,12.41,3.06,1.67,6.3,3.12,9.43,4.52,4.32,1.93,8.8,3.92,12.89,6.56l.18,.12c3.07,1.98,6.24,4.02,9.65,5.47,3.56,1.51,7.18,2.31,11.06,2.43,4.05,.14,8.02-.49,12.1-1.2,3.79-.66,7.7-1.46,11.93-2.44,2.78-.65,5.65-1.16,8.42-1.66,5.27-.95,10.71-1.92,15.78-3.85,2.71-1.03,4.83-2.55,6.29-4.53,1.86-2.52,2.46-6.14,2.77-9,.37-3.38,.56-6.82,.74-10.15l.1-1.85c-.05-1.89-.01-3.84,.02-5.74,.07-4.28,.15-8.71-.72-12.99-1.69-8.37-4.41-16.14-7.86-22.47-1.37-2.5-3.09-4.81-5.26-7.03-2.96-1.71-5.83-3.65-8.61-5.54-1.63-1.11-3.31-2.25-4.99-3.33-.46-.08-.92-.18-1.37-.27-1.92-.22-3.86-.44-5.81-.64-.91-.09-1.82-.2-2.74-.3-2.69-.31-5.47-.62-8.21-.62Z"/></g><path class="f" d="M57.02,5.75c5.16-.94,9.07-1.61,13.54,1.46,5.52,3.8,12.25,5.42,17.68,9.37,9.1,6.62,6.96,17.52,10.18,27.03,2.11,6.24,4.13,13.65,8.15,18.97,1.48,1.96,3.44,3.73,4.79,5.84,.22-2.83,.36-5.67,.52-8.51-.15-6.29,.55-12.62-.71-18.85-1.55-7.67-4.15-15.71-7.91-22.6-1.47-2.69-3.3-5.06-5.38-7.19-4.73-2.72-9.12-6-13.71-8.94-.49-.09-.97-.18-1.45-.29-1.96-.22-3.91-.45-5.86-.64-4.11-.41-8.18-1.06-12.32-.9-7.89,.3-15.6,4.13-22.48,7.72-3.04,1.59-6.05,3.34-8.98,5.2,7.78-3.22,15.67-6.18,23.96-7.68Z"/><path class="e" d="M111.16,41.07c-1.43-7.06-3.76-14.42-7.05-20.93-3.14,1.82-6.35,3.51-9.6,5.12,1.97,5.71,1.85,12.31,3.9,18.34,2.11,6.24,4.13,13.65,8.15,18.97,1.48,1.96,3.44,3.73,4.79,5.84,.22-2.83,.36-5.67,.52-8.51-.15-6.29,.55-12.62-.71-18.85Z"/><path class="d" d="M101.3,47.8c-.67-3.87-1.7-7.66-2.37-11.51-.54-3.16-.22-6.3-.59-9.46-.48-4.09-2.9-6.37-6.26-8.43-2.56-1.57-5-3.31-7.54-4.88-3.32-2.05-6.91-3.49-10.46-5.08-1.27-.56-2.66-1.19-4.09-1.58,.19,.12,.38,.23,.57,.37,5.52,3.8,12.25,5.42,17.68,9.37,9.1,6.62,6.96,17.52,10.18,27.03,1.68,4.96,3.32,10.65,5.93,15.45-1.36-3.62-2.36-7.38-3.04-11.26Z"/><path class="f" d="M106.43,75.18c-6.02,1.03-10.13-4.21-14.49-7.24-2.88-2-6.19-3.49-9.78-3.28-2.99,.17-5.82,1.54-8.86,1.08-3.29-.5-6.41-2.2-9.47-3.42-3.16-1.25-6.32-2.5-9.36-4.03-1.81-.91-3.59-1.89-5.29-3-1.56-1.02-3.03-2.17-4.7-3.01-3.29-1.66-6.86-2.45-10.41-3.32-2.82-.69-6.1-1.15-8.64-2.62-2.24-1.29-3.22-3.38-3.1-5.95,.15-3.3,1.54-6.35,2.82-9.35,.77-1.79,1.57-3.62,2.04-5.52,.41-1.71,.49-3.44,.68-5.18,.2-1.83,.81-3.32,1.74-4.64-.6,.41-1.19,.83-1.77,1.25-2.26,1.3-4.32,2.89-6.02,4.97-2.34,2.84-3.92,6.25-5.46,9.57-1.8,3.88-3.74,7.67-5.75,11.44-1.9,3.56-3.8,7.11-5.85,10.59-1.75,2.96-3.39,6.05-4.06,9.46-1.29,6.47,4.13,10.2,9.12,12.93,7.29,3.99,15.27,6.53,22.28,11.06,3.2,2.06,6.39,4.14,9.9,5.63,3.63,1.54,7.3,2.34,11.24,2.47,4.13,.14,8.15-.5,12.2-1.21,4.01-.7,8-1.53,11.96-2.45,8.06-1.87,16.48-2.57,24.27-5.53,2.55-.96,4.88-2.49,6.5-4.7,1.64-2.23,2.34-5.22,2.71-8-1.31,.99-2.77,1.71-4.44,2Z"/><path class="f" d="M2.46,61.83c1.84-1.35,3.6-2.78,5.48-4.07,1.77-1.21,3.56-2.39,5.29-3.66,3.71-2.73,7.4-5.63,10.81-8.81-1.26-1.26-1.81-2.93-1.72-4.89,.15-3.3,1.54-6.35,2.82-9.35,.77-1.79,1.57-3.62,2.04-5.52,.41-1.71,.49-3.44,.68-5.18,.2-1.83,.81-3.32,1.74-4.64-.6,.41-1.19,.83-1.77,1.25-2.26,1.3-4.32,2.89-6.02,4.97-2.34,2.84-3.92,6.25-5.46,9.57-1.8,3.88-3.74,7.67-5.75,11.44-1.9,3.56-3.8,7.11-5.85,10.59-1.75,2.96-3.39,6.05-4.06,9.46-.03,.15-.05,.3-.08,.45,.61-.57,1.23-1.13,1.86-1.59Z"/><path class="f" d="M106.43,75.18c-6.02,1.03-10.13-4.21-14.49-7.24-2.88-2-6.19-3.49-9.78-3.28-2.84,.17-5.52,1.4-8.38,1.14-.39,2.85-2.33,5.46-4.42,7.6-3.43,3.54-7.82,6.48-10.66,10.55-2.31,3.31-2.67,7.24-3.27,11.11,3.36-.1,6.66-.62,9.99-1.21,4.01-.7,8-1.53,11.96-2.45,8.06-1.87,16.48-2.57,24.27-5.53,2.55-.96,4.88-2.49,6.5-4.7,1.64-2.23,2.34-5.22,2.71-8-1.31,.99-2.77,1.71-4.44,2Z"/><g><path class="i" d="M106.93,49.66c-.13,.1-.23,.27-.31,.41-.15,.25-.08,.51,.13,.54,.07,.07,.18,.08,.3,.04,.25-.09,.47-.36,.51-.62,0-.06,.02-.13,.03-.19,.07-.46-.41-.36-.64-.18Z"/><path class="i" d="M106.26,53.76c-.2,.07-.39,.29-.42,.52,0,.09-.02,.17,0,.26,.04,.15,.15,.21,.3,.16,.21-.07,.36-.28,.41-.5,.02-.09,.02-.18,.01-.28-.02-.16-.18-.21-.31-.16Z"/><path class="i" d="M102.7,53.45c-.1-.07-.19-.09-.31-.06-.18,.04-.32,.15-.42,.32-.08,.13-.14,.4,.06,.46,.12,.03,.23,.01,.35-.04,.17-.07,.58-.49,.31-.68Z"/><path class="i" d="M105.97,51.94c-.06,0-.12,0-.17-.02-.27-.02-.5,.51-.22,.49,.06,0,.12-.01,.18-.02,.16-.01,.44-.43,.21-.45Z"/><path class="i" d="M109.38,55.68c-.05-.1-.13-.16-.22-.23-.25-.18-.72,.35-.55,.58,.07,.09,.12,.18,.22,.23,.27,.14,.7-.3,.55-.58Z"/><path class="i" d="M99.39,61.36c-.08-.1-.15-.15-.25-.22-.3-.2-.85,.4-.65,.69,.01,.02,.02,.03,.03,.05,0,.11,.02,.22,.15,.24,.04,0,.07,0,.11,.01,.2,.03,.37-.09,.48-.24,.09-.11,.24-.38,.13-.52Z"/><path class="i" d="M99.45,67.12h0l-.05-.03c-.41-.18-.76,.85-.24,.69,0,0,.02,0,.03,0,.05-.01,.11-.04,.16-.08,.01,0,.03-.02,.04-.03,.18-.16,.3-.43,.08-.54Z"/><path class="i" d="M102.95,65.73c-.08-.03-.14-.03-.23-.03-.26,.01-.59,.59-.22,.61,.09,0,.16-.01,.25-.03,.16-.04,.46-.46,.19-.55Z"/><path class="i" d="M96.8,66.03c-.29,0-.64,.67-.23,.67,.29,0,.64-.67,.23-.67Z"/><path class="i" d="M93.24,65.08c-.12,.08-.2,.21-.2,.35v.18c0,.14,.17,.12,.25,.07,.12-.07,.2-.2,.2-.35v-.18c0-.14-.17-.12-.25-.07Z"/><path class="i" d="M68.51,57.72c-.23,.08-.42,.35-.41,.59,0,.05,0,.11,0,.16,0,.16,.17,.2,.3,.15,.19-.06,.38-.28,.39-.49,0-.06,0-.11,.01-.17,0-.19-.11-.32-.3-.25Z"/><path class="i" d="M69.83,61.08c-.06-.1-.13-.16-.22-.24-.25-.22-.71,.38-.5,.62,.06,.07,.11,.13,.18,.18,.25,.16,.69-.31,.53-.56Z"/><path class="i" d="M72.18,59.56c-.29,0-.65,.68-.24,.68,.3,0,.65-.68,.24-.68Z"/><path class="i" d="M60.82,56.7c-.07-.05-.13-.1-.2-.16-.23-.18-.69,.33-.52,.55l.16,.2c.26,.34,.85-.37,.57-.59Z"/><path class="i" d="M35.69,42.62s-.06-.04-.09-.07c-.22-.19-.61,.32-.43,.53,.02,.02,.04,.04,.05,.06,0,.27,.29,.24,.45,.09,.12-.11,.4-.69,0-.62Z"/><path class="i" d="M31.31,43.51c-.1-.16-.27-.04-.38,.09-.12,.04-.21,.14-.27,.24-.05,.08-.13,.36,.05,.38,.06,0,.11,.01,.17,.02,.23,.02,.47-.21,.49-.44,0-.1-.01-.19-.07-.28Z"/><path class="i" d="M26.4,40.54c-.23-.04-.47,.25-.45,.47,0,.05,0,.09,.02,.14-.11,.2-.13,.42,.13,.42,.5,0,.95-.93,.3-1.03Z"/><path class="i" d="M29.71,30.34c-.01,.09-.01,.16,0,.25,.07,.38,.53-.08,.56-.27,.01-.09,.02-.16,0-.25-.05-.38-.55,.08-.57,.28Z"/><path class="i" d="M26.32,34.62h0c.03-.14,.03-.28-.08-.34-.55-.3-1.3,.73-.74,1.09,.36,.23,.91-.37,.82-.73,0,0,0,0,0-.02Z"/><path class="i" d="M29.05,32.97c-.76,0-1.66,1.74-.61,1.74,.76,0,1.66-1.74,.61-1.74Z"/><path class="i" d="M32.61,28.28c-.07-.05-.13-.11-.2-.16-.27-.22-.73,.38-.52,.64l.17,.2c.21,.26,.85-.43,.55-.68Z"/><path class="i" d="M29.01,25.68c-.22,0-.47,.49-.17,.49,.22,0,.47-.49,.17-.49Z"/><path class="i" d="M29.61,16.9c-.13,.08-.21,.22-.21,.37v.18c0,.15,.19,.13,.27,.08,.13-.08,.21-.22,.21-.37v-.18c0-.15-.19-.13-.27-.08Z"/><path class="i" d="M18.83,40.24c-.14,.09-.24,.24-.24,.41,0,.11-.01,.17,.06,.26,.12,.13,.36-.1,.4-.2,.06-.14,.07-.24,.07-.39,0-.17-.2-.14-.3-.08Z"/><path class="i" d="M19.67,45.89c-.02-.35-.53,.05-.54,.26v.16c-.04,.44,.57,.06,.55-.27,0-.05,0-.1-.01-.15Z"/><path class="i" d="M22.39,43.2c-.1,.02-.2,.08-.27,.11-.11,.04-.4,.34-.21,.45,0-.01,.01-.02,.02-.04,.02,.07,.04,.12,.12,.14h.03c.43,.12,.66-.75,.31-.67Z"/><path class="i" d="M12.68,52.56c-.29,0-.63,.65-.23,.65,.29,0,.63-.65,.23-.65Z"/><path class="i" d="M8.54,55.11c-.25,0-.56,.58-.21,.58,.25,0,.55-.58,.21-.58Z"/><path class="i" d="M16.41,49.79c-.05-.09-.14-.15-.23-.21-.19-.14-.56,.27-.43,.45,.08,.1,.13,.2,.25,.26,.21,.11,.5-.32,.41-.5Z"/><path class="i" d="M16.11,44.25c0-.14-.16-.17-.27-.14-.14,.05-.28,.2-.33,.35-.16,.16-.3,.4-.06,.46,.08,.02,.14,.06,.23,.05,.25-.01,.45-.32,.44-.55,0-.06,0-.12,0-.17Z"/><path class="i" d="M19.7,36.91c-.3,0-.65,.68-.24,.68,.3,0,.65-.68,.24-.68Z"/><path class="i" d="M51.3,62.41s-.23,.04-.15,.04c-.15,.02-.28,.14-.35,.27-.05,.09-.13,.37,.05,.38,.05,0,.09,.03,.14,.04,.2,.03,.38-.13,.47-.29,.04-.08,.08-.17,.07-.27-.01-.11-.09-.17-.23-.17Z"/><path class="i" d="M52.77,67.1c-.3,0-.65,.68-.24,.68,.3,0,.65-.68,.24-.68Z"/><path class="i" d="M51.33,71.74s-.02,0-.03-.02c-.01,0-.03,0-.05-.01h0s-.02,0-.04-.01c-.05-.01-.11-.02-.14-.04-.18-.11-.45,.1-.51,.32-.01,.02-.03,.04-.04,.06-.09,.16-.16,.59,.17,.54,.06-.01,.13-.02,.19-.03,.19-.04,.35-.17,.45-.34,.06-.11,.15-.36,0-.46Z"/><path class="i" d="M56.74,67.87c-.07-.1-.16-.11-.25-.08-.08-.04-.19-.03-.29,.04-.19,.12-.33,.33-.32,.56,0,.23,.16,.39,.4,.38,.28-.02,.56-.38,.53-.65,0-.08,0-.17-.06-.24Z"/><path class="i" d="M55.09,66.06c-.27,0-.59,.61-.21,.61,.27,0,.59-.61,.21-.61Z"/><path class="i" d="M61.76,72.47c-.32,0-.69,.72-.26,.72,.32,0,.69-.72,.26-.72Z"/><path class="i" d="M65.71,68.65s-.02-.08-.06-.12c-.07-.03-.08-.04-.02-.03-.09-.23-.41,.1-.44,.21,.06-.06,.05-.05-.02,.04-.03,.05-.05,.11-.06,.17,0,.02,0,.04,0,.06-.03,.17,.11,.27,.26,.22,.18-.06,.4-.31,.35-.52,0-.01,0-.03-.01-.05Z"/><path class="i" d="M54.12,82.09c-.2-.15-.58,.26-.48,.47-.04,.11-.06,.28,.08,.3,.23,.03,.43-.05,.54-.27,.13-.24,.05-.36-.14-.5Z"/><path class="i" d="M53.91,88.42c-.06-.06-.11-.13-.17-.19-.16-.18-.6,.3-.39,.48,.06,.05,.13,.11,.19,.17,.19,.16,.52-.27,.36-.46Z"/><path class="i" d="M57.25,80.6c-.28,0-.62,.64-.23,.64,.28,0,.62-.64,.23-.64Z"/><path class="i" d="M56.16,84.41c-.25,0-.55,.58-.2,.58,.25,0,.55-.58,.2-.58Z"/><path class="i" d="M55.57,89.91c-.22,.08-.41,.33-.39,.56,0,.07,0,.17,.04,.23,.17,.29,.53-.12,.6-.29,.04-.09,.04-.18,.04-.27,.02-.18-.11-.3-.29-.24Z"/><path class="i" d="M59.87,90.62c-.05-.1-.1-.17-.18-.25-.2-.19-.63,.33-.43,.53,.06,.06,.13,.1,.21,.15,.2,.1,.51-.22,.4-.42Z"/><path class="i" d="M60.35,82.49c-.13,.08-.22,.22-.22,.38v.18c0,.15,.19,.13,.28,.07,.13-.08,.22-.22,.22-.38v-.18c0-.15-.19-.13-.27-.08Z"/><path class="i" d="M73.06,74.74c0-.15-.26-.11-.33-.1-.3,.02-.69,.68-.25,.71,.23,.02,.43-.08,.54-.29,.07-.12,.04-.19,.04-.31Z"/><path class="i" d="M84.09,69.11c-.29,.03-.51,.15-.67,.41-.12,.2-.11,.4,.03,.5h0c.05,.08,.03,.19,.09,.27,.26,.35,.73-.18,.76-.47,.01-.13,.02-.25,.05-.38,.04-.18-.08-.35-.27-.33Z"/><path class="i" d="M92.39,76.79h0s-.07-.07-.12-.09c-.09-.03-.17-.01-.25,.02-.33,.09-.67,.62-.4,.82,.11,.09,.21,.07,.34,.03,.04,0,.08-.04,.13-.07,.02,0,.04,0,.06-.01,.21-.05,.6-.61,.25-.71Z"/><path class="i" d="M94.15,80.71c-.03-.15-.16-.2-.3-.15-.2,.07-.36,.28-.39,.49-.03,.18-.03,.33,.04,.51,.11,.32,.57-.15,.61-.3,.05-.19,.08-.35,.05-.55Z"/><path class="i" d="M99.11,77.79c-.06,0-.12,0-.18,0-.25-.01-.5,.55-.19,.53,.06,0,.12,0,.18-.01,.22-.01,.5-.49,.18-.51Z"/><path class="i" d="M95.91,76.92h0c-.04-.09-.11-.15-.23-.19-.41-.11-.8,.3-1,.62,0,0,0,0-.01,.01-.15,.19-.26,.41-.29,.66-.04,.34,.21,.64,.56,.51,.08,.14,.25,.13,.4,.04,.28-.16,.38-.44,.42-.73,.17-.27,.34-.65,.15-.93Z"/><path class="i" d="M104.36,78.04c-.32,0-.7,.73-.26,.73,.32,0,.7-.73,.26-.73Z"/><path class="i" d="M103.84,80.51s0,.09,0,.13c0,.05,.03,.08,.08,.09,0,0,0,0,.01,0,.07,.03,.18-.05,.22-.11,.08-.11,.09-.2,.1-.33,.02-.32-.43-.04-.41,.2Z"/><path class="i" d="M52.91,11.3c-.22,0-.47,.49-.18,.49,.22,0,.47-.49,.18-.49Z"/><path class="i" d="M57.64,7.85c-.13,.09-.24,.19-.34,.31-.09,.1-.18,.29-.11,.43,.09,.17,.32,.06,.43-.03,.12-.11,.22-.22,.31-.35,.15-.24,0-.53-.29-.35Z"/><path class="i" d="M52.77,8.14c-.31,0-.68,.71-.25,.71,.31,0,.68-.71,.25-.71Z"/><path class="i" d="M57.59,5.01c-.22,0-.47,.49-.17,.49,.22,0,.47-.49,.17-.49Z"/><path class="i" d="M61.41,2.52c-.35,0-.76,.8-.28,.8,.35,0,.76-.8,.28-.8Z"/><path class="i" d="M45.29,12.21c-.16-.18-.58,.3-.38,.47,.1,.09,.16,.14,.3,.15,.14,0,.27-.2,.26-.32-.01-.13-.09-.2-.18-.3Z"/><path class="i" d="M38.52,13.14c-.18,0-.4,.42-.15,.42,.18,0,.4-.42,.15-.42Z"/><path class="i" d="M43.91,10.8c-.18,0-.4,.42-.15,.42,.18,0,.4-.42,.15-.42Z"/><path class="i" d="M46.8,9.86c-.22,0-.48,.5-.18,.5,.22,0,.48-.5,.18-.5Z"/><path class="i" d="M49.71,6.85c-.06-.01-.11-.02-.16-.03-.3-.06-.48,.53-.22,.49,.06-.01,.13-.02,.19-.03,.13-.02,.43-.38,.2-.42Z"/><path class="i" d="M79.02,3.76s-.04,0-.06,0c0-.01,0-.01,0-.03,.05-.39-.58-.07-.52,.25,.04,.23,.13,.29,.36,.26,.15-.02,.48-.43,.22-.48Z"/><path class="i" d="M92.56,9.87c-.05-.07-.11-.13-.16-.2-.16-.2-.65,.33-.42,.52,.07,.05,.13,.11,.2,.16,.2,.17,.55-.29,.39-.48Z"/></g><g><path class="h" d="M31,56.49c-.93-.44-1.5-1.23-2.15-1.99-.52-.61-1.32-.98-1.9-1.55-.52-.51-1.03-.97-1.49-1.54-.26-.32-.58-.46-.98-.47-.11,0-.2,.14-.19,.24,.03,.49,.42,.76,.58,1.23,.24,.7,.59,1.21,1.08,1.77,.62,.7,1,.87,1.88,1.18,1.05,.37,1.89,1.18,2.97,1.47,.15,.04,.37-.26,.2-.34Z"/><path class="h" d="M32.82,62.08c-.74-.91-1.97-1.19-2.94-1.76-.66-.39-1.22-.91-1.87-1.3-.43-.26-.69-.67-1.17-.87-.1-.04-.28,.19-.18,.26,.43,.26,.69,.66,1.01,1.04,.49,.58,1.11,1.04,1.73,1.47,.97,.68,2.15,.91,3.17,1.48,.15,.08,.36-.18,.26-.31Z"/><path class="h" d="M34.64,80.26c-1.31-1.66-3.47-3.59-5.36-4.51-1.38-.67-2.85-1.29-4.31-1.79-1.18-.41-2.23-1.13-3.47-1.34-.19-.03-.49,.34-.26,.45,2.08,1.01,3.58,2.58,5.88,3.28,1.72,.52,2.97,.72,4.51,1.84,.95,.69,1.89,1.54,2.74,2.36,.11,.1,.35-.17,.27-.28Z"/><path class="h" d="M41.13,85.04c-.63-.56-1.39-.93-2.08-1.41-.29-.2-.6-.37-.92-.51-.27-.12-.84-.27-.96-.53-.08-.19-.33,.13-.32,.24,.01,.26,.13,.36,.35,.47,.35,.18,.65,.41,.96,.65,.85,.65,1.61,1.27,2.68,1.51,.17,.04,.45-.28,.29-.42Z"/><path class="h" d="M45.44,87.79c-.25-.36-.74-.59-1.17-.6-.15,0-.37,.38-.18,.4,.39,.03,.73,.31,1.05,.51,.14,.09,.4-.18,.3-.32Z"/><path class="h" d="M8.31,70.57c-2.86-1.29-3.72-4.45-4.88-7.09-.02-.05-.07-.07-.12-.06-.07,0-.13,.02-.19,.04-.12,.03-.42,.35-.19,.41,.34,.09,.48,1.88,.57,2.26,.18,.74,.55,1.38,.99,1.99,.86,1.18,2.22,2.4,3.7,2.66,.09,.02,.23-.16,.12-.21Z"/><path class="h" d="M91.96,75.55c-2.25-1.27-3.96-3.43-6.34-4.47-1.58-.69-3.12-1.28-4.81-1.65-1.59-.34-3.27-.21-4.86-.58-.18-.04-.46,.34-.24,.42,2.77,1.03,5.76,1.78,8.58,2.73,1.65,.56,3.07,1.07,4.45,2.19,.89,.73,1.89,1.33,2.98,1.69,.14,.05,.37-.26,.23-.34Z"/><path class="h" d="M100.08,77.94c-.71-.32-1.5-.17-2.24-.11-.14,.01-.41,.4-.19,.42,.34,.03,.68,.06,1.02,.09,.4,.04,.74,.26,1.15,.16,.19-.04,.56-.44,.26-.57Z"/><path class="h" d="M96.41,82.47c-1.23,.24-2.42,.04-3.64-.14-.46-.07-1.46-.27-1.8-.58-.29-.25-.47-.38-.84-.45-.12-.02-.35,.24-.21,.31,.38,.2,.51,.72,.85,.86,.64,.28,1.29,.59,1.98,.7,1.32,.21,2.38,.37,3.6-.25,.12-.06,.33-.5,.06-.46Z"/><path class="h" d="M96.62,84.77c-.03-.06-.05-.09-.12-.09-.16-.01-.27-.05-.4-.16-.14-.12-.43,.23-.29,.35,.19,.17,.47,.29,.7,.13,.06-.04,.16-.15,.11-.23Z"/><path class="h" d="M72.02,61.51c-1.44-1.07-2.99-1.8-4.74-2.21-1.82-.42-3.43-.86-4.93-1.96-.19-.14-.52,.27-.36,.44,1.06,1.09,1.98,2.11,3.43,2.71,2.07,.85,4.23,.78,6.34,1.4,.15,.05,.41-.27,.26-.38Z"/><path class="h" d="M85.15,62.14c-2.1-.97-4.49-.75-6.74-.62-.15,0-.34,.34-.12,.35,2.25,.14,4.39,.25,6.56,.81,.24,.06,.57-.41,.3-.54Z"/></g><path class="f" d="M111.86,47.23c-.41,3.69-.82,7.38-1.34,11.05-.28,1.96-.54,3.91-.75,5.89-.15,1.4-.3,2.84-.71,4.19-.82,2.71-2.5,4.28-5.33,4.75-2.67,.44-4.83-.41-7.11-1.78-.45-.27-.91-.55-1.38-.86,3.12,2.55,6.48,4.82,10.31,6.14,.18,.06,.24,.24,.17,.41-1.55,3.49-4.66,5.29-8.35,5.8-3.78,.53-7.75-.14-11.48,.63-4.9,1.01-8.64,4.81-13.44,5.98-5.05,1.22-10.11,2.74-15.33,2.98-.16,0-.26-.13-.28-.28-.56-4.92,3.14-8.25,5.75-11.96-2.06,1.43-4.17,2.87-5.86,4.71-1.51,1.65-2.13,3.63-3.39,5.4-1.44,2.03-4.48,.89-6.32,.19-3.68-1.39-7.04-3.4-10.52-5.2-3.62-1.87-7.43-3.33-10.99-5.33-3.48-1.95-6.74-4.22-10.12-6.32-3.93-2.45-10.47-4.78-9.83-10.52,.28-2.52,2.27-4.67,4.03-6.32,1.73-1.62,3.69-3.06,5.33-4.78-3.79,1.92-6.77,5.16-10.48,7.24-.25,.14-.51-.14-.38-.38,2.7-5.06,5.38-10.13,7.91-15.28,1.27-2.58,2.52-5.18,3.7-7.8,1.12-2.47,2.01-5.03,3.05-7.54,.75-1.81,1.6-3.77,2.88-5.29,1.04-1.24,2.27-2.34,3.52-3.36,.83-.67,1.76-1.45,2.75-2.15-.05-.14-.01-.32,.16-.4,3.63-1.49,6.73-3.86,10.08-5.84,3.2-1.9,6.66-3.39,10.11-4.79,3.69-1.5,7.59-3.07,11.55-3.69,3.52-.55,7.1-.48,10.65-.19,5.69,.46,11.38,1.06,17.02,1.91-1.08-.73-2.17-1.45-3.26-2.15-.49-.09-.97-.18-1.45-.29-1.96-.22-3.91-.45-5.86-.64-4.11-.41-8.18-1.06-12.32-.9-7.89,.3-15.6,4.13-22.48,7.72-4.88,2.55-9.71,5.47-14.22,8.73-2.26,1.3-4.32,2.89-6.02,4.97-2.34,2.84-3.92,6.25-5.46,9.57-1.8,3.88-3.74,7.67-5.75,11.44-1.9,3.56-3.8,7.11-5.85,10.59-1.75,2.96-3.39,6.05-4.06,9.46-1.29,6.47,4.13,10.2,9.12,12.93,7.29,3.99,15.27,6.53,22.28,11.06,3.2,2.06,6.39,4.14,9.9,5.63,3.63,1.54,7.3,2.34,11.24,2.47,4.13,.14,8.15-.5,12.2-1.21,4.01-.7,8-1.53,11.96-2.45,8.06-1.87,16.48-2.57,24.27-5.53,2.55-.96,4.88-2.49,6.5-4.7,1.89-2.57,2.52-6.14,2.87-9.24,.44-4,.62-8.01,.85-12.03-.1-4.22,.17-8.47,0-12.69Z"/><path class="d" d="M22.32,40.4c.15-3.3,1.54-6.35,2.82-9.35,.77-1.79,1.57-3.62,2.04-5.52,.41-1.71,.49-3.44,.68-5.18,.04-.38,.1-.74,.18-1.08-2.84,6.34-5.9,12.67-7,19.55-.4,2.53-.19,5.28,1.6,7.28,1.53,1.71,3.63,2.73,5.77,3.46,4.52,1.55,9.28,2.17,13.68,4.1,4.23,1.86,8.44,3.76,12.66,5.65,3.87,1.73,7.82,3.32,11.59,5.29,1.7,.89,3.52,1.81,5.48,1.9,1.69,.08,3.17-.25,4.66-.81-1.04,.16-2.08,.23-3.15,.07-3.29-.5-6.41-2.2-9.47-3.42-3.16-1.25-6.32-2.5-9.36-4.03-1.81-.91-3.59-1.89-5.29-3-1.56-1.02-3.03-2.17-4.7-3.01-3.29-1.66-6.86-2.45-10.41-3.32-2.82-.69-6.1-1.15-8.64-2.62-2.24-1.29-3.22-3.38-3.1-5.95Z"/></g></g></g></g></svg>