<?xml version="1.0" encoding="UTF-8"?><svg id="a" xmlns="http://www.w3.org/2000/svg" viewBox="0 0 235.92 129.06"><defs><style>.b{opacity:.5;}.b,.c{fill:#461ecb;stroke:#00d8f3;stroke-miterlimit:10;}</style></defs><g><path class="c" d="M128.07,12.93c-.61-2.41-1.89-4.58-3.66-6.31-1.77-1.72-3.48-4.39-5.79-5.4-2.99-1.32-5.83-.16-8.49,1.65-3.88,2.05-7.4,4.87-10.46,7.99-2.86,2.92-7.44,7.58-8.17,11.75-1.42,8.14,10.08,8.14,15.32,5.49,.14,.6,.28,1.2,.41,1.81,.06,.29,.32,.52,.6,.6,11,3.29,23.26-5.53,20.23-17.58Z"/><path class="c" d="M118.95,30.48c-.09-.36-.44-.6-.8-.61-.33-.01-.66,0-.99,0-1.2,.64-2.63,.97-3.87,1.11-1.33,.15-2.42-.06-3.34-.55-.31-.11-.6-.26-.88-.47-.09-.13-.18-.26-.28-.39-.54-.54-1.01-1.22-1.4-2.01-.22,.08-.44,.16-.67,.24-.24-.09-.5-.08-.7,.07-.13,.1-.25,.19-.38,.28-2.11,.64-6.47,.87-8.89-.76-3.68-2.49-5.18-7.22-5.64-4.91-.52,2.58-.67,4.54,.25,8.73,1.66,7.47,5,19.06,6.78,25.94,.79,3.05,3.54,13.33,3.54,13.33-.49-.17-1.17,.24-1.06,.92,.69,4.1,4.89,5.65,8.36,6.92,6,2.19,12.21,3.54,18.55,4.24,.41,.05,.88-.42,.83-.83-2.04-17.28-5.24-34.36-9.42-51.24Z"/><path class="c" d="M133.68,34.71c-.57-6.06-.65-12.44-2.01-18.38-1.29-5.64-5.34-8.23-9.12-12.22-.39-.41-.91-.09-.98,.35-.49-.41-.98-.8-1.48-1.17-.18-.14-.41,.16-.24,.31,3.38,3.16,6.62,7.57,7.22,12.13-1.97,4.37-4.36,8.42-7.05,12.37-1.42,.82-2.94,1.43-4.62,1.85-.98,.25-.55,1.66,.41,1.49,2.89-.51,2.53,2.31,2.8,4.28,.3,2.21,.6,4.42,.91,6.62,.66,4.65,1.42,9.29,2.18,13.93,1.35,8.16,2.86,16.3,4.38,24.43-.83,.09-1.84,.76-3.17-.98-.62-.81-6.27-1.94-7.6-2.85-1.46-.99-3.75-4.15-4.93-5.56-.23-.28-1.98-3.61-3.78-3.89,.65,1.87,1.3,3.74,1.93,5.62-.08,.14-.12,.31-.09,.5,.19,1.06,.64,1.97,1.28,2.75,.04,.23-.14,.36-.55,.36-.55,.24-1.07,.26-1.58,.07-.54-.4-1.04-.84-1.54-1.33-.24-.19-.52-.18-.73-.07-.87-.99-1.53-2.17-2.06-3.43-.5-1.65-2.14-3.88-2.64-5.53-1.38,4.24-1.73,10.25-1.31,14.42,2.69,2.19,5.96,.75,8.05,.55,.12,.03,.26,.05,.41,.03,1.94-.19,4.02-.45,5.94-.02,1.56,.35,2.93,1.24,4.46,1.68,1.89,.54,6.68,.69,9.44,.54,2.16-2.67,5.01-4.49,8.33-5.47,.04-2.9-.92-29.15-2.26-43.38Z"/><path class="c" d="M120.89,3.26c-3.26-2.09-6.27-2.23-9.8-.69-4.33,1.89-11.06,6.41-13.55,10.51,2.49,2.05,12.71-5.22,16.44-4.23,7.52,2.01,4.65,10.97,4.01,15.85-.02,.02,8.1-8.14,8.08-8.12-.4,.42-.07-10.04-5.18-13.32Z"/><path class="c" d="M118.5,.84c-3.39-1.17-8.17,.88-11.1,3.63,4.22-1.77,11.04-2.98,14.1,.81,2.87,3.57,3.36,8.08,3.44,10.07,.09,2.14-.42,1.92-3.44,3.3-2.2,1-2.17,2-3.06,5.28-.31,1.12-2.42,2.32-2.82,2.99-1.17,1.94-1.38,1.31-2.42,1.38-.85,.06-1.26,1.11-1.96,1.29-.57,.3-2.93-.64-3.41-3.02-2.89,1.7-3.96,1.76-5.78,1.16-1.36-.45-2.77-.84-3.96-1.63-.98-.65-2.23-1.78-2.64-2.86-.92-2.42-1.07-5.09,1.16-9.14-1.46,1.35-4.67,5.09-5.23,7.26-.53,2.04-.9,4.46,.67,6.03,2.39,2.39,5.76,2.2,7.01,2.72,1.16,.48,1.82,.81,2.63,1.74,2.9,5.54,3.27,12.92,5.28,17.82,.29,.72,1.09,.75,1.19,0,.43-3.26,.16-6.5-.7-9.55-.46-3.12-1.31-6.38-3.12-8.5,.56-.65,1.13-1.3,1.69-1.95,.2,.07,.41,.14,.61,.21-.04,.44,.11,.91,.5,1.35,.19,.22,.44,1.55,.86,1.47,1.1,.53,2.44-.16,3.63-.47,.29-.07,2.52-1.22,3.21,1.16,.34,1.18,2.58,4.54,2.8,6.01,1.32,8.76,3.4,17.14,5.42,24.95,.07,.26,.75-2.38,.27-4.6-2.21-10.38-3.88-20.96-2.45-31.61,.24-1.75,6.13-8.43,6.32-13.62,.18-4.9-4.33-12.15-8.71-13.66Z"/><path class="c" d="M125.41,19.97c-1.08-.38-2.61,.03-3.91,.33,.44,.54,1.8,2.2,2.3,2.68,1.52,9.41,2.89,17.91,4.23,27.35,1.41,9.91,1.71,20.46,2.42,30.44,.95-.63,2.25-1.37,2.88-1.73-.91-19.65-7.03-55.07-7.92-59.07Z"/><path class="c" d="M107.86,32.4c-.31-1.19-.51-3.05-.35-3.49,.16-.18-3.18,2.01-3.59,2.3,.69,2.9,1.9,10.24,2.4,14.13,.5,3.92,.95,9.78,2.51,13.22,1.87-5.93-.51-26.49-.97-26.16Z"/><path class="c" d="M111.81,77.97c-1.04-2.03-1.54-2.57-1.98-3.47-.72-1.47-1.79-5.15-2.85-5.92-.6,2.19-1.84,5.79-1.99,8.48-.07,1.26,.62,3.6,.07,3.71-1.29,.26-4.34-.87-5.77,.01,2.47,3.27,8.4,1.31,11.73,.81,3.01-.45,6.22,2.02,11,1.93-3.01-2.75-8.7-2.6-10.21-5.55Z"/></g><g><g><path class="c" d="M47.93,74.79c.14-.49,.28-.97,.42-1.46,.32-1.12,.64-2.23,.95-3.35-.04,.03-.07,.07-.11,.1,.34-1.29,.67-2.57,1.03-3.85,.97-4.51,1.83-9.06,2.65-13.5,.46-2.52,1.42-6.04,1.59-8.63-1.71,3.16-4.15,6.36-6.68,8.82-1.29,1.26-3.13,1.21-3.34,.06-.38-2.03-1.57-1.45-2.75-.26-.5,.66-1.42,.26-2.11,.93-.38,.51-.84,1.78-1.16,2.64-1.01,2.71-1.62,2.68-2.86,4.11,0-1.53,1.43-4.28,1.8-6.96,.42-3.01,1.89-3.65,2.89-4.16,2.39-1.21,7.66-4.09,8.77-5.56,.89-1.18,3.23-4.18,4.22-7.32,.77-2.43,.32-5.26,.31-5.51,.04-1.3,1.83-3.88,1.94-5.18,.35-3.87-2.44-4.77-1.87-6.91,.84-3.17,.46-5.24-.49-4.92-1.81,.6-4.32,2.39-6.19,4.47-.75,1.71-1.25,3.36-1.4,4.87-.13,1.25-.21,2.34,.42,3.17,.33,.44,.74,1.79-.81,1-1.36-.69-2.36,.79-3.06,2.57-2.8,7.19-5.15,14.55-6.97,22.05-1.25,5.14-3.98,12.32-1.42,17.46,1.17,2.36,4.54,3.87,6.39,6.12,1.99,2.42,3.38,5.34,5.8,6.49,.5-1.83,1.02-3.67,1.54-5.52,.17-.59,.34-1.18,.51-1.77Z"/><path class="c" d="M48.35,73.33c.32-1.12,.64-2.23,.96-3.35h0c-.32,1.12-.63,2.24-.95,3.35Z"/><path class="c" d="M47.93,74.79c-.17,.59-.34,1.18-.51,1.77,.17-.59,.34-1.18,.51-1.77Z"/><path class="c" d="M68.55,9.55c-3.42-1.42-6.32,1.82-7.1,4.46-.69,2.34-.19,5.09-1.52,7.14-2.67,4.12-2.06,9.12-2.67,14.46-.7,6.09-.88,12.32-1.03,13.67-.27,2.55-.7,4.92-1.46,7.58,.35-.27,.71-.5,1.07-.69,8.07-4.23,2.46-14.36,7.98-21.16,1.33-1.64,3.12-3.01,3.86-5.05,.78-2.14,.62-4.79,.78-7.06,.09-1.31-2.8-6.41-.28-8.98,3.01-3.07,5.25,2.14,8.89,1.44,.12-.02,.26-.04,.39-.06-1.23-1.12-2.54-2.26-4.13-3.27-1.49-.95-3.1-1.78-4.79-2.48Z"/><path class="c" d="M54.6,48.58c.05-.28,.1-.57,.15-.85-.05,.28-.1,.57-.15,.85Z"/><path class="c" d="M55.08,45.81c.06-.39,.11-.77,.17-1.16-.06,.39-.11,.77-.17,1.16Z"/><path class="c" d="M53.47,54.09c.03-.13,.05-.25,.08-.38-.03,.13-.05,.25-.08,.38Z"/><path class="c" d="M55.5,43.03c.07-.52,.13-1.04,.19-1.57-.06,.52-.12,1.04-.19,1.57Z"/><path class="c" d="M52.83,56.82c.01-.05,.02-.11,.04-.16-.01,.05-.02,.11-.04,.16Z"/><path class="c" d="M54.06,51.34c.04-.19,.08-.39,.11-.58-.04,.19-.07,.39-.11,.58Z"/><path class="c" d="M55.83,40.23c.1-.93,.18-1.87,.25-2.8-.07,.93-.15,1.87-.25,2.8Z"/><polygon class="c" points="52.15 59.54 52.15 59.55 52.15 59.55 52.15 59.54"/><path class="c" d="M53.14,13.87c.95-.32,1.33,1.75,.49,4.92-.57,2.14,2.22,3.04,1.87,6.91-.12,1.3-1.9,3.88-1.94,5.18,.02,.26,.46,3.08-.31,5.51-.99,3.14-3.33,6.14-4.22,7.32-1.11,1.47-6.38,4.36-8.77,5.56-1,.51-2.47,1.15-2.89,4.16-.38,2.68-1.81,5.43-1.8,6.96,1.24-1.43,1.85-1.4,2.86-4.11,.32-.86,.78-2.13,1.16-2.64,.69-.67,1.61-.27,2.11-.93,1.18-1.19,2.37-1.78,2.75,.26,.21,1.15,2.05,1.2,3.34-.06,2.52-2.46,4.97-5.66,6.68-8.82-.18,2.59-1.13,6.11-1.59,8.63-.82,4.44-1.67,8.99-2.65,13.5-.35,1.27-.69,2.56-1.03,3.85,.04-.03,.07-.07,.11-.1,.99-3.46,1.96-6.94,2.85-10.43h0c.23-.91,.46-1.82,.68-2.73,.01-.05,.02-.11,.04-.16,.21-.86,.41-1.72,.6-2.58,.03-.13,.05-.25,.08-.38,.18-.79,.35-1.58,.51-2.37,.04-.19,.08-.39,.11-.58,.15-.73,.29-1.45,.43-2.18,.05-.28,.1-.57,.15-.85,.11-.64,.23-1.28,.33-1.92,.06-.39,.11-.77,.17-1.16,.08-.54,.17-1.08,.24-1.62,.07-.52,.13-1.04,.19-1.57,.05-.41,.1-.82,.15-1.23,.1-.93,.18-1.87,.25-2.8,.58-7.8,.71-15.64,1.07-23.46,.04-.91,.1-4.68,.11-9.52-.06,0-.13-.02-.19-.03-3.98,3.91-8.04,9.15-10.13,13.92,1.87-2.09,4.38-3.87,6.19-4.47Z"/><path class="c" d="M52.15,59.55h0c-.89,3.49-1.86,6.97-2.85,10.43,1.81-1.63,3.17-6.19,4.62-10.43,.32-.94,.6-1.82,.85-2.68-.93,.7-1.81,1.64-2.63,2.68Z"/><path class="c" d="M78.86,15.1c-.51,.06-.97,.13-1.39,.2,1.98,1.8,3.76,3.52,6.1,4.51-1.48-1.66-3.06-3.23-4.7-4.71Z"/><path class="c" d="M49.3,69.98h0c.99-3.46,1.96-6.94,2.85-10.43-.89,3.49-1.87,6.97-2.85,10.43Z"/><path class="c" d="M57.27,4.46c-.01,4.84-.07,8.6-.11,9.52-.36,7.81-.49,15.66-1.07,23.46-.07,.93-.15,1.87-.25,2.8-.04,.41-.1,.82-.15,1.23-.06,.52-.12,1.04-.19,1.57-.07,.54-.16,1.08-.24,1.62-.06,.39-.11,.77-.17,1.16-.1,.64-.22,1.28-.33,1.92-.05,.28-.1,.57-.15,.85-.13,.73-.28,1.45-.43,2.18-.04,.19-.07,.39-.11,.58-.16,.79-.34,1.58-.51,2.37-.03,.13-.05,.25-.08,.38-.19,.86-.39,1.72-.6,2.58-.01,.05-.02,.11-.04,.16-.22,.91-.44,1.82-.68,2.72h0c.82-1.04,1.7-1.98,2.63-2.68,.76-2.66,1.19-5.03,1.46-7.58,.14-1.35,.33-7.57,1.03-13.67,.61-5.34,0-10.34,2.67-14.46,1.33-2.06,.83-4.8,1.52-7.14,.78-2.64,3.68-5.88,7.1-4.46,1.69,.7,3.3,1.53,4.79,2.48,1.59,1.01,2.9,2.16,4.13,3.27,.42-.07,.89-.14,1.39-.2-6.09-5.46-13.29-9.5-21.6-10.65Z"/><path class="c" d="M52.15,59.54c.23-.91,.46-1.81,.68-2.72-.22,.91-.44,1.82-.68,2.72Z"/><path class="c" d="M52.87,56.66c.21-.86,.41-1.72,.6-2.58-.19,.86-.39,1.72-.6,2.58Z"/><path class="c" d="M55.69,41.46c.05-.41,.1-.82,.15-1.23-.04,.41-.1,.82-.15,1.23Z"/><path class="c" d="M54.75,47.72c.11-.64,.23-1.28,.33-1.92-.1,.64-.22,1.28-.33,1.92Z"/><path class="c" d="M54.18,50.75c.15-.73,.29-1.45,.43-2.18-.13,.73-.28,1.45-.43,2.18Z"/><path class="c" d="M55.26,44.65c.08-.54,.17-1.08,.24-1.62-.07,.54-.16,1.08-.24,1.62Z"/><path class="c" d="M53.55,53.71c.18-.79,.35-1.58,.51-2.37-.16,.79-.34,1.58-.51,2.37Z"/></g><g><path class="c" d="M92.96,68.84c.61-1.24,4.49-5.13,4.61-6.05,.51-4.09,3.49-5.59,1.27-9.08-4.43-6.95-3.27-10.14-5.87-12.87-5.5-5.76-3.58-9.67-2.65-12.34-1.46-2.14-2.99-4.23-4.63-6.24-.67-.83-1.38-1.63-2.09-2.43-.06,.46-.11,1.02-.16,1.69-.32,3.91,.99,8.14,2.05,11.91,.2,.73,.42,1.49,.58,2.27,.97,2.63,1.58,5.2,3.57,7.39,1.78,1.96,2.35,3.27,2.31,5.95-.02,1.42-.06,2.8,.27,4.19,.25,1.07,.69,2.11,.74,3.22,.07,1.54-.74,2.57-1.95,3.43-3.57,2.54-8.23,3-11.93,5.39-3.46,2.23-6.21,5.33-9.35,7.97-2.05,3.3-3.2,6.73-4.06,11.11,.29-.05,.58-.09,.87-.16,8.31-1.87,15.14-.74,23.04-2.59,1.2-1.83,2.11-3.71,3.03-5.93,1.17-2.82-1.04-4,.35-6.84Z"/><path class="c" d="M96.65,76.58c4.22-.42,7.14-2.11,8.08-3.91,3.08-5.94-.72-15-2.92-21.24-2.85-8.07-6.69-15.84-11.5-22.93-.92,2.67-2.84,6.58,2.65,12.34,2.6,2.73,1.44,5.92,5.87,12.87,2.22,3.48-.75,4.98-1.27,9.08-.11,.92-3.99,4.81-4.61,6.05-1.4,2.84,.81,4.01-.35,6.84-.92,2.22-1.82,4.09-3.03,5.93,.15-.04,.3-.07,.46-.1,2.82-.7,3.58-4.62,6.61-4.92Z"/></g><g><path class="c" d="M68.19,70.09c1.3-4.69,5.9-11.02,9.28-13.22,4.27-2.78,5.11-6.41,5.38-10.1,.26-3.57,2.02-6.38,3.78-9.48-.18-.52-.36-1.05-.56-1.58-.17-.78-.38-1.54-.58-2.27-1.06-3.78-2.37-8-2.05-11.91,.05-.67,.11-1.22,.16-1.69l-.02-.03c-2.34-.99-4.12-2.71-6.1-4.51-.13,.02-.27,.04-.39,.06-3.64,.7-5.87-4.51-8.89-1.44-2.52,2.56,.38,7.67,.28,8.98-.16,2.27,0,4.91-.78,7.06-.75,2.04-2.53,3.41-3.86,5.05-5.52,6.8,.09,16.93-7.98,21.16-.36,.19-.72,.42-1.07,.69-.25,.86-.53,1.75-.85,2.68-1.46,4.24-2.81,8.8-4.62,10.43-.32,1.12-.64,2.24-.96,3.35-.14,.49-.28,.97-.42,1.46-.17,.59-.34,1.18-.51,1.77-.52,1.84-1.04,3.68-1.54,5.52,.78,.37,1.68,.56,2.73,.48,6.35-.48,11.25,2.68,17.06,1.78,.5-2.54,1.1-4.75,1.91-6.8-.41-1.12-.58-3.16,.61-7.46Z"/><path class="c" d="M68.44,79.33s0-.1,0-.14c-.03,.23-.03,.32,0,.14Z"/><path class="c" d="M79.07,65.27c3.7-2.39,8.36-2.85,11.93-5.39,1.21-.86,2.03-1.89,1.95-3.43-.05-1.11-.49-2.15-.74-3.22-.32-1.4-.28-2.77-.27-4.19,.03-2.68-.53-3.99-2.31-5.95-1.59-1.74-2.3-3.74-3.01-5.81-1.75,3.1-3.52,5.91-3.78,9.48-.27,3.69-1.11,7.32-5.38,10.1-3.38,2.2-7.99,8.53-9.28,13.22-1.19,4.3-1.02,6.34-.61,7.46,.59-1.5,1.29-2.92,2.15-4.31,3.14-2.64,5.89-5.74,9.35-7.97Z"/></g></g><g><g><path class="c" d="M191.71,53.53c0-.18-.69-.75-.9-.97-.92,.67-1.77,1.25-1.98,1.23h-.01c-4.53,.59-9.03,1.36-13.49,2.38-2.76,.63-7.48,1.56-9.95,1.98-.97,.36-2.88,.49-3.91,.58-2.28,.21-5.49-.69-6.64-.44,.03,0-1.16,4.67-1.14,4.68-4.04,2.38-4.91,2.64-9.16,4.54-1.97,.89-3.42,.42-5.16,.14-.4,.26-.8,.51-1.2,.77,.19,.15,.29,.42,.15,.67-1.74,3.04-3.58,6.01-5.02,9.2,.26,1.08,.6,2.17,.8,3.13,.52,2.5,2.28,10.7,2.28,10.7,0,0,2.8-3.6,4.94-4.11,2.8-.67,3.22-.51,5.24-1.18,1.72-.57,3.63-1.48,5.38-2.46,0-2.49,1.41-4.22,2.55-6,1.35-2.1,.27-4.88,.7-6.94,.53-2.57-.81-5.97-.7-8.59,0-.63,.56-2.77,.58-3.47,0-.31,.26-.58,.58-.58,2.24,0,4.88-.34,5.42,.53,.25,.4,.5,.81,.75,1.21,2.39,3.16,10.74,4.77,15.53,4.34,2.4-.22,3.01,1.52,4.55,1.64,1.3-.42,2.56-.78,3.73-.83,1.3-.05,4.33-1.97,5.71-2.31-.01-1.09,.42-7.31,.37-9.84Z"/><path class="c" d="M164.92,73.11c-1.42,1.02-2.34,2.9-3.15,3.85-.59,.7-1.43,1.38-2.67,1.7-1.63,.42-2.61,2.72-3.93,3.68-.91,.66-2.03,1.36-3.23,2.04,0,.12-.01,.24,0,.36,.03,.6,.44-.23,1.05-.43,2.05-.7,3.94-1.62,5.44-3.24,1.87-2.02,17.87-12.78,21.31-13.35,.68-.11,2.78-1.15,2.17-1.19h0c-1.62,.52-3.31,1.13-5.01,1.35-4.57,.59-8.23,2.56-11.97,5.24Z"/><path class="c" d="M161.83,60.53c-.25-.4-.5-.81-.75-1.21-.54-.87-3.18-.52-5.42-.53-.32,0-.57,.27-.58,.58-.02,.7-.58,2.84-.58,3.47-.11,2.63,1.23,6.03,.7,8.59-.43,2.07,.65,4.84-.7,6.94-1.14,1.77-2.55,3.51-2.55,6,1.19-.67,2.31-1.38,3.23-2.04,1.32-.95,2.31-3.25,3.93-3.68,1.24-.32,2.07-1,2.67-1.7,.8-.95,1.72-2.82,3.15-3.85,3.74-2.69,7.4-4.66,11.97-5.24,1.7-.22,3.39-.83,5.01-1.35-1.54-.12-2.15-1.86-4.55-1.64-4.79,.43-13.13-1.18-15.53-4.34Z"/></g><g><path class="c" d="M107.96,57.85c8.1,5.6,16.48,8.9,26.59,8.18,.98-.07,3.68,.61,3.47,1.47-.41,1.68-.99,3.28-1.57,4.85,.62-1.08,1.26-2.16,1.88-3.25,.14-.25,.04-.52-.15-.67,.4-.26,.8-.51,1.2-.77,1.74,.29,3.19,.75,5.16-.14,4.25-1.91,5.12-2.17,9.16-4.54-.03,0,1.16-4.67,1.14-4.68,1.16-.26,4.36,.65,6.64,.44,1.03-.1,2.93-.22,3.91-.58,2.47-.42,7.2-1.36,9.95-1.98,4.46-1.01,8.96-1.79,13.49-2.38h.01c.22,.02,1.06-.56,1.98-1.23-.38-.41-.99-.82-1.38-.96-8.96-3.18-23.63-6.98-33.98-7.8-15.41,1.6-47.49,6.71-53.92,8.01-.01,.02-.03,.04-.04,.07,.41,.88,.88,1.94,1.08,2.11,1.61,1.32,3.72,2.71,5.39,3.86Z"/><path class="c" d="M134.1,81.42l.07,.34c.01-3.38,1.14-6.36,2.27-9.41-1.12,1.94-2.21,3.9-3.14,5.95,.26,1.08,.6,2.17,.8,3.13Z"/><path class="c" d="M112.41,76.98c1.95,3.01,2.53,4.54,5.87,6.18,4.74,2.32,11.47,2.01,17.28,5.08-1.01-2.37-1.38-4.5-1.38-6.49l-.07-.34c-.2-.96-.54-2.04-.8-3.13,.93-2.05,2.02-4,3.14-5.95,.58-1.57,1.16-3.17,1.57-4.85,.21-.86-2.49-1.54-3.47-1.47-10.11,.73-18.48-2.58-26.59-8.18-1.67-1.15-3.78-2.54-5.39-3.86-.2-.17-.67-1.23-1.08-2.11-2.95,4.3-5.64,8.79-8.07,13.42,5.82,3.4,15.51,6.31,18.98,11.68Z"/></g><g><path class="c" d="M191.34,63.37c-1.37,.33-4.41,2.25-5.71,2.31-1.17,.05-2.43,.41-3.73,.83,5.66,1.57,11.29,7.16,15.15,10.83,.34-.06,.67-.13,1.01-.17,4.25-.6,8.61-.92,12.68-2.39,2.21-.8,4.46-2.33,6.87-2.54-2.57-.98-16.19-6.11-26.28-8.87Z"/><path class="c" d="M176.9,67.86c-4.57,.59-8.23,2.56-11.97,5.24-1.42,1.02-2.34,2.9-3.15,3.85-.59,.7-1.43,1.38-2.67,1.7-1.63,.42-2.61,2.72-3.93,3.68-.21,.15-.44,.31-.68,.47,1.15,.59,2.14,1.69,3.32,2.06,1.74,.55,2.99-.25,4.69,.33,1.12,.39,2.09,1.72,3.26,1.54,1.44-.23,3.02-.54,3.92,.75,.3,.44,.95,.9,1.72,1.3,1.99-1.2,3.97-2.44,6-3.7,6.2-3.85,12.49-6.57,19.66-7.74-3.86-3.67-9.5-9.27-15.15-10.83-1.62,.52-3.31,1.13-5.01,1.35Z"/></g><g><path class="c" d="M169.68,87.49c-.9-1.3-2.48-.98-3.92-.75-1.17,.18-2.14-1.15-3.26-1.54-1.69-.58-2.95,.22-4.69-.33-1.18-.38-2.17-1.48-3.32-2.06-2.23,1.51-5.31,3.16-7.93,4.03-2.02,.67-2.44,.51-5.24,1.18-2.14,.51-4.94,4.11-4.94,4.11,0,0-1.62-7.55-2.21-10.37,0,1.99,.36,4.11,1.38,6.49-5.81-3.07-12.54-2.76-17.28-5.08-3.33-1.63-3.92-3.17-5.87-6.18-3.48-5.37-13.16-8.28-18.98-11.68-3.68,7.01-6.78,14.36-9.35,21.85,2.88,2.23,7.61,4.35,9.88,1.08,.62-.89,1.09-2.4,1.55-3.35,1-2.09,2.01-5.66,5.59-8.54-2.18,4.31-2.44,7.32-2.97,12.01,.06,.61,1.74,3.87,3.6,6.85,2.98,1.31,6.21,.9,9.42,1.47,1.4,.25,2.77,1.39,3.74,2.88,.62,.96,3.64,.8,4.72,1.18,5.25,1.87,10.17,1.4,15.35,6.7,2.69,.72,5.09,1.34,7.07,1.85,.74-5.82,6.69-10.01,11.94-11.84,6.34-2.22,11.88-5.28,17.44-8.65-.77-.4-1.41-.86-1.72-1.3Z"/><path class="c" d="M119.6,100.73c-1.08-.38-4.1-.22-4.72-1.18-.97-1.49-2.33-2.64-3.74-2.88-3.21-.56-6.43-.15-9.42-1.47-1.86-2.97-3.54-6.24-3.6-6.85,.53-4.68,.79-7.69,2.97-12.01-3.58,2.88-4.59,6.45-5.59,8.54-.45,.95-.93,2.46-1.55,3.35-2.27,3.28-7.01,1.16-9.88-1.08-.24,.7-.48,1.41-.72,2.11,13.72,7.48,36.99,14.27,51.59,18.16-5.18-5.3-10.1-4.83-15.35-6.7Z"/></g><path class="c" d="M175.01,54.54c-.56-.05-13.84-4.7-19.71-5.78-2.86-.53-5.72-.93-7.07,1.93-.31,.65-.57,1.4,.14,2.34,1.48,1.96,3.16,3.24,5.26,4.51,.46,.28,1.17,1.21,4.96,1.24,4.94,.03,12.02-1.37,15.43-2.88,.91-.4,1.79-1.28,1-1.35Z"/><g><path class="c" d="M167.5,91.08c-4.29,2.45-8.68,4.66-13.53,6.35-5.26,1.84-11.2,6.02-11.94,11.84l.21,.06c2.43-.17,14.97-2.5,24.56-4.38-.5-4.64-.48-9.61,.71-13.87Z"/><path class="c" d="M183.35,101.46c-1.01-4.72-2.13-9.41-3.05-14.14-.31-1.59-2.58-1.52-3.17-.28-.13-.49-.46-.93-.97-1.17-2.91,1.81-5.77,3.57-8.66,5.23-1.19,4.26-1.21,9.23-.71,13.87,3.51-.69,6.63-1.32,8.71-1.76,2.62-.56,5.24-1.15,7.85-1.74Z"/></g><g><path class="c" d="M211.09,74.79c-1.23,.93-4.08,3.66-4.83,4.83-1.94,6.23-2.5,11.43-3.85,17.29,6.29-1.59,12.56-3.27,18.81-5.04-.23-8.74-3.16-19.46-3.16-19.46,0,0-.15-.06-.43-.17-2.2,.18-4.26,1.47-6.29,2.3-.07,.09-.15,.17-.25,.24Z"/><path class="c" d="M195.91,86.85c.25-.78,.54-5.93,.4-9.38-6.86,1.24-12.93,3.9-18.91,7.61-.41,.26-.82,.51-1.23,.77,.5,.25,.83,.69,.97,1.17,.59-1.23,2.86-1.31,3.17,.28,.92,4.73,2.04,9.43,3.05,14.14,2-.45,3.99-.92,5.99-1.39,.72-2,2.74-5.1,3.14-6.31,.18-.52,2.37-3.71,3.42-6.91Z"/><path class="c" d="M206.26,79.62c.75-1.17,3.59-3.9,4.83-4.83,.1-.07,.18-.16,.25-.24-.19,.08-.39,.16-.58,.23-4.07,1.47-8.43,1.79-12.68,2.39-.6,.08-1.18,.2-1.77,.31,.14,3.45-.15,8.6-.4,9.38-1.04,3.21-3.24,6.39-3.42,6.91-.4,1.2-2.43,4.3-3.14,6.31,4.36-1.02,8.72-2.06,13.07-3.16,1.35-5.86,1.91-11.06,3.85-17.29Z"/></g><path class="c" d="M208.97,74.33c-4.5,1.64-11.02,2.19-15.78,3.32-7.2,1.7-13.62,4.65-15.03,5.6-1.74,1.16-5.35,2.77-7.49,2.67-.39-.02-2.12-.27-2.63,.64-1.87,3.3-4.88,6.94-8.33,8.29-.75,.19-5.21,2.12-7.77,1.86-1.27-.13-3.25-.59-4.45-.48-1.18-.26-2.37-.69-3.31-1.55-4.12-3.78-6.74-3.76-7.73-3.78-.68-2.19-.02-9.32-1.11-11.67,1.03-3.87,3.22-6.72,6.16-9.64,1.08-1.07,2.64-.41,3.83-.86,.56-.21,1.97-1.31,2.55-1.44,6.31-1.34,7.39-3.58,7.69-4.89,.27-1.15,.4-2.36,.06-3.34,1.12,.26,2.25,.36,3.4,.31,.84,.05,1.58-.02,2.53-.09,1.24-.09,1.46,.14,4.49-1.01,.98-.37,3.66-.27,4.86-.43,2.09-.28,3.74-1.17,5.43-1.55,1.2-.27,2.83,.08,4.03-.07,1.67-.22,2.78-.64,4.44-.9,1.66-.26,6.06,.03,6.9-1.79,.14-.3,0-.9-.28-1.08-1.18-.76-3.03-1.48-4.64-1.76,.45,.56,.7,1.25,.33,1.98-.56,1.09-2.3,1.25-3.34,1.42-2.42,.38-6.15-.16-8.15,.19-1.69,.29-4.18,1.65-6.59,1.9-1.4,.15-2.43,.45-4.11,.61-.38,.04-1.74-.66-2.12-.68-.34-.01-.9,.46-1.24,.44-.75-.05-1.68-.32-2.43-.4,.51,.36,1.52,.93,2.54,1.12,.36,.07,.73,.41,.79,.58,.04,.11-.62,.31-.87,.31-1.35,.02-3.28-.45-4.51-.1-1.15,.32-2.62-.39-3.16-1.12-.18-.25-2.49-.99-2.28-.74,.24,.28,1.44,1.35,1.63,1.65-.15,2.31,.99,3.19-.13,4.31-.24,.24-1.33,1.19-2.69,2.03-2.14,1.34-5.33,1.75-7.78,2.15-1.16,.19-3.13-.38-4.19-.75-1.38-.48-4.64-1.13-7.01-.9-1.7,.16-4.55-1.41-7.67-1.58-1.71-.09-4.45,.16-5.96-.65-2.98-1.59-6.61-3.24-9.87-4.6,1.65,1.92,5.03,3.63,7.15,4.92,2.69,1.64,5.54,2.86,8.59,3.67,3.03,.8,6.17,1.2,9.3,1.11,.81-.02,2.17,.34,3.32,1.39-.67,2.12-1.71,6.42-3.37,9.56,.05,.82,.15,1.8,.3,2.84-.23,1.58-1.06,4.36-3.4,3.82-1.45-.34-2.81-.94-4.27-1.22-3.54-.68-6.34-1.18-9.12-3.64-3.3-2.92-6.79-7.93-11.24-9.13-.02,0,5.41,4.63,7.65,7.38,1.87,2.29,4.03,4.54,6.81,5.7,1.76,.73,3.62,.86,5.47,1.22,2.37,.46,5.65,1.43,7.86,2.33,1.22,1.22,1.85,2.19,2.29,3.78-2.73,.61-5.5,2.62-8.15,3.03,1.83,1.35,6.14,.29,8.59-1.56,3.13-1.41,4.73,1.15,5.13,1.73,.82,1.17,1.65,2.65,1.75,4.16,.23,3.38-1.7,5.38-1.22,6.82,.28,.86,.68,3.05,.68,3.05,0,0,2.1-3.61,3.03-4.98,2.49-3.66,6.85-4.51,10.97-5.99,2.9-.47,7.45-2.52,9.8-2.85,1.48-.2,1.55-1.32,2.27-2.08,1.93-2.04,4.03-4.68,5.7-4.66,2.42,.02,4.46,.02,6.8-1.12,.49-.24,7.14-5.36,9.83-6.55,5.25-2.33,13.77-3.09,19.67-4.63,3.93-1.03,5.88-3.15,7.91-3.54-1.6-.6-4.41,.22-9.08,1.92Z"/></g><g><g><path class="c" d="M88.23,89.12c.86-1.36,3.6-1.44,3.97-3.12,.45-2.05,1.27-4.2,1.3-7.13-2.39,1.45-5.55,2.9-7.35,3.81-2.45,1.24-5.02,1.7-5.44,4.68-.25,1.78-.24,3.57-.33,5.36-.05,1.11,.47,3.93,1.42,4.82,.07,.07,.15,.13,.22,.18,.41,.01,.78,.02,1.1,.03,.58,.02,1.5-.26,2.6-.73-.24-3.07,1.47-6.29,2.5-7.91Z"/><path class="c" d="M95.5,90.15c2.16-2.91,2.11-8.95,1.52-12.51-.09-.54-.23-1.02-.41-1.45-.3,.79-1.54,1.74-3.11,2.69-.03,2.92-.85,5.07-1.3,7.13-.37,1.68-3.1,1.76-3.97,3.12-1.03,1.62-2.74,4.85-2.5,7.91,3.25-1.4,8.01-4.53,9.77-6.89Z"/></g><g><path class="c" d="M93.54,73.1c-2.59-1.2-5.97-1.4-8.94-1.34-1.32-.03-2.64,.05-3.91,.14-4.09,.29-10.38,1.83-14.33,2.93-1.77,1.78-1.97,7.53-1.74,9.58,.1,.84,.24,1.62,.42,2.36,.33-.52,.68-1.02,.76-1.6-.23-1.63,.05-2.34,.59-1.62,.96,1.3,.55,2.25,2.52,2.81,.93,.26,.67,2.19,.82,2.45,1.03,1.89,1.36,.55,2.05,1.25,1.87,1.89,3.24,1.05,5.53,1.82,.77,.26,1.79,1.72,3.12,1.76-.04-.36-.06-.67-.04-.91,.08-1.79,.08-3.58,.33-5.36,.42-2.98,2.99-3.44,5.44-4.68,2.98-1.51,9.71-4.52,10.46-6.5-.81-1.99-2.37-2.77-3.07-3.09Z"/><path class="c" d="M71.79,90.05c-.69-.7-1.03,.63-2.05-1.25-.14-.26,.11-2.19-.82-2.45-1.98-.56-1.56-1.51-2.52-2.81-.53-.72-.82,0-.59,1.62-.07,.58-.43,1.08-.76,1.6,2.45,9.94,12.25,10.81,16.98,10.97-.08-.06-.15-.12-.22-.18-.75-.7-1.23-2.59-1.38-3.91-1.33-.04-2.35-1.5-3.12-1.76-2.29-.77-3.66,.07-5.53-1.82Z"/></g><g><path class="c" d="M96,74.83c-1.68-1.8-4.83-2.9-7.13-3.16-7.11-.82-19.25,1.87-22.51,3.16,.67,1.72,1.61,3.3,2.75,4.67-.02-.25,0-.51,.1-.77,.09-.26,.38-.47,.66-.48,1.24-.96,3.23-1.16,4.66-1.57,2.5-.73,5.07-1.21,7.57-1.92,.35-.1,.59,.22,.54,.54-.12,.71-.34,1-.99,1.33-.39,.2-1.26,.79-.92,2.78,.31,1.83-.43,4.13-.46,5.43,3.41-.19,8.62-2.53,12.85-6.19,.32-.28,1.93-.78,2.25-1,1.25-.83,1.81-1.55,.63-2.81Z"/><path class="c" d="M80.73,79.4c-.34-1.99,.53-2.58,.92-2.78,.65-.33,.87-.62,.99-1.33,.05-.31-.19-.63-.54-.54-2.49,.71-5.06,1.19-7.57,1.92-1.43,.42-3.41,.61-4.66,1.57-.28,0-.57,.22-.66,.48-.09,.27-.12,.52-.1,.77,2.67,3.23,6.45,5.31,10.65,5.35,.16,0,.33,0,.5-.02,.03-1.3,.77-3.59,.46-5.43Z"/></g><path class="c" d="M91.58,78.78c-2.62,2.27-6.66,3.98-7.6,4.46-2.47,1.26-4.54,1.46-6.19,.72-2.54-1.14-4.48-1.18-5.32-2.05-.97-1.01-2.49-3.77-2.92-4.33-.48-.62-1.74-1.93-3.18-2.75,.59,1.41,.9,4.05,5.11,7.58,.62,.52,1.67,1.57,2.39,1.61,.39,.12,2.86,.36,3.73,.74,.58,.26,1.36,.52,1.84,1.65,.66,1.54,.35,3.32,.32,4.01-.09,2.67-.35,4.94,1.53,6.42-.7-1.6-.37-6.03-.05-9.15,.11-1.11,.63-2.59,1.31-2.57,3.35,.08,4.59-1.73,6.21-3.04,2.41-1.94,2.9-.57,4.39-1.92,.48-.44,.85-1.42,1.3-1.62,1.51-.65,2.15-1.11,2.2-2.49-1.09,1.47-3.17,1.07-5.08,2.72Z"/><path class="c" d="M93.37,80.77c-.38,2.46-.84,4.65-3.12,5.84-1.28,.67-2.85,3.21-3.82,3.84-2.23,1.44-1.63,4.21-.71,5.79,.37-3.35,1.08-4.04,2.42-5.11,1.42-1.14,1.54-2.94,3.02-3.87,2.58-1.62,2.68-4.22,2.21-6.5Z"/></g><g><path class="c" d="M159.28,116.49c-.22-3.88,.22-8.86-1.71-12.4-1.72,1.04-3.46,2.24-4.45,4.02-.63,1.13-.11,2.74-.8,3.74,.55,2.19,1.06,4.64,1.85,6.88,.65,1.85,2.17,4.55,3.01,7.49,3.19-2.13,2.28-6.41,2.09-9.73Z"/><g><path class="c" d="M157.19,126.21c-.84-2.94-2.36-5.64-3.01-7.49-.79-2.25-1.3-4.7-1.85-6.88-.13,.19-.31,.37-.55,.51-1.05,.61-2.77,.96-4.13,1.24-.15,2.31-.75,4.59-.04,6.94,.45,1.5,1.07,2.98,1.7,4.42,.4,.9,1,1.86,1.31,2.85,2.28-.04,4.53-.36,6.29-1.39,.1-.06,.18-.12,.27-.18Z"/><path class="c" d="M147.61,120.53c-.71-2.35-.1-4.63,.04-6.94-.22,.05-.43,.09-.63,.13-1.76,.39-3.35,.47-4.8,.4,.46,2.85,1.04,5.69,1.59,8.52,.29,1.5,.62,3,.87,4.51,.02,.12,.03,.23,.04,.35,1.75,.13,3.83,.33,5.89,.29-.3-.99-.91-1.94-1.31-2.85-.64-1.43-1.25-2.91-1.7-4.42Z"/></g><g><path class="c" d="M144.73,127.5c-.01-.12-.02-.23-.04-.35-.25-1.51-.58-3.01-.87-4.51-.55-2.83-1.13-5.67-1.59-8.52-3.28-.15-5.83-1.06-7.87-.97-2.95,.13-5.9,.15-8.85,.22-1.92,.04-5.54-.53-6.77,.64-.37,.35-.94,1.22-1.46,2.27,.16,.39,.36,.78,.59,1.15,.26,0,.54,0,.85-.05,1.49-.22,2.02-1.35,3.63-1.12,2.55,.37,4.11,3.13,6.17,4.42,2.82,1.77,6.18,2.59,9.4,3.27,.83,.17,1.88,.2,2.37,1,.35,.57,.48,1.44,.56,2.21,1.33,.14,2.64,.25,3.88,.34h0Z"/><path class="c" d="M137.91,123.95c-3.22-.68-6.59-1.5-9.4-3.27-2.06-1.29-3.62-4.05-6.17-4.42-1.6-.23-2.13,.9-3.63,1.12-.31,.05-.59,.04-.85,.05,.31,.5,.67,.99,1.1,1.45,5.23,5.63,14.12,7.47,21.88,8.28-.08-.77-.2-1.64-.56-2.21-.5-.8-1.54-.83-2.37-1Z"/></g><g><path class="c" d="M117.27,116.28c.18-.36,.36-.69,.54-.99-.32-.05-.62-.12-.91-.21,.1,.41,.22,.81,.38,1.2Z"/><path class="c" d="M157.49,103.92c-1.86-3.25-5.34-3.67-8.76-3.7-5.95-.06-12.58,.39-18.75,2.04-.73,.71-1.32,1.57-2.02,2.36-.86,.98-2.3,1.65-2.92,2.78-2.25,4.1,4.99,4.66,7.24,5.74,.03,.02,.04,.05,.04,.08,.68-.02,1.36-.04,2.04-.07,2.95-.13,6.94,1.83,12.67,.57,1.41-.31,3.54-.66,4.76-1.37,1.48-.87,.59-2.9,1.34-4.25,.99-1.78,2.72-2.98,4.45-4.02-.03-.05-.05-.11-.08-.16Z"/><path class="c" d="M118.73,114c-.24,.23-.58,.69-.93,1.28,.16,.02,.32,.04,.48,.05,2.01,.14,4.12-.36,6.1-.65,2.46-.37,4.92-.75,7.38-1.12,.17-.03,.23-.16,.21-.29,.08,0,.17,.02,.25,.02,.04,0,.07-.03,.08-.07-2.27,.07-4.54,.09-6.81,.14-1.92,.04-5.54-.53-6.77,.64Z"/><path class="c" d="M125.03,107.4c.62-1.13,2.06-1.81,2.92-2.78,.7-.79,1.28-1.65,2.02-2.36-2.72,.72-5.35,1.68-7.8,2.92-1.48,.75-4.38,2.72-4.93,4.48-.61,1.95-.74,3.76-.34,5.43,.29,.09,.6,.16,.91,.21,.35-.59,.68-1.05,.93-1.28,1.23-1.17,4.85-.6,6.77-.64,2.27-.05,4.54-.07,6.81-.14,0-.03,0-.07-.04-.08-2.25-1.09-9.49-1.64-7.24-5.74Z"/></g><path class="c" d="M157.57,104.08c-1.31-3.09-4.38-3.48-5.9-3.68-3.32-.45-6.84-.71-10.12,.04,.91,.11,4.02,.88,6.92,.44,1.68-.26,2.28,.17,3.29,.17,.56,0,2.15,.21,2.82,.72,.31,.24,1.22,1.16,.54,1.6-1.36,.88-2.31,1.6-2.8,2.99-.55,1.55-1.67,2.97-2.97,3.94-2.77,2.05-6.08,2.76-9.35,2.18-1.31-.23-4.08,.09-5.66,.16-.52,0-1.05,0-1.58,.02-.6,.03-1.19,.08-1.79,.13-.43,.02-.87,.04-1.3,.06-1.06,.05-3.95-.34-6.63-.12-2.37,.2-3.21,.26-4.05-.23-2.38-1.39-.08-5.05,1.75-6.44-.05,0-.11,0-.17,.02-1.21,.48-2.85,1.71-3.64,3.79-.7,1.83-.49,4.85,.48,6.64,.31-.85,1.1-1.65,1.81-2.15,.36-.25,.68-.45,1.12-.51,.38-.05,2.08,.18,2.65,.21,3.16,.19,6.46-.24,9.62-.38,1.2-.05,2.4-.2,3.6-.17,1.23,.03,2.94,.45,4.26,.65,.33,.53,1,2.07,1.2,2.48,1.37,2.92,1.23,5.94,2.71,8.85-.14-2.17-.43-4.88-1-6.97-.32-1.15-.38-2.65-.71-4.14,2.12,.18,4.89,.31,7.33-.93,.62-.45,1.18-.51,1.47,.43,.68,2.23,1.22,3.43,2.48,5.39,.78,1.22,1.08,1.63,2.16,3.97-.58-2.29-1.63-4.62-2.1-6.95-.41-2-1.02-4.22-1.22-6.25-.18-1.87,1.24-3.15,3.02-4.2,.91-.54,2.17-.48,1.77-1.73Z"/></g><g><g><path class="c" d="M199.4,112.28c.67,.5,1.44,.95,2.21,1.37-.48-3.1-.66-7.15-.88-9.7-.03-.37-.23-3.66-.19-4.94-.03-.83,1.36-2.56,.21-3.23-.3-.17-.66-.31-1.01-.48-.14,.85-.38,1.72-.44,2.46-.41,4.63-.41,9.74,.11,14.52Z"/><path class="c" d="M198.27,93.35c.04-.28,.03-.98,.08-1.26-3.05,3.77-2.22,11.04-1.59,15.24,.22,1.44,.48,2.81,1.52,3.95,.32,.35,.71,.68,1.13,1-.52-4.79-.52-9.9-.11-14.52,.07-.74,.3-1.61,.44-2.46-.75-.35-1.46-.81-1.47-1.95Z"/></g><g><path class="c" d="M227.38,96.86c-1.05-2.28-2.6-3.94-4.75-5-4.36,6.29-13.76,4.51-20.33,4.17-1-.05-2.62-.04-3.75-.5,.27,.48,.53,.97,.62,1.54,.09,.55,0,1.05,.2,1.59,.4,1.05,1.16,1.46,2.17,1.87,3.3,1.34,6.12,2.65,8.96,4.87,2.6,2.04,5.03,4.29,7.69,6.25,1.41,1.03,2.87,1.99,4.44,2.77,.88,.43,2.67,1.51,3.71,1.32,1.12-.21,2.63-2.19,3.37-2.95,1.57-1.6,3-3.34,4.25-5.21-2.02-3.07-4.93-7.11-6.58-10.71Z"/><g><path class="c" d="M221.36,91.32c-1.65-.58-3.39-.84-5.15-.97-.24,1-1.58,1.97-2.62,2.44-2.75,1.25-7.92,1.98-10.66,.27-1.4-.88-1.17-1.64-.41-2.26-.77,.12-1.54,.26-2.29,.43-1.73,.4-2.84,1.21-2.29,3.04,.13,.44,.37,.85,.61,1.26,1.13,.46,2.75,.45,3.75,.5,6.57,.35,15.97,2.12,20.33-4.17-.4-.2-.82-.38-1.27-.54Z"/><path class="c" d="M202.93,93.06c2.74,1.71,7.91,.98,10.66-.27,1.04-.47,2.38-1.44,2.62-2.44-1.39-.1-2.79-.12-4.16-.12-3.11,0-6.39,.09-9.53,.58-.75,.62-.99,1.38,.41,2.26Z"/></g><path class="c" d="M233.12,106.3c-2.85,3.08-5.47,4.59-7.95,7.97,0,.01,.34,1.36,.34,1.37-.09,.07-1.44,1.45,.66,1.36,1.99-.09,7.09-1.37,7.91-2.14,2.19-2.05,1.59-5.63-.96-8.56Z"/><g><path class="c" d="M225.5,115.64c-2.33-1.31-3.12-3.44-4.82-5.04-1.99-1.87-3.92-3.92-6.21-5.43-2.01-1.32-4.38-2.21-6.67-3.05,.48,3.93,.49,11.21,.6,14.77,3.04,1.1,6.9,2.02,10.3,1.6,2.16-.34,5.3-1.31,7.47-1.49,.36-.36-.68-.83-.66-1.36Z"/><path class="c" d="M206.44,101.62c-1.14-.42-2.29-.83-3.46-1.18-.59-.18-2.11-.61-2.41-1.22-.03-.06-.04-.13-.04-.21-.04,1.29,.16,4.57,.19,4.94,.22,2.56,.4,6.61,.88,9.7,.88,.48,1.76,.92,2.5,1.33,.96,.53,2.47,1.24,4.28,1.9-.11-3.56-.12-10.84-.6-14.77-.46-.17-.91-.33-1.36-.5Z"/></g><path class="c" d="M228.04,106.3c-1.94-1.84-5.15-3.01-7.8-2.12,.6,1.46,2.58,5.85,3.54,8.9,.08,.25,2.16-.64,2.4-.83,1.01-.77,3.27-1.94,3.49-3.29,.16-1.02-.97-2.04-1.62-2.65Z"/><path class="c" d="M226.79,111.12c-.24,.19-1.9,2.15-2.82-.3-.46-1.22-1.14-3.52-1.43-4.52-.32-1.11-1.89-2.72-3.19-3.35,.53,.85,3.16,5.85,2.26,6.51-.68,.5-2.52-.86-2.99-1.2-1.88-1.44-3.38-3.02-5.41-4.25-2.3-1.55-4.54-3.3-7.68-3.66-4.41-.52-4.22-3.05-3.62-3.61,.46-.43,2.43-.2,2.66-.55-3.19-.75-4.76-1.48-5.57-2.21-.5-.45-.33-1.44,1.06-2.7-2.8,.59-2.5,2.16-2.27,2.77,.15,.39,1.2,1.39,1.2,2.48,0,.77-.26,1.84,.74,4.76,.15,.44,1.18,6.84,1.54,9.7,.91-1.1,.3-6,.12-8.65,1.35,.27,2.89,.85,4.24,.97,1.05,.09,1.53-.53,3.05,.15,1.22,.55,2.78,.78,3.89,1.51,.82,.57,4.65,4.42,5.8,5.53,1.41,1.36,.61,2.57,3.16,3.34,1.07,.32,2.31,1.16,4.43,2.56,.12-1.16-.18-2.12,1.42-3.3,3.89-2.86,4.47-4.9,5.71-6.8-3.44,1.13-4.49,3.33-6.32,4.82Z"/><path class="c" d="M225,93.49c-1.62-2.22-5.97-3.26-7-2.92,.82,.23,4.91,1.59,3.66,2.48-3.4,2.42-5.68,2.41-7.36,2.62-2.26,.28-5.14,.76-7.07,.71,1.3,.91,6.11,.31,8.97,.42,.99,.04,4.38,.1,6.04-.83,1.07-.6,3.33-1.68,2.75-2.48Z"/></g></g><path class="b" d="M85.95,87.93c-5.83-1.13-12.94-2.65-18.62,.11-1.2,.45-2.36,1.2-2.85,2.63-.79,2.27,.61,4.55,2.13,5.76,4.65,3.67,11.41,4.72,16.87,4.46,2.75-.13,5.58-.57,8.18-1.7,1.74-.76,4.74-2.36,5.38-4.68,1.35-4.91-9.03-6.17-11.09-6.57Z"/><g><path class="c" d="M191.06,107.36c-1.22-.47-2.48-.86-3.76-1.16-.97-.22-1.79-.29-2.51-.21-.87,.29-1.96,.79-1.62,1.78,.52,1.51,1.52,3.06,1.52,3.06,0,0,3.71-.69,4.43-.84,.42-.09,2.41-.7,4.17-1.5-.04-.08-.08-.15-.13-.21-.35-.46-1.54-.7-2.11-.93Z"/><g><path class="c" d="M184.5,109.64c.19,.38,.44,.74,.74,1.09,0,0-.34-.45-.74-1.09Z"/><path class="c" d="M184.23,112.73c.31-.69,1.15-1.64,1.52-2.1-.3-.36-1.07-.62-1.26-1-.32-.53-.68-1.19-.91-1.87-.34-.99,.33-1.48,1.2-1.78-.9,.1-1.64,.42-2.3,1-1.16,.78-2.06,2.02-2.79,3.35,.77,.76,1.98,1.45,2.91,1.82,.46,.19,1.12,.62,1.62,.56Z"/></g><path class="c" d="M194.36,113.96c.08-.03-.17-2.16-.55-3.83-.03,0-.06,0-.1,.01-1.12,.41-2.18,.98-3.25,1.49-.97,.46-2.22,.83-3.06,1.5-.84,.67-1.39,2.27-1.32,3.43,.06,0,.12,0,.17,0,2.64-.26,5.6-1.79,8.11-2.59Z"/><g><path class="c" d="M184.23,112.73c-.51,.06-1.16-.38-1.62-.56-.93-.37-2.14-1.06-2.91-1.82-.65,1.19-1.16,2.46-1.57,3.56-.04,.11,2.65,1.44,5.14,2.17,.21-.62,.36-1.57,.51-2.05,.13-.43,.17-.94,.45-1.3Z"/><path class="c" d="M186.1,110.57c-.5,.09-.86,.16-.86,.16-.37,.46-.69,1.31-1,2,.55-.71,1.03-1.61,1.2-1.78,.1-.1,.35-.24,.66-.38Z"/><path class="c" d="M193.3,108.5c-1.76,.8-3.75,1.41-4.17,1.5-.1,.02-.24,.05-.42,.08-.29,.59-.64,1.49-1.1,1.93-.38,.36-1.08,.46-1.4,.62-.24,.12-.74,.3-.97,.43-.56,.98-.74,1.93-.96,3.05-.02,.08-.04,.15-.06,.22,.69,.16,1.33,.25,1.85,.22-.07-1.16,.48-2.76,1.32-3.43,.84-.67,2.09-1.03,3.06-1.5,1.08-.51,2.13-1.08,3.25-1.49,.03-.01,.06,0,.1-.01-.15-.67-.33-1.26-.51-1.62Z"/><path class="c" d="M188.77,109.94c.2-.39-1.63,.16-2.68,.64,.79-.15,1.93-.36,2.61-.49,.02-.05,.05-.1,.07-.14Z"/><path class="c" d="M185.23,113.06c.23-.13,.73-.32,.97-.43,.32-.16,1.01-.25,1.4-.62,.46-.44,.82-1.34,1.1-1.93-.68,.13-1.82,.35-2.61,.49-.31,.14-.56,.28-.66,.38-.17,.18-.65,1.07-1.2,1.78-.28,.36-.32,.86-.45,1.3-.15,.48-.3,1.43-.51,2.05,.32,.09,.64,.18,.95,.25,.02-.06,.04-.14,.06-.22,.21-1.12,.39-2.07,.96-3.05Z"/></g><path class="c" d="M193.05,108.61c-1.77,.17-3.64,.84-5.23,1.25-1.39,.35-2.58,.19-3.57-.92-.41-.46-.85-1.59-.34-2.48-.76,.1-.49,1.66-.32,2.08,.15,.38,.25,.79,.51,1.1,.37,.48,.41,1,.41,1.01,.04,.93-.41,1.33-.26,2.08,.97-1.17,1.34-1.78,2.8-2.2,1.01-.29,3.76-1,3.92-1.05,.57-.17,1.52-.45,2.09-.87Z"/><path class="c" d="M190.98,110.57c-.69,.3-.43,.47-1.06,.88-.24,.16-1.12,.57-1.44,.8-.37,.16-1.3,.31-1.45,.58-.03,.05-.55,1.21-.53,1.56,.39-.36,.7-1.01,1.29-1.41,.77-.12,1.31-.39,1.88-.81,1.18-.86,2.3-1.16,3.61-1.8-.8-.03-1.57-.11-2.3,.21Z"/></g><g><g><path class="c" d="M55.35,122.39c-.84,.13-1.61,1.6-1.85,2.52-.16,.61-.42,1.73-.45,2.38-.04,1.2,1.78,1.15,2.73,1.23,.13,.01,.36-.01,.63-.08-.15-1.08-1.14-1.76-1.21-2.61-.09-.94-.28-2.51,.15-3.43Z"/><path class="c" d="M58.09,126.53c-.33-2.02-1.9-4.16-2.61-4.17-.04,0-.08,.02-.13,.03-.43,.93-.24,2.49-.15,3.43,.08,.85,1.06,1.53,1.21,2.61,.78-.19,1.86-.75,1.67-1.9Z"/></g><path class="c" d="M56.68,123.21c-.17-.31-.37-.6-.72-.82-.26-.16-.5-.33-.87-.05-.42,.31-1.09,1.08-1.18,1.54,.21,0,.41-.57,.92-1.01-.35,.98,.12,2.66,.49,3.38-.02-.53-.17-1.37-.14-1.92,.04-.69,.17-.98,.3-1.44,.17-.35,.37,.04,.58,.12,.19,.08,.37,.22,.52,.37,.13,.18,.41,.83,.67,.83-.03-.06-.44-.83-.56-1.01Z"/></g><g><path class="c" d="M170.72,117.84c.49,.35,1.94,.44,2.45,.75,.85,.5,.8,1.5,1.62,2.74,1.3,1.98,2.37,2.06,5.42,1.31-1.01-1.42-2.47-2.41-3.59-3.58-1.08-1.13-2.39-2.96-4.08-2.97-.58,0-1.11-.14-1.69,.11-.35,.15-.64,.38-.91,.65,0,.03,0,.05,0,.08,.1,.4,.48,.68,.79,.9Z"/><g><path class="c" d="M177.96,123.84c.72-.14,1.63-.33,2.25,.03,.51,.29,.68,1.91,.74,2.4,.01,.1,.02,.21,.03,.32,.14-.04,.28-.07,.43-.11,.01-1.63-.48-2.84-1.19-3.84-3.05,.75-4.12,.67-5.42-1.31-.82-1.24-.77-2.25-1.62-2.74-.52-.3-1.96-.39-2.45-.75-.31-.22-.69-.51-.79-.9,0-.03,0-.05,0-.08-.32,.32-.59,.68-.84,1.03-.36,.52-.72,1.11-1.05,1.72,.73,.21,2.05,.9,2.62,1.39,1.04,.89,2.81,1.67,2.97,3.05,.11,.93,.32,2.12,.2,3.6,.29,0,.6-.02,.89-.02,.03-.69,.72-1.4,1.41-2.48,.37-.58,1.17-1.19,1.83-1.32Z"/><path class="c" d="M180.94,126.27c-.06-.49-.23-2.11-.74-2.4-.62-.36-1.53-.17-2.25-.03-.66,.13-1.46,.74-1.83,1.32-.69,1.08-1.37,1.79-1.41,2.48,1.92-.05,3.99-.42,6.25-1.05,0-.11-.01-.22-.03-.32Z"/></g><g><path class="c" d="M172.05,123.08c.95,.18,1.21,.21,1.59,1.02v-.04c-.17-1.38-1.93-2.16-2.98-3.05-.57-.48-1.89-1.17-2.62-1.39-.71,1.33-1.27,2.81-1.35,4.19,.51,.5,1.18,1.16,1.93,1.79,.05-.45,.38-2.36,.81-2.72,.66-.56,1.95,.07,2.62,.2Z"/><path class="c" d="M173.63,124.1c-.37-.81-.63-.84-1.59-1.02-.67-.13-1.96-.76-2.62-.2-.43,.36-.75,2.27-.81,2.72,1.05,.89,2.24,1.72,3.35,1.9,.57,.09,1.16,.14,1.77,.16,.03,0,.07,0,.1,0,.02-.28,.08-.53,.08-.78,0-1.1-.18-2.03-.28-2.78Z"/></g><path class="c" d="M179.32,122.85c-.51-.04-1.46,.01-1.97-.07-1.27-.22-1.54-.86-1.62-.96-.69-.88-.9-1.08-1.39-2.04-.16-.31-.21-1.12-.54-1.26-.11-.05-.82-.34-1.08-.46-.25-.13-1.02-.14-1.45-.45-.4-.29-.47-.89-.46-.99,.03-.23,.82-.54,.76-.55-.76-.07-1.12,.19-1.74,.89-.23,.26,.88,1.04,.91,1.05,.6,.38,1.96,.55,2.26,.95,.36,.49,.08,1.35-.11,1.89-.38,1.1-.29,2.52-.25,2.66,.24,.71,.59,.44,.72,.55,.31,.26,.1,1.47,.5,1.93,.06-.51-.14-2.25,.42-2.9,.16-.19,.53-.1,1.61,0,.94,.09,1.42,.44,3.42-.23Z"/></g><g><g><path class="c" d="M37.95,124.03c.14-.01,.08-.77,.22-.83,.53-.22,.87-.26,1.44-.41,.99-.25,2.23,0,3.23-.04,1.52-.06,3.01-.31,4.5-.63-.71,.06-.91-.31-.82-.46-.64-1.5-.93-2.31-2.61-2.34-2.15-.04-4.27,.75-6.21,1.59-.44,.19-1.14,.42-1.77,.75-.1,.37-.26,.78-.3,1.04-.12,.79,1.64,1.38,2.31,1.32Z"/><path class="c" d="M34.62,123.3c.02,1.14,1.63,1.74,2.47,2.06,1.94,.75,3.95,.68,5.97,.71,1.16,.02,2.86,.06,3.88-.62,.98-.65,1.2-2.07,.57-3.08-1.48,.32-3.13,.32-4.64,.37-1.01,.04-2.24-.22-3.23,.04-.58,.15-.91,.19-1.44,.41-.15,.06-.08,.82-.22,.83-.66,.06-2.42-.54-2.31-1.32,.04-.26,.2-.67,.3-1.04-.72,.38-1.34,.89-1.32,1.64Z"/></g><path class="c" d="M46.11,120.72c-1.35,.34-2.75,1.29-4.14,1.38-.71,.04-1.96-.17-2.58,.22-.04,.03-.45,.67-1.22,.89,.86,.69,2.83,.04,3.89,0,.66-.02,1.4,.19,2.38,.08,1.07-.12,2.39-.57,3.06-.9-.13-.39-.73-.5-.96-.72-.09-.26-.25-.67-.42-.95Z"/><path class="c" d="M45.72,120.07c-1.13-1.54-4.14-.7-5.03-.43-1.21,.37-2.93,.98-3.99,1.68-.53,.35,.63-.03,.78-.07,1.23-.31,3.04-1.1,4.29-1.35,.74-.15,3.48,.46,3.95,.18Z"/></g><g><path class="c" d="M13.99,70.55c1.18-.03,1.88-.76,1.88-1.77,0-3.84-1.79-7.48,.12-11.01,1.31-2.4,3.88-3.67,3.87-7.04,0-.17-.15-.73-.35-1.34-2.88,.27-5.52,2.05-8.2,3.46-1.04,.55-6.72,4.09-8.63,8.48-1.26,2.89-1.65,6.14-1.57,9.17,1.88,2.89,10.27,.11,12.89,.05Z"/><path class="c" d="M29.66,57.42c-1.72,3.91,.82,5.17-1.24,7.85-.77,1.32-1.22,3.02-.63,3.78,1.19,1.51,6.29,2.72,8.64,1.76,2.56-1.04,3.81-3.88,5.53-6.04,1.4-1.76,2.43-3.49,4.33-4.81,.51-.35,2.19-.93,4.04-1.55h-.05c1.67-1.06,4.15-2.28,4.99-4.19-1.91-1.46-11.34-2.86-16.88-2.07-3.05,.44-6.08,1.58-9.14,.76,.74,1.49,.99,3.23,.42,4.51Z"/><g><path class="c" d="M77.17,88.53c-.08-6.9-.66-11.15-3.2-15.32,1.93,4.72,.21,8.36-3.67,11.14-1.28,.92-1.82,2.77-3.45,3.07-2.41,.45-4.64,1.09-6.37,4.05-.56,.96-2.2,.47-3.15,1.42-1.42,1.43-3.7,2.86-5.47,3.73-6.49,3.16-24.05,9.71-31.27,4.6-.37-.26-3.46-3.8-2.92-3.82,6.04-.3,11.48-3.35,15.83-7.17,1.39-1.22,3.45-3.54,5.18-4.2,6.59-2.5,3.24-3.51,4.12-6.13,.94-2.78,3.94-3.11,6.51-4.11,1.98-.77,6.88-1.5,7.4-3.71,.44-1.89,1.53-4.26,.71-6.03-.49-1.04-2.83-1.14-3.92-1.45-1.13-.45-2.28-.72-3.46-.99-.81-.19-.77-1.19-.21-1.61,1.88-1.42,4.03-1.97,6.24-1.91-1.87-.62-3.79-1.16-5.73-1.68-1.85,.62-3.53,1.19-4.04,1.55-1.9,1.32-2.92,3.05-4.33,4.81-1.72,2.16-2.74,5.34-5.3,6.38-2.35,.96-7.67-.59-8.87-2.1-.59-.75-.14-2.45,.63-3.78,2.07-2.67-.48-3.93,1.24-7.85,.56-1.28,.32-3.02-.42-4.51-.14-.04-.28-.07-.42-.12-2.09-.68-3.8-2.14-5.84-2.93-1.2-.46-2.35-.57-3.46-.47,.2,.61,.35,1.17,.35,1.34,.01,3.37-2.56,4.64-3.87,7.04-1.92,3.53-.12,7.17-.12,11.01,0,1.01-.7,1.74-1.88,1.77-2.61,.06-11.01,2.85-12.89-.05,.08,3.46,.77,6.62,1.5,8.6-.14,1.83-.28,3.66-.39,5.49-.29,4.76-.74,9.67,.86,14.26,2.65,7.62,9.96,11.83,16.71,15.37,.82,.43,1.79,.13,2.19-.67,.34,0,.71-.07,1.09-.28,2.12-1.16,5.11,1.74,8.18,4.42,10.7-.66,22.36-4.17,32.07-8.76,3.82-1.81,13.79-9.51,13.79-10.46,0,0,.09-9.09,.08-9.95Z"/><path class="c" d="M49.81,62c-.56,.42-.6,1.42,.21,1.61,1.19,.28,2.33,.54,3.46,.99,1.09,.31,3.44,.4,3.92,1.45,.82,1.76-.27,4.13-.71,6.03-.52,2.21-5.42,2.94-7.4,3.71-2.56,1-5.57,1.33-6.51,4.11-.89,2.62,2.47,3.63-4.12,6.13-1.73,.66-3.79,2.98-5.18,4.2-4.34,3.81-9.78,6.86-15.83,7.17-.54,.03,2.56,3.57,2.92,3.82,7.22,5.11,24.78-1.44,31.27-4.6,1.78-.87,4.05-2.3,5.47-3.73,.95-.96,2.59-.47,3.15-1.42,1.73-2.96,3.97-3.6,6.37-4.05,1.63-.3,2.17-2.16,3.45-3.07,3.88-2.78,5.6-6.42,3.67-11.14-.95-1.56-2.16-3.11-3.74-4.77-4.04-4.27-8.94-6.62-14.18-8.35-2.21-.06-4.36,.49-6.24,1.91Z"/></g><path class="c" d="M29.96,108.89c-2.28-5.1-7.53-8.73-11.6-12.3-8.11-7.1-15.16-19.76-15.1-26.57,.02-2.35-.84-5.34-.58-8.68-1.89,4.08-2.06,9.82-2.13,11.84-.19,5.01,.27,10.2,.6,15.02,.34,5.03,.25,10.67,3.48,14.83,3.28,4.22,7.86,8.48,12.5,11.12,4.36,2.48,14.11,3.56,14.11,3.56,0,0-.28-6.59-1.27-8.81Z"/><g><path class="c" d="M59.12,86.32c-2.57,1.52-4.96,2.81-5.76,3.55-.91,.84-3.39,1.43-4.46,2.06-3.1,1.83-6.38,3.36-9.8,4.5-5.72,1.89-14.67,4.88-19.96,.83,2.21,4.65,8.99,12.75,9.89,19.48,0,.02,.01,.03,.02,.05-2-.8-5.33-2.57-7.02-4.7-1.82-2.3-5.82-5.92-7.93-6.81-.64-.27-2.83-.86-3.49-1.63-2.62-3.06-3.23-2.39-4.27-3.09-2.8-1.89-4.43-5.21-4.96-8.65,.68,7.1,2.44,10.39,3.65,11.9,5.81,7.27,10.38,10.37,16.26,12.07,5.41,1.56,9.95,2.18,9.95,2.18,0,0,7.9-.45,13.12-1.97,3.55-1.03,19.2-6.48,22.33-8.1,5.12-2.64,14.19-6.58,14.75-7.48,.51-2.69,.2-7.45,0-9.35-.18-1.65-.53-3.42-1.02-5.21-4.27,.86-10.93,2.28-14.18,4.8-2.59-1.39-5.92-3.48-7.1-4.41Z"/><path class="c" d="M65.98,81.41c-1.54,1.65-4.3,3.4-6.87,4.92,1.18,.94,4.51,3.02,7.1,4.41,3.25-2.52,9.91-3.94,14.18-4.8-1.47-5.35-4.41-12.15-7.16-14.79-1.05,4.66-4.41,7.2-7.26,10.26Z"/></g><path class="c" d="M57.92,86.79c-1.14-.36-3.26-.9-5.06-1.01,.09,.47,.68,2.36,1,4.61,.79,5.56,2.44,14.34,2.58,14.79,.21,.69,2.98-.33,3.27-1.74,.32-1.54-1.29-12.77-1.79-16.64Z"/><path class="c" d="M110.39,101.6c-7.19-6.86-17.98-17.7-28.87-16.52-5.61,.61-11.77,2.64-16.62,5.26-5.95,3.22-12.6,9.07-16.68,13.27-.58,.59,1.57,1.47,2.11,1.59,19.74,4.6,40.13,3.96,59.57-1.75,.78-.23,1.1-1.27,.49-1.85Z"/><g><path class="c" d="M95.38,107c-.91-.94-2.54-.49-3.61-.4-2.9,.25-5.8,.43-8.72,.48-6.26,.11-12.86,.47-19.05-.46-5.05-.76-13.38-2.34-15.78-3-.26,3.11-.71,5.88-.73,9,0,1.19,.59,4.82,.59,4.82,0,0,3.7,1.77,5.04,2.27,.68,.25,1.36,.5,2.04,.74,1.19-1.29,1.79-1.66,4.06-1.43,3.96,.4,6.7,1.79,8.08-2.54,.86-2.7,.57-6.18,.12-8.9-.04-.25,.18-.44,.42-.32,2.53,1.26,3.39,.08,5.27,1.75,1.66,1.47,2.22,2.94,2.83,4.98,.41,1.37,.92,3.66,1.6,4.96,.09,.17,.19,.32,.3,.47,3.26,1.53,7.12-.99,10,2.04,.23-.02,.45-.04,.66-.05,.1,0,.13,.16,.02,.18-.17,.03-.35,.06-.53,.09,.04,.06,.05,.13,.06,.2,.65-.13,1.31-.26,1.99-.4,.42-.08,5.14-4.33,5.14-4.74,0-3.09,.77-3.43,.72-6.52-.02-.91,.18-2.48-.54-3.22Z"/><path class="c" d="M88.53,121.59c.1-.02,.08-.19-.02-.18-.21,.01-.43,.03-.66,.05-2.88-3.03-6.73-.51-10-2.04-.11-.15-.21-.3-.3-.47-.68-1.3-1.19-3.6-1.6-4.96-.61-2.04,0-5.11-.66-6.17-1.33-2.13-4.91,.7-7.44-.56-.24-.12-.46,.08-.42,.32,.45,2.73,.74,6.2-.12,8.9-1.38,4.33-4.12,2.94-8.08,2.54-2.27-.23-2.87,.14-4.06,1.43,2.22,.78,4.47,1.49,6.77,2,10.37,2.3,16.42,1.36,26.12-.57-.02-.07-.03-.14-.06-.2,.18-.03,.36-.06,.53-.09Z"/></g><path class="c" d="M57.56,60.61c-.15-.31-1.46-5.51-2.3-6.39-1.17,1.24-5.38,1.92-6.46,2.76-3.98,3.09-5.4,5.62-9.11,9-1.4,1.28-2.21,4.65-4.79,4.1-2.46-.52-6.77-1.9-8.51,.69,3.55,.97,5.28,1.93,8.81,2.35,1.46,.17,4.66-.58,5.57-1.69,2.19-2.68,3.76-4.67,6.85-6.55,3.03-1.85,7.88-.68,9.96-4.27Z"/><path class="c" d="M111.53,102c-.82-.14-2.06-.43-2.72-.3-4.4,.87-7.55,1.73-11.96,2.57-.15,.03-.29,.06-.43,.08-1-.61-2.02-1.19-3.05-1.76-.34-.19-.73-.07-.94,.25-1.02,1.57-1.25,3.49-.6,5.18-.08,.24-.17,.49-.26,.77-.03,.09-.06,.18-.1,.27-.28,.21-.39,.56-.35,.88-1.45,3.55,1.33,8.95,1.37,8.45,2.58,.53,4.4,2.94,6.74,2.38,3.04-.72,8.44-2.95,11.47-4.26,.98-4.27,1.21-11.15,.82-14.52Z"/><path class="c" d="M107.87,101.02c-1.01-2.69-2.65-4.28-4.17-4.4-3.63,.43-8.55,2.11-12.24,1.49-2.21-.37-4.84-1.27-7.1-.94-1.05,.15-1.66,.45-2.42,1.13-.33,.29-.26,.9-.48,1.2-1.24,1.7-2.58,2.29-4.53,2.93-6,1.96-13.51,3.01-19.76,2.87-.26,0,19.79,3.43,25.92,2.87,3.7-.34,7.29-1.22,8.68-4.76,5.2,2.03,10.61,1.59,15.57-1.12,.4-.22,.68-.81,.51-1.26Z"/><path class="c" d="M111.53,102c-4.42-4.47-9.55-8.45-14.71-12.03-.55,1.77,5.75,5.37,9.24,10.03,.52,.7,.22,2-2.32,2.36-.86,.12-4.95,1.34-7.8-.36-1.92-1.14-3.03-.96-5.22-1.6-.12,1.88-.37,4.6-2,5.65-1.22,.78-2.62,.83-3.99,.53-3.91,.12-7.82,.17-11.74-.12-6.73-.5-14.52-1.21-21.21-2.1,8.22,2.18,16.67,4.09,25.4,4.59,2.84,.16,10.88-1.08,10.91,1.67,.02,1.82-1.06,6.21,1.1,9.28,2.31,.04,.74-6.24,1.46-9.14,.17-.37,.34-.74,.53-1.1,.06-.12,.08-.24,.07-.35,.16-.12,.33-.23,.49-.35,.51-.19,.57-.87,.08-1.09,0,0,.02-.01,.02-.02,.3,0,.63-.19,.66-.59,.12-1.21,.1-2.3-.02-3.39v-.02c.43,.35,.91,.65,1.51,.94,.1,.05,.2,.07,.29,.07,.41,.27,.28,.58,.7,.84,.33,.2,14.93-2.23,16.56-3.68Z"/><path class="c" d="M67.95,66.29c2.04,1.58,4.17,5.62,2.45,8.91-2.21,4.22-8.55,8.19-9.48,8.89-2.55-.56-3.79-1.08-3.9-.29-.02,.16,.74,.99,.85,1.19,.13,.24-.44,.65-.93,.42-1.32-.64-3.23-1.7-4.29-2.34-.2-.12-2.05-1.24-2.33,0-.57,2.5,.12,3.85-1.63,5.84-1.82,2.07-4.41,3.58-6.78,4.91-2.41,1.36-11.05,5.45-16.33,4.8-2.33-.29-5.53-1.91-7.1-3.04-3.18-2.27-7.77-7.96-10.12-11.79-2.48-4.03-3.8-7.45-4.75-11.53,.98,.64,9.58,.86,12.12-2.79-3.22,1.1-7.56,2.03-10.12-.27-.66-.59-.88-1.43-.82-2.15,.19-2.34,2.21-4.65,3.25-6.17,1.37-2.03,2.64-4.55,4.28-6.58,2.15-1.14,5.59-2.96,6.89-4.88-9.95,.96-14.06,8.5-16.82,11.91-1.87,6.13-.37,14.01,2.49,20.15,2.02,4.34,4.99,8.07,8.3,11.49,1.13,1.17,8.59,10.24,10.25,11.89,.7,.93,3.73,6.51,3.99,6.66,0-1.88-.69-6.66,1.26-10.07,6.79-2.25,13.43-5.17,19.93-8.13,1.64-.75,3.64-2.16,5.22-3.57,.33-1.17-.56-3.42-.57-3.55,1.41,.64,4.29,1.64,4.77,1.42,.37-.17,15.67-9.13,16.03-13.82,.2-2.66-3.88-6.69-6.11-7.5Z"/><path class="c" d="M55.26,54.22c-4.61-4.1-14.29-2.97-19.86-1.51,3.51,.33,9.52-.53,13.83,.64,1.73,.47,1.99,1.7-.11,2.72-1.13,.56-2.26,2.15-3.21,3-1.49,1.33-5.18,5.5-5.29,5.6-1.65,1.56-2.34,2.89-4.48,3.62-.38,.13-1.91,.33-2.37,.37-1.99,.18-4.08,.04-5.54,.81,2.13,.14,5.64,2.25,9.07,1.19,1.62-.5,3.26-1.98,4.66-4.23,.9-1.45,2.86-4.19,4.07-5.49,1.05-1.13,5.81-3.87,6.19-4.01,.93-.35,1.81-.74,2.72-1.23,.37-.2,.63-1.21,.31-1.49Z"/><path class="c" d="M95.13,104.44c-.16-.61-3.48-2.06-3.45-1.34,.04,.88-.24,3.04-.36,4.77-1.18,1.57-1.88,4.77-2.04,5.74-.39,2.36-.42,5.82,.29,7.96,0,0,2.7-.52,4.56-1.38,1.34,.39,2.96,1.1,4.49,.88-.49-3.94-2.39-12.57-3.48-16.63Z"/></g></svg>