<?xml version="1.0" encoding="UTF-8"?><svg id="a" xmlns="http://www.w3.org/2000/svg" viewBox="0 0 304.38 139.25"><defs><style>.b,.c{fill:#376351;stroke:#ed6a21;stroke-miterlimit:10;}.c{opacity:.5;}</style></defs><g><path class="b" d="M189.71,13.1c.62-2.44,1.91-4.64,3.72-6.4,1.79-1.75,3.53-4.45,5.87-5.48,3.03-1.33,5.91-.16,8.6,1.67,3.94,2.08,7.51,4.94,10.6,8.1,2.9,2.96,7.54,7.69,8.28,11.91,1.44,8.26-10.22,8.25-15.54,5.57-.14,.61-.28,1.22-.42,1.83-.07,.3-.33,.53-.61,.61-11.16,3.33-23.59-5.61-20.51-17.82Z"/><path class="b" d="M198.95,30.9c.09-.36,.45-.6,.81-.62,.34-.01,.67,0,1,0,1.22,.65,2.67,.98,3.92,1.12,1.35,.15,2.46-.06,3.38-.56,.31-.11,.61-.26,.89-.48,.09-.13,.18-.26,.28-.39,.55-.55,1.02-1.23,1.42-2.04,.22,.08,.45,.16,.68,.24,.24-.09,.51-.08,.71,.07,.13,.1,.26,.19,.38,.28,2.14,.65,6.56,.89,9.02-.77,3.73-2.52,5.25-7.32,5.72-4.98,.53,2.62,.68,4.61-.26,8.85-1.68,7.57-5.07,19.32-6.87,26.3-.8,3.09-3.59,13.51-3.59,13.51,.5-.17,1.19,.24,1.07,.94-.7,4.16-4.96,5.73-8.48,7.01-6.08,2.22-12.38,3.59-18.8,4.3-.42,.05-.89-.42-.84-.84,2.07-17.52,5.31-34.84,9.56-51.95Z"/><path class="b" d="M184.03,35.18c.58-6.14,.66-12.61,2.04-18.63,1.31-5.71,5.41-8.35,9.24-12.39,.4-.42,.92-.09,1,.35,.49-.41,1-.81,1.5-1.19,.19-.14,.41,.16,.25,.32-3.43,3.21-6.71,7.68-7.32,12.3,2,4.43,4.42,8.54,7.15,12.54,1.44,.83,2.99,1.45,4.69,1.88,.99,.25,.56,1.68-.42,1.51-2.93-.51-2.57,2.34-2.84,4.34-.3,2.24-.61,4.48-.92,6.71-.67,4.72-1.44,9.42-2.21,14.12-1.36,8.28-2.9,16.52-4.44,24.77,.84,.1,1.87,.77,3.21-.99,.63-.82,6.36-1.97,7.7-2.88,1.48-1.01,3.8-4.2,5-5.64,.24-.28,2.01-3.66,3.83-3.95-.66,1.9-1.32,3.79-1.96,5.7,.09,.14,.12,.32,.09,.51-.19,1.07-.65,1.99-1.29,2.79-.04,.24,.14,.36,.55,.37,.55,.25,1.09,.27,1.6,.08,.54-.41,1.06-.85,1.56-1.35,.24-.19,.52-.19,.74-.08,.88-1,1.55-2.2,2.09-3.48,.51-1.67,2.17-3.94,2.68-5.61,1.4,4.3,1.75,10.4,1.33,14.62-2.72,2.22-6.04,.76-8.16,.56-.12,.03-.26,.05-.42,.03-1.97-.19-4.07-.46-6.03-.02-1.59,.36-2.97,1.25-4.52,1.7-1.92,.55-6.78,.7-9.58,.55-2.19-2.71-5.08-4.56-8.45-5.55-.04-2.94,.93-29.55,2.29-43.98Z"/><path class="b" d="M196.99,3.29c3.3-2.12,6.36-2.26,9.94-.7,4.4,1.92,11.21,6.5,13.74,10.66-2.53,2.08-12.89-5.3-16.67-4.29-7.63,2.04-4.71,11.12-4.07,16.07,.02,.02-8.22-8.26-8.19-8.23,.4,.43,.07-10.18,5.25-13.5Z"/><path class="b" d="M199.41,.84c3.44-1.19,8.28,.89,11.25,3.68-4.28-1.79-11.2-3.02-14.29,.82-2.91,3.62-3.4,8.19-3.49,10.21-.09,2.17,.43,1.95,3.49,3.34,2.23,1.02,2.2,2.03,3.1,5.35,.31,1.14,2.45,2.35,2.86,3.03,1.18,1.97,1.4,1.32,2.46,1.4,.86,.06,1.28,1.12,1.99,1.31,.58,.31,2.98-.65,3.46-3.06,2.93,1.72,4.01,1.78,5.86,1.17,1.38-.46,2.81-.85,4.01-1.65,1-.66,2.26-1.8,2.67-2.9,.93-2.45,1.08-5.16-1.18-9.27,1.48,1.37,4.74,5.16,5.3,7.36,.53,2.07,.91,4.52-.68,6.11-2.42,2.42-5.84,2.23-7.11,2.75-1.18,.48-1.84,.82-2.66,1.76-2.94,5.62-3.32,13.1-5.35,18.07-.3,.73-1.1,.76-1.2,0-.43-3.31-.17-6.59,.71-9.68,.46-3.16,1.33-6.47,3.16-8.62-.57-.66-1.14-1.31-1.72-1.97-.2,.08-.41,.14-.62,.21,.04,.45-.11,.93-.51,1.37-.2,.22-.44,1.57-.87,1.49-1.11,.54-2.47-.16-3.68-.48-.29-.08-2.56-1.24-3.26,1.17-.35,1.19-2.62,4.61-2.84,6.09-1.34,8.89-3.45,17.38-5.5,25.3-.07,.26-.76-2.42-.28-4.66,2.24-10.53,3.93-21.25,2.48-32.05-.24-1.78-6.21-8.55-6.41-13.81-.19-4.96,4.39-12.32,8.83-13.85Z"/><path class="b" d="M192.4,20.24c1.1-.39,2.65,.03,3.96,.33-.45,.55-1.82,2.23-2.33,2.72-1.54,9.54-2.93,18.16-4.29,27.73-1.43,10.04-1.73,20.75-2.45,30.87-.96-.64-2.28-1.39-2.92-1.75,.93-19.92,7.13-55.84,8.03-59.89Z"/><path class="b" d="M210.2,32.84c.31-1.21,.52-3.1,.35-3.54-.16-.18,3.23,2.04,3.64,2.33-.7,2.94-1.92,10.38-2.43,14.33-.51,3.98-.96,9.92-2.54,13.4-1.9-6.02,.51-26.86,.98-26.52Z"/><path class="b" d="M206.2,79.04c1.05-2.06,1.56-2.61,2-3.52,.73-1.49,1.81-5.22,2.89-6,.61,2.22,1.86,5.87,2.02,8.6,.07,1.28-.62,3.65-.07,3.76,1.31,.26,4.4-.88,5.85,.01-2.51,3.32-8.51,1.32-11.89,.82-3.05-.45-6.31,2.05-11.15,1.95,3.05-2.79,8.82-2.63,10.35-5.63Z"/></g><g><path class="b" d="M187.91,34.59c-.43-4.22-14.22-8.17-18.99-9.48-5.34-1.46-10.78-2.68-16.29-3.31-5.32-.61-10.71-.71-16.04-.16-4.99,.52-11.11,1.38-15.53,3.96-1.59,.93-2.61,2.13-3.18,3.47,3.35,10.07,15.19,13.53,24.9,15.92,9.49,2.34,19.68,4.58,29.11,1.65,1.64-.82,6.64-2.72,8.32-3.33,1.36,3.34-3.56,6.2-5.09,7.17-6.3,4.04-6.68,12.13-7.1,18.89-.27,4.37-1.15,8.62-1.49,12.98-.23,2.93-.32,5.88-.41,8.82,4.12-1.19,8.05-2.91,9.91-4.82,6.41-6.59,9.33-24.94,10.24-30.91,1.16-7.56,2.4-13.26,1.62-20.86Z"/><g><path class="b" d="M177.69,25.57c-1.18-.52-2.37-.97-3.59-1.37-.36,.83-1.09,1.52-2.05,1.96-5.28,2.43-12.34,.31-17.68-.65-2.06-.37-10.01-2.19-11.68-.18-1.72,2.06,1.6,3.1,2.78,4.09,.9,.76,1.47,1.42,2.09,2.42,.57,.92,.21,2.26-.73,2.78-3.81,2.12-7.46,4.9-11.59,6.36-.5,.41-1.01,.81-1.52,1.2,8.42,3.16,18.04,4.4,26.4,4.45,5.91,.04,12.25-.37,17.86-2.42,3.77-1.38,9.58-4.29,10.02-8.85,.5-5.12-6.44-8.09-10.29-9.81Z"/><path class="b" d="M146.82,34.63c.94-.52,1.3-1.86,.73-2.78-.62-1-1.19-1.66-2.09-2.42-1.17-.99-4.49-2.03-2.78-4.09,1.67-2.01,9.62-.19,11.68,.18,5.35,.96,12.4,3.08,17.68,.65,.96-.44,1.69-1.13,2.05-1.96-4.29-1.43-8.78-2.19-13.27-2.78-7.84-1.03-15.82-1.93-23.74-1.69-5,.15-14.33-.17-16.7,5.36-.07,.16-.11,.31-.15,.46-.26,.42-.49,.89-.66,1.4-1.47,4.24,1.16,7.98,4.53,10.32,2.88,2.01,6.14,3.62,9.6,4.92,.51-.4,1.02-.8,1.52-1.2,4.13-1.46,7.78-4.24,11.59-6.36Z"/></g><g><path class="b" d="M138.33,46.72c-.16-.97,.22-2.21,1.26-2.54-8.98-2.4-18.73-6.11-21.73-15.11-1.03,2.39,1.23,9.33,1.47,10.2,1.93,7.13,4.86,14.17,7.32,21,2.78,7.72,8.08,18.35,12.44,25.45,2.06,1.37,4.2,2.58,6.28,3.61-1.19-3.51-2-6.99-2.4-9.71-1.39-9.52-3.13-23.4-4.65-32.9Z"/><path class="b" d="M180.2,43.31c-1.68,.62-6.68,2.51-8.32,3.33-8.91,2.78-18.52,.92-27.57-1.27,.69,.73,1.17,1.74,1.38,2.99,.83,4.81,.04,10.16,.52,15.07,.76,7.73,2.4,19.65,4.61,28.19,2.55,.87,4.79,1.32,6.35,1.23,2.54-.15,5.8-.76,8.95-1.67,.08-2.95,.18-5.89,.41-8.82,.34-4.35,1.22-8.61,1.49-12.98,.41-6.77,.79-14.85,7.1-18.89,1.53-.98,6.44-3.83,5.09-7.17Z"/><path class="b" d="M144.31,45.37c-1.06-1.12-2.61-1.59-4.5-1.26-.08,.01-.14,.04-.22,.07,1.07,.29,2.14,.56,3.18,.81,.51,.13,1.02,.25,1.54,.38Z"/><path class="b" d="M145.7,48.36c-.22-1.25-.7-2.26-1.38-2.99-.51-.12-1.03-.25-1.54-.38-1.04-.26-2.1-.53-3.18-.81-1.04,.33-1.42,1.57-1.26,2.54,1.52,9.5,3.26,23.38,4.65,32.9,.4,2.73,1.21,6.2,2.4,9.71,1.9,.93,3.75,1.7,5.45,2.28-2.22-8.54-3.85-20.46-4.61-28.19-.48-4.91,.31-10.26-.52-15.07Z"/></g><path class="b" d="M179.14,43.25c-3.1,3.58-6.64,4.98-11.41,4.9-2-.04-4.04-.17-6.08-.34-.05-.07-.1-.15-.15-.22-1.22-1.72-3.45-1.38-4.49-.16-.76-.06-1.52-.13-2.27-.18-1.48-.11-5.52,1.67,3.4,5.17,3.46,6.68,4.52,14.72,4.22,22.2-.24,5.93-.6,11.67,0,17.5,3.1-.4,5.13-1.24,7.1-2.04,.08-5.44-.96-10.69-.51-16.1,.37-4.38,1.03-8.74,2.05-13.01,.64-2.65,1.46-5.09,2.5-8.58,3.65-1.55,6.35-4.34,7.35-8.11,.25-.94-1.02-1.81-1.72-1Z"/><path class="b" d="M170.5,44.74c-4.97,.16-23.3,.54-26.61-3.79-1.61,.81-5.96,1.89-5.96,1.89,0,0,1.1-2.12,2.27-3.93-1.9,.19-10.03-.47-10.67-.76-3.08-1.36-6.54-2.9-8.51-5.63-2.49-3.45-.38-7.02,1.17-8.49,2.76-2.6,10.47-3.22,15.52-4.32-5.05-.11-10.4-.31-15.23,1.9-5.4,2.47-6.72,10.15-2.49,14.06,2.46,2.27,6.73,7.32,15.82,9.74,.1,5.23,1.23,10.56,2.85,15.55,.39,2.13,1.87,7.15,2.81,8.94,.44-2.41-.51-21.66-.49-23.11,3.02,1.26,7.97,2.06,9.14,2.31,5.31,1.11,11.3,.27,16.62-.38,7.02-.86,20.47-4.41,21.24-13.33-4.44,2.12-9.38,9.1-17.47,9.37Z"/><path class="b" d="M163.11,68.79c-.29-2.97,.17-4.52-.74-7.36-1.08-3.36-2-6.2-4.22-9.02,2.18,5.53,1.74,9.18,2.71,15.11,1.04,6.36,0,18.07,1.52,22.82,.52-6.39,1.35-15.2,.74-21.55Z"/></g><g><g><path class="b" d="M58.72,83.59c.63,.42,1.84-.28,2.62-2.05,3.61-8.28,3.77-19.25,9.92-25.83,1.91-2.04,1.15,.34,1.04,1.21-1.19,9.09,1.5,13.62,1.29,21.7-.04,1.59-1.59,6.22-1.82,8.14-.37,3.14-.19,6.23-.82,9.31,.02,.02,.04,.04,.06,.05,.32,.27,.66,.52,1.01,.75,.46-.66,1.02-1.72,1.82-3.4,1.3-2.76,3.34-2.63,3.19-1.98-.08,.49-.17,.99-.27,1.48-.21,1.57-.26,2.62-.05,4.2,.57-.07,3.29,.37,3.94,.47,.49,.08,2.43,1.83,3.94,3.36,2.63,.75,5.26,1.49,7.9,2.21-.35-10.84-2.02-21.58-5.12-31.98-3.04-10.18-8.89-21.07-7.29-35.37-4.87,4.66-13.95,15.07-18.02,21.72-4.96,8.11-7.73,17.29-8.48,26.74-.05,.6,.45,1.14,.99,1.32,.55-1.07,1.18-2.02,1.73-2.59,.6-.61,1.51-.09,2.43,.53Z"/><path class="b" d="M80.65,97.64c-.65-.1-3.37-.54-3.94-.47-.21-1.59-.17-2.63,.05-4.2,.1-.5,.19-.99,.27-1.48,.16-.65-1.88-.78-3.19,1.98-.8,1.69-1.36,2.74-1.82,3.4,2.39,1.55,5.41,2.11,8.09,2.86,1.49,.42,2.98,.84,4.47,1.27-1.51-1.53-3.45-3.28-3.94-3.36Z"/><path class="b" d="M64.97,89.15c2.78,1.64,3.64,4.86,5.99,6.91,.63-3.08,.46-6.17,.82-9.31,.22-1.91,1.78-6.55,1.82-8.14,.2-8.09-2.48-12.62-1.29-21.7,.11-.87,.87-3.24-1.04-1.21-6.16,6.59-6.31,17.55-9.92,25.83-.77,1.77-1.99,2.47-2.62,2.05-.92-.62-1.83-1.14-2.43-.53-.55,.56-1.18,1.52-1.73,2.59,0,0,.01,0,.02,.01,3.35,1.03,7.34,1.7,10.39,3.49Z"/></g><path class="b" d="M104.06,68.43c1.98-1.45,4.11-2.67,6.32-3.71,2.7-1.27,6.45-3.44,8.51-6.05-.07-.09-.14-.19-.22-.28-8-6.55-17.66-13.09-22.89-16.27-4.1-2.49-10.62-6.8-15.58-6.4-.04,.04-.09,.09-.14,.14-1.6,14.3,4.25,25.19,7.29,35.37,1.54,5.17,2.73,10.42,3.58,15.73,1.86-3.96,4.24-8.29,5.49-10.27,2.01-3.19,4.58-6.04,7.63-8.27Z"/><path class="b" d="M103.19,54.1c-1.67-1.23-4.24-.93-5.88,.17-.38-.25-2.88-1.53-3.42-1.55-1.55-.06-7.28,1.47-8.9-.66-1.18-1.54-1.53-1.27-1.26,.65,.57,4.06,1.81,6.96,4.65,9.9,.64,.66,1.72-.18,2.56-.58,3.66-1.77,8.08-5.06,12.46-4.87,1.39-1.2,.3-2.68-.21-3.06Z"/><g><path class="b" d="M128.36,76.01c-2.51-5.74-5.44-12.49-9.46-17.35-.47,.59-1.03,1.16-1.64,1.7,.1,.06,.19,.15,.24,.26,.97,2.32,2.66,4.12,2.6,6.77-.07,2.59-1.35,4.95-2.17,7.34-.52,1.51-.43,3.07-.73,4.62-.32,1.63-.95,2.75-.62,4.49,.47,2.47,1.36,6.24,2.51,9.04,3.38-1.19,6.69-2.66,9.2-5.12,3.61-3.55,1.86-7.67,.08-11.74Z"/><path class="b" d="M106.29,67.71c-.26-.02-.49-.27-.42-.5-.61,.39-1.22,.8-1.81,1.23-3.05,2.23-5.63,5.07-7.63,8.27-1.25,1.98-3.63,6.31-5.49,10.27,.86,5.37,1.37,10.8,1.54,16.25h0c3.85-2.32,10.27-4.75,15.92-6.73-.99-3.7-.9-7.6-.99-11.48-.14-5.61-2.04-11.69-1.13-17.29Z"/><path class="b" d="M117.26,60.36c-.16-.1-.36-.11-.51,.06-1.41,1.65-3.86,2.22-5.73,3.22-1.79,.96-3.45,2.11-5.03,3.38-.07,.05-.1,.12-.12,.18,1.45-.92,2.96-1.75,4.51-2.49,2.09-.98,4.8-2.51,6.87-4.35Z"/><path class="b" d="M117.2,79.35c.3-1.55,.21-3.11,.73-4.62,.82-2.39,2.1-4.75,2.17-7.34,.07-2.65-1.62-4.44-2.6-6.77-.05-.11-.14-.2-.24-.26-2.08,1.84-4.79,3.37-6.87,4.35-1.56,.73-3.06,1.56-4.51,2.49-.07,.23,.15,.49,.42,.5-.91,5.6,.99,11.68,1.13,17.29,.1,3.88,0,7.78,.99,11.48,1.9-.67,3.72-1.28,5.32-1.82,1.73-.59,3.55-1.15,5.36-1.79-1.14-2.8-2.04-6.57-2.51-9.04-.33-1.74,.3-2.86,.62-4.49Z"/></g><path class="b" d="M114.42,55.01c-2.21-.02-4.41-.3-6.61-.09-2.77,.27-5.47,1.09-8.08,2.03-2.23,.81-3.99,2.3-6.14,3.17-2.94,1.19-5.88-.38-7.45-2.22-1.72-2.55-2.42-8.32-3.12-11.74-.35-1.69-3.21-7.49-2.8-10.45-1.37-.03-10.58,10.21-12.31,13.74,2.77-1.33,6.27-8,9.18-3.73,1.78,2.61,2.74,7.63,3.3,10.27,.9,4.23,2.55,11.34,6,16.24,1.56,2.21,2.94,7.58,2.76,9.26-.4,3.65-.36,6.49,2.58,11.14,.5-2.9,1.78-4.05,2.79-8.54,.92-4.11,4-7.53,6.29-10.88,3.27-4.8,10.46-7.96,14.52-10.29,1.14-.65,3.45-1.47,4.78-2.73-1.84-3.24-4.24-4.08-5.68-5.2Z"/><path class="b" d="M117.97,57.31c-1.53-1.2-23.79-17.61-27.58-19.16-1.34-.55-6.75-3.91-11-2.31-2.3,.86-5.08,4.86-6.72,7.16,1.42-1.18,4.72-3.1,6.43-2.83,1.68,.26,2.44,3.38,3.16,4.94,1.3,4.09,1.87,8.49,3.42,12.48,1.15,2.95,3.69,5.46,5.62,7.02,.47,.38,2.21,1.87,1.71,3.96-.38,1.59-.36,3.2,.11,4.9,.12,.44,.39,.18,.55-.26,.88-2.4,.96-4.86,2.31-7.19,.15-.25,.07-.64-.2-.78-1.4-.71,.06-1.88,.87-2.64,1.02-.96,1.32-2.41,2.46-3.21,1.42-.99,5.43-2.87,9.3-2.12,2.07,.4,3.41-.38,5.28,.2,2.5,.78,5.27,2.47,6.41,2.74,.34-.24-1.71-2.58-2.12-2.9Zm-14.34-1.96c-2.18,.55-8.2,3.68-9.11,4.13-3.11,1.55-6.07,.44-7.34-1.62-1.91-5.08-2.54-9.75-4.61-14.72-.17-.47-.58-1.72-.77-2.46-.17-.62,.12-2.51,.78-2.84,2.48-1.24,9.04,2.04,10.68,3.03,4.1,2.46,14.78,10.94,16.22,12.18,.33,.28,.29,1.11-.43,1.28-1.44,.34-3.66,.75-5.42,1.02Z"/></g><g><g><path class="b" d="M286.41,95.74c-.16-.56-.32-1.11-.48-1.67-.37-1.27-.73-2.55-1.09-3.83,.04,.04,.08,.08,.12,.12-.38-1.47-.77-2.94-1.17-4.39-1.11-5.15-2.09-10.35-3.02-15.42-.53-2.88-1.62-6.9-1.82-9.86,1.95,3.61,4.74,7.26,7.63,10.07,1.48,1.44,3.57,1.38,3.82,.07,.43-2.32,1.79-1.66,3.14-.29,.57,.75,1.63,.29,2.41,1.06,.44,.58,.96,2.03,1.33,3.01,1.15,3.09,1.85,3.06,3.26,4.69,0-1.74-1.63-4.89-2.06-7.95-.48-3.44-2.16-4.17-3.3-4.75-2.73-1.38-8.75-4.68-10.02-6.36-1.02-1.35-3.69-4.77-4.83-8.36-.88-2.78-.37-6-.35-6.3-.05-1.49-2.09-4.44-2.22-5.92-.4-4.42,2.79-5.45,2.14-7.9-.96-3.63-.53-5.99,.56-5.62,2.07,.69,4.94,2.73,7.08,5.11,.86,1.95,1.43,3.84,1.61,5.56,.14,1.43,.24,2.67-.48,3.62-.38,.5-.84,2.05,.92,1.15,1.56-.79,2.7,.9,3.5,2.94,3.2,8.21,5.88,16.63,7.97,25.19,1.43,5.87,4.55,14.07,1.63,19.95-1.34,2.69-5.19,4.42-7.3,7-2.27,2.77-3.87,6.1-6.62,7.41-.57-2.09-1.16-4.2-1.76-6.3-.19-.67-.39-1.35-.58-2.03Z"/><path class="b" d="M285.93,94.07c-.37-1.28-.73-2.55-1.1-3.83h0c.36,1.28,.73,2.56,1.09,3.83Z"/><path class="b" d="M286.41,95.74c.19,.68,.39,1.35,.58,2.03-.19-.67-.39-1.35-.58-2.03Z"/><path class="b" d="M262.85,21.2c3.91-1.62,7.22,2.08,8.11,5.1,.79,2.67,.22,5.81,1.74,8.16,3.05,4.7,2.35,10.41,3.05,16.52,.79,6.96,1.01,14.07,1.17,15.62,.31,2.92,.8,5.63,1.67,8.66-.4-.3-.81-.57-1.22-.79-9.22-4.84-2.82-16.41-9.12-24.17-1.52-1.88-3.56-3.44-4.41-5.77-.9-2.45-.71-5.47-.89-8.06-.11-1.49,3.2-7.33,.33-10.26-3.44-3.5-5.99,2.45-10.15,1.64-.13-.03-.3-.05-.45-.07,1.41-1.28,2.9-2.58,4.72-3.74,1.7-1.08,3.54-2.04,5.47-2.83Z"/><path class="b" d="M278.78,65.79c-.06-.33-.11-.65-.17-.98,.06,.33,.11,.65,.17,.98Z"/><path class="b" d="M278.23,62.62c-.07-.44-.13-.88-.2-1.33,.07,.44,.13,.88,.2,1.33Z"/><path class="b" d="M280.08,72.08c-.03-.14-.06-.29-.09-.43,.03,.14,.06,.29,.09,.43Z"/><path class="b" d="M277.76,59.44c-.08-.6-.15-1.19-.22-1.79,.07,.6,.14,1.19,.22,1.79Z"/><path class="b" d="M280.81,75.21c-.01-.06-.03-.12-.04-.18,.01,.06,.03,.12,.04,.18Z"/><path class="b" d="M279.4,68.94c-.05-.22-.09-.44-.13-.66,.04,.22,.09,.44,.13,.66Z"/><path class="b" d="M277.38,56.25c-.11-1.07-.21-2.13-.29-3.2,.08,1.07,.18,2.14,.29,3.2Z"/><polygon class="b" points="281.58 78.32 281.58 78.33 281.58 78.32 281.58 78.32"/><path class="b" d="M280.46,26.14c-1.09-.36-1.52,2-.56,5.62,.65,2.45-2.54,3.48-2.14,7.9,.13,1.48,2.17,4.43,2.22,5.92-.02,.29-.53,3.52,.35,6.3,1.13,3.59,3.8,7.01,4.83,8.36,1.27,1.68,7.29,4.98,10.02,6.36,1.14,.58,2.82,1.32,3.3,4.75,.43,3.06,2.06,6.2,2.06,7.95-1.42-1.63-2.11-1.6-3.26-4.69-.37-.99-.89-2.43-1.33-3.01-.79-.77-1.84-.31-2.41-1.06-1.35-1.36-2.71-2.03-3.14,.29-.24,1.31-2.34,1.37-3.82-.07-2.88-2.81-5.67-6.47-7.63-10.07,.2,2.96,1.29,6.98,1.82,9.86,.93,5.07,1.91,10.27,3.02,15.42,.4,1.45,.79,2.92,1.17,4.39-.04-.03-.08-.08-.12-.12-1.13-3.96-2.24-7.93-3.26-11.92h0c-.26-1.04-.52-2.08-.77-3.12-.01-.06-.03-.12-.04-.18-.24-.98-.47-1.96-.69-2.94-.03-.14-.06-.29-.09-.43-.2-.9-.4-1.8-.58-2.71-.05-.22-.09-.44-.13-.66-.17-.83-.33-1.66-.49-2.49-.06-.33-.11-.65-.17-.98-.13-.73-.26-1.46-.38-2.19-.07-.44-.13-.88-.2-1.33-.09-.62-.19-1.23-.27-1.85-.08-.6-.15-1.19-.22-1.79-.06-.47-.12-.93-.17-1.4-.11-1.07-.21-2.13-.29-3.2-.66-8.91-.81-17.87-1.22-26.8-.05-1.04-.11-5.34-.13-10.87,.07-.01,.14-.03,.22-.04,4.55,4.47,9.18,10.45,11.57,15.91-2.14-2.38-5.01-4.42-7.08-5.11Z"/><path class="b" d="M281.58,78.32h0c1.02,3.99,2.13,7.96,3.25,11.91-2.07-1.86-3.62-7.07-5.28-11.91-.37-1.07-.69-2.08-.97-3.07,1.06,.8,2.07,1.87,3,3.07Z"/><path class="b" d="M251.07,27.55c.58,.07,1.11,.15,1.59,.23-2.26,2.06-4.29,4.02-6.97,5.15,1.7-1.89,3.49-3.69,5.37-5.38Z"/><path class="b" d="M284.84,90.24h0c-1.13-3.96-2.23-7.93-3.25-11.92,1.02,3.99,2.13,7.96,3.26,11.92Z"/><path class="b" d="M275.74,15.38c.02,5.53,.08,9.83,.13,10.87,.41,8.92,.56,17.89,1.22,26.8,.08,1.07,.18,2.14,.29,3.2,.05,.47,.11,.93,.17,1.4,.07,.6,.14,1.19,.22,1.79,.08,.62,.18,1.24,.27,1.85,.07,.44,.13,.88,.2,1.33,.12,.73,.25,1.46,.38,2.19,.06,.33,.11,.65,.17,.98,.15,.83,.32,1.66,.49,2.49,.04,.22,.09,.44,.13,.66,.19,.9,.38,1.81,.58,2.71,.03,.14,.06,.29,.09,.43,.22,.98,.45,1.96,.69,2.94,.01,.06,.03,.12,.04,.18,.25,1.04,.51,2.07,.77,3.11h0c-.93-1.19-1.94-2.26-3-3.06-.87-3.04-1.36-5.75-1.67-8.66-.16-1.54-.38-8.65-1.17-15.62-.7-6.11,0-11.82-3.05-16.52-1.52-2.35-.95-5.49-1.74-8.16-.89-3.02-4.21-6.72-8.11-5.1-1.93,.8-3.77,1.75-5.47,2.83-1.81,1.16-3.31,2.46-4.72,3.74-.48-.08-1.01-.16-1.59-.23,6.96-6.24,15.18-10.86,24.67-12.17Z"/><path class="b" d="M281.58,78.32c-.26-1.04-.52-2.07-.77-3.11,.25,1.04,.51,2.07,.77,3.11Z"/><path class="b" d="M280.76,75.03c-.24-.98-.47-1.96-.69-2.94,.22,.98,.45,1.96,.69,2.94Z"/><path class="b" d="M277.54,57.66c-.06-.47-.12-.93-.17-1.4,.05,.47,.11,.93,.17,1.4Z"/><path class="b" d="M278.61,64.81c-.13-.73-.26-1.46-.38-2.19,.12,.73,.25,1.46,.38,2.19Z"/><path class="b" d="M279.27,68.28c-.17-.83-.33-1.66-.49-2.49,.15,.83,.32,1.66,.49,2.49Z"/><path class="b" d="M278.04,61.3c-.09-.62-.19-1.23-.27-1.85,.08,.62,.18,1.24,.27,1.85Z"/><path class="b" d="M279.98,71.65c-.2-.9-.4-1.8-.58-2.71,.19,.9,.38,1.81,.58,2.71Z"/></g><g><path class="b" d="M234.96,88.94c-.7-1.42-5.13-5.86-5.26-6.91-.58-4.67-3.99-6.39-1.45-10.37,5.06-7.94,3.73-11.59,6.71-14.7,6.28-6.58,4.09-11.05,3.03-14.1,1.66-2.45,3.42-4.83,5.29-7.12,.77-.95,1.57-1.87,2.39-2.78,.06,.53,.13,1.16,.19,1.93,.36,4.47-1.14,9.29-2.34,13.61-.23,.83-.47,1.71-.67,2.59-1.11,3-1.81,5.94-4.08,8.44-2.04,2.24-2.68,3.73-2.64,6.79,.02,1.63,.06,3.2-.31,4.79-.29,1.23-.79,2.41-.85,3.68-.08,1.76,.85,2.93,2.23,3.91,4.08,2.9,9.4,3.43,13.63,6.15,3.95,2.55,7.1,6.09,10.68,9.1,2.34,3.77,3.65,7.69,4.63,12.69-.33-.05-.66-.1-.99-.18-9.5-2.14-17.3-.84-26.32-2.95-1.37-2.1-2.41-4.23-3.46-6.77-1.33-3.23,1.19-4.57-.4-7.81Z"/><path class="b" d="M230.74,97.78c-4.82-.48-8.16-2.41-9.23-4.47-3.52-6.79,.82-17.14,3.34-24.26,3.25-9.22,7.64-18.09,13.14-26.19,1.06,3.05,3.25,7.52-3.03,14.1-2.97,3.12-1.64,6.76-6.71,14.7-2.54,3.98,.86,5.69,1.45,10.37,.13,1.05,4.56,5.49,5.26,6.91,1.6,3.24-.93,4.59,.4,7.81,1.05,2.54,2.08,4.68,3.46,6.77-.17-.04-.35-.07-.52-.12-3.23-.8-4.1-5.28-7.56-5.63Z"/></g><g><path class="b" d="M263.27,90.36c-1.48-5.36-6.74-12.59-10.6-15.1-4.88-3.18-5.84-7.32-6.14-11.54-.3-4.08-2.31-7.29-4.31-10.83,.21-.6,.41-1.2,.64-1.8,.19-.89,.44-1.76,.67-2.59,1.21-4.32,2.7-9.14,2.34-13.61-.06-.76-.12-1.4-.19-1.93l.03-.03c2.68-1.13,4.7-3.1,6.97-5.15,.15,.02,.31,.05,.45,.07,4.16,.81,6.71-5.15,10.15-1.64,2.88,2.93-.43,8.76-.33,10.26,.18,2.59,0,5.61,.89,8.06,.85,2.33,2.89,3.9,4.41,5.77,6.3,7.77-.1,19.34,9.12,24.17,.41,.22,.82,.48,1.22,.79,.28,.98,.6,2,.97,3.07,1.67,4.84,3.21,10.05,5.28,11.91,.36,1.28,.73,2.56,1.1,3.83,.16,.56,.32,1.11,.48,1.67,.19,.68,.39,1.35,.58,2.03,.6,2.11,1.19,4.21,1.76,6.3-.9,.43-1.91,.64-3.12,.55-7.26-.54-12.86,3.07-19.49,2.04-.57-2.9-1.25-5.42-2.18-7.77,.47-1.28,.66-3.61-.69-8.52Z"/><path class="b" d="M262.97,100.92c0-.06,0-.11,0-.16,.03,.27,.04,.37,0,.16Z"/><path class="b" d="M250.83,84.86c-4.23-2.73-9.55-3.25-13.63-6.15-1.38-.98-2.32-2.16-2.23-3.91,.06-1.27,.56-2.45,.85-3.68,.37-1.59,.33-3.16,.31-4.79-.04-3.06,.61-4.56,2.64-6.79,1.82-1.99,2.63-4.27,3.44-6.64,2,3.54,4.02,6.75,4.31,10.83,.31,4.22,1.26,8.36,6.14,11.54,3.87,2.52,9.12,9.75,10.6,15.1,1.36,4.91,1.16,7.24,.69,8.52-.67-1.71-1.47-3.33-2.45-4.92-3.58-3.01-6.73-6.55-10.68-9.1Z"/></g></g><g><g><path class="b" d="M124.72,100.96c.67-.29,1.38-.51,2.07-.68,1.78-.45,3.43-.86,5.12-1.62,.1-.04,.2-.09,.3-.14l.06-.03c.1-.05,.2-.1,.31-.16h0c-.15-1.28-.49-2.6-1.13-3.62-1.09-1.76-3.19-1.64-5.05-1.91-1.22-.18-2.34,.03-2.9,.54-.6,.54-.62-.11-.45-.47,.36-.75,1.02-.54,1.61-1.05,.54-.47,.65-1.27,1.34-1.62,.56-.29,1.13,.12,2.3-.3,1.62-.59,3.69,1.71,4.98,2.64,.3,.22,.58,.44,.82,.67-1.1-2.08-2.45-4.04-4.06-5.87-.47-.28-.97-.54-1.5-.78-1.86-.83-5.43-3.41-7.51-3.63-.67-.07-2.55,.2-4.28,3.29-.91,1.64-1.02,3.73-1.05,5.55-.06,3.55,1.79,15.89,2.23,17.49,.54,1.99,1.13,4.32,2.47,5.89,.64,.02,1.28,.02,1.91,.01-.06-.15-.12-.33-.19-.52-1.1-3.07-2.24-12.94,2.6-13.67Z"/><path class="b" d="M132.57,98.33c-.11,.05-.21,.11-.31,.16,.1-.05,.2-.1,.31-.16Z"/><path class="b" d="M132.21,98.52c-.1,.05-.2,.1-.3,.14,.1-.04,.2-.09,.3-.14Z"/></g><path class="b" d="M111.87,85.86c-1.92,4.72-1.82,13.14-.26,17.39,.37-1.11,.84-2.53,.68-6.21-.11-2.5-.25-6.19,.28-7.63,.89-2.45,3.24-4.72,5.05-6.58,2.29-2.35,4.28-.59,5.07-.12,1.36,.81,3.45,1.84,5.37,2.57-.42-.4-.85-.8-1.3-1.18-3.69-3.16-8.46-5.05-13.19-3.15-2.57,1.03-4.92,2.68-7.27,4.12-2.29,1.4-4.84,2.66-6.9,4.38-.16,.13-.3,.27-.44,.41,3.37-1.27,5.26-1.05,8.88-2.2,.4-.13,3.63-1.67,4.04-1.81Z"/><g><g><path class="b" d="M121.02,82.92c2.07,.21,5.65,2.79,7.51,3.63,.54,.24,1.03,.5,1.5,.78-.62-.7-1.28-1.38-1.97-2.03-1.91-.73-4.01-1.76-5.37-2.57-.79-.47-2.78-2.23-5.07,.12-1.82,1.86-4.16,4.13-5.05,6.58-.52,1.44-.38,5.13-.28,7.63,.16,3.68-.31,5.1-.68,6.21-1.57-4.25-1.66-12.67,.26-17.39-.41,.14-3.64,1.68-4.04,1.81-3.62,1.15-5.51,.94-8.88,2.2-1.65,1.64-2.15,3.81-2.43,6.12-.44,3.57-1.4,10.6-.18,12.59,.15,.24,.32,.46,.51,.68-.27-1.13,.51-2.36,1.45-3.83,1.79-2.8,3.55-5.35,6.41-7.14,.01,0,.02,0,.02,.01,.67-1.01,1.28-2.04,2.04-2.99,.05-.07,.15-.02,.13,.06-.48,2.59-2.69,5.15-4.16,7.26-.84,1.2-1.72,2.38-2.51,3.62-.97,1.53-1.46,2.74-1.3,4.61,0,0,0,.02,0,.02,.5,.27,1.01,.5,1.52,.72,.11-1.83,1.53-3.2,3.13-3.96,1.14-.54,2.43-.61,3.62-1.02,.86-.3,1.63-.58,2.55-.46,2.49,.33,2.85,1.69,4.2,3.5,.57,.76,1.69-.25,2.15-1.13,.32-.6,.87-.84,1.45-1.11-.69-3.98-1.91-12.75-1.87-15.65,.03-1.81,.13-3.91,1.05-5.55,1.72-3.09,3.61-3.36,4.28-3.29Z"/><path class="b" d="M107.93,90.58c-1.32,.39-2.8,.34-3.98,1.13-.8,.54-.94,1.3-1.4,2.09-.59,1.01-1.67,1.57-2.44,2.41-1.55,1.71-1.91,4.28-2.44,6.44-.32,1.31-1.35,3.87,.29,4.73,.11,.06,.22,0,.27-.1,1.18-2.68,2.99-4.88,5.03-6.94,1.24-1.25,3.19-3.2,3.65-4.99,.13-.3,.89-3.04,2.1-4.48,.54-.64-.62-.43-1.09-.29Z"/><path class="b" d="M100.24,106.24c.78-1.24,1.67-2.42,2.51-3.62,1.47-2.11,3.69-4.67,4.16-7.26,.02-.08-.08-.13-.13-.06-.76,.95-1.37,1.98-2.04,2.99,0,0-.01-.02-.02-.01-2.85,1.79-4.62,4.34-6.41,7.14-.95,1.48-1.72,2.7-1.45,3.83,.58,.66,1.31,1.19,2.08,1.61,0,0,0-.01,0-.02-.16-1.87,.34-3.08,1.3-4.61Z"/><path class="b" d="M116.11,108.52c-.46,.88-1.58,1.89-2.15,1.13-1.35-1.81-1.71-3.17-4.2-3.5-.92-.12-1.7,.16-2.55,.46-1.19,.41-2.47,.48-3.62,1.02-1.6,.76-3.03,2.13-3.13,3.96,.1,.04,.2,.09,.3,.13h0c1.83-2.4,4.98-2.09,7.63-1.63,1.35,.23,2.56,.63,3.47,1.65,.87,.97,2.24,1.64,3.16,1.3,1.11-.41,1.79,.78,2.6,1.94,.92,.08,1.84,.13,2.75,.16-1.34-1.57-1.92-3.9-2.47-5.89-.08-.29-.21-.95-.36-1.84-.58,.28-1.13,.51-1.45,1.11Z"/></g><g><path class="b" d="M137.71,103.81c-.44-3.76-2.83-9.12-3.62-10.62-.25-.23-.52-.45-.82-.67-1.29-.93-3.36-3.23-4.98-2.64-1.17,.43-1.74,.02-2.3,.3-.69,.35-.8,1.15-1.34,1.62-.59,.51-1.25,.3-1.61,1.05-.17,.36-.15,1.01,.45,.47,.56-.51,1.68-.71,2.9-.54,1.86,.27,3.96,.15,5.05,1.91,.63,1.02,.97,2.34,1.13,3.62h0c-.11,.06-.21,.11-.31,.16l-.06,.03c-.1,.05-.2,.1-.3,.14-1.68,.75-3.33,1.17-5.12,1.62-.69,.17-1.4,.39-2.07,.68-4.84,.74-3.7,10.6-2.6,13.67,.07,.19,.13,.36,.19,.52,.73-.01,1.45-.04,2.18-.09,.95-.07,2.24-.37,3.65-.79,3.74-4.45,5.03-15.51,5.09-15.51,.34-.51,1.3-.84,1.85-1.04,.14-.05,.25,.09,.26,.21,.01,.14,.03,.29,.05,.43,.78,2.95,1.53,8.77,1,12.45,.68-.41,1.17-.78,1.39-1.08,0,0,.35-2.34-.06-5.91Z"/><path class="b" d="M135.38,98.35c-.02-.14-.03-.29-.05-.43-.01-.12-.12-.26-.26-.21-.55,.21-1.5,.53-1.85,1.04-.05,0-1.34,11.07-5.09,15.51,2.39-.53,4.94,.25,6.31-.31,1.58-.65,2.6-1.57,2.5-2.2,.52-3.68-.79-10.45-1.57-13.4Z"/></g><path class="b" d="M115.04,113.04c-.92,.34-2.29-.33-3.16-1.3-.92-1.02-2.12-1.42-3.47-1.65-2.66-.46-5.8-.77-7.63,1.62h0l.03,.02c2.45,.99,5.04,1.55,7.63,1.99,3.03,.51,6.12,1.01,9.21,1.26-.81-1.16-1.49-2.35-2.6-1.94Z"/></g><path class="b" d="M135.38,97.83c-.47-.32-.93-.71-1.82-.69-.42,0-1.18-.47-1.61-.39-1.01,.19-2.09,1.01-4.8,1-1.72,0-3.51-.32-5.01,.59-.62,.38-.77,.75-1.14,1.41-.75,1.31-1.63,1.15-1.91,1.85-.37,.91,.31,2.38,.11,3.16-.06,.25,.16,.29,.32,.07,.97-1.36,2.06-3.09,3.54-3.93,1.05-.59,2.03-1.04,4.67-1.03,1.92,.01,3.05-.66,4.5-.76,2.12-.15,1.85-1.18,3.16-1.28Z"/></g><g><path class="b" d="M13.99,83.24c1.18-.03,1.88-.76,1.88-1.77,0-3.84-1.79-7.48,.12-11.01,1.31-2.4,3.88-3.67,3.87-7.04,0-.17-.15-.73-.35-1.34-2.88,.27-5.52,2.05-8.2,3.46-1.04,.55-6.72,4.09-8.63,8.48-1.26,2.89-1.65,6.14-1.57,9.17,1.88,2.89,10.27,.11,12.89,.05Z"/><path class="b" d="M29.66,70.11c-1.72,3.91,.82,5.17-1.24,7.85-.77,1.32-1.22,3.02-.63,3.78,1.19,1.51,6.29,2.72,8.64,1.76,2.56-1.04,3.81-3.88,5.53-6.04,1.4-1.76,2.43-3.49,4.33-4.81,.51-.35,2.19-.93,4.04-1.55h-.05c1.67-1.06,4.15-2.28,4.99-4.19-1.91-1.46-11.34-2.86-16.88-2.07-3.05,.44-6.08,1.58-9.14,.76,.74,1.49,.99,3.23,.42,4.51Z"/><g><path class="b" d="M77.17,101.22c-.08-6.9-.66-11.15-3.2-15.32,1.93,4.72,.21,8.36-3.67,11.14-1.28,.92-1.82,2.77-3.45,3.07-2.41,.45-4.64,1.09-6.37,4.05-.56,.96-2.2,.47-3.15,1.42-1.42,1.43-3.7,2.86-5.47,3.72-6.49,3.16-24.05,9.71-31.27,4.6-.37-.26-3.46-3.8-2.92-3.82,6.04-.3,11.48-3.35,15.82-7.17,1.39-1.22,3.45-3.54,5.18-4.2,6.59-2.5,3.24-3.51,4.12-6.13,.94-2.78,3.94-3.11,6.51-4.11,1.98-.77,6.88-1.5,7.4-3.71,.44-1.89,1.53-4.26,.71-6.03-.49-1.04-2.83-1.14-3.92-1.45-1.13-.45-2.28-.72-3.46-.99-.81-.19-.77-1.19-.21-1.61,1.88-1.42,4.03-1.97,6.24-1.91-1.88-.62-3.79-1.16-5.73-1.68-1.85,.62-3.53,1.19-4.04,1.55-1.9,1.32-2.92,3.05-4.33,4.81-1.72,2.16-2.74,5.34-5.3,6.38-2.35,.96-7.67-.59-8.87-2.1-.59-.75-.14-2.45,.63-3.78,2.07-2.67-.48-3.93,1.24-7.85,.56-1.28,.32-3.02-.42-4.51-.14-.04-.28-.07-.42-.12-2.09-.68-3.8-2.14-5.84-2.93-1.2-.46-2.35-.57-3.46-.47,.2,.61,.35,1.17,.35,1.34,.01,3.37-2.56,4.64-3.87,7.04-1.92,3.53-.12,7.17-.12,11.01,0,1.01-.7,1.74-1.88,1.77-2.61,.06-11.01,2.85-12.89-.05,.08,3.46,.77,6.62,1.5,8.6-.14,1.83-.28,3.66-.39,5.49-.29,4.76-.74,9.67,.86,14.26,2.65,7.62,9.96,11.83,16.71,15.37,.82,.43,1.79,.13,2.19-.67,.34,0,.71-.07,1.09-.28,2.12-1.16,5.11,1.74,8.18,4.42,10.7-.66,22.36-4.17,32.07-8.76,3.83-1.81,13.79-9.51,13.79-10.46,0,0,.09-9.09,.08-9.95Z"/><path class="b" d="M49.81,74.69c-.56,.42-.6,1.42,.21,1.61,1.19,.28,2.33,.54,3.46,.99,1.09,.31,3.44,.4,3.92,1.45,.82,1.76-.27,4.13-.71,6.03-.52,2.21-5.42,2.94-7.4,3.71-2.56,1-5.57,1.33-6.51,4.11-.89,2.62,2.47,3.63-4.12,6.13-1.73,.66-3.79,2.98-5.18,4.2-4.34,3.81-9.78,6.86-15.82,7.17-.54,.03,2.56,3.57,2.92,3.82,7.22,5.11,24.78-1.44,31.27-4.6,1.78-.87,4.05-2.3,5.47-3.72,.95-.96,2.59-.47,3.15-1.42,1.73-2.96,3.97-3.6,6.37-4.05,1.63-.3,2.17-2.16,3.45-3.07,3.88-2.78,5.6-6.42,3.67-11.14-.95-1.56-2.16-3.11-3.74-4.77-4.04-4.27-8.94-6.62-14.18-8.35-2.21-.06-4.36,.49-6.24,1.91Z"/></g><path class="b" d="M29.96,121.58c-2.28-5.1-7.53-8.73-11.6-12.3-8.11-7.1-15.16-19.76-15.1-26.57,.02-2.35-.84-5.34-.58-8.68-1.89,4.08-2.06,9.82-2.13,11.84-.19,5.01,.27,10.2,.6,15.02,.34,5.03,.25,10.67,3.48,14.83,3.28,4.22,7.86,8.48,12.5,11.12,4.36,2.48,14.11,3.56,14.11,3.56,0,0-.28-6.59-1.27-8.81Z"/><g><path class="b" d="M59.12,99.01c-2.57,1.52-4.96,2.81-5.76,3.55-.91,.84-3.39,1.43-4.46,2.07-3.1,1.83-6.37,3.36-9.8,4.5-5.72,1.89-14.67,4.88-19.96,.83,2.21,4.65,8.99,12.75,9.89,19.48,0,.02,.01,.03,.02,.05-2-.8-5.33-2.57-7.02-4.7-1.82-2.3-5.82-5.92-7.93-6.81-.64-.27-2.83-.86-3.49-1.63-2.62-3.06-3.23-2.39-4.27-3.09-2.79-1.89-4.43-5.21-4.96-8.65,.68,7.1,2.44,10.39,3.65,11.9,5.81,7.27,10.38,10.37,16.26,12.07,5.41,1.56,9.95,2.18,9.95,2.18,0,0,7.9-.45,13.12-1.97,3.55-1.03,19.2-6.48,22.33-8.1,5.12-2.64,14.19-6.58,14.75-7.48,.51-2.69,.2-7.45,0-9.35-.18-1.65-.53-3.42-1.02-5.21-4.27,.86-10.93,2.28-14.18,4.8-2.59-1.39-5.92-3.48-7.1-4.41Z"/><path class="b" d="M65.98,94.1c-1.54,1.65-4.3,3.4-6.87,4.92,1.18,.94,4.51,3.02,7.1,4.41,3.25-2.52,9.91-3.94,14.18-4.8-1.47-5.35-4.41-12.15-7.16-14.79-1.05,4.66-4.41,7.2-7.26,10.26Z"/></g><path class="b" d="M57.92,99.48c-1.14-.36-3.26-.9-5.06-1.01,.09,.47,.68,2.36,1,4.61,.79,5.56,2.44,14.34,2.58,14.79,.21,.69,2.98-.33,3.27-1.74,.32-1.54-1.29-12.77-1.79-16.64Z"/><path class="b" d="M110.39,114.29c-7.19-6.86-17.98-17.7-28.87-16.52-5.61,.61-11.77,2.63-16.62,5.26-5.95,3.22-12.6,9.07-16.68,13.27-.58,.59,1.57,1.47,2.11,1.59,19.74,4.6,40.13,3.96,59.57-1.75,.78-.23,1.1-1.27,.49-1.85Z"/><g><path class="b" d="M95.38,119.69c-.91-.94-2.54-.49-3.61-.4-2.9,.25-5.8,.43-8.72,.48-6.26,.11-12.86,.47-19.05-.46-5.05-.76-13.38-2.34-15.78-3-.26,3.11-.71,5.88-.73,9,0,1.19,.59,4.82,.59,4.82,0,0,3.7,1.77,5.04,2.27,.68,.25,1.36,.5,2.04,.74,1.19-1.29,1.79-1.66,4.06-1.43,3.96,.4,6.7,1.79,8.08-2.54,.86-2.7,.57-6.18,.12-8.9-.04-.25,.18-.44,.42-.32,2.53,1.26,3.39,.08,5.27,1.75,1.66,1.47,2.22,2.94,2.83,4.98,.41,1.37,.92,3.66,1.6,4.96,.09,.17,.19,.32,.3,.47,3.26,1.53,7.12-.99,10,2.04,.23-.02,.45-.04,.66-.05,.1,0,.13,.16,.02,.18-.17,.03-.35,.06-.53,.09,.04,.06,.05,.13,.06,.2,.65-.13,1.31-.26,1.99-.4,.42-.08,5.14-4.33,5.14-4.74,0-3.09,.77-3.43,.72-6.52-.02-.91,.18-2.48-.54-3.22Z"/><path class="b" d="M88.53,134.28c.1-.02,.08-.19-.02-.18-.21,.01-.43,.03-.66,.05-2.88-3.03-6.73-.51-10-2.04-.11-.15-.21-.3-.3-.47-.68-1.3-1.19-3.6-1.6-4.96-.61-2.04,0-5.11-.66-6.17-1.33-2.13-4.91,.7-7.44-.56-.24-.12-.46,.08-.42,.32,.45,2.73,.74,6.2-.12,8.9-1.38,4.33-4.12,2.94-8.08,2.54-2.27-.23-2.87,.14-4.06,1.43,2.22,.78,4.47,1.49,6.77,2,10.37,2.3,16.42,1.36,26.12-.57-.02-.07-.03-.14-.06-.2,.18-.03,.36-.06,.53-.09Z"/></g><path class="b" d="M57.56,73.3c-.15-.31-1.46-5.51-2.3-6.39-1.17,1.24-5.38,1.92-6.46,2.76-3.98,3.09-5.4,5.62-9.11,9-1.4,1.28-2.21,4.65-4.79,4.1-2.46-.52-6.77-1.9-8.51,.69,3.55,.97,5.28,1.93,8.81,2.35,1.46,.17,4.66-.58,5.57-1.69,2.19-2.68,3.76-4.67,6.85-6.55,3.03-1.85,7.88-.68,9.96-4.27Z"/><path class="b" d="M111.53,114.68c-.82-.14-2.06-.43-2.72-.3-4.4,.87-7.55,1.73-11.96,2.57-.15,.03-.29,.06-.43,.08-1-.61-2.02-1.19-3.05-1.76-.34-.19-.73-.07-.94,.25-1.02,1.57-1.25,3.49-.6,5.18-.08,.24-.17,.49-.26,.77-.03,.09-.06,.18-.1,.27-.28,.21-.39,.56-.35,.88-1.45,3.55,1.33,8.95,1.37,8.44,2.58,.53,4.4,2.94,6.74,2.38,3.04-.72,8.44-2.95,11.47-4.26,.98-4.27,1.21-11.15,.82-14.52Z"/><path class="b" d="M107.87,113.71c-1.01-2.69-2.65-4.28-4.17-4.4-3.63,.43-8.55,2.11-12.24,1.49-2.21-.37-4.84-1.27-7.1-.94-1.05,.15-1.66,.45-2.42,1.13-.33,.29-.26,.9-.48,1.2-1.24,1.7-2.58,2.29-4.53,2.93-6,1.96-13.51,3.01-19.76,2.87-.26,0,19.79,3.43,25.92,2.87,3.7-.34,7.29-1.22,8.68-4.76,5.2,2.03,10.61,1.59,15.57-1.12,.4-.22,.68-.81,.51-1.26Z"/><path class="b" d="M111.53,114.68c-4.42-4.47-9.55-8.45-14.71-12.03-.55,1.77,5.75,5.37,9.24,10.03,.52,.7,.22,2-2.33,2.36-.86,.12-4.95,1.34-7.8-.36-1.92-1.14-3.03-.96-5.22-1.6-.12,1.88-.37,4.6-2,5.65-1.22,.78-2.62,.83-3.99,.53-3.91,.12-7.82,.17-11.74-.12-6.73-.5-14.52-1.21-21.21-2.1,8.22,2.18,16.67,4.09,25.4,4.59,2.84,.16,10.88-1.08,10.91,1.67,.02,1.82-1.06,6.21,1.1,9.28,2.31,.04,.74-6.24,1.46-9.14,.17-.37,.34-.74,.53-1.1,.06-.12,.08-.24,.07-.35,.16-.12,.33-.23,.49-.35,.51-.19,.57-.87,.08-1.09,0,0,.02-.01,.02-.02,.3,0,.63-.19,.66-.59,.12-1.21,.1-2.3-.02-3.39v-.02c.43,.35,.91,.65,1.51,.94,.1,.05,.2,.07,.29,.07,.41,.27,.28,.58,.7,.84,.33,.2,14.93-2.23,16.56-3.68Z"/><path class="b" d="M67.95,78.98c2.04,1.58,4.17,5.62,2.45,8.91-2.21,4.22-8.55,8.19-9.48,8.89-2.55-.56-3.79-1.08-3.9-.29-.02,.16,.74,.99,.85,1.19,.13,.24-.44,.65-.93,.42-1.32-.64-3.23-1.7-4.29-2.34-.2-.12-2.05-1.24-2.33,0-.57,2.5,.12,3.85-1.63,5.84-1.82,2.07-4.41,3.58-6.78,4.91-2.41,1.36-11.05,5.45-16.33,4.8-2.33-.29-5.53-1.91-7.1-3.03-3.18-2.27-7.77-7.96-10.12-11.79-2.48-4.03-3.8-7.45-4.75-11.53,.98,.64,9.58,.86,12.12-2.79-3.22,1.1-7.56,2.03-10.12-.27-.66-.59-.88-1.43-.82-2.15,.19-2.34,2.21-4.65,3.25-6.17,1.37-2.03,2.64-4.55,4.28-6.58,2.15-1.14,5.59-2.96,6.89-4.88-9.95,.96-14.06,8.5-16.82,11.91-1.87,6.13-.37,14.01,2.49,20.15,2.02,4.34,4.99,8.07,8.3,11.49,1.13,1.17,8.59,10.24,10.25,11.89,.7,.93,3.73,6.51,3.99,6.66,0-1.88-.69-6.66,1.26-10.07,6.79-2.25,13.43-5.17,19.93-8.13,1.64-.75,3.64-2.16,5.22-3.57,.33-1.17-.56-3.42-.57-3.55,1.41,.64,4.29,1.64,4.77,1.42,.37-.17,15.67-9.13,16.02-13.82,.2-2.66-3.88-6.69-6.11-7.5Z"/><path class="b" d="M55.26,66.91c-4.61-4.1-14.29-2.97-19.86-1.51,3.51,.33,9.51-.53,13.83,.64,1.73,.47,1.99,1.7-.11,2.72-1.13,.56-2.26,2.15-3.21,3-1.49,1.33-5.18,5.5-5.29,5.6-1.65,1.56-2.34,2.89-4.48,3.62-.38,.13-1.91,.33-2.37,.37-1.99,.18-4.08,.04-5.54,.81,2.13,.14,5.64,2.25,9.07,1.19,1.62-.5,3.26-1.98,4.66-4.23,.9-1.45,2.86-4.19,4.07-5.49,1.05-1.13,5.81-3.87,6.19-4.01,.93-.35,1.81-.74,2.72-1.23,.37-.2,.63-1.21,.31-1.49Z"/><path class="b" d="M95.13,117.13c-.16-.61-3.48-2.06-3.45-1.34,.04,.88-.24,3.04-.36,4.77-1.18,1.57-1.88,4.77-2.04,5.74-.39,2.36-.42,5.82,.29,7.96,0,0,2.7-.52,4.56-1.38,1.34,.39,2.96,1.1,4.49,.88-.49-3.94-2.39-12.57-3.48-16.63Z"/></g><g><g><path class="b" d="M220.4,106.64c-.17-4.41-1.63-16.72-2.22-20.69-.79,.09-1.43,.35-2.31,1-1.43,1.07-2.43,2.23-3.9,2.74,.8,4.83,.66,9.99,.79,14.86,.09,3.51,.19,7.01,.29,10.52,2.35-1.12,5.94-3.47,7.31-3.61,.07-1.64,.1-3.34,.05-4.82Z"/><path class="b" d="M230.16,105.35c-.02-1.08-.07-2.15-.14-3.22-.69-3.78-1.53-8.38-2.28-11.61-.38-1.63-1.11-5.64-1.13-5.77,0,0-.2-.23-.5-.56-1.25,.7-2.35,1.17-3.54,1.44,.5,4.61,2.1,11.24,2.7,15.02,.28,1.78,.72,3.54,.95,5.32,.22,1.72-.34,4.22-.36,6.07,.9,.08,1.76,.09,2.52-.11,.81-.21,1.15-1.24,1.68-1.96-.29-1.52,.13-3.59,.11-4.62Z"/><path class="b" d="M227.74,90.51c.82,3.55,1.75,8.77,2.48,12.73,.4-1.98,.78-5.66,.49-9.09-.39-4.65-1.19-9.83-1.99-12.74-1.33,.27-2.41,.43-3.05,.41,.03,1.17-.3,1.82,.56,2.29-.04,.02-.08,.04-.12,.07l.5,.56c.03,.14,.76,4.14,1.13,5.77Z"/><path class="b" d="M226.21,105.96c-.23-1.78-.67-3.55-.95-5.32-.6-3.79-2.2-10.42-2.7-15.02-.89,.2-1.83,.29-2.93,.28-.57,0-1.03,0-1.45,.05,.59,3.97,2.05,16.28,2.22,20.69,.06,1.49,.02,3.19-.05,4.82,.03,0,.06-.01,.08-.01,1.61-.08,3.59,.42,5.41,.58,.02-1.85,.58-4.35,.36-6.07Z"/><path class="b" d="M211.97,89.69c-.6,.21-1.27,.32-2.08,.26-1.83-.13-5.79-.92-5.77-.84,.3,1.27,.12,2.27-.99,2.61-.37,.11-.85,.16-1.37,.17,1.54,5.78,2.2,11.79,2.46,17.77,.08,1.93,.13,3.87,.15,5.8,.01,1.05-.22,2.45,0,3.57,.1-.03,.2-.07,.31-.1,1.5-.57,2.74-2.89,2.74-2.89,0,0,2.53,.26,4.79-.59,.26-.1,.55-.23,.85-.37-.1-3.51-.2-7.01-.29-10.52-.13-4.88,.01-10.03-.79-14.86Z"/></g><g><path class="b" d="M234.38,100.08c.11-2.33-.24-3.77,1.69-3.17,.97,.3,.54-2.84,.76-4.58,.19-1.55,1.23-3.05,1.18-4.6-.09-2.82-.24-5.62-.22-8.44-3.27,.77-6.61,1.63-9.06,2.13,.8,2.91,1.6,8.09,1.99,12.74,.29,3.43-.1,7.1-.49,9.09-.07-.36-.14-.74-.21-1.12,.07,1.07,.13,2.14,.14,3.22,.02,1.02-.4,3.1-.11,4.62,.22-.3,.47-.56,.81-.66,1.13-.36,2.25-.73,3.38-1.1-.05-2.6,.02-5.78,.13-8.12Z"/><path class="b" d="M241.47,91.98c-.13-3.62,0-8.78-.29-13.45-1.09,.23-2.24,.48-3.4,.76-.02,2.82,.13,5.62,.22,8.44,.05,1.56-.99,3.06-1.18,4.6-.21,1.74,.21,4.88-.76,4.58-1.93-.59-1.59,.85-1.69,3.17-.11,2.34-.18,5.53-.13,8.12,2.43-.8,4.87-1.59,7.4-2.17,.05-4.68,0-9.37-.17-14.05Z"/></g><g><path class="b" d="M225.67,81.82c2.23,.09,9.66-2.09,15.51-3.29v-.08c-4.48-1.61-8.85-3.48-13.09-5.63-1.42-.72-3.11-1.44-4.39-2.51-2.46,.34-4.9-.89-7.12-1.91-2.28-1.04-4.84-2.2-7.24-.8-1.57,.91-2.62,2.41-4.33,3.13-2.16,.9-4.58,.68-6.6,1.99-1.71,1.11-2.95,2.95-3.41,4.93-.9,3.89,1.55,7.33,4.94,8.71,.72-.04,3.32,2.38,4.23,4.27,.1-.43,.07-.94-.06-1.52-.02-.08,3.94,.71,5.77,.84,2.83,.21,3.98-1.49,5.99-3,1.34-1.01,2.13-1.07,3.76-1.05,2.63,.03,4.36-.51,6.6-1.79-.86-.47-.53-1.12-.56-2.29Z"/><path class="b" d="M199.95,86.36c-3.39-1.38-5.84-4.82-4.94-8.71,.46-1.98,1.7-3.82,3.41-4.93,2.02-1.31,4.44-1.08,6.6-1.99,1.71-.71,2.76-2.22,4.33-3.13,2.4-1.4,4.96-.24,7.24,.8,2.22,1.01,4.66,2.24,7.12,1.91-.36-.3-.69-.63-.97-1-1.45-1.93,.42-3.91-.4-5.9-.98-2.41-4.36-2.37-6.5-2.34-5.01,.07-10.02,.32-15.01,.71-9.68,.75-19.32,2.05-28.85,3.9-4.65,.91-9.31,1.9-13.89,3.11-2.05,.54-3.8,1.26-4.96,2.68-.82,3.19,6.21,5.95,8.31,7,3.42,1.71,6.97,3.17,10.54,4.53,6.64,2.51,19.08,6.84,25.85,8.99,1.68-.23,4.06,.14,5.31-.25,.61-.19,.93-.58,1.06-1.09-.91-1.89-3.51-4.31-4.23-4.27Z"/></g><g><path class="b" d="M198.72,114.28c-.32-1.02-.77-1.87-1.83-2.27-.12-.04-.24-.08-.37-.1-.08,2.34-.15,4.68-.19,7.02,2.26,.06,4.03,.55,5.86,.48-1.85-1.28-2.8-2.92-3.48-5.13Z"/><path class="b" d="M196.28,118.93s.04,0,.06,0c.04-2.34,.1-4.68,.19-7.02-.95-.21-2.03,.06-2.86,.52-.51,.29-.91,.67-1.29,1.11-.99,1.13-1.65,1.25-3.13,1.11-4.86-.46-9.69-1.36-14.4-2.64-2.32-.63-4.62-1.34-6.88-2.16-2.26-.82-4.63-1.8-5.68-4.13-.21-.46-.36-2.5-.85-.79-.87,2.97-2.59,2.99-4.57,2.68-.65-.1-1.3-.17-1.95-.23,5.12,1.86,11.83,4.25,16.1,5.71,6.83,2.35,17.98,5.59,25.26,5.83Z"/></g><g><path class="b" d="M204.36,115.47c-.02-1.93-.06-3.87-.15-5.8-.26-5.98-.92-11.99-2.46-17.77-1.23,.04-2.75-.09-3.93,.07-6.77-2.14-19.21-6.47-25.85-8.99-3.02-1.14-6.01-2.37-8.93-3.75-.16,.43-.24,.84-.1,1.15,.33,.78,.52,2.35,1.08,2.87,.39,.37,.38,1.18-.21,.83-.71-.36-1.06,.11-1.28,.78-.31,.97-1.12,1.69-1.73,2.55-1.22,1.72-1.47,3.39-1.68,5.46-.33,3.32-1.82,6.19-3.39,9.08-.17,.31-.58,.2-.69-.09-1-2.72-1.57-5.72-1.33-8.58,.44-5.19-.91-9.34-.91-9.67,0-.16,.25-.2,.29-.04,.02,.09,.04,.19,.06,.28,1.18-2.58,2.47-5.09,3.87-7.55v-.02c-2.27-1.31-4.39-2.99-3.91-4.82-.54,.65-.96,1.44-1.22,2.45-1.29,5.07-1.66,10.53-2.42,15.7-.57,3.87-1.28,11.19-1.72,15.1-.27-.03,2.89,1.15,7.16,2.7,.65,.06,1.3,.13,1.95,.23,1.99,.31,3.71,.29,4.57-2.68,.5-1.7,.65,.33,.85,.79,1.05,2.33,3.42,3.31,5.68,4.13,2.26,.82,4.56,1.53,6.88,2.16,4.71,1.28,9.54,2.18,14.4,2.64,1.48,.14,2.13,.02,3.13-1.11,.39-.44,.78-.82,1.29-1.11,.82-.47,1.9-.73,2.86-.52,.12,.03,.25,.06,.37,.1,1.06,.39,1.51,1.24,1.83,2.27,.68,2.21,1.63,3.85,3.48,5.13,.7-.03,1.41-.13,2.16-.38-.22-1.12,.01-2.52,0-3.57Z"/><path class="b" d="M152.82,83.6c0,.33,1.34,4.48,.91,9.67-.24,2.86,.33,5.86,1.33,8.58,.1,.29,.52,.4,.69,.09,1.57-2.89,3.05-5.76,3.39-9.08,.21-2.06,.46-3.73,1.68-5.46,.61-.86,1.42-1.57,1.73-2.55,.21-.68,.56-1.14,1.28-.78,.59,.35,.6-.46,.21-.83-.56-.52-.75-2.09-1.08-2.87-.13-.31-.06-.72,.1-1.15-.54-.26-1.08-.51-1.61-.77-.9-.45-2.69-1.21-4.39-2.18v.02c-1.41,2.46-4.22,7.15-4.22,7.31Z"/></g><path class="b" d="M236.06,76.2c-3.26-1.31-6.62-2.56-9.63-4.33-.8-.47-2.86-1.96-3.38-3.05-.37-.78-.44-1.47-.3-2.33,.2-1.26,.25-2.66-.41-3.08,.22,1.69-1.55,4.04-2.09,5.03-.2,.37-.09,1.2,2.59,2.28,1.97,.8,4.11,2.24,4.75,2.56,2.58,1.31,5.24,2.08,7.76,3.53,.76,.44,1.43,1.83-.57,2.33-.3,.08-1.92,.56-2.23,.61-1.88,.18-3.76,.4-5.63,.46-2.74,.09-1.83-1.68-1.64-3.08-2.03,.33-1.95,1.18-2.01,2.07-.06,.82,.44,1.73,.95,2.55,.76,1.22,.1,2.29-.6,2.6-1.06,.48-4.08,.31-5.06,.4-2.38,.22-3.87,1.91-5.06,3.18-.2,.2-.4,.42-.59,.64-.35,.26-.72,.49-1.1,.69-3.12,1.03-12.02-3.51-13.7-3.76,1.33,.8,2.48,1.82,3.63,2.61,1.13,.77,.68,1.5,.48,1.74-1.05,1.31-4.76,1.14-6.28,.91-4.33-.65-8.45-2.25-12.62-3.63-8.24-2.74-15.72-6.95-23.62-10.61-.87-.4-3.39-2.09-3.85-2.7-.97-1.27-.23-3.57,1.38-4.8-.68,.06-1.92,.55-2.26,.73-.79,.42-1.93,1.39-2.02,1.91-.16,.89,.49,1.98,1.11,2.64,.11,.11,.39,.42,.59,.67,.4,.53,.37,1.4,.28,1.92-.32,1.97-.65,2.42-1.33,4.4-.25,.72-.79,2.31-.79,2.31,2.37-1.7,3.86-4.28,4.44-5.97,.06-.17,.34-.84,.81-.63,3,1.29,14.37,6.95,20.72,9.37,4.06,1.55,8.18,2.93,12.37,4.09,2.89,.8,9.57,1.25,10.86,4.65,.58,1.53,1.16,4.96,1.39,6.56,.58,3.93,.39,8.28,.93,12.2,.49-3.9,.55-8.84-.06-12.87-.36-2.37-.83-4.28-.46-6.69,.18-1.15,.54-2.56,.59-3.95,1,.48,5.8,.61,6.88,.25,1-.21,1.92-.66,2.66-1.43,1.33-.94,2.72-2.79,4.25-3.11,1.16-.25,1.69-.13,2.79-.04,.37,.03,1.88,.09,2.2,.07,1.23-.08,2.92-.4,3.41-1.36-.16-1.15-.91-2.18-.89-2.76,.49-.01,.89-.13,1.93-.25,1.35-.16,3.23-.57,4.4-.78,3.02-.56,6.13-1.84,9.14-2.42-1.2-.68-4.77-2.19-5.13-2.33Z"/><path class="b" d="M201.5,105.41c-.04-1.59,.14-4.83-1.38-5.44-1.49-.6-.82-2.3-2.34-3.62-1.06-.92-2.46,.1-2.77-.43-.78-1.3-1.68-2.31-2.51-2.15-.39,3.33-.13,5.46,1.62,8.34,.29,.48,1.44,1.13,1.74,1.61,.44,.7-.21,2.13,1.07,2.77,1.59,.79,2.27,.93,2.34,2.63,.08,1.97,.43,4.74,2.48,4.74,.34,0-.7-1.96-.36-3.9,.37-2.11,.16-2.42,.11-4.55Z"/></g><path class="c" d="M159.59,26.54c-7.31-1.13-16.23-2.65-23.36,.11-1.51,.45-2.96,1.2-3.58,2.63-.99,2.27,.76,4.55,2.67,5.76,5.84,3.67,14.31,4.72,21.16,4.46,3.45-.13,7-.57,10.26-1.7,2.19-.76,5.95-2.36,6.75-4.68,1.7-4.91-11.33-6.17-13.91-6.57Z"/><path class="c" d="M201.83,70.5c-7.89-1.13-17.5-2.65-25.19,.11-1.63,.45-3.19,1.2-3.86,2.63-1.06,2.27,.82,4.55,2.88,5.76,6.3,3.67,15.43,4.72,22.82,4.46,3.72-.13,7.55-.57,11.06-1.7,2.36-.76,6.41-2.36,7.28-4.68,1.83-4.91-12.22-6.17-15-6.57Z"/><path class="c" d="M86.65,104.25c-6.57-1.12-14.59-2.63-21,.11-1.36,.45-2.66,1.19-3.22,2.6-.89,2.25,.68,4.51,2.4,5.7,5.25,3.64,12.87,4.68,19.03,4.42,3.1-.13,6.3-.56,9.22-1.69,1.97-.76,5.35-2.33,6.07-4.64,1.53-4.86-10.19-6.11-12.51-6.51Z"/><g><path class="b" d="M135.7,25.77c1.11-3.08,2.74-6.43,4.92-8.9,.75-.85,1.6-1.65,2.51-2.39,.23,.09,.46,.16,.7,.19,.52,.17,1.03,.38,1.54,.59,.1,.04,.19,.03,.27-.02,.03,.01,.05,.04,.09,.05,.25,.09,.47-.14,.49-.37,.03-.43-.14-.82-.22-1.23-.08-.39-.13-.82-.1-1.23,1.64-1.1,3.35-2.08,4.99-2.99,3.15-1.76,10.2-5.62,14.06-.84,1.95,4.79,.53,11.74-1.38,15.68-2.89,5.94-8.58,10.56-15.03,12.08-4.72-.55-8.41-1.69-10.75-3.22-2.67-1.74-3.11-4.5-2.07-7.38Z"/><g><path class="b" d="M166.95,26.27c-1.82,1.41-2.55,3.81-4.32,5.32-2.67,2.27-4.55,3.85-6.12,5.12-2.9,.06-5.58-.06-7.99-.34,6.45-1.52,12.14-6.14,15.03-12.08,1.91-3.94,3.33-10.88,1.38-15.68,.23,.28,.45,.59,.65,.93,3.55,4.49,5.77,9.78,6.91,15.38-.16-.06-.32-.12-.51-.16-1.71-.37-3.71,.49-5.03,1.51Z"/><path class="b" d="M163,36.3c-2.27,.23-4.44,.36-6.49,.4,1.58-1.27,3.45-2.84,6.12-5.12,1.77-1.51,2.5-3.9,4.32-5.32,1.32-1.02,3.33-1.89,5.03-1.51,.18,.04,.35,.1,.51,.16,.43,2.12,.71,4.29,.83,6.48-1.46,1.05-6.7,4.53-10.32,4.91Z"/></g><path class="b" d="M147.27,12.29c1.18-1.58,3.72-2.5,5.48-3.19,2.5-.99,5.24-1.61,7.93-1.49,1.01,.05,4.12,1.73,3.7,2.37,1.68,3.49-.24,4.61-1.73,8.95-1.36,3.95-3.39,6.91-6.78,4-1.78-1.53-5.4-4.89-7.41-6.06-2.83-1.64-2.38-2.99-1.2-4.58Z"/><path class="b" d="M138.77,19.34c1.09-2.09,2.82-3.93,4.68-5.48,.47,.3,1.93,.89,1.93,.89,0,0-.05-1.91,.06-2.42,2.62-1.81,5.38-3.19,6.27-3.6,2.93-1.34,6.63-3.62,9.93-2.67,.99,.28,2.38,1.11,3.07,1.67,1.31,1.07,6.08,9.1,6.5,12.35-1.04-2.15-3.58-6.15-4.44-5.13-.69,.81-1.31,5.02-1.79,6.46-2,5.98-8.46,14.17-15.39,14.65,1.28-.4,5.01-2.62,5.36-2.83,3.81-2.34,6.53-6.74,8.02-11.13,1.05-3.11,2.09-7.5,.45-10.6-1.2-2.27-3.35-3.25-5.6-3.1-2.67,.18-7.04,2.47-8.6,3.14-1.66,.71-2.89,1.11-2.26,3.29,.16,.57,1.19,1.55,1.52,2.01-1.27,.03-3.32-1.03-4.64-1.22-.34,.44-3.34,3.79-5.06,3.69Z"/></g><g><path class="b" d="M168.43,102.13c-3.81-1.48-7.71-2.69-11.69-3.6-3.02-.69-5.56-.89-7.81-.65-2.72,.91-6.1,2.46-5.05,5.54,1.61,4.71,4.73,9.53,4.73,9.53,0,0,11.54-2.14,13.8-2.62,1.3-.28,7.5-2.18,12.99-4.66-.13-.26-.26-.48-.4-.66-1.08-1.42-4.8-2.19-6.58-2.89Z"/><g><path class="b" d="M148.01,109.23c.58,1.17,1.37,2.29,2.29,3.4,0,0-1.07-1.39-2.29-3.4Z"/><path class="b" d="M147.19,118.85c.97-2.14,3.57-5.1,4.74-6.53-.93-1.11-3.34-1.93-3.92-3.1-1-1.64-2.1-3.7-2.83-5.82-1.05-3.08,1.03-4.62,3.75-5.53-2.79,.3-5.11,1.31-7.17,3.12-3.61,2.44-6.42,6.29-8.69,10.44,2.39,2.38,6.18,4.52,9.06,5.67,1.43,.58,3.47,1.95,5.05,1.75Z"/></g><path class="b" d="M178.72,122.66c.26-.08-.52-6.72-1.72-11.94-.1,.02-.2,.01-.3,.05-3.48,1.29-6.77,3.04-10.12,4.64-3.02,1.44-6.92,2.58-9.53,4.66-2.62,2.08-4.34,7.07-4.13,10.67,.17,0,.37,0,.53-.01,8.21-.81,17.43-5.57,25.26-8.06Z"/><g><path class="b" d="M147.19,118.85c-1.58,.2-3.62-1.17-5.05-1.75-2.88-1.16-6.67-3.3-9.06-5.67-2.03,3.72-3.62,7.67-4.89,11.08-.13,.35,8.24,4.48,16,6.75,.65-1.94,1.13-4.88,1.59-6.37,.41-1.35,.54-2.91,1.41-4.04Z"/><path class="b" d="M152.99,112.13c-1.56,.29-2.69,.5-2.69,.5-1.17,1.43-2.14,4.09-3.11,6.23,1.71-2.22,3.21-5,3.75-5.55,.31-.31,1.08-.74,2.06-1.18Z"/><path class="b" d="M175.41,105.67c-5.48,2.48-11.68,4.38-12.99,4.66-.31,.07-.76,.16-1.3,.26-.89,1.85-2,4.65-3.44,6.01-1.2,1.13-3.36,1.43-4.35,1.92-.74,.36-2.31,.93-3.02,1.35-1.76,3.05-2.31,6-2.98,9.49-.05,.26-.11,.48-.18,.68,2.14,.49,4.14,.77,5.77,.69-.21-3.6,1.51-8.59,4.13-10.67,2.61-2.08,6.5-3.22,9.53-4.66,3.35-1.6,6.64-3.35,10.12-4.64,.1-.04,.2-.03,.3-.05-.48-2.07-1.02-3.93-1.59-5.05Z"/><path class="b" d="M161.33,110.15c.61-1.21-5.07,.51-8.33,1.98,2.46-.46,6.01-1.12,8.12-1.54,.07-.14,.15-.32,.21-.45Z"/><path class="b" d="M150.31,119.88c.72-.42,2.28-.98,3.02-1.35,.99-.49,3.16-.79,4.35-1.92,1.44-1.36,2.55-4.16,3.44-6.01-2.11,.41-5.66,1.08-8.12,1.54-.98,.44-1.75,.87-2.06,1.18-.53,.55-2.03,3.32-3.75,5.55-.87,1.13-1,2.69-1.41,4.04-.46,1.5-.94,4.44-1.59,6.37,1.01,.29,2,.56,2.96,.78,.07-.2,.13-.42,.18-.68,.66-3.49,1.22-6.44,2.98-9.49Z"/></g><path class="b" d="M174.63,106.02c-5.52,.51-11.33,2.62-16.29,3.89-4.32,1.1-8.03,.58-11.12-2.85-1.28-1.42-2.64-4.94-1.06-7.73-2.36,.3-1.52,5.17-.99,6.48,.48,1.17,.77,2.47,1.57,3.42,1.17,1.5,1.27,3.13,1.27,3.14,.13,2.88-1.27,4.15-.82,6.49,3.01-3.64,4.16-5.54,8.73-6.86,3.14-.91,11.72-3.13,12.21-3.28,1.78-.53,4.74-1.4,6.49-2.7Z"/><path class="b" d="M168.21,112.13c-2.15,.93-1.35,1.46-3.31,2.74-.75,.49-3.48,1.78-4.48,2.49-1.14,.5-4.04,.96-4.52,1.8-.08,.14-1.7,3.76-1.65,4.84,1.22-1.12,2.19-3.14,4.02-4.38,2.4-.39,4.08-1.22,5.84-2.52,3.66-2.69,7.15-3.62,11.23-5.62-2.48-.1-4.9-.33-7.15,.64Z"/></g><g><g><path class="b" d="M246.89,111.57c-1.16,.19-2.22,2.21-2.55,3.47-.22,.84-.58,2.38-.62,3.28-.06,1.66,2.45,1.59,3.77,1.7,.18,.01,.5-.02,.86-.11-.21-1.5-1.57-2.43-1.68-3.6-.12-1.3-.38-3.46,.21-4.74Z"/><path class="b" d="M250.67,117.28c-.45-2.79-2.63-5.74-3.6-5.75-.06,0-.12,.03-.18,.04-.59,1.28-.33,3.44-.21,4.74,.11,1.17,1.47,2.11,1.68,3.6,1.07-.27,2.57-1.04,2.31-2.63Z"/></g><path class="b" d="M248.73,112.69c-.23-.43-.51-.83-1-1.12-.36-.22-.69-.46-1.21-.08-.58,.43-1.5,1.49-1.62,2.12,.29,0,.56-.78,1.26-1.39-.48,1.36,.17,3.68,.67,4.66-.02-.73-.23-1.89-.19-2.65,.05-.96,.23-1.35,.41-1.98,.24-.49,.51,.05,.8,.17,.26,.11,.5,.3,.72,.51,.18,.25,.56,1.15,.92,1.15-.04-.08-.61-1.14-.78-1.39Z"/></g><g><g><path class="b" d="M135.79,124.27c-1.16,.19-2.22,2.21-2.55,3.47-.22,.84-.58,2.38-.62,3.28-.06,1.66,2.45,1.59,3.77,1.7,.18,.01,.5-.02,.86-.11-.21-1.5-1.57-2.43-1.68-3.6-.12-1.3-.38-3.46,.21-4.74Z"/><path class="b" d="M139.57,129.99c-.45-2.79-2.63-5.74-3.6-5.75-.06,0-.12,.03-.18,.04-.59,1.28-.33,3.44-.21,4.74,.11,1.17,1.47,2.11,1.68,3.6,1.07-.27,2.57-1.04,2.31-2.63Z"/></g><path class="b" d="M137.62,125.4c-.23-.43-.51-.83-1-1.12-.36-.22-.69-.46-1.21-.08-.58,.43-1.5,1.49-1.62,2.12,.29,0,.56-.78,1.26-1.39-.48,1.36,.17,3.68,.67,4.66-.02-.73-.23-1.89-.19-2.65,.05-.96,.23-1.35,.41-1.98,.24-.49,.51,.05,.8,.17,.26,.11,.5,.3,.72,.51,.18,.25,.56,1.15,.92,1.15-.04-.08-.61-1.14-.78-1.39Z"/></g><g><path class="b" d="M68.92,109.46c.45-.45,.88-2.11,1.39-2.59,1.03-.98,.66,.48,.75,1.22,.12,1.05-.07,1.8,.51,2.54,.17,.22,.81-.27,1.57,.58,1.16,1.3,2.15,2.19,6.38,2.54-.79-1.64-1.26-3.39-1.29-5.25-.03-1.89,.72-3.42,1.96-4.58,4.61-4.29,10.28-7.33,15.51-10.84-.62-2-1.21-3.54-1.72-4.04-2.85-2.85-6.49-5.17-9.89-7.3-5.72,1.26-11.21,4.75-13.71,6.9-1.1,.95-3.76,4.29-3.76,4.29,0,0-.87,9.46-.81,12.94,.01,.64-.03,1.63-.01,2.38,1.01,.45,2.94,1.39,3.12,1.2Z"/><path class="b" d="M91.73,86.33c-2.04-1.52-5.49-4.56-7.87-5.46-.13,.02-.27,.04-.41,.07,0,.1-.06,.2-.19,.23-1.01,.21-2.05,.53-3.06,.93-1.01,.45-2.08,1-3.12,1.57-.59,.36-1.15,.75-1.68,1.17,.03,.08,.01,.18-.07,.25-.26,.22-.51,.41-.79,.57-.21,.16-.41,.33-.62,.5-.18,.15-.41,.03-.45-.15-.05-.02-.08-.05-.12-.09-1.09,.73-1.97,1.39-2.46,1.87-1.22,1.18-3.18,2.64-4.27,5.12,2.44,4.75,7.51,11.19,11.67,14.54,2.45-1.73,12.86-10.1,17.4-14.4-.64-2.5-1.3-4.77-3.95-6.75Z"/><path class="b" d="M88.27,85.6c-1.48-1.65-3.35-3.54-5.55-4.29-2.55,.62-4.18,3.89-3.35,4.98,1.18,1.55-.11,2.45-.22,3.49-.08,.78,.42,1.84,.94,2.26,.38,.31,.82,.51,1.27,.71,1.22,.55,1.81,1,2.25,2.3,.6,1.79,1.07,3.62,1.49,5.45,.04,.18,.29,.29,.45,.18,2.38-1.55,5.04-3.37,5.82-6.28,.88-3.28-.99-6.44-3.1-8.8Z"/><g><path class="b" d="M82.55,105.44c-.13-.17-.63-1.41-1.03-2.7-.45,.39-.91,.77-1.35,1.18-1.24,1.15-1.99,2.69-1.96,4.58,.03,1.86,.5,3.61,1.29,5.25-4.24-.35-5.22-1.25-6.38-2.54-.76-.85-1.4-.36-1.57-.58-.58-.74-.38-1.49-.51-2.54-.09-.74,.28-2.2-.75-1.22-.5,.48-.94,2.15-1.39,2.59-.19,.18-2.11-.76-3.12-1.2,.01,.47,.05,.84,.15,.97,4.6,6.45,11.94,7.08,19.09,5.33-.38-1.15-.87-2.98-.91-4.87-.04-1.98-.99-3.48-1.58-4.24Z"/><path class="b" d="M93.95,98.19c-1.39,1.94-1.57,4.53-1.81,6.91-.17,1.72-.21,4.69-.06,7.01,2.66-1.18,5.13-2.56,7.23-3.92-.43-2.08-2.08-10.07-3.62-15.1-.41,.28-.83,.54-1.24,.81,.12,1.59,.11,3.44-.5,4.29Z"/><path class="b" d="M92.13,105.1c.24-2.38,.42-4.97,1.81-6.91,.61-.85,.62-2.7,.5-4.29-4.37,2.85-8.95,5.49-12.92,8.85,.39,1.29,.89,2.53,1.03,2.7,.59,.76,1.54,2.26,1.58,4.24,.03,1.89,.52,3.72,.91,4.87,2.41-.59,4.79-1.45,7.04-2.45-.15-2.31-.11-5.29,.06-7.01Z"/></g><path class="b" d="M92.31,86.49c-2.52-1.93-5.51-4.5-8.39-5.77-1.27,.16-4.68,.94-5.48,1.45-3.02,1.91-6.33,3.64-8.46,6.48,2.07-1.36,4.17-1.62,5.76-3.14,1.34-1.27,4.79-3.68,6.81-3.56,1.19,1.02,2.97,3.18,4.26,4.06,.82,1.51,2.57,3.41,2.65,5.17,.1,2.17,.24,4.2-1.34,5.9-1.86,2.01-5.63,3.61-7.55,5.07-1.63,1.24-3.1,2.13-4.53,1.34-2.05-1.13-3.92-4.38-4.29-4.83,.7-.74,1.72-1.99,2.74-2.39-1.52,.18-2.57,.24-3.78,1.15-1.2-.71-.91-1.68-3.15-2.8,.02,.94,3.18,4.51,6.04,8.51,1.13,1.58,2.94,2.76,3.39,4.34,.64,2.27,1.52,3.38,1.65,3.92,.72-.38,1.04-1.17,1.07-1.95,.04-.93,.66-.92,1.04-1.44,.4-.56,.29-.96,.41-1.44,.07-.27,.58-1.27,.88-1.57,1.67-1.66,5.93-3.82,6.9-4.62,2.41-1.99,5.63-4.18,6.76-7.29,.42-1.15-1.18-4.91-3.37-6.59Z"/></g><g><path class="b" d="M283.43,101.22c-1.14,.81-4.47,1.02-5.67,1.73-1.96,1.15-1.86,3.47-3.74,6.34-3,4.58-5.47,4.76-12.52,3.03,2.34-3.28,5.71-5.58,8.31-8.27,2.51-2.61,5.52-6.83,9.44-6.86,1.34,0,2.57-.31,3.92,.27,.8,.35,1.49,.89,2.11,1.51-.01,.06,0,.11-.02,.17-.22,.92-1.11,1.58-1.82,2.09Z"/><g><path class="b" d="M266.7,115.07c-1.67-.33-3.76-.76-5.2,.08-1.17,.67-1.57,4.42-1.71,5.55-.03,.24-.05,.49-.06,.74-.33-.09-.65-.16-.99-.26-.03-3.77,1.11-6.56,2.76-8.87,7.05,1.73,9.52,1.55,12.52-3.03,1.88-2.87,1.78-5.2,3.74-6.34,1.2-.7,4.53-.91,5.67-1.73,.71-.51,1.6-1.17,1.82-2.09,.02-.06,0-.11,.02-.17,.73,.73,1.37,1.57,1.93,2.39,.83,1.2,1.66,2.55,2.42,3.98-1.69,.5-4.74,2.09-6.06,3.21-2.41,2.05-6.49,3.87-6.87,7.05-.26,2.15-.74,4.9-.46,8.33-.67,.02-1.38-.04-2.07-.06-.08-1.58-1.66-3.23-3.25-5.73-.85-1.34-2.7-2.76-4.22-3.06Z"/><path class="b" d="M259.79,120.7c.14-1.13,.54-4.88,1.71-5.55,1.44-.83,3.53-.4,5.2-.08,1.52,.3,3.37,1.71,4.22,3.06,1.59,2.51,3.18,4.15,3.25,5.73-4.43-.12-9.23-.96-14.45-2.42,.02-.25,.03-.5,.06-.74Z"/></g><g><path class="b" d="M280.36,113.33c-2.2,.42-2.81,.49-3.67,2.36,0-.03,0-.07,.01-.1,.38-3.18,4.46-5,6.87-7.05,1.32-1.12,4.37-2.71,6.06-3.21,1.64,3.07,2.94,6.5,3.11,9.68-1.18,1.15-2.73,2.69-4.45,4.15-.12-1.04-.88-5.46-1.86-6.29-1.53-1.3-4.51,.16-6.06,.46Z"/><path class="b" d="M276.69,115.69c.86-1.87,1.46-1.94,3.67-2.36,1.55-.3,4.53-1.76,6.06-.46,.98,.83,1.75,5.24,1.86,6.29-2.42,2.06-5.17,3.97-7.73,4.39-1.32,.21-2.69,.32-4.08,.36-.08,0-.15,.01-.23,.01-.05-.64-.18-1.22-.18-1.81-.02-2.54,.43-4.69,.64-6.42Z"/></g><path class="b" d="M263.54,112.79c1.19-.1,3.38,.03,4.56-.17,2.95-.5,3.55-1.99,3.74-2.22,1.59-2.03,2.08-2.5,3.22-4.71,.37-.72,.49-2.59,1.24-2.92,.25-.11,1.89-.78,2.49-1.07,.58-.31,2.36-.33,3.34-1.04,.94-.68,1.09-2.06,1.06-2.28-.06-.54-1.9-1.26-1.77-1.27,1.76-.15,2.59,.43,4.03,2.05,.53,.59-2.03,2.41-2.1,2.42-1.38,.89-4.54,1.28-5.22,2.2-.83,1.12-.19,3.11,.24,4.37,.89,2.54,.68,5.83,.57,6.16-.54,1.63-1.36,1.02-1.66,1.28-.71,.61-.23,3.4-1.16,4.46-.13-1.18,.31-5.2-.96-6.71-.38-.45-1.23-.23-3.73,0-2.17,.2-3.29,1.03-7.9-.54Z"/></g><g><g><path class="b" d="M127.2,136.08c-.19-.02-.1-1-.29-1.07-.69-.28-1.12-.34-1.87-.53-1.29-.33-2.89,0-4.19-.05-1.97-.07-3.91-.4-5.83-.82,.91,.08,1.18-.41,1.06-.59,.83-1.95,1.21-2.99,3.38-3.03,2.79-.05,5.53,.97,8.05,2.06,.56,.24,1.48,.54,2.3,.97,.13,.47,.34,1.01,.39,1.35,.15,1.02-2.13,1.79-2.99,1.72Z"/><path class="b" d="M131.51,135.14c-.03,1.48-2.11,2.25-3.2,2.67-2.51,.98-5.12,.88-7.73,.92-1.51,.02-3.7,.08-5.02-.8-1.27-.85-1.55-2.68-.74-3.99,1.92,.42,4.05,.41,6.02,.48,1.3,.05,2.9-.28,4.19,.05,.75,.19,1.18,.25,1.87,.53,.19,.08,.1,1.06,.29,1.07,.86,.08,3.14-.7,2.99-1.72-.05-.34-.26-.87-.39-1.35,.93,.49,1.73,1.16,1.71,2.12Z"/></g><path class="b" d="M116.62,131.79c1.76,.44,3.56,1.68,5.37,1.79,.91,.05,2.55-.22,3.34,.28,.06,.04,.59,.87,1.58,1.15-1.12,.9-3.66,.05-5.04,0-.85-.03-1.81,.24-3.08,.1-1.39-.15-3.1-.74-3.96-1.16,.17-.51,.95-.65,1.25-.93,.12-.34,.32-.87,.54-1.23Z"/><path class="b" d="M117.12,130.95c1.47-1.99,5.36-.91,6.52-.56,1.57,.48,3.8,1.27,5.17,2.17,.69,.46-.82-.04-1.01-.09-1.6-.4-3.94-1.42-5.56-1.75-.96-.19-4.51,.59-5.11,.23Z"/></g><g><path class="b" d="M213.05,69.31c-.22-3.88,.22-8.86-1.71-12.4-1.72,1.04-3.46,2.24-4.45,4.02-.63,1.13-.11,2.74-.8,3.74,.55,2.19,1.06,4.64,1.85,6.88,.65,1.85,2.17,4.55,3.01,7.49,3.19-2.13,2.28-6.41,2.09-9.73Z"/><g><path class="b" d="M210.96,79.04c-.84-2.94-2.36-5.64-3.01-7.49-.79-2.25-1.3-4.7-1.85-6.88-.13,.19-.31,.37-.55,.51-1.05,.61-2.77,.96-4.13,1.24-.15,2.31-.75,4.59-.04,6.94,.45,1.5,1.07,2.98,1.7,4.42,.4,.9,1,1.86,1.31,2.85,2.28-.04,4.53-.36,6.29-1.39,.1-.06,.18-.12,.27-.18Z"/><path class="b" d="M201.38,73.35c-.71-2.35-.1-4.63,.04-6.94-.22,.05-.43,.09-.63,.13-1.76,.39-3.35,.47-4.8,.4,.46,2.85,1.04,5.69,1.59,8.52,.29,1.5,.62,3,.87,4.51,.02,.12,.03,.23,.04,.35,1.75,.13,3.83,.33,5.89,.29-.3-.99-.91-1.94-1.31-2.85-.64-1.43-1.25-2.91-1.7-4.42Z"/></g><g><path class="b" d="M198.5,80.33c-.01-.12-.02-.23-.04-.35-.25-1.51-.58-3.01-.87-4.51-.55-2.83-1.13-5.67-1.59-8.52-3.28-.15-5.83-1.06-7.87-.97-2.95,.13-5.9,.15-8.85,.22-1.92,.04-5.54-.53-6.77,.64-.37,.35-.94,1.22-1.46,2.27,.16,.39,.36,.78,.59,1.15,.26,0,.54,0,.85-.05,1.49-.22,2.02-1.35,3.63-1.12,2.55,.37,4.11,3.13,6.17,4.42,2.82,1.77,6.18,2.59,9.4,3.27,.83,.17,1.88,.2,2.37,1,.35,.57,.48,1.44,.56,2.21,1.33,.14,2.64,.25,3.88,.34h0Z"/><path class="b" d="M191.68,76.78c-3.22-.68-6.59-1.5-9.4-3.27-2.06-1.29-3.62-4.05-6.17-4.42-1.6-.23-2.13,.9-3.63,1.12-.31,.05-.59,.04-.85,.05,.31,.5,.67,.99,1.1,1.45,5.23,5.63,14.12,7.47,21.88,8.28-.08-.77-.2-1.64-.56-2.21-.5-.8-1.54-.83-2.37-1Z"/></g><g><path class="b" d="M171.04,69.11c.18-.36,.36-.69,.54-.99-.32-.05-.62-.12-.91-.21,.1,.41,.22,.81,.38,1.2Z"/><path class="b" d="M211.26,56.75c-1.86-3.25-5.34-3.67-8.76-3.7-5.95-.06-12.58,.39-18.75,2.04-.73,.71-1.32,1.57-2.02,2.36-.86,.98-2.3,1.65-2.92,2.78-2.25,4.1,4.99,4.66,7.24,5.74,.03,.02,.04,.05,.04,.08,.68-.02,1.36-.04,2.04-.07,2.95-.13,6.94,1.83,12.67,.57,1.41-.31,3.54-.66,4.76-1.37,1.48-.87,.59-2.9,1.34-4.25,.99-1.78,2.72-2.98,4.45-4.02-.03-.05-.05-.11-.08-.16Z"/><path class="b" d="M172.5,66.83c-.24,.23-.58,.69-.93,1.28,.16,.02,.32,.04,.48,.05,2.01,.14,4.12-.36,6.1-.65,2.46-.37,4.92-.75,7.38-1.12,.17-.03,.23-.16,.21-.29,.08,0,.17,.02,.25,.02,.04,0,.07-.03,.08-.07-2.27,.07-4.54,.09-6.81,.14-1.92,.04-5.54-.53-6.77,.64Z"/><path class="b" d="M178.8,60.22c.62-1.13,2.06-1.81,2.92-2.78,.7-.79,1.28-1.65,2.02-2.36-2.72,.72-5.35,1.68-7.8,2.92-1.48,.75-4.38,2.72-4.93,4.48-.61,1.95-.74,3.76-.34,5.43,.29,.09,.6,.16,.91,.21,.35-.59,.68-1.05,.93-1.28,1.23-1.17,4.85-.6,6.77-.64,2.27-.05,4.54-.07,6.81-.14,0-.03,0-.07-.04-.08-2.25-1.09-9.49-1.64-7.24-5.74Z"/></g><path class="b" d="M211.34,56.91c-1.31-3.09-4.38-3.48-5.9-3.68-3.32-.45-6.84-.71-10.12,.04,.91,.11,4.02,.88,6.92,.44,1.68-.26,2.28,.17,3.29,.17,.56,0,2.15,.21,2.82,.72,.31,.24,1.22,1.16,.54,1.6-1.36,.88-2.31,1.6-2.8,2.99-.55,1.55-1.67,2.97-2.97,3.94-2.77,2.05-6.08,2.76-9.35,2.18-1.31-.23-4.08,.09-5.66,.16-.52,0-1.05,0-1.58,.02-.6,.03-1.19,.08-1.79,.13-.43,.02-.87,.04-1.3,.06-1.06,.05-3.95-.34-6.63-.12-2.37,.2-3.21,.26-4.05-.23-2.38-1.39-.08-5.05,1.75-6.44-.05,0-.11,0-.17,.02-1.21,.48-2.85,1.71-3.64,3.79-.7,1.83-.49,4.85,.48,6.64,.31-.85,1.1-1.65,1.81-2.15,.36-.25,.68-.45,1.12-.51,.38-.05,2.08,.18,2.65,.21,3.16,.19,6.46-.24,9.62-.38,1.2-.06,2.4-.2,3.6-.17,1.23,.03,2.94,.45,4.26,.65,.33,.53,1,2.07,1.2,2.48,1.37,2.91,1.23,5.94,2.71,8.85-.14-2.17-.43-4.88-1-6.97-.32-1.15-.38-2.65-.71-4.14,2.12,.18,4.89,.31,7.33-.93,.62-.45,1.18-.51,1.47,.43,.68,2.23,1.22,3.43,2.48,5.39,.78,1.22,1.08,1.63,2.16,3.97-.58-2.29-1.63-4.62-2.1-6.95-.41-2-1.02-4.22-1.22-6.25-.18-1.87,1.24-3.15,3.02-4.2,.91-.54,2.17-.48,1.77-1.73Z"/></g></svg>