<?xml version="1.0" encoding="UTF-8"?><svg id="a" xmlns="http://www.w3.org/2000/svg" viewBox="0 0 171.87 112.07"><defs><style>.b{fill:#6c2165;stroke:#2f61ab;stroke-miterlimit:10;}</style></defs><g><path class="b" d="M91.71,46.45c-1.1-.03-1.75-.71-1.75-1.65,0-3.58,1.67-6.98-.11-10.27-1.22-2.24-3.62-3.42-3.61-6.57,0-.16,.14-.68,.32-1.25,2.68,.25,5.15,1.91,7.65,3.23,.97,.51,6.27,3.81,8.05,7.91,1.17,2.69,1.54,5.73,1.47,8.56-1.75,2.7-9.58,.1-12.02,.04Z"/><path class="b" d="M77.1,34.2c1.61,3.65-.77,4.83,1.16,7.32,.72,1.23,1.14,2.82,.59,3.52-1.11,1.41-5.87,2.54-8.06,1.64-2.39-.97-3.56-3.62-5.16-5.64-1.31-1.64-2.26-3.26-4.03-4.49-.47-.33-2.04-.87-3.77-1.44h.04c-1.56-.99-3.87-2.13-4.65-3.91,1.78-1.36,10.58-2.67,15.75-1.93,2.85,.41,5.67,1.47,8.53,.71-.69,1.39-.92,3.01-.39,4.21Z"/><g><path class="b" d="M32.78,63.22c.08-6.44,.62-10.4,2.98-14.29-1.8,4.4-.19,7.8,3.42,10.39,1.2,.86,1.69,2.58,3.22,2.87,2.25,.42,4.33,1.02,5.95,3.78,.52,.89,2.05,.44,2.94,1.33,1.33,1.33,3.45,2.67,5.11,3.47,6.05,2.95,22.44,9.06,29.17,4.29,.34-.24,3.23-3.54,2.73-3.57-5.63-.28-10.71-3.13-14.76-6.68-1.3-1.14-3.22-3.3-4.83-3.92-6.15-2.33-3.02-3.27-3.85-5.72-.88-2.59-3.68-2.9-6.07-3.84-1.85-.72-6.42-1.4-6.9-3.47-.41-1.76-1.43-3.98-.66-5.62,.45-.97,2.64-1.06,3.66-1.35,1.06-.42,2.12-.67,3.23-.93,.76-.18,.71-1.11,.2-1.5-1.75-1.32-3.75-1.84-5.82-1.78,1.75-.58,3.54-1.08,5.35-1.57,1.73,.57,3.29,1.11,3.77,1.44,1.77,1.23,2.73,2.84,4.03,4.49,1.6,2.01,2.56,4.98,4.95,5.95,2.2,.89,7.16-.55,8.27-1.96,.55-.7,.13-2.29-.59-3.52-1.93-2.49,.45-3.67-1.16-7.32-.53-1.2-.3-2.82,.39-4.21,.13-.04,.26-.07,.39-.11,1.95-.64,3.54-2,5.45-2.73,1.12-.43,2.19-.54,3.23-.44-.19,.57-.32,1.09-.32,1.25-.01,3.14,2.39,4.33,3.61,6.57,1.79,3.29,.11,6.69,.11,10.27,0,.94,.65,1.63,1.75,1.65,2.44,.06,10.27,2.65,12.02-.04-.08,3.23-.72,6.18-1.4,8.02,.13,1.71,.26,3.41,.37,5.12,.27,4.44,.69,9.02-.8,13.31-2.47,7.11-9.29,11.04-15.58,14.33-.76,.4-1.67,.12-2.04-.63-.32,0-.66-.07-1.02-.26-1.98-1.08-4.76,1.62-7.63,4.12-9.98-.62-20.86-3.89-29.91-8.17-3.57-1.69-12.87-8.87-12.86-9.76,0,0-.09-8.47-.08-9.28Z"/><path class="b" d="M58.3,38.47c.52,.39,.56,1.33-.2,1.5-1.11,.26-2.17,.51-3.23,.93-1.01,.29-3.2,.38-3.66,1.35-.76,1.64,.25,3.86,.66,5.62,.48,2.06,5.05,2.75,6.9,3.47,2.39,.93,5.19,1.24,6.07,3.84,.83,2.44-2.3,3.39,3.85,5.72,1.62,.61,3.53,2.78,4.83,3.92,4.05,3.56,9.13,6.4,14.76,6.68,.5,.03-2.39,3.33-2.73,3.57-6.73,4.77-23.12-1.34-29.17-4.29-1.66-.81-3.78-2.14-5.11-3.47-.89-.89-2.42-.44-2.94-1.33-1.61-2.76-3.7-3.36-5.95-3.78-1.52-.28-2.02-2.01-3.22-2.87-3.62-2.59-5.23-5.99-3.42-10.39,.89-1.45,2.02-2.9,3.49-4.45,3.77-3.99,8.34-6.17,13.23-7.79,2.06-.06,4.07,.46,5.82,1.78Z"/></g><path class="b" d="M76.82,82.21c2.13-4.75,7.02-8.15,10.82-11.47,7.57-6.62,14.14-18.43,14.09-24.78-.02-2.19,.79-4.98,.54-8.1,1.76,3.81,1.92,9.16,1.99,11.04,.18,4.67-.26,9.52-.56,14.01-.32,4.69-.24,9.95-3.24,13.83-3.06,3.94-7.33,7.91-11.66,10.37-4.07,2.32-13.16,3.32-13.16,3.32,0,0,.26-6.15,1.19-8.22Z"/><g><path class="b" d="M49.62,61.16c2.4,1.42,4.62,2.62,5.38,3.31,.85,.78,3.16,1.34,4.16,1.93,2.9,1.7,5.95,3.14,9.14,4.19,5.33,1.77,13.68,4.55,18.62,.77-2.06,4.34-8.38,11.89-9.22,18.17,0,.02-.01,.03-.02,.05,1.86-.75,4.98-2.39,6.55-4.39,1.69-2.15,5.43-5.53,7.4-6.35,.6-.25,2.64-.8,3.25-1.52,2.44-2.86,3.01-2.23,3.99-2.89,2.61-1.76,4.13-4.86,4.63-8.07-.63,6.62-2.28,9.69-3.41,11.1-5.42,6.78-9.68,9.68-15.17,11.25-5.05,1.45-9.28,2.03-9.28,2.03,0,0-7.37-.42-12.24-1.84-3.31-.96-17.91-6.05-20.83-7.55-4.77-2.47-13.24-6.14-13.76-6.98-.47-2.51-.18-6.95,0-8.72,.17-1.54,.5-3.19,.96-4.86,3.98,.8,10.19,2.13,13.23,4.48,2.42-1.3,5.52-3.24,6.62-4.12Z"/><path class="b" d="M43.21,56.58c1.44,1.54,4.01,3.17,6.4,4.59-1.1,.87-4.21,2.82-6.62,4.12-3.03-2.35-9.25-3.68-13.23-4.48,1.37-4.99,4.11-11.34,6.67-13.8,.98,4.35,4.11,6.72,6.77,9.57Z"/></g><path class="b" d="M50.73,61.6c1.07-.33,3.04-.84,4.72-.95-.09,.43-.63,2.2-.93,4.3-.74,5.19-2.28,13.37-2.41,13.79-.2,.64-2.78-.31-3.05-1.63-.3-1.44,1.21-11.91,1.67-15.52Z"/><path class="b" d="M1.79,75.41c6.7-6.4,16.77-16.51,26.93-15.41,5.23,.57,10.97,2.46,15.5,4.91,5.55,3,11.75,8.46,15.56,12.38,.54,.55-1.47,1.37-1.96,1.48-18.41,4.29-37.44,3.69-55.57-1.63-.73-.21-1.03-1.18-.46-1.73Z"/><g><path class="b" d="M15.79,80.45c.85-.88,2.37-.46,3.36-.37,2.71,.23,5.41,.4,8.13,.45,5.84,.1,11.99,.44,17.77-.43,4.71-.71,12.48-2.18,14.72-2.8,.24,2.9,.66,5.49,.68,8.4,0,1.11-.55,4.5-.55,4.5,0,0-3.45,1.65-4.7,2.12-.63,.24-1.27,.47-1.9,.69-1.11-1.21-1.67-1.55-3.79-1.33-3.7,.38-6.25,1.67-7.54-2.37-.8-2.52-.53-5.76-.11-8.31,.04-.23-.17-.41-.39-.3-2.36,1.18-3.16,.08-4.92,1.63-1.55,1.37-2.07,2.74-2.64,4.65-.38,1.27-.86,3.42-1.49,4.63-.08,.16-.18,.3-.28,.44-3.05,1.43-6.64-.93-9.32,1.9-.21-.02-.42-.03-.61-.05-.1,0-.12,.15-.02,.17,.16,.03,.33,.05,.49,.08-.03,.06-.04,.12-.06,.19-.6-.12-1.22-.24-1.86-.37-.39-.08-4.8-4.04-4.8-4.42,0-2.89-.72-3.2-.67-6.08,.02-.85-.17-2.31,.5-3.01Z"/><path class="b" d="M22.18,94.06c-.09-.02-.07-.17,.02-.17,.2,.01,.4,.03,.61,.05,2.69-2.83,6.28-.47,9.32-1.9,.1-.14,.2-.28,.28-.44,.63-1.21,1.11-3.35,1.49-4.63,.57-1.9,0-4.77,.62-5.76,1.24-1.99,4.58,.65,6.94-.52,.22-.11,.43,.07,.39,.3-.42,2.55-.69,5.79,.11,8.31,1.29,4.04,3.84,2.74,7.54,2.37,2.12-.22,2.68,.13,3.79,1.33-2.07,.73-4.17,1.39-6.32,1.87-9.67,2.15-15.32,1.27-24.36-.53,.02-.06,.03-.13,.06-.19-.17-.03-.33-.06-.49-.08Z"/></g><path class="b" d="M51.07,37.17c.14-.29,1.37-5.14,2.14-5.96,1.1,1.15,5.02,1.79,6.03,2.57,3.71,2.88,5.04,5.25,8.5,8.39,1.3,1.19,2.07,4.34,4.47,3.83,2.3-.49,6.31-1.77,7.94,.65-3.31,.9-4.93,1.8-8.22,2.19-1.36,.16-4.35-.54-5.19-1.57-2.05-2.5-3.51-4.35-6.39-6.11-2.83-1.72-7.35-.63-9.29-3.98Z"/><path class="b" d="M.73,75.78c.76-.13,1.92-.4,2.54-.28,4.11,.81,7.04,1.62,11.15,2.4,.14,.03,.27,.05,.4,.08,.93-.57,1.88-1.11,2.85-1.64,.31-.17,.68-.07,.88,.23,.95,1.46,1.17,3.25,.56,4.83,.08,.22,.16,.46,.25,.72,.03,.08,.06,.17,.09,.25,.27,.2,.37,.52,.32,.82,1.36,3.31-1.24,8.35-1.28,7.88-2.41,.5-4.1,2.74-6.29,2.22-2.84-.68-7.87-2.75-10.7-3.97-.92-3.99-1.13-10.4-.76-13.54Z"/><path class="b" d="M4.14,74.87c.94-2.51,2.47-4,3.89-4.1,3.39,.4,7.97,1.97,11.42,1.39,2.06-.35,4.51-1.18,6.62-.88,.98,.14,1.55,.42,2.25,1.05,.3,.27,.24,.84,.44,1.12,1.16,1.59,2.41,2.14,4.22,2.73,5.6,1.83,12.6,2.81,18.43,2.68,.25,0-18.46,3.2-24.18,2.68-3.45-.32-6.8-1.14-8.1-4.44-4.85,1.89-9.9,1.48-14.53-1.04-.37-.2-.63-.76-.48-1.18Z"/><path class="b" d="M.73,75.78c4.13-4.17,8.91-7.89,13.72-11.22,.51,1.65-5.36,5.01-8.62,9.36-.48,.65-.21,1.86,2.17,2.2,.81,.11,4.62,1.25,7.28-.34,1.79-1.07,2.82-.89,4.87-1.5,.11,1.76,.34,4.3,1.87,5.27,1.14,.73,2.44,.77,3.72,.5,3.65,.11,7.3,.16,10.95-.11,6.28-.46,13.54-1.13,19.78-1.96-7.67,2.04-15.55,3.82-23.69,4.28-2.65,.15-10.15-1-10.18,1.56-.02,1.69,.99,5.79-1.03,8.66-2.16,.04-.69-5.82-1.36-8.53-.16-.34-.32-.69-.5-1.03-.06-.11-.07-.22-.07-.33-.15-.11-.3-.22-.46-.33-.47-.17-.53-.81-.07-1.02,0,0-.01-.01-.02-.02-.28,0-.58-.18-.62-.55-.11-1.13-.09-2.14,.02-3.16v-.02c-.4,.33-.85,.6-1.41,.88-.09,.05-.18,.06-.27,.07-.38,.26-.26,.54-.65,.78-.31,.19-13.92-2.08-15.44-3.44Z"/><path class="b" d="M41.38,42.48c-1.9,1.47-3.89,5.24-2.29,8.31,2.06,3.94,7.98,7.64,8.84,8.3,2.38-.52,3.54-1,3.64-.27,.02,.15-.69,.93-.8,1.11-.12,.22,.41,.61,.87,.39,1.23-.6,3.01-1.59,4-2.18,.18-.11,1.91-1.16,2.17,0,.53,2.34-.11,3.59,1.52,5.44,1.69,1.93,4.11,3.34,6.33,4.58,2.25,1.26,10.31,5.08,15.23,4.48,2.18-.27,5.16-1.78,6.62-2.83,2.97-2.12,7.25-7.43,9.44-10.99,2.31-3.76,3.54-6.95,4.43-10.75-.91,.59-8.94,.81-11.31-2.6,3.01,1.03,7.05,1.89,9.44-.25,.61-.55,.82-1.33,.76-2.01-.18-2.18-2.07-4.34-3.03-5.76-1.28-1.89-2.46-4.24-3.99-6.14-2.01-1.06-5.22-2.76-6.42-4.55,9.29,.9,13.12,7.93,15.69,11.11,1.74,5.72,.35,13.07-2.32,18.79-1.89,4.05-4.65,7.52-7.74,10.72-1.05,1.09-8.02,9.55-9.56,11.09-.66,.87-3.48,6.07-3.72,6.21,0-1.75,.64-6.21-1.17-9.4-6.34-2.1-12.53-4.82-18.59-7.59-1.53-.7-3.4-2.01-4.87-3.33-.31-1.09,.52-3.19,.53-3.31-1.31,.6-4,1.53-4.45,1.32-.35-.16-14.62-8.52-14.95-12.9-.19-2.48,3.62-6.24,5.7-7Z"/><path class="b" d="M53.22,31.21c4.3-3.83,13.33-2.77,18.53-1.41-3.27,.31-8.88-.5-12.9,.6-1.62,.44-1.86,1.58,.1,2.54,1.06,.52,2.11,2.01,2.99,2.8,1.39,1.24,4.83,5.13,4.93,5.23,1.54,1.46,2.18,2.7,4.17,3.38,.35,.12,1.78,.31,2.21,.34,1.86,.17,3.8,.04,5.16,.75-1.99,.13-5.26,2.1-8.46,1.11-1.51-.47-3.04-1.85-4.35-3.95-.84-1.35-2.67-3.91-3.8-5.12-.98-1.06-5.42-3.61-5.77-3.74-.87-.32-1.69-.69-2.54-1.14-.34-.18-.59-1.13-.29-1.39Z"/><path class="b" d="M16.03,78.06c.15-.57,3.25-1.92,3.22-1.25-.04,.82,.22,2.84,.33,4.45,1.1,1.47,1.76,4.45,1.91,5.36,.36,2.2,.39,5.43-.27,7.43,0,0-2.52-.49-4.25-1.29-1.25,.36-2.76,1.03-4.19,.82,.46-3.68,2.23-11.73,3.25-15.51Z"/></g><g><path class="b" d="M115.75,13.1c.62-2.44,1.91-4.64,3.72-6.4,1.79-1.75,3.53-4.45,5.87-5.48,3.03-1.33,5.91-.16,8.6,1.67,3.94,2.08,7.51,4.94,10.6,8.1,2.9,2.96,7.54,7.69,8.28,11.91,1.44,8.26-10.22,8.25-15.54,5.57-.14,.61-.28,1.22-.42,1.83-.07,.3-.33,.53-.61,.61-11.16,3.33-23.59-5.61-20.51-17.82Z"/><path class="b" d="M124.99,30.9c.09-.36,.45-.6,.81-.62,.34-.01,.67,0,1,0,1.22,.65,2.67,.98,3.92,1.12,1.35,.15,2.46-.06,3.38-.56,.31-.11,.61-.26,.89-.48,.09-.13,.18-.26,.28-.39,.55-.55,1.02-1.23,1.42-2.04,.22,.08,.45,.16,.68,.24,.24-.09,.51-.08,.71,.07,.13,.1,.26,.19,.38,.28,2.14,.64,6.56,.89,9.02-.77,3.73-2.52,5.25-7.32,5.72-4.98,.53,2.62,.68,4.61-.26,8.85-1.68,7.57-5.07,19.32-6.87,26.3-.8,3.09-3.59,13.51-3.59,13.51,.5-.17,1.19,.24,1.07,.94-.7,4.16-4.96,5.73-8.48,7.01-6.08,2.22-12.38,3.59-18.8,4.3-.42,.05-.89-.42-.84-.84,2.07-17.52,5.31-34.84,9.56-51.95Z"/><path class="b" d="M110.06,35.18c.58-6.14,.66-12.61,2.04-18.63,1.31-5.72,5.41-8.35,9.24-12.39,.4-.42,.92-.09,1,.35,.49-.41,1-.81,1.5-1.19,.19-.14,.41,.16,.25,.32-3.43,3.21-6.71,7.68-7.32,12.3,2,4.43,4.42,8.54,7.15,12.54,1.44,.83,2.99,1.45,4.69,1.88,.99,.25,.56,1.68-.42,1.51-2.93-.51-2.57,2.34-2.84,4.34-.3,2.24-.61,4.48-.92,6.71-.67,4.72-1.44,9.42-2.21,14.12-1.36,8.28-2.9,16.52-4.44,24.77,.84,.1,1.87,.77,3.21-.99,.63-.82,6.36-1.97,7.7-2.88,1.48-1.01,3.8-4.2,5-5.64,.24-.28,2.01-3.66,3.83-3.95-.66,1.9-1.32,3.8-1.96,5.7,.09,.14,.12,.32,.09,.51-.19,1.07-.65,1.99-1.29,2.79-.04,.24,.14,.36,.55,.37,.55,.25,1.09,.27,1.6,.08,.54-.41,1.06-.85,1.56-1.35,.24-.19,.52-.19,.74-.08,.88-1,1.55-2.2,2.09-3.48,.51-1.67,2.17-3.94,2.68-5.61,1.4,4.3,1.75,10.4,1.33,14.62-2.72,2.22-6.04,.76-8.16,.56-.12,.03-.26,.05-.42,.03-1.97-.19-4.07-.46-6.03-.02-1.59,.36-2.97,1.25-4.52,1.7-1.92,.55-6.78,.7-9.58,.55-2.19-2.71-5.08-4.56-8.45-5.55-.04-2.94,.93-29.55,2.29-43.98Z"/><path class="b" d="M123.03,3.29c3.3-2.12,6.36-2.26,9.94-.7,4.4,1.92,11.21,6.5,13.74,10.66-2.53,2.08-12.89-5.3-16.67-4.29-7.63,2.04-4.71,11.12-4.07,16.07,.02,.02-8.22-8.26-8.19-8.23,.4,.43,.07-10.18,5.25-13.5Z"/><path class="b" d="M125.45,.84c3.44-1.19,8.28,.89,11.25,3.68-4.28-1.79-11.2-3.02-14.29,.82-2.91,3.62-3.4,8.19-3.49,10.21-.09,2.17,.43,1.95,3.49,3.34,2.23,1.02,2.2,2.03,3.1,5.35,.31,1.14,2.45,2.35,2.86,3.03,1.18,1.97,1.4,1.32,2.46,1.4,.86,.06,1.28,1.12,1.99,1.31,.58,.31,2.98-.65,3.46-3.06,2.93,1.72,4.01,1.78,5.86,1.17,1.38-.46,2.81-.85,4.01-1.65,1-.66,2.26-1.8,2.67-2.9,.93-2.45,1.08-5.16-1.18-9.27,1.48,1.37,4.74,5.16,5.3,7.36,.53,2.07,.91,4.52-.68,6.11-2.42,2.42-5.84,2.23-7.11,2.75-1.18,.48-1.84,.82-2.66,1.76-2.94,5.62-3.32,13.1-5.35,18.07-.3,.73-1.1,.76-1.2,0-.43-3.31-.17-6.59,.71-9.68,.46-3.16,1.33-6.47,3.16-8.62-.57-.66-1.14-1.31-1.72-1.97-.2,.08-.41,.14-.62,.21,.04,.45-.11,.93-.51,1.37-.2,.22-.44,1.57-.87,1.49-1.11,.54-2.47-.16-3.68-.48-.29-.08-2.56-1.24-3.26,1.17-.35,1.19-2.62,4.61-2.84,6.09-1.34,8.89-3.45,17.38-5.5,25.3-.07,.26-.76-2.42-.28-4.66,2.24-10.53,3.93-21.25,2.48-32.05-.24-1.78-6.21-8.55-6.41-13.81-.19-4.96,4.39-12.32,8.83-13.85Z"/><path class="b" d="M118.44,20.24c1.1-.39,2.65,.03,3.96,.33-.45,.55-1.82,2.23-2.33,2.72-1.54,9.54-2.93,18.16-4.29,27.73-1.43,10.04-1.73,20.75-2.45,30.87-.96-.64-2.28-1.39-2.92-1.75,.93-19.92,7.13-55.84,8.03-59.89Z"/><path class="b" d="M136.24,32.84c.31-1.21,.52-3.1,.35-3.54-.16-.18,3.23,2.04,3.64,2.33-.7,2.94-1.92,10.38-2.43,14.33-.51,3.98-.96,9.92-2.54,13.4-1.9-6.02,.51-26.86,.98-26.52Z"/><path class="b" d="M132.23,79.04c1.05-2.06,1.56-2.61,2-3.52,.73-1.49,1.81-5.22,2.89-6,.61,2.22,1.86,5.87,2.02,8.6,.07,1.28-.62,3.65-.07,3.76,1.31,.26,4.4-.88,5.85,.01-2.51,3.32-8.51,1.32-11.89,.82-3.05-.45-6.31,2.05-11.15,1.95,3.05-2.79,8.82-2.63,10.35-5.63Z"/></g><g><g><g><path class="b" d="M107.21,86.53c-6.35-2.5-6.09-9.51-4.74-15.13,1.2-4.95,4.56-11.84,9.99-13.43,.03-.04,.07-.06,.1-.1-2.14,.22-4.26,1.2-5.98,2.54-4.11,3.22-7.43,7.92-9.53,13.11-.21,.43-.42,.85-.62,1.28-1.84,4.02-3.81,8.86-3.27,13.37,1.28,10.63,16.19,9.19,23.57,7.71,1.58-.32,3.93-.32,4.98-1.72,1.25-1.66,1.21-5,1.49-6.96,.49-3.43,.87-6.9,.84-10.37-2.98,7.17-9.15,12.73-16.83,9.7Z"/><path class="b" d="M102.47,71.4c-1.36,5.61-1.61,12.62,4.74,15.13,7.68,3.03,13.85-2.53,16.83-9.7-.01-1.6-.11-3.2-.33-4.8-.58-4.29-2.01-9.72-5.54-12.58-1.69-1.36-3.65-1.78-5.6-1.58-.03,.03-.07,.06-.1,.1-5.42,1.59-8.79,8.49-9.99,13.43Z"/></g><path class="b" d="M123.14,66.79c-1.56-4.6-3.95-7.68-6.11-8.92-1.98-1.13-5.65-1.09-9.56,1.38-1.5,.95-4.62,4.12-5.16,4.86-1.59,2.2-3.57,5.83-3.57,5.83,0,0,4.44-6.28,7.11-7.01-1.12,2.2-2.48,5.04-3.09,7.4-.54,2.11-1.5,5.19-1.63,7.37-.08,1.4,.16,3.52,1.43,4.47,.17-8.38,2.75-14.24,7.58-18.83,2.86-2.71,6.6-2.95,9.41-.06,3.66,3.76,4.45,12.58,4.46,12.38,.08-3.08-.16-6.77-.88-8.88Z"/><path class="b" d="M123.81,81.71c-.48,1.37-.62,5.08-4.69,7.81-3.04,2.04-9.52,2.52-11.49,2.3-2.88-.31-7.08-2-7.85-9.58,0-.07-2.09-4.63-4.66-2.16,.43-1.95,1.57-5.64,2.32-7.49-1.78,2.39-6.44,11.08-4.22,17.37,.82,2.33,2.49,5.32,6.91,6.34,2,.46,7.57,1.28,13.89,.24,2.93-.48,6.45,.44,8.31-2.04,1.42-1.89,2.14-8.98,1.48-12.79Z"/><path class="b" d="M122.38,76.35c-1.83,1.68-3.64,7.72-5.41,9.32-2.65,2.4-7.13,.21-10.64,.45,2.37,2.82,7.86,3.63,10.9,1.43,1.02-.74,1.76-1.69,2.38-2.72,.79-.89,2.84-7.61,2.78-8.48Z"/><path class="b" d="M120.16,95.33c-.56,.14-2.37,.56-3.29,.14-.18-.28-.15-2.06-1.54-3.46,.16,1.35,.18,2.97-1.04,3.85-.31,.23-.68,.37-1.07,.47-.72,.06-1.45,.12-2.17,.17-.38,0-.74-.01-1.08,0-2.69,.07-6.84,.26-9.35-.61-.89-.31-2.92-2.04-3.19-2.49-.5-.84-1.12-1.57-1.75-2.32-.71-.85-1.55-1.65-2.08-2.63-.78-1.43-.33-3.48-.73-4.99-.5,1.54-.58,5.14,.19,6.9,.54,1.84,1.4,2.99,2.81,4.23,1,.89,4.15,2.2,6.4,2.39,4.09,.36,7.06,.15,9.44,0,2.2-.15,4.43-.18,6.62-.49,1.8-.25,3.91-.79,4.55-3.1-1.21,1.12-1.8,1.71-2.73,1.94Z"/></g><g><path class="b" d="M132.15,97.62c1.21-.29,2.62-.67,2.5-2.19-.09-1.18-1.38-2.47-2.61-3.35-2.18-2.28-5.6-3.85-8.44-3.42-3.45,.52-5.55,4.22-3.42,7.22,2.71,3.83,8.13,2.66,11.98,1.73Z"/><path class="b" d="M128.15,92.68c-.84-1.71-4.63-3.22-6.35-1.68-.45,.4-.89,.8-1,1.38-.25,1.36,.82,2.42,1.95,2.94,1.26,.58,2.89,1.2,4.25,.59,1.28-.58,1.78-1.96,1.16-3.22Z"/><path class="b" d="M129,89.57c-.37-.17-.95,.22-.64,.64,.63,.84,2.1,2.3,2.33,3.32,.14,.64,1.16,2.88-4.08,2.95-3.06,.04-5.83-1.18-7.15-4.21-.49,.67-.41,2.48-.21,2.95,.93,2.21,2.93,2.87,5.19,3.11,2.76,.29,6.1,.33,8.75-.59,4.68-1.63-2.18-7.24-4.18-8.16Z"/><path class="b" d="M129.36,89.51c-2.55-1.98-7.07-1.89-8.9,.85,2.51-1.17,5.23-1.52,7.52,.07,.53,.37,2.2,1.47,2.47,3.33,.21,1.46-.46,2.15-.41,2.12,2.63-1.52,1.28-4.83-.69-6.37Z"/><path class="b" d="M133.5,93.26c-.31,4.47-6.51,4.66-7.71,4.59-2.13-.12-5.14-.77-6.7-3.98-.98,3.35,2.81,5.35,7.92,5.1,1.34-.07,4.82-.54,6.52-1.28,2.28-1,.96-3.62-.03-4.43Z"/></g></g><g><g><path class="b" d="M62.73,106.32c.14-.01,.08-.77,.22-.83,.53-.22,.87-.26,1.44-.41,.99-.25,2.23,0,3.23-.04,1.52-.06,3.01-.31,4.5-.63-.71,.06-.91-.31-.82-.46-.64-1.5-.93-2.31-2.61-2.34-2.15-.04-4.27,.75-6.21,1.59-.44,.19-1.14,.42-1.77,.75-.1,.37-.26,.78-.3,1.04-.12,.79,1.64,1.38,2.31,1.32Z"/><path class="b" d="M59.4,105.59c.02,1.14,1.63,1.74,2.47,2.06,1.94,.75,3.95,.68,5.97,.71,1.16,.02,2.86,.06,3.88-.62,.98-.65,1.2-2.07,.57-3.08-1.48,.32-3.13,.32-4.64,.37-1.01,.04-2.24-.22-3.23,.04-.58,.15-.91,.19-1.44,.41-.15,.06-.08,.82-.22,.83-.66,.06-2.42-.54-2.31-1.32,.04-.26,.2-.67,.3-1.04-.72,.38-1.34,.89-1.32,1.64Z"/></g><path class="b" d="M70.89,103c-1.35,.34-2.75,1.29-4.14,1.38-.71,.04-1.96-.17-2.58,.22-.04,.03-.45,.67-1.22,.89,.86,.69,2.83,.04,3.89,0,.66-.02,1.4,.19,2.37,.08,1.07-.12,2.39-.57,3.06-.9-.13-.39-.73-.5-.96-.72-.09-.26-.25-.67-.42-.95Z"/><path class="b" d="M70.5,102.36c-1.13-1.54-4.14-.7-5.03-.43-1.21,.37-2.93,.98-3.99,1.67-.53,.35,.63-.03,.78-.07,1.23-.31,3.04-1.1,4.29-1.35,.74-.15,3.48,.46,3.95,.18Z"/></g><g><path class="b" d="M87.97,95.27c-.82,.58-3.21,.73-4.07,1.24-1.4,.82-1.33,2.49-2.68,4.55-2.15,3.28-3.93,3.42-8.99,2.17,1.68-2.35,4.1-4,5.96-5.94,1.8-1.87,3.96-4.9,6.77-4.92,.96,0,1.85-.22,2.81,.19,.58,.25,1.07,.64,1.51,1.08,0,.04,0,.08-.01,.13-.16,.66-.79,1.13-1.31,1.5Z"/><g><path class="b" d="M75.97,105.21c-1.2-.24-2.7-.54-3.73,.05-.84,.48-1.12,3.17-1.23,3.99-.02,.17-.03,.35-.05,.53-.24-.07-.47-.12-.71-.19-.02-2.71,.79-4.71,1.98-6.36,5.06,1.24,6.83,1.11,8.99-2.17,1.35-2.06,1.28-3.73,2.68-4.55,.86-.51,3.25-.66,4.07-1.24,.51-.36,1.15-.84,1.31-1.5,.01-.05,0-.08,.01-.13,.52,.52,.98,1.13,1.39,1.71,.6,.86,1.19,1.83,1.74,2.86-1.21,.36-3.4,1.5-4.35,2.3-1.73,1.47-4.65,2.78-4.93,5.06-.18,1.54-.53,3.51-.33,5.98-.48,.01-.99-.03-1.48-.04-.05-1.14-1.19-2.32-2.33-4.11-.61-.96-1.94-1.98-3.03-2.19Z"/><path class="b" d="M71.01,109.25c.1-.81,.39-3.5,1.23-3.99,1.04-.6,2.53-.29,3.73-.05,1.09,.21,2.42,1.23,3.03,2.19,1.14,1.8,2.28,2.98,2.33,4.11-3.18-.09-6.62-.69-10.37-1.74,.01-.18,.02-.36,.05-.53Z"/></g><g><path class="b" d="M85.77,103.96c-1.58,.3-2.01,.35-2.63,1.69v-.07c.28-2.28,3.21-3.59,4.94-5.06,.94-.8,3.13-1.95,4.35-2.3,1.18,2.2,2.11,4.66,2.23,6.94-.85,.82-1.96,1.93-3.19,2.98-.08-.75-.63-3.91-1.34-4.51-1.1-.93-3.24,.12-4.35,.33Z"/><path class="b" d="M83.14,105.65c.62-1.34,1.05-1.39,2.63-1.69,1.11-.21,3.25-1.26,4.35-.33,.71,.6,1.25,3.76,1.34,4.51-1.74,1.48-3.71,2.85-5.55,3.15-.95,.15-1.93,.23-2.93,.26-.06,0-.11,0-.16,0-.04-.46-.13-.87-.13-1.3-.01-1.82,.31-3.37,.46-4.6Z"/></g><path class="b" d="M73.7,103.57c.85-.07,2.43,.02,3.27-.12,2.11-.36,2.55-1.43,2.68-1.6,1.14-1.46,1.5-1.8,2.31-3.38,.27-.52,.35-1.86,.89-2.1,.18-.08,1.36-.56,1.79-.77,.42-.22,1.7-.23,2.4-.75,.67-.49,.78-1.48,.76-1.64-.04-.39-1.36-.9-1.27-.91,1.26-.11,1.86,.31,2.89,1.47,.38,.42-1.46,1.73-1.5,1.74-.99,.64-3.26,.92-3.75,1.58-.59,.81-.14,2.23,.18,3.13,.64,1.82,.49,4.18,.41,4.42-.39,1.17-.98,.73-1.19,.92-.51,.44-.16,2.44-.83,3.2-.09-.85,.23-3.73-.69-4.81-.27-.32-.88-.17-2.67,0-1.56,.15-2.36,.74-5.67-.39Z"/></g><g><g><path class="b" d="M158.41,79.01c.64-.3,1.33-.52,1.99-.71,1.72-.48,3.31-.92,4.93-1.69,.09-.04,.19-.09,.29-.15l.06-.03c.1-.05,.2-.1,.3-.16h0c-.18-1.24-.54-2.51-1.18-3.49-1.1-1.68-3.14-1.52-4.95-1.74-1.19-.14-2.27,.08-2.81,.59-.57,.54-.6-.1-.44-.44,.34-.74,.98-.55,1.54-1.06,.52-.47,.6-1.25,1.26-1.61,.54-.29,1.1,.1,2.22-.35,1.56-.61,3.62,1.57,4.89,2.45,.3,.21,.57,.42,.81,.63-1.12-1.99-2.47-3.87-4.07-5.6-.46-.26-.95-.5-1.48-.72-1.82-.77-5.35-3.19-7.37-3.35-.65-.05-2.47,.25-4.08,3.29-.85,1.61-.9,3.65-.89,5.41,.02,3.45,2.1,15.38,2.56,16.93,.57,1.92,1.19,4.17,2.53,5.66,.62,0,1.24,0,1.86-.03-.06-.15-.12-.31-.19-.5-1.14-2.95-2.47-12.5,2.21-13.33Z"/><path class="b" d="M165.97,76.28c-.1,.05-.2,.11-.3,.16,.1-.05,.2-.1,.3-.16Z"/><path class="b" d="M165.62,76.47c-.1,.05-.2,.1-.29,.15,.09-.04,.19-.09,.29-.15Z"/></g><path class="b" d="M145.6,64.65c-1.76,4.63-1.47,12.79,.14,16.89,.33-1.09,.76-2.47,.52-6.04-.16-2.43-.38-6,.1-7.41,.81-2.4,3.04-4.65,4.76-6.5,2.17-2.33,4.14-.67,4.92-.23,1.34,.76,3.39,1.71,5.27,2.38-.42-.38-.84-.75-1.29-1.12-3.65-2.98-8.32-4.71-12.88-2.76-2.47,1.05-4.72,2.71-6.96,4.16-2.19,1.41-4.64,2.69-6.6,4.41-.15,.13-.29,.27-.42,.41,3.25-1.3,5.08-1.14,8.57-2.34,.38-.13,3.49-1.7,3.88-1.85Z"/><g><g><path class="b" d="M154.41,61.59c2.02,.16,5.55,2.58,7.37,3.35,.52,.22,1.01,.46,1.48,.72-.62-.67-1.27-1.31-1.96-1.93-1.87-.67-3.93-1.62-5.27-2.38-.78-.44-2.75-2.1-4.92,.23-1.72,1.85-3.95,4.1-4.76,6.5-.48,1.41-.26,4.98-.1,7.41,.24,3.57-.19,4.95-.52,6.04-1.62-4.09-1.9-12.26-.14-16.89-.39,.15-3.49,1.72-3.88,1.85-3.49,1.2-5.32,1.03-8.57,2.34-1.57,1.63-2,3.74-2.22,5.99-.35,3.47-1.12,10.32,.11,12.22,.15,.23,.33,.44,.51,.65-.29-1.09,.44-2.3,1.32-3.75,1.67-2.76,3.33-5.27,6.06-7.08,.01,0,.02,0,.02,0,.63-.99,1.2-2.01,1.91-2.95,.05-.07,.14-.03,.13,.06-.4,2.53-2.5,5.06-3.88,7.14-.79,1.19-1.62,2.35-2.35,3.57-.9,1.51-1.36,2.69-1.16,4.5,0,0,0,.01,0,.02,.49,.25,1,.47,1.49,.66,.06-1.78,1.42-3.14,2.95-3.91,1.1-.55,2.34-.65,3.49-1.08,.82-.31,1.57-.6,2.47-.5,2.43,.27,2.81,1.58,4.16,3.3,.57,.73,1.63-.28,2.06-1.14,.29-.59,.83-.83,1.38-1.11-.76-3.85-2.15-12.33-2.17-15.15-.01-1.76,.04-3.8,.89-5.41,1.6-3.03,3.43-3.34,4.08-3.29Z"/><path class="b" d="M141.88,69.32c-1.27,.41-2.71,.39-3.83,1.19-.76,.54-.88,1.28-1.31,2.06-.55,.99-1.59,1.56-2.32,2.4-1.47,1.69-1.76,4.2-2.22,6.3-.28,1.28-1.22,3.78,.39,4.59,.11,.06,.22,0,.26-.11,1.08-2.63,2.79-4.8,4.73-6.85,1.18-1.24,3.03-3.18,3.43-4.93,.12-.29,.8-2.97,1.94-4.4,.51-.63-.61-.4-1.06-.26Z"/><path class="b" d="M134.77,84.68c.73-1.22,1.56-2.39,2.35-3.57,1.38-2.08,3.47-4.61,3.88-7.14,.01-.08-.08-.12-.13-.06-.72,.93-1.28,1.95-1.91,2.95,0,0-.01-.02-.02,0-2.73,1.8-4.38,4.32-6.06,7.08-.88,1.46-1.61,2.66-1.32,3.75,.58,.63,1.29,1.12,2.06,1.52,0,0,0-.01,0-.02-.2-1.81,.26-2.99,1.16-4.5Z"/><path class="b" d="M150.23,86.54c-.43,.86-1.49,1.87-2.06,1.14-1.35-1.73-1.73-3.03-4.16-3.3-.89-.1-1.64,.19-2.47,.5-1.14,.43-2.39,.52-3.49,1.08-1.53,.77-2.89,2.13-2.95,3.91,.1,.04,.2,.08,.3,.12h0c1.72-2.37,4.78-2.14,7.37-1.75,1.32,.19,2.5,.56,3.41,1.52,.87,.92,2.21,1.54,3.1,1.19,1.07-.42,1.76,.72,2.57,1.83,.89,.05,1.78,.09,2.68,.09-1.34-1.49-1.96-3.74-2.53-5.66-.08-.28-.22-.92-.39-1.78-.55,.28-1.09,.52-1.38,1.11Z"/></g><g><path class="b" d="M171.08,81.49c-.51-3.64-2.95-8.79-3.75-10.22-.24-.21-.51-.42-.81-.63-1.27-.88-3.33-3.06-4.89-2.45-1.13,.44-1.69,.06-2.22,.35-.66,.36-.75,1.14-1.26,1.61-.56,.51-1.2,.32-1.54,1.06-.16,.35-.13,.98,.44,.44,.54-.51,1.62-.73,2.81-.59,1.81,.22,3.85,.06,4.95,1.74,.64,.98,1,2.25,1.18,3.49h0c-.1,.06-.2,.11-.3,.16l-.06,.03c-.1,.05-.2,.1-.29,.15-1.62,.77-3.21,1.21-4.93,1.69-.67,.18-1.35,.41-1.99,.71-4.68,.82-3.35,10.38-2.21,13.33,.07,.19,.13,.35,.19,.5,.71-.03,1.41-.07,2.11-.14,.92-.09,2.17-.41,3.53-.85,3.53-4.4,4.53-15.17,4.58-15.17,.32-.5,1.24-.84,1.77-1.06,.14-.06,.24,.08,.26,.2,.02,.14,.04,.28,.06,.42,.83,2.85,1.68,8.48,1.26,12.06,.65-.41,1.12-.78,1.33-1.08,0,0,.29-2.28-.2-5.73Z"/><path class="b" d="M168.7,76.24c-.02-.14-.04-.28-.06-.42-.01-.12-.12-.25-.26-.2-.53,.21-1.45,.55-1.77,1.06-.05,0-1.05,10.77-4.58,15.17,2.31-.57,4.8,.13,6.12-.45,1.52-.67,2.49-1.58,2.38-2.19,.42-3.59-1-10.12-1.82-12.97Z"/></g><path class="b" d="M149.29,90.95c-.88,.35-2.23-.27-3.1-1.19-.91-.97-2.09-1.33-3.41-1.52-2.59-.38-5.65-.62-7.37,1.75h0l.03,.02c2.4,.9,4.92,1.39,7.45,1.76,2.95,.43,5.96,.84,8.97,1.02-.81-1.11-1.5-2.25-2.57-1.83Z"/></g><path class="b" d="M168.68,75.73c-.46-.3-.92-.67-1.78-.63-.41,.02-1.15-.43-1.57-.34-.98,.21-2.01,1.03-4.64,1.08-1.67,.03-3.41-.24-4.85,.68-.59,.38-.73,.75-1.08,1.39-.7,1.28-1.55,1.15-1.81,1.84-.34,.89,.36,2.3,.18,3.06-.06,.24,.17,.28,.31,.07,.91-1.34,1.93-3.04,3.35-3.89,1-.6,1.94-1.06,4.51-1.1,1.86-.03,2.94-.7,4.35-.84,2.05-.2,1.77-1.19,3.03-1.32Z"/></g></svg>