<?xml version="1.0" encoding="UTF-8"?><svg id="a" xmlns="http://www.w3.org/2000/svg" viewBox="0 0 194.69 130.28"><defs><style>.b{opacity:.5;}.b,.c{fill:#344898;stroke:#64c3d5;stroke-miterlimit:10;}</style></defs><g><g><path class="c" d="M140.17,79.23c-.16-4.22-1.56-16-2.13-19.8-.76,.09-1.37,.33-2.21,.96-1.37,1.03-2.33,2.13-3.74,2.62,.77,4.62,.63,9.56,.75,14.22,.09,3.36,.18,6.71,.28,10.07,2.25-1.07,5.69-3.32,7-3.46,.07-1.57,.1-3.19,.05-4.62Z"/><path class="c" d="M149.51,78c-.02-1.03-.07-2.06-.14-3.08-.67-3.62-1.47-8.02-2.18-11.11-.36-1.56-1.06-5.4-1.08-5.52,0,0-.2-.22-.48-.54-1.2,.67-2.25,1.12-3.39,1.38,.48,4.41,2.01,10.76,2.59,14.38,.27,1.7,.69,3.39,.91,5.09,.21,1.64-.33,4.03-.35,5.81,.86,.08,1.69,.08,2.41-.11,.77-.2,1.1-1.18,1.61-1.87-.27-1.45,.12-3.44,.11-4.42Z"/><path class="c" d="M147.19,63.8c.79,3.4,1.68,8.4,2.38,12.18,.38-1.9,.75-5.42,.47-8.7-.38-4.45-1.14-9.41-1.91-12.19-1.28,.26-2.31,.42-2.92,.39,.03,1.12-.29,1.74,.53,2.19-.04,.02-.08,.04-.12,.06,.28,.32,.48,.54,.48,.54,.03,.13,.72,3.96,1.09,5.52Z"/><path class="c" d="M145.73,78.59c-.22-1.71-.64-3.39-.91-5.09-.58-3.62-2.11-9.97-2.59-14.38-.85,.19-1.75,.28-2.81,.27-.54,0-.98,0-1.39,.05,.57,3.8,1.96,15.58,2.13,19.8,.05,1.42,.02,3.05-.05,4.62,.02,0,.05-.01,.08-.01,1.54-.08,3.44,.4,5.18,.56,.02-1.77,.56-4.16,.35-5.81Z"/><path class="c" d="M132.1,63.02c-.57,.2-1.21,.31-2,.25-1.75-.13-5.54-.88-5.52-.81,.29,1.21,.12,2.17-.95,2.5-.36,.11-.81,.15-1.32,.17,1.47,5.53,2.11,11.29,2.36,17,.08,1.85,.12,3.7,.14,5.55,.01,1-.21,2.34,0,3.41,.1-.03,.19-.06,.29-.1,1.43-.55,2.62-2.76,2.62-2.76,0,0,2.42,.25,4.58-.57,.25-.09,.52-.22,.82-.36-.09-3.36-.19-6.71-.28-10.07-.12-4.67,.01-9.6-.75-14.22Z"/></g><g><path class="c" d="M153.54,72.96c.1-2.23-.23-3.61,1.62-3.04,.93,.29,.52-2.72,.72-4.38,.18-1.48,1.18-2.92,1.13-4.41-.09-2.69-.23-5.38-.21-8.08-3.12,.73-6.33,1.56-8.67,2.04,.77,2.79,1.53,7.75,1.91,12.19,.28,3.28-.09,6.8-.47,8.7-.06-.34-.13-.71-.2-1.07,.07,1.02,.12,2.05,.14,3.08,.02,.98-.38,2.97-.11,4.42,.21-.29,.45-.53,.78-.63,1.08-.34,2.16-.7,3.24-1.05-.05-2.48,.02-5.53,.13-7.77Z"/><path class="c" d="M160.33,65.21c-.13-3.46,0-8.4-.28-12.88-1.05,.22-2.14,.46-3.25,.72-.02,2.7,.12,5.38,.21,8.08,.05,1.49-.95,2.92-1.13,4.41-.2,1.67,.2,4.67-.72,4.38-1.85-.57-1.52,.81-1.62,3.04-.1,2.24-.18,5.29-.13,7.77,2.32-.76,4.66-1.52,7.08-2.08,.05-4.48,0-8.96-.17-13.44Z"/></g><g><path class="c" d="M145.21,55.48c2.13,.09,9.24-2,14.85-3.15,0-.02,0-.05,0-.07-4.28-1.55-8.47-3.33-12.53-5.38-1.36-.69-2.98-1.38-4.2-2.41-2.36,.32-4.69-.86-6.82-1.82-2.18-.99-4.63-2.1-6.93-.76-1.5,.87-2.51,2.31-4.14,2.99-2.07,.87-4.38,.65-6.32,1.9-1.64,1.06-2.82,2.82-3.26,4.72-.86,3.72,1.48,7.02,4.73,8.33,.69-.04,3.18,2.28,4.05,4.09,.1-.41,.07-.9-.06-1.45-.02-.07,3.77,.68,5.52,.81,2.7,.2,3.81-1.43,5.73-2.87,1.28-.96,2.04-1.03,3.6-1.01,2.52,.03,4.17-.49,6.32-1.71-.82-.45-.51-1.07-.53-2.19Z"/><path class="c" d="M120.59,59.83c-3.25-1.32-5.59-4.61-4.73-8.33,.44-1.9,1.62-3.65,3.26-4.72,1.93-1.26,4.25-1.04,6.32-1.9,1.63-.68,2.64-2.12,4.14-2.99,2.3-1.34,4.75-.23,6.93,.76,2.13,.97,4.46,2.15,6.82,1.82-.34-.29-.66-.6-.93-.96-1.39-1.85,.4-3.74-.38-5.65-.94-2.31-4.17-2.27-6.22-2.24-4.79,.06-9.59,.31-14.37,.68-9.26,.71-18.49,1.96-27.61,3.73-4.45,.87-8.91,1.82-13.3,2.97-1.97,.52-3.63,1.21-4.75,2.56-.79,3.05,5.94,5.69,7.96,6.7,3.27,1.64,6.67,3.04,10.09,4.33,6.36,2.41,18.26,6.55,24.74,8.6,1.61-.22,3.88,.13,5.08-.24,.58-.18,.89-.55,1.01-1.05-.87-1.81-3.36-4.13-4.05-4.09Z"/></g><g><path class="c" d="M119.42,86.55c-.3-.98-.73-1.79-1.75-2.17-.11-.04-.23-.07-.35-.1-.08,2.24-.14,4.48-.18,6.72,2.16,.06,3.86,.53,5.61,.46-1.77-1.22-2.68-2.8-3.33-4.91Z"/><path class="c" d="M117.08,90.99s.04,0,.06,0c.04-2.24,.1-4.48,.18-6.72-.91-.2-1.95,.05-2.73,.5-.49,.28-.87,.64-1.24,1.06-.95,1.08-1.58,1.2-2.99,1.06-4.65-.44-9.28-1.3-13.78-2.52-2.22-.6-4.42-1.28-6.59-2.07-2.16-.78-4.43-1.72-5.43-3.95-.2-.44-.34-2.39-.82-.76-.83,2.84-2.47,2.86-4.37,2.56-.62-.1-1.24-.16-1.86-.22,4.9,1.78,11.33,4.06,15.41,5.47,6.54,2.25,17.21,5.35,24.18,5.58Z"/></g><g><path class="c" d="M124.82,87.68c-.02-1.85-.06-3.7-.14-5.55-.25-5.72-.88-11.47-2.36-17-1.18,.04-2.63-.09-3.76,.07-6.48-2.05-18.38-6.19-24.74-8.6-2.89-1.09-5.75-2.27-8.54-3.59-.15,.41-.23,.8-.1,1.1,.32,.74,.5,2.25,1.03,2.75,.38,.35,.37,1.13-.2,.79-.68-.35-1.02,.1-1.22,.75-.29,.93-1.07,1.62-1.65,2.44-1.17,1.65-1.41,3.25-1.61,5.22-.32,3.18-1.74,5.92-3.24,8.69-.16,.29-.56,.19-.66-.09-.96-2.61-1.5-5.47-1.27-8.21,.42-4.96-.87-8.94-.87-9.26,0-.16,.24-.19,.28-.04,.02,.09,.04,.18,.06,.27,1.12-2.47,2.36-4.87,3.7-7.23h0c-2.19-1.26-4.21-2.88-3.75-4.63-.51,.62-.92,1.38-1.17,2.34-1.23,4.85-1.59,10.08-2.32,15.02-.55,3.7-1.22,10.71-1.64,14.45-.26-.03,2.77,1.1,6.85,2.58,.62,.06,1.24,.12,1.86,.22,1.9,.3,3.55,.28,4.37-2.56,.48-1.63,.62,.32,.82,.76,1,2.23,3.27,3.17,5.43,3.95,2.16,.78,4.37,1.46,6.59,2.07,4.51,1.22,9.13,2.08,13.78,2.52,1.41,.13,2.04,.02,2.99-1.06,.37-.42,.75-.79,1.24-1.06,.79-.45,1.82-.7,2.73-.5,.12,.03,.24,.06,.35,.1,1.02,.38,1.45,1.19,1.75,2.17,.65,2.11,1.56,3.69,3.33,4.91,.67-.03,1.35-.12,2.06-.36-.21-1.07,0-2.41,0-3.41Z"/><path class="c" d="M75.49,57.18c0,.31,1.29,4.29,.87,9.26-.23,2.74,.32,5.6,1.27,8.21,.1,.27,.5,.38,.66,.09,1.5-2.77,2.92-5.52,3.24-8.69,.2-1.97,.44-3.57,1.61-5.22,.58-.82,1.36-1.51,1.65-2.44,.2-.65,.54-1.09,1.22-.75,.57,.34,.58-.44,.2-.79-.54-.5-.71-2-1.03-2.75-.13-.29-.05-.69,.1-1.1-.52-.24-1.03-.48-1.54-.74-.86-.43-2.58-1.16-4.2-2.09h0c-1.34,2.37-4.03,6.85-4.03,7.01Z"/></g><path class="c" d="M155.15,50.1c-3.12-1.26-6.33-2.45-9.22-4.14-.76-.45-2.74-1.88-3.24-2.92-.36-.75-.42-1.4-.29-2.23,.19-1.2,.24-2.55-.39-2.95,.21,1.62-1.49,3.87-2,4.81-.19,.35-.08,1.15,2.48,2.18,1.89,.76,3.94,2.15,4.54,2.45,2.47,1.25,5.02,1.99,7.42,3.38,.72,.42,1.36,1.75-.54,2.23-.29,.07-1.83,.54-2.13,.59-1.8,.17-3.6,.38-5.39,.44-2.62,.09-1.75-1.61-1.57-2.95-1.94,.32-1.87,1.13-1.93,1.98-.06,.79,.42,1.66,.91,2.44,.73,1.17,.1,2.19-.57,2.49-1.01,.46-3.91,.3-4.84,.38-2.28,.21-3.71,1.83-4.84,3.04-.2,.19-.38,.4-.57,.61-.34,.25-.69,.47-1.05,.66-2.99,.98-11.51-3.36-13.11-3.6,1.27,.76,2.37,1.74,3.47,2.5,1.08,.74,.65,1.43,.46,1.67-1,1.25-4.55,1.09-6.01,.87-4.15-.62-8.09-2.15-12.08-3.48-7.88-2.62-15.04-6.66-22.6-10.16-.84-.39-3.24-2-3.69-2.58-.93-1.22-.22-3.42,1.32-4.6-.65,.06-1.84,.53-2.17,.7-.76,.4-1.85,1.33-1.93,1.83-.15,.85,.47,1.89,1.07,2.52,.1,.11,.38,.4,.56,.65,.39,.5,.35,1.34,.27,1.83-.3,1.89-.62,2.31-1.27,4.21-.23,.69-.76,2.21-.76,2.21,2.27-1.63,3.69-4.1,4.25-5.72,.06-.16,.32-.8,.78-.61,2.87,1.23,13.75,6.65,19.83,8.96,3.89,1.48,7.83,2.8,11.84,3.92,2.77,.77,9.16,1.19,10.39,4.45,.55,1.47,1.11,4.75,1.33,6.28,.55,3.76,.37,7.93,.89,11.68,.47-3.74,.53-8.46-.06-12.32-.34-2.27-.8-4.1-.44-6.4,.17-1.1,.52-2.45,.56-3.78,.95,.46,5.55,.59,6.59,.24,.96-.2,1.84-.63,2.54-1.37,1.27-.9,2.61-2.67,4.06-2.97,1.11-.24,1.62-.12,2.67-.04,.35,.03,1.8,.08,2.11,.06,1.18-.07,2.8-.39,3.27-1.3-.15-1.1-.87-2.08-.86-2.64,.47-.01,.86-.12,1.85-.24,1.29-.16,3.09-.55,4.21-.75,2.89-.53,5.86-1.76,8.75-2.31-1.15-.65-4.57-2.09-4.91-2.23Z"/><path class="c" d="M122.08,78.06c-.03-1.52,.13-4.62-1.32-5.2-1.43-.57-.78-2.2-2.24-3.46-1.02-.88-2.35,.09-2.65-.41-.75-1.25-1.61-2.21-2.4-2.06-.38,3.18-.13,5.23,1.55,7.98,.28,.46,1.38,1.09,1.67,1.55,.42,.67-.2,2.04,1.02,2.65,1.52,.76,2.17,.89,2.24,2.51,.08,1.88,.41,4.53,2.37,4.53,.33,0-.67-1.88-.35-3.74,.35-2.02,.16-2.32,.11-4.36Z"/></g><path class="b" d="M123,44.27c-9.29-.85-20.61-2.03-29.56,1.01-1.9,.51-3.71,1.31-4.45,2.76-1.18,2.31,1.1,4.52,3.56,5.65,7.5,3.45,18.25,4.17,26.92,3.65,4.36-.26,8.85-.84,12.93-2.1,2.75-.85,7.46-2.58,8.4-4.94,2-4.97-14.53-5.73-17.81-6.03Z"/><g><g><path class="c" d="M125.7,36.09c1.23,.74,1.99,2.04,2.89,3.38,5.11,7.57,12.73-1.98,17.41-6.35-.56-1.83-1.57-3.44-2.87-4.88-3.43-1.51-6.98-2.66-10.84-2.94-4.4-.31-5.99,5.86-6.59,10.8Z"/><path class="c" d="M105.31,28.98c-.46-4.18-1.68-8.72-4.53-11.93-2.12-2.4-4.73-3.24-7.51-3.32-4.8,2.63-11.2,8.16-14.89,12.46-.74,.86-1.18,1.84-1.42,2.89,5.56,4.56,11.39,8.69,17.84,11.96,2.71,1.37,5.61,2.67,8.63,3.27,1.78-4.87,2.47-10.13,1.89-15.33Z"/><path class="c" d="M128.64,19.37c-10.16-4.39-20.96-7.64-32.13-7.01-.93,.23-2.04,.71-3.24,1.37,2.77,.08,5.38,.93,7.51,3.32,2.85,3.21,4.06,7.75,4.53,11.93,.58,5.2-.11,10.46-1.89,15.33,.85,.17,1.72,.29,2.59,.33,4.86,.23,7.5-2.21,10.61-5.53,1.84-1.97,4.24-3.86,7.11-3.63,.79,.06,1.42,.28,1.97,.61,.6-4.94,2.19-11.11,6.59-10.8,3.86,.27,7.41,1.42,10.84,2.94-3.69-4.1-9.71-6.79-14.5-8.86Z"/></g><path class="c" d="M109.52,44.27c-1.05,.29-2.2,.43-3.52,.37-3.96-.19-7.73-1.84-11.22-3.6-6.44-3.26-12.28-7.39-17.84-11.96-.53,2.34-.04,5.02,.6,7.33,.83,3.03,1.78,6.1,3.37,8.82,3.92,6.74,11.26,7.53,18.39,8.37,2.14,.25,6.34,.66,11.33,.69-.14-1.69-.31-3.39-.47-5.08-.15-1.54-.02-3.5-.65-4.95Z"/><g><path class="c" d="M116.45,43.52c.07-1.46,.13-3.01,.3-4.54-.04,.04-.09,.09-.13,.13-2.26,2.42-4.29,4.37-7.1,5.16,.63,1.45,.5,3.41,.65,4.95,.17,1.69,.33,3.39,.47,5.08,1.9,.02,3.92-.03,5.98-.15-.01-.05-.03-.09-.04-.14-.72-3.33-.31-7.12-.15-10.49Z"/><path class="c" d="M146.01,33.11c-4.14,3.87-10.59,11.79-15.57,8.3-.31,.92-.62,1.85-.93,2.77-.95,2.82-1.76,5.79-2.78,8.62,3.78-.85,7.34-2.14,10.23-4.07,2.94-1.96,8.33-5.43,9.17-9.56,.09-.11,.15-.23,.17-.36,.37-2.1,.23-3.99-.3-5.7Z"/></g><g><path class="c" d="M121.56,46.67c.07-1.57,.4-3.22,.32-4.79-.11-2.14-.93-2.95-2.09-4.24-.02,0-.04,0-.06,.02-.49,.14-.79-.28-.75-.66-.82,.58-1.56,1.27-2.24,1.98-.17,1.53-.23,3.08-.3,4.54-.16,3.37-.58,7.16,.15,10.49,.01,.05,.02,.09,.04,.14,1.55-.09,3.13-.23,4.71-.42-.3-2.24,.13-5.05,.23-7.06Z"/><path class="c" d="M128.41,40.84c.41,1.16,.75,2.44,.97,3.76,.05-.14,.09-.28,.13-.42,.31-.92,.62-1.85,.93-2.77-.64-.45-1.26-1.08-1.85-1.95-1.3-1.92-2.3-3.78-4.86-3.99-1.25-.1-2.41,.21-3.48,.74,3.93-1.05,6.67,.47,8.15,4.61Z"/><path class="c" d="M129.38,44.6c-.22-1.33-.55-2.61-.97-3.76-1.48-4.15-4.22-5.66-8.15-4.61-.44,.22-.86,.48-1.27,.77-.04,.38,.26,.8,.75,.66,.02,0,.04-.01,.06-.02,1.16,1.29,1.98,2.1,2.09,4.24,.08,1.56-.25,3.22-.32,4.79-.09,2.01-.52,4.82-.23,7.06,1.82-.23,3.63-.53,5.4-.92,.97-2.7,1.76-5.5,2.65-8.2Z"/></g><path class="c" d="M138.02,38.49c-1.06,.71-2.07,1.5-3.12,2.22-1.75,1.2-3.6,1.6-4.74-.46-.37-.66-1.38-3.59-3.18-4.97-.87-.67-2.29-.46-3.36-.32-2.2,.29-4.21,1.45-5.96,2.75-1.05,.78-4.08,3.66-7.18,4.72-3.1,1.05-6.26,.63-7.6,.46-2.77-.35-6.29-2.2-9.21-3.77-3.11-1.67-5.39-3.75-6.3-4.17-1.64-.74-6.55-2.69-8.76-4.9-1.24-1.24-.57-3.42-.58-3.41-1.61,1.73-1.69,3.39,.54,5.42,2.46,2.23,5.7,3.45,7.42,4.85,1.02,.83,2.21,2.77,3.96,3.45,1.35,.52,3.7,.34,4.76,.62,.26,.19,.54,.3,.87,.33,.79,.43,1.65,.93,1.91,1.39,.21,.38,1.32,4.07,1.89,5.58,.1,.32,.2,.63,.33,.95,.27,.66,.04-3.99,.04-4.75,.34,.18,.77,.29,1.12,.38,2.56,.68,5.29,.22,7.73-.69,.51,1.98,1.78,7.17,1.78,7.17,.36-2.89,.62-5.19,.21-6.49,1.16-1.6,3.18-2.72,4.33-3.59,2.11-1.61,4.29-4.27,8.32-4.02,2.46,.15,4.8,2.5,5.28,4.85,.54,2.64-.59,5.95-.84,7.89,1.73-1.83,4.72-5.14,6.57-6.84,2.35-2.16,7.34-4.33,9.49-7.82,.42-.68-4.54,2.23-5.72,3.15Z"/><path class="c" d="M100.14,52.02c-.9-.4-1.06-1.43-1.97-1.77-1.36-.51-2.78-.57-4.2-.73-1.33-.15-1.33-1.02-1.71-1.62-.84-1.34-1.86-2.89-3.2-2.89-.5,0-.67,.58-.38,.92,.69,.8,1.91,3.2,.81,3.19-.54,0-1.85-1.06-2.34-1.18-1.38-.44-3.75-.7-6.27-4.32-.73-1.05-1.28-3.39-2.44-4.17,.87,2.62,1.43,4.21,2.23,5.59,.22,.55,.51,1.06,.97,1.49,.93,1.26,2.35,2.54,3.73,3.4,3.26,2.03,5.12,2.4,5.99,2.65,2,.57,11.72,1.54,13.85,1.57-.5-1.2-3.58-1.47-5.07-2.13Z"/><path class="c" d="M128.64,19.37c-5.51-3.32-12.92-5.83-19.27-6.88-3.02-.5-6.15-.62-9.21-.4-2.74,.2-6.51,.13-8.68,1.93-1.36,1.13-3.39,2.79-5.01,4.42,3.08-1.01,3.91-2.06,5.81-2.8,.96,.03,1.94-1.02,2.95-.96,1.99,.11,3.62,2.47,4.9,3.78,3.27,3.36,4.99,8.08,5.36,12.75,1.07-2.32,.75-5.69,.27-8.2-.33-1.73-.98-3.93,.48-5.31,.69-.66,2.4-1.03,3.33-1.22,5.9-1.2,16.24,3.64,19.06,2.88Z"/></g><g><g><path class="c" d="M133.83,98.47c.94-1.48,3.92-1.57,4.32-3.4,.49-2.24,1.39-4.58,1.42-7.76-2.6,1.58-6.05,3.16-8,4.15-2.67,1.35-5.47,1.85-5.92,5.1-.27,1.94-.26,3.89-.36,5.84-.06,1.21,.51,4.28,1.55,5.25,.08,.07,.16,.14,.24,.2,.44,.02,.85,.03,1.2,.03,.63,.02,1.64-.28,2.83-.79-.26-3.34,1.6-6.86,2.72-8.62Z"/><path class="c" d="M141.75,99.58c2.36-3.17,2.29-9.75,1.65-13.63-.1-.59-.25-1.11-.44-1.58-.33,.86-1.68,1.89-3.39,2.93-.04,3.18-.93,5.53-1.42,7.76-.4,1.83-3.38,1.92-4.32,3.4-1.12,1.76-2.98,5.28-2.72,8.62,3.54-1.53,8.73-4.94,10.64-7.5Z"/></g><g><path class="c" d="M139.62,81.01c-2.82-1.31-6.51-1.53-9.74-1.46-1.43-.03-2.87,.06-4.26,.15-4.45,.32-11.31,2-15.61,3.19-1.93,1.94-2.15,8.2-1.89,10.43,.1,.91,.26,1.77,.46,2.57,.35-.56,.75-1.11,.83-1.74-.25-1.77,.06-2.55,.64-1.77,1.05,1.42,.6,2.45,2.75,3.06,1.01,.29,.73,2.38,.89,2.67,1.12,2.06,1.48,.6,2.23,1.37,2.04,2.06,3.53,1.15,6.02,1.99,.84,.28,1.95,1.87,3.4,1.92-.04-.39-.06-.73-.05-.99,.09-1.95,.09-3.9,.36-5.84,.45-3.24,3.25-3.75,5.92-5.1,3.25-1.64,10.58-4.92,11.4-7.08-.89-2.16-2.58-3.02-3.35-3.37Z"/><path class="c" d="M115.92,99.48c-.76-.76-1.12,.69-2.23-1.37-.16-.29,.12-2.38-.89-2.67-2.15-.61-1.7-1.64-2.75-3.06-.58-.78-.89,0-.64,1.77-.08,.63-.47,1.18-.83,1.74,2.67,10.83,13.35,11.78,18.5,11.95-.08-.06-.17-.13-.24-.2-.82-.76-1.34-2.83-1.5-4.26-1.45-.05-2.56-1.64-3.4-1.92-2.49-.84-3.98,.08-6.02-1.99Z"/></g><g><path class="c" d="M142.3,82.89c-1.83-1.96-5.26-3.16-7.76-3.44-7.75-.9-20.98,2.04-24.52,3.44,.74,1.87,1.76,3.59,2.99,5.09-.02-.27,0-.55,.11-.84,.1-.28,.41-.51,.71-.52,1.35-1.04,3.52-1.26,5.07-1.71,2.73-.8,5.53-1.32,8.24-2.1,.38-.11,.64,.24,.58,.58-.13,.77-.37,1.09-1.08,1.45-.42,.22-1.37,.86-1,3.03,.34,2-.47,4.5-.5,5.91,3.72-.21,9.39-2.75,14-6.75,.35-.3,2.1-.85,2.45-1.09,1.36-.9,1.97-1.69,.69-3.06Z"/><path class="c" d="M125.66,87.88c-.37-2.17,.58-2.81,1-3.03,.71-.36,.95-.68,1.08-1.45,.06-.34-.21-.69-.58-.58-2.72,.77-5.51,1.3-8.24,2.1-1.56,.45-3.72,.67-5.07,1.71-.3,0-.62,.24-.71,.52-.1,.29-.13,.57-.11,.84,2.9,3.52,7.02,5.79,11.6,5.82,.18,0,.36,0,.55-.02,.03-1.42,.84-3.91,.5-5.91Z"/></g><path class="c" d="M137.48,87.19c-2.86,2.47-7.25,4.34-8.28,4.86-2.69,1.37-4.95,1.59-6.74,.79-2.77-1.24-4.88-1.28-5.79-2.23-1.05-1.1-2.71-4.1-3.19-4.72-.53-.67-1.9-2.11-3.46-3,.64,1.53,.98,4.41,5.57,8.25,.67,.56,1.82,1.72,2.61,1.75,.42,.13,3.12,.39,4.07,.81,.63,.28,1.48,.57,2,1.8,.72,1.68,.38,3.61,.35,4.37-.1,2.91-.38,5.38,1.66,7-.76-1.74-.4-6.57-.06-9.96,.12-1.21,.69-2.82,1.43-2.8,3.65,.09,5-1.89,6.76-3.31,2.62-2.11,3.16-.62,4.79-2.09,.53-.48,.92-1.55,1.42-1.76,1.64-.71,2.34-1.21,2.4-2.72-1.19,1.6-3.45,1.16-5.53,2.96Z"/><path class="c" d="M139.43,89.36c-.41,2.68-.91,5.07-3.4,6.37-1.4,.73-3.1,3.5-4.16,4.18-2.43,1.57-1.77,4.59-.77,6.31,.4-3.64,1.18-4.4,2.63-5.57,1.55-1.24,1.67-3.21,3.29-4.22,2.81-1.76,2.92-4.59,2.41-7.08Z"/></g><g><path class="c" d="M95.76,31.1c-.43-4.22-14.22-8.17-18.99-9.48-5.34-1.46-10.78-2.68-16.29-3.31-5.32-.61-10.71-.71-16.04-.16-4.99,.52-11.11,1.38-15.53,3.96-1.59,.93-2.61,2.13-3.18,3.47,3.35,10.07,15.19,13.53,24.9,15.92,9.49,2.34,19.68,4.58,29.11,1.65,1.64-.82,6.64-2.72,8.32-3.33,1.36,3.34-3.56,6.2-5.09,7.18-6.3,4.04-6.68,12.13-7.1,18.89-.27,4.37-1.15,8.62-1.49,12.98-.23,2.93-.32,5.88-.41,8.82,4.12-1.19,8.05-2.91,9.91-4.82,6.41-6.59,9.33-24.94,10.24-30.91,1.16-7.56,2.4-13.26,1.62-20.86Z"/><g><path class="c" d="M85.54,22.08c-1.18-.52-2.37-.97-3.59-1.37-.36,.83-1.09,1.52-2.05,1.96-5.28,2.43-12.34,.31-17.68-.65-2.06-.37-10.01-2.19-11.68-.18-1.72,2.06,1.6,3.1,2.78,4.09,.9,.76,1.47,1.42,2.08,2.42,.57,.92,.21,2.26-.73,2.78-3.81,2.12-7.46,4.9-11.59,6.36-.5,.41-1.01,.81-1.52,1.2,8.42,3.16,18.04,4.4,26.4,4.45,5.91,.04,12.25-.37,17.86-2.42,3.77-1.38,9.58-4.29,10.02-8.85,.5-5.12-6.44-8.09-10.29-9.81Z"/><path class="c" d="M54.67,31.14c.94-.52,1.3-1.86,.73-2.78-.62-1-1.19-1.66-2.08-2.42-1.17-.99-4.49-2.03-2.78-4.09,1.67-2.01,9.62-.19,11.68,.18,5.35,.96,12.4,3.08,17.68,.65,.96-.44,1.69-1.13,2.05-1.96-4.29-1.43-8.78-2.19-13.27-2.78-7.84-1.03-15.82-1.93-23.74-1.69-5,.15-14.33-.17-16.7,5.36-.07,.16-.11,.31-.15,.46-.26,.42-.49,.89-.66,1.4-1.47,4.24,1.16,7.98,4.53,10.32,2.88,2.01,6.14,3.62,9.6,4.92,.51-.4,1.02-.8,1.52-1.2,4.13-1.46,7.78-4.24,11.59-6.36Z"/></g><g><path class="c" d="M46.19,43.23c-.16-.97,.22-2.21,1.26-2.54-8.98-2.4-18.73-6.11-21.73-15.11-1.03,2.39,1.23,9.33,1.47,10.2,1.93,7.13,4.86,14.17,7.32,21,2.78,7.72,8.08,18.35,12.44,25.45,2.06,1.37,4.2,2.58,6.28,3.61-1.19-3.51-2-6.99-2.4-9.71-1.39-9.52-3.13-23.4-4.65-32.9Z"/><path class="c" d="M88.06,39.82c-1.68,.62-6.68,2.51-8.32,3.33-8.91,2.78-18.52,.92-27.57-1.27,.69,.73,1.17,1.74,1.38,2.99,.83,4.81,.04,10.16,.52,15.07,.76,7.73,2.4,19.65,4.61,28.19,2.55,.87,4.79,1.32,6.35,1.23,2.54-.15,5.8-.76,8.95-1.67,.08-2.95,.18-5.89,.41-8.82,.34-4.35,1.22-8.61,1.49-12.98,.41-6.77,.79-14.85,7.1-18.89,1.53-.98,6.44-3.83,5.09-7.18Z"/><path class="c" d="M52.17,41.88c-1.06-1.12-2.61-1.59-4.5-1.26-.08,.01-.14,.04-.22,.07,1.07,.29,2.14,.56,3.18,.81,.51,.13,1.02,.25,1.54,.38Z"/><path class="c" d="M53.55,44.87c-.22-1.25-.7-2.26-1.38-2.99-.51-.12-1.03-.25-1.54-.38-1.04-.26-2.1-.53-3.18-.81-1.04,.33-1.42,1.57-1.26,2.54,1.52,9.5,3.26,23.38,4.65,32.9,.4,2.73,1.21,6.2,2.4,9.71,1.9,.93,3.75,1.7,5.45,2.28-2.22-8.54-3.85-20.46-4.61-28.19-.48-4.91,.31-10.26-.52-15.07Z"/></g><path class="c" d="M87,39.77c-3.1,3.58-6.64,4.98-11.41,4.9-2-.04-4.04-.17-6.08-.34-.05-.07-.1-.15-.15-.22-1.22-1.72-3.45-1.38-4.49-.16-.76-.06-1.52-.13-2.27-.18-1.48-.11-5.52,1.67,3.4,5.17,3.46,6.68,4.52,14.72,4.22,22.2-.24,5.93-.6,11.67,0,17.5,3.1-.4,5.13-1.24,7.1-2.04,.08-5.44-.96-10.69-.51-16.1,.37-4.38,1.03-8.74,2.05-13.01,.64-2.65,1.46-5.09,2.5-8.58,3.65-1.55,6.35-4.34,7.35-8.11,.25-.94-1.02-1.81-1.72-1Z"/><path class="c" d="M78.36,41.26c-4.97,.16-23.3,.54-26.61-3.79-1.61,.81-5.96,1.89-5.96,1.89,0,0,1.1-2.12,2.27-3.93-1.9,.19-10.03-.47-10.67-.76-3.08-1.36-6.54-2.9-8.51-5.63-2.49-3.45-.38-7.02,1.17-8.49,2.76-2.6,10.47-3.22,15.52-4.31-5.05-.11-10.4-.31-15.23,1.9-5.4,2.47-6.72,10.15-2.49,14.06,2.46,2.27,6.73,7.32,15.82,9.74,.1,5.23,1.23,10.56,2.85,15.55,.39,2.13,1.87,7.15,2.81,8.94,.44-2.41-.51-21.66-.49-23.11,3.02,1.26,7.97,2.06,9.14,2.31,5.31,1.11,11.3,.27,16.62-.38,7.02-.86,20.47-4.41,21.24-13.33-4.44,2.12-9.38,9.1-17.47,9.37Z"/><path class="c" d="M70.97,65.3c-.29-2.97,.17-4.52-.74-7.36-1.08-3.36-2-6.2-4.22-9.02,2.18,5.53,1.74,9.18,2.71,15.11,1.04,6.36,0,18.07,1.52,22.82,.52-6.39,1.35-15.2,.74-21.55Z"/></g><g><g><path class="c" d="M5.16,97.8c.57,.38,1.66-.25,2.36-1.85,3.26-7.47,3.4-17.37,8.96-23.31,1.72-1.84,1.04,.3,.94,1.09-1.07,8.2,1.35,12.29,1.17,19.59-.04,1.43-1.44,5.62-1.64,7.34-.33,2.84-.17,5.62-.74,8.4,.02,.02,.03,.03,.05,.05,.29,.25,.59,.47,.91,.68,.41-.6,.92-1.55,1.64-3.07,1.18-2.49,3.02-2.38,2.88-1.79-.07,.44-.15,.89-.24,1.34-.19,1.42-.23,2.36-.04,3.8,.52-.06,2.97,.33,3.55,.42,.45,.07,2.19,1.65,3.56,3.03,2.37,.67,4.75,1.34,7.13,2-.31-9.78-1.82-19.48-4.62-28.86-2.74-9.19-8.03-19.02-6.58-31.92-4.39,4.21-12.59,13.6-16.26,19.61-4.48,7.32-6.97,15.61-7.66,24.13-.04,.54,.41,1.03,.9,1.19,.5-.96,1.07-1.83,1.56-2.34,.54-.55,1.36-.08,2.19,.48Z"/><path class="c" d="M24.94,110.48c-.59-.09-3.04-.49-3.55-.42-.19-1.43-.15-2.38,.04-3.8,.09-.45,.18-.9,.24-1.34,.14-.59-1.7-.7-2.88,1.79-.72,1.52-1.23,2.48-1.64,3.07,2.15,1.4,4.88,1.9,7.3,2.58,1.35,.38,2.69,.76,4.04,1.14-1.37-1.38-3.11-2.96-3.56-3.03Z"/><path class="c" d="M10.79,102.82c2.51,1.48,3.29,4.38,5.41,6.24,.57-2.78,.41-5.56,.74-8.4,.2-1.72,1.6-5.91,1.64-7.34,.18-7.3-2.24-11.39-1.17-19.59,.1-.78,.78-2.93-.94-1.09-5.56,5.94-5.7,15.84-8.96,23.31-.7,1.6-1.8,2.23-2.36,1.85-.83-.56-1.66-1.03-2.19-.48-.5,.51-1.07,1.37-1.56,2.34,0,0,.01,0,.02,0,3.03,.93,6.63,1.54,9.38,3.15Z"/></g><path class="c" d="M46.08,84.12c1.79-1.31,3.71-2.41,5.71-3.35,2.44-1.15,5.82-3.11,7.68-5.46-.07-.08-.13-.17-.19-.25-7.22-5.91-15.94-11.81-20.66-14.68-3.7-2.25-9.58-6.14-14.06-5.77-.04,.04-.09,.08-.13,.12-1.44,12.91,3.84,22.73,6.58,31.92,1.39,4.67,2.46,9.41,3.23,14.2,1.68-3.57,3.83-7.48,4.95-9.27,1.81-2.88,4.14-5.45,6.89-7.46Z"/><path class="c" d="M45.29,71.19c-1.51-1.11-3.83-.84-5.31,.15-.35-.23-2.6-1.38-3.08-1.4-1.4-.06-6.57,1.33-8.04-.6-1.06-1.39-1.38-1.14-1.14,.59,.51,3.66,1.63,6.28,4.2,8.94,.58,.6,1.55-.16,2.31-.53,3.31-1.59,7.29-4.56,11.25-4.4,1.25-1.09,.27-2.42-.19-2.76Z"/><g><path class="c" d="M68.01,90.96c-2.27-5.18-4.91-11.27-8.54-15.65-.42,.53-.93,1.04-1.48,1.53,.09,.06,.18,.13,.22,.23,.88,2.1,2.4,3.72,2.34,6.11-.06,2.33-1.22,4.47-1.96,6.63-.47,1.37-.39,2.77-.66,4.17-.29,1.47-.85,2.48-.56,4.05,.42,2.23,1.23,5.63,2.26,8.16,3.05-1.08,6.04-2.4,8.3-4.62,3.26-3.21,1.68-6.92,.07-10.6Z"/><path class="c" d="M48.09,83.47c-.24-.01-.44-.24-.38-.46-.55,.35-1.1,.72-1.63,1.11-2.75,2.01-5.08,4.58-6.89,7.46-1.13,1.79-3.28,5.7-4.95,9.27,.77,4.85,1.24,9.74,1.39,14.66h0c3.47-2.09,9.27-4.29,14.37-6.07-.89-3.34-.81-6.86-.9-10.36-.13-5.06-1.84-10.55-1.02-15.61Z"/><path class="c" d="M57.99,76.84c-.15-.09-.32-.1-.46,.05-1.27,1.49-3.48,2-5.17,2.9-1.62,.87-3.11,1.91-4.54,3.05-.06,.05-.09,.11-.11,.16,1.31-.83,2.67-1.58,4.07-2.24,1.88-.89,4.33-2.26,6.2-3.93Z"/><path class="c" d="M57.93,93.97c.27-1.4,.19-2.8,.66-4.17,.74-2.16,1.9-4.29,1.96-6.63,.06-2.39-1.46-4.01-2.34-6.11-.04-.1-.12-.18-.22-.23-1.88,1.66-4.32,3.04-6.2,3.93-1.4,.66-2.76,1.41-4.07,2.24-.07,.21,.14,.44,.38,.46-.82,5.06,.89,10.54,1.02,15.61,.09,3.5,0,7.02,.9,10.36,1.72-.6,3.35-1.16,4.8-1.64,1.56-.53,3.21-1.04,4.84-1.61-1.03-2.53-1.84-5.93-2.26-8.16-.3-1.57,.27-2.58,.56-4.05Z"/></g><path class="c" d="M55.42,72.01c-2-.01-3.98-.27-5.97-.08-2.5,.24-4.94,.98-7.29,1.83-2.02,.73-3.6,2.08-5.54,2.86-2.66,1.08-5.31-.34-6.73-2-1.55-2.3-2.19-7.51-2.82-10.59-.31-1.52-2.9-6.76-2.53-9.43-1.23-.02-9.55,9.21-11.11,12.4,2.5-1.2,5.66-7.22,8.28-3.37,1.61,2.36,2.47,6.89,2.98,9.27,.81,3.82,2.3,10.24,5.41,14.66,1.41,1.99,2.66,6.84,2.49,8.36-.36,3.29-.33,5.86,2.33,10.06,.45-2.62,1.61-3.66,2.52-7.7,.83-3.71,3.61-6.8,5.67-9.82,2.95-4.33,9.44-7.18,13.11-9.29,1.03-.59,3.11-1.33,4.32-2.47-1.66-2.93-3.82-3.68-5.13-4.69Z"/><path class="c" d="M58.63,74.08c-1.38-1.08-21.47-15.9-24.89-17.3-1.21-.5-6.09-3.52-9.93-2.08-2.08,.78-4.58,4.39-6.07,6.47,1.28-1.06,4.26-2.8,5.8-2.56,1.51,.24,2.2,3.05,2.85,4.46,1.17,3.69,1.68,7.66,3.08,11.27,1.04,2.66,3.33,4.93,5.07,6.34,.42,.34,1.99,1.68,1.54,3.57-.34,1.44-.33,2.89,.1,4.42,.11,.4,.35,.17,.49-.23,.8-2.17,.86-4.38,2.09-6.49,.13-.23,.06-.57-.18-.7-1.27-.64,.05-1.69,.79-2.39,.92-.87,1.19-2.18,2.22-2.9,1.28-.89,4.9-2.59,8.4-1.92,1.87,.36,3.08-.35,4.76,.18,2.26,.71,4.76,2.23,5.78,2.47,.3-.22-1.54-2.32-1.92-2.62Zm-12.94-1.77c-1.97,.5-7.4,3.32-8.22,3.73-2.81,1.4-5.48,.4-6.63-1.46-1.73-4.59-2.29-8.8-4.16-13.29-.15-.43-.52-1.55-.7-2.22-.15-.56,.11-2.26,.7-2.56,2.24-1.12,8.16,1.84,9.64,2.73,3.7,2.22,13.34,9.88,14.64,10.99,.3,.26,.26,1-.39,1.16-1.3,.31-3.31,.68-4.89,.92Z"/></g><path class="b" d="M77.44,24.06c-7.31-1.13-16.23-2.65-23.36,.11-1.51,.45-2.96,1.2-3.58,2.63-.99,2.27,.76,4.55,2.67,5.76,5.84,3.67,14.31,4.72,21.16,4.46,3.45-.13,7-.57,10.26-1.7,2.19-.76,5.95-2.36,6.75-4.68,1.7-4.91-11.33-6.17-13.91-6.57Z"/><g><path class="c" d="M79.72,81.1c2.36-.91,4.78-1.67,7.24-2.23,1.87-.43,3.44-.55,4.83-.4,1.68,.56,3.78,1.52,3.13,3.43-1,2.92-2.93,5.9-2.93,5.9,0,0-7.15-1.33-8.55-1.62-.81-.17-4.65-1.35-8.04-2.89,.08-.16,.16-.3,.25-.41,.67-.88,2.97-1.36,4.07-1.79Z"/><g><path class="c" d="M92.36,85.5c-.36,.72-.85,1.42-1.42,2.11,0,0,.66-.86,1.42-2.11Z"/><path class="c" d="M92.87,91.46c-.6-1.33-2.21-3.16-2.93-4.04,.57-.68,2.07-1.2,2.43-1.92,.62-1.02,1.3-2.29,1.75-3.6,.65-1.9-.64-2.86-2.32-3.42,1.73,.19,3.16,.81,4.44,1.93,2.23,1.51,3.98,3.9,5.38,6.46-1.48,1.47-3.83,2.8-5.61,3.51-.89,.36-2.15,1.2-3.13,1.08Z"/></g><path class="c" d="M73.35,93.82c-.16-.05,.32-4.16,1.07-7.39,.06,.01,.13,0,.18,.03,2.16,.8,4.19,1.88,6.27,2.87,1.87,.89,4.28,1.6,5.9,2.89,1.62,1.29,2.69,4.38,2.55,6.61-.11,0-.23,0-.33,0-5.09-.5-10.79-3.45-15.64-4.99Z"/><g><path class="c" d="M92.87,91.46c.98,.12,2.24-.72,3.13-1.08,1.78-.72,4.13-2.04,5.61-3.51,1.26,2.3,2.24,4.75,3.03,6.86,.08,.21-5.11,2.77-9.91,4.18-.4-1.2-.7-3.02-.99-3.95-.25-.83-.33-1.8-.87-2.5Z"/><path class="c" d="M89.28,87.3c.97,.18,1.66,.31,1.66,.31,.72,.88,1.33,2.53,1.93,3.86-1.06-1.38-1.99-3.09-2.32-3.43-.19-.19-.67-.46-1.27-.73Z"/><path class="c" d="M75.4,83.3c3.39,1.53,7.23,2.71,8.04,2.89,.19,.04,.47,.1,.81,.16,.55,1.15,1.24,2.88,2.13,3.72,.74,.7,2.08,.89,2.7,1.19,.46,.23,1.43,.58,1.87,.84,1.09,1.89,1.43,3.72,1.84,5.88,.03,.16,.07,.3,.11,.42-1.32,.3-2.56,.48-3.57,.43,.13-2.23-.93-5.32-2.55-6.61-1.62-1.29-4.03-1.99-5.9-2.89-2.08-.99-4.11-2.07-6.27-2.87-.06-.02-.12-.02-.18-.03,.29-1.28,.63-2.43,.98-3.13Z"/><path class="c" d="M84.12,86.07c-.38-.75,3.14,.31,5.16,1.23-1.52-.28-3.72-.69-5.03-.95-.04-.09-.09-.2-.13-.28Z"/><path class="c" d="M90.94,92.09c-.44-.26-1.41-.61-1.87-.84-.62-.3-1.95-.49-2.7-1.19-.89-.84-1.58-2.58-2.13-3.72,1.31,.26,3.51,.67,5.03,.95,.61,.27,1.08,.54,1.27,.73,.33,.34,1.26,2.06,2.32,3.43,.54,.7,.62,1.67,.87,2.5,.28,.93,.58,2.75,.99,3.95-.62,.18-1.24,.34-1.83,.48-.04-.12-.08-.26-.11-.42-.41-2.16-.75-3.99-1.84-5.88Z"/></g><path class="c" d="M75.88,83.51c3.42,.32,7.01,1.62,10.09,2.41,2.67,.68,4.97,.36,6.89-1.76,.79-.88,1.63-3.06,.66-4.78,1.46,.18,.94,3.2,.61,4.01-.3,.73-.48,1.53-.97,2.12-.72,.93-.79,1.94-.79,1.94-.08,1.78,.79,2.57,.51,4.02-1.87-2.25-2.58-3.43-5.41-4.25-1.94-.56-7.26-1.94-7.56-2.03-1.11-.33-2.94-.87-4.02-1.67Z"/><path class="c" d="M79.85,87.3c1.33,.58,.83,.9,2.05,1.69,.47,.3,2.16,1.1,2.77,1.54,.71,.31,2.5,.6,2.8,1.11,.05,.09,1.06,2.33,1.02,3-.76-.7-1.35-1.94-2.49-2.71-1.49-.24-2.52-.76-3.62-1.56-2.27-1.66-4.43-2.24-6.96-3.48,1.53-.06,3.03-.21,4.43,.4Z"/></g><g><path class="c" d="M95.9,109.43c-1.26-3.5-3.11-7.31-5.59-10.12-.86-.97-1.82-1.87-2.85-2.72-.26,.1-.53,.18-.8,.22-.59,.19-1.17,.43-1.75,.66-.11,.05-.22,.03-.31-.02-.03,.02-.06,.04-.1,.05-.28,.1-.54-.16-.55-.42-.03-.49,.16-.93,.25-1.4,.09-.44,.14-.93,.12-1.4-1.87-1.25-3.81-2.37-5.67-3.4-3.58-2-11.59-6.39-15.98-.95-2.21,5.45-.6,13.34,1.57,17.82,3.28,6.75,9.75,12,17.08,13.73,5.36-.62,9.55-1.92,12.22-3.66,3.03-1.98,3.53-5.11,2.35-8.38Z"/><g><path class="c" d="M60.39,110.01c2.07,1.61,2.9,4.33,4.91,6.04,3.03,2.59,5.17,4.37,6.96,5.82,3.29,.06,6.34-.07,9.08-.39-7.33-1.73-13.8-6.98-17.08-13.73-2.18-4.47-3.79-12.37-1.57-17.82-.26,.32-.51,.67-.74,1.06-4.03,5.11-6.56,11.12-7.85,17.48,.18-.07,.37-.14,.58-.18,1.94-.43,4.22,.56,5.72,1.72Z"/><path class="c" d="M64.88,121.41c2.58,.26,5.04,.41,7.38,.45-1.79-1.44-3.92-3.23-6.96-5.82-2.01-1.71-2.84-4.43-4.91-6.04-1.5-1.16-3.78-2.15-5.72-1.72-.21,.05-.4,.11-.58,.18-.49,2.41-.8,4.88-.95,7.36,1.66,1.19,7.62,5.15,11.73,5.58Z"/></g><path class="c" d="M82.76,94.12c-1.34-1.8-4.23-2.84-6.23-3.63-2.84-1.12-5.95-1.83-9.01-1.69-1.15,.05-4.68,1.97-4.21,2.69-1.9,3.96,.27,5.24,1.97,10.17,1.54,4.49,3.86,7.85,7.71,4.54,2.02-1.74,6.13-5.56,8.42-6.89,3.21-1.87,2.71-3.39,1.37-5.2Z"/><path class="c" d="M92.41,102.13c-1.24-2.38-3.21-4.47-5.32-6.22-.54,.34-2.2,1.02-2.2,1.02,0,0,.06-2.18-.07-2.75-2.98-2.06-6.11-3.63-7.12-4.09-3.33-1.52-7.54-4.11-11.28-3.03-1.12,.32-2.7,1.26-3.49,1.9-1.49,1.22-6.91,10.34-7.39,14.04,1.19-2.44,4.06-6.99,5.05-5.83,.78,.92,1.49,5.7,2.03,7.34,2.27,6.8,9.61,16.1,17.49,16.65-1.46-.46-5.69-2.97-6.09-3.22-4.33-2.66-7.42-7.66-9.11-12.64-1.2-3.54-2.38-8.53-.51-12.05,1.37-2.58,3.8-3.69,6.37-3.52,3.04,.21,8,2.8,9.78,3.57,1.88,.81,3.28,1.27,2.57,3.74-.19,.65-1.35,1.76-1.73,2.29,1.44,.04,3.77-1.17,5.27-1.39,.39,.5,3.8,4.31,5.75,4.19Z"/></g><g><path class="c" d="M58.63,29.25c.45-.45,.88-2.11,1.39-2.59,1.03-.98,.66,.48,.75,1.22,.12,1.05-.07,1.8,.51,2.54,.17,.22,.81-.27,1.57,.58,1.16,1.3,2.15,2.19,6.38,2.54-.79-1.64-1.26-3.39-1.29-5.25-.03-1.89,.72-3.42,1.96-4.58,4.61-4.29,10.28-7.33,15.51-10.84-.62-2-1.21-3.54-1.72-4.04-2.85-2.85-6.49-5.17-9.89-7.3-5.72,1.26-11.21,4.75-13.71,6.9-1.1,.95-3.76,4.29-3.76,4.29,0,0-.87,9.46-.81,12.94,.01,.64-.03,1.63-.01,2.38,1.01,.45,2.94,1.39,3.12,1.2Z"/><path class="c" d="M81.44,6.13c-2.04-1.52-5.49-4.56-7.87-5.46-.13,.02-.27,.04-.41,.07,0,.1-.06,.2-.19,.23-1.01,.21-2.05,.53-3.06,.93-1.01,.45-2.08,1-3.12,1.57-.59,.36-1.15,.75-1.68,1.17,.03,.08,.01,.18-.07,.25-.26,.22-.51,.41-.79,.57-.21,.16-.41,.33-.62,.5-.18,.15-.41,.03-.45-.15-.05-.02-.08-.05-.12-.09-1.09,.73-1.97,1.39-2.46,1.87-1.22,1.18-3.18,2.64-4.27,5.12,2.44,4.75,7.51,11.19,11.67,14.54,2.45-1.73,12.86-10.1,17.4-14.39-.64-2.5-1.3-4.77-3.95-6.75Z"/><path class="c" d="M77.98,5.4c-1.48-1.65-3.35-3.54-5.55-4.29-2.55,.62-4.18,3.89-3.35,4.98,1.18,1.55-.11,2.45-.22,3.49-.08,.78,.42,1.84,.94,2.26,.38,.31,.82,.51,1.27,.71,1.22,.55,1.81,1,2.25,2.3,.6,1.79,1.07,3.62,1.49,5.45,.04,.18,.29,.29,.45,.18,2.38-1.55,5.04-3.37,5.82-6.28,.88-3.28-.99-6.44-3.1-8.8Z"/><g><path class="c" d="M72.26,25.24c-.13-.17-.63-1.41-1.03-2.7-.45,.39-.91,.77-1.35,1.18-1.24,1.15-1.99,2.69-1.96,4.58,.03,1.86,.5,3.61,1.29,5.25-4.24-.35-5.22-1.25-6.38-2.54-.76-.85-1.4-.36-1.57-.58-.58-.74-.38-1.49-.51-2.54-.09-.74,.28-2.2-.75-1.22-.5,.48-.94,2.15-1.39,2.59-.19,.18-2.11-.76-3.12-1.2,.01,.47,.05,.84,.15,.97,4.6,6.45,11.94,7.08,19.09,5.33-.38-1.15-.87-2.98-.91-4.87-.04-1.98-.99-3.48-1.58-4.24Z"/><path class="c" d="M83.66,17.98c-1.39,1.94-1.57,4.53-1.81,6.91-.17,1.72-.21,4.69-.06,7.01,2.66-1.18,5.13-2.56,7.23-3.92-.43-2.08-2.08-10.07-3.62-15.1-.41,.28-.83,.54-1.24,.81,.12,1.59,.11,3.44-.5,4.29Z"/><path class="c" d="M81.85,24.89c.24-2.38,.42-4.97,1.81-6.91,.61-.85,.62-2.7,.5-4.29-4.37,2.85-8.95,5.49-12.92,8.85,.39,1.29,.89,2.53,1.03,2.7,.59,.76,1.54,2.26,1.58,4.24,.03,1.89,.52,3.72,.91,4.87,2.41-.59,4.79-1.45,7.04-2.45-.15-2.31-.11-5.29,.06-7.01Z"/></g><path class="c" d="M82.02,6.28c-2.52-1.93-5.51-4.5-8.39-5.77-1.27,.16-4.68,.94-5.48,1.45-3.02,1.91-6.33,3.64-8.46,6.48,2.07-1.36,4.17-1.62,5.76-3.13,1.34-1.27,4.79-3.68,6.81-3.56,1.19,1.02,2.97,3.18,4.26,4.06,.82,1.51,2.57,3.41,2.65,5.17,.1,2.17,.24,4.2-1.34,5.9-1.86,2.01-5.63,3.61-7.55,5.07-1.63,1.24-3.1,2.13-4.53,1.34-2.05-1.13-3.92-4.38-4.29-4.83,.7-.74,1.72-1.99,2.74-2.39-1.52,.18-2.57,.24-3.78,1.15-1.2-.71-.91-1.68-3.15-2.8,.02,.94,3.18,4.51,6.04,8.51,1.13,1.58,2.94,2.76,3.39,4.34,.64,2.27,1.52,3.38,1.65,3.92,.72-.38,1.04-1.17,1.07-1.95,.04-.93,.66-.92,1.04-1.44,.4-.56,.29-.96,.41-1.44,.07-.27,.58-1.27,.88-1.57,1.67-1.66,5.93-3.82,6.9-4.62,2.41-1.99,5.63-4.18,6.76-7.29,.42-1.15-1.18-4.91-3.37-6.59Z"/></g><g><path class="c" d="M187.79,75.27c-2.36-.91-4.78-1.67-7.24-2.23-1.87-.43-3.44-.55-4.83-.4-1.68,.56-3.78,1.52-3.13,3.43,1,2.92,2.93,5.9,2.93,5.9,0,0,7.15-1.33,8.55-1.62,.81-.17,4.65-1.35,8.04-2.89-.08-.16-.16-.3-.25-.41-.67-.88-2.97-1.36-4.07-1.79Z"/><g><path class="c" d="M175.15,79.67c.36,.72,.85,1.42,1.42,2.11,0,0-.66-.86-1.42-2.11Z"/><path class="c" d="M174.64,85.63c.6-1.33,2.21-3.16,2.93-4.04-.57-.68-2.07-1.2-2.43-1.92-.62-1.02-1.3-2.29-1.75-3.6-.65-1.9,.64-2.86,2.32-3.42-1.73,.19-3.16,.81-4.44,1.93-2.23,1.51-3.98,3.9-5.38,6.46,1.48,1.47,3.83,2.8,5.61,3.51,.89,.36,2.15,1.2,3.13,1.08Z"/></g><path class="c" d="M194.16,87.99c.16-.05-.32-4.16-1.07-7.39-.06,.01-.13,0-.18,.03-2.16,.8-4.19,1.88-6.27,2.87-1.87,.89-4.28,1.6-5.9,2.89-1.62,1.29-2.69,4.38-2.55,6.61,.11,0,.23,0,.33,0,5.09-.5,10.79-3.45,15.64-4.99Z"/><g><path class="c" d="M174.64,85.63c-.98,.12-2.24-.72-3.13-1.08-1.78-.72-4.13-2.04-5.61-3.51-1.26,2.3-2.24,4.75-3.03,6.86-.08,.21,5.11,2.77,9.91,4.18,.4-1.2,.7-3.02,.99-3.95,.25-.83,.33-1.8,.87-2.5Z"/><path class="c" d="M178.23,81.47c-.97,.18-1.66,.31-1.66,.31-.72,.88-1.33,2.53-1.93,3.86,1.06-1.38,1.99-3.09,2.32-3.43,.19-.19,.67-.46,1.27-.73Z"/><path class="c" d="M192.11,77.47c-3.39,1.53-7.23,2.71-8.04,2.89-.19,.04-.47,.1-.81,.16-.55,1.15-1.24,2.88-2.13,3.72-.74,.7-2.08,.89-2.7,1.19-.46,.23-1.43,.58-1.87,.84-1.09,1.89-1.43,3.72-1.84,5.88-.03,.16-.07,.3-.11,.42,1.33,.3,2.56,.48,3.57,.43-.13-2.23,.93-5.32,2.55-6.61,1.62-1.29,4.03-1.99,5.9-2.89,2.08-.99,4.11-2.07,6.27-2.87,.06-.02,.12-.02,.18-.03-.29-1.28-.63-2.43-.98-3.13Z"/><path class="c" d="M183.39,80.24c.38-.75-3.14,.31-5.16,1.23,1.52-.28,3.72-.69,5.03-.95,.04-.09,.09-.2,.13-.28Z"/><path class="c" d="M176.57,86.26c.44-.26,1.41-.61,1.87-.84,.62-.3,1.95-.49,2.7-1.19,.89-.84,1.58-2.58,2.13-3.72-1.31,.26-3.51,.67-5.03,.95-.61,.27-1.08,.54-1.27,.73-.33,.34-1.26,2.06-2.32,3.43-.54,.7-.62,1.67-.87,2.5-.28,.93-.58,2.75-.99,3.95,.62,.18,1.24,.34,1.83,.48,.04-.12,.08-.26,.11-.42,.41-2.16,.75-3.99,1.84-5.88Z"/></g><path class="c" d="M191.63,77.68c-3.42,.32-7.01,1.62-10.09,2.41-2.67,.68-4.97,.36-6.89-1.76-.79-.88-1.63-3.06-.66-4.78-1.46,.18-.94,3.2-.61,4.01,.3,.73,.48,1.53,.97,2.12,.72,.93,.79,1.94,.79,1.94,.08,1.78-.79,2.57-.51,4.02,1.87-2.25,2.58-3.43,5.41-4.25,1.94-.56,7.26-1.94,7.56-2.03,1.11-.33,2.94-.87,4.02-1.67Z"/><path class="c" d="M187.65,81.47c-1.33,.58-.83,.9-2.05,1.69-.47,.3-2.16,1.1-2.77,1.54-.71,.31-2.5,.6-2.8,1.11-.05,.09-1.06,2.33-1.02,3,.76-.7,1.35-1.94,2.49-2.71,1.49-.24,2.52-.76,3.62-1.56,2.27-1.66,4.43-2.24,6.96-3.48-1.53-.06-3.03-.21-4.43,.4Z"/></g><g><path class="c" d="M47.58,113.48c.82,.58,3.21,.73,4.07,1.24,1.4,.82,1.33,2.49,2.68,4.55,2.15,3.28,3.93,3.42,8.99,2.17-1.68-2.35-4.1-4-5.96-5.94-1.8-1.87-3.96-4.9-6.77-4.92-.96,0-1.85-.22-2.81,.19-.58,.25-1.07,.64-1.51,1.08,0,.04,0,.08,.01,.13,.16,.66,.79,1.13,1.31,1.5Z"/><g><path class="c" d="M59.59,123.42c1.2-.24,2.7-.54,3.73,.05,.84,.48,1.12,3.17,1.23,3.99,.02,.17,.03,.35,.05,.53,.24-.07,.47-.12,.71-.19,.02-2.71-.79-4.71-1.98-6.36-5.06,1.24-6.83,1.11-8.99-2.17-1.35-2.06-1.28-3.73-2.68-4.55-.86-.51-3.25-.66-4.07-1.24-.51-.36-1.15-.84-1.31-1.5-.01-.05,0-.08-.01-.13-.52,.52-.98,1.13-1.39,1.71-.6,.86-1.19,1.83-1.74,2.86,1.21,.36,3.4,1.5,4.35,2.3,1.73,1.47,4.65,2.78,4.93,5.06,.18,1.54,.53,3.51,.33,5.98,.48,.01,.99-.03,1.48-.04,.05-1.14,1.19-2.32,2.33-4.11,.61-.96,1.94-1.98,3.03-2.19Z"/><path class="c" d="M64.54,127.46c-.1-.81-.39-3.5-1.23-3.99-1.04-.6-2.53-.29-3.73-.05-1.09,.21-2.42,1.23-3.03,2.19-1.14,1.8-2.28,2.98-2.33,4.11,3.18-.09,6.62-.69,10.37-1.74-.01-.18-.02-.36-.05-.53Z"/></g><g><path class="c" d="M49.78,122.17c1.58,.3,2.01,.35,2.63,1.69v-.07c-.28-2.28-3.21-3.59-4.94-5.06-.94-.8-3.13-1.95-4.35-2.3-1.18,2.2-2.11,4.66-2.23,6.95,.85,.82,1.96,1.93,3.19,2.98,.08-.75,.63-3.91,1.34-4.51,1.1-.93,3.24,.12,4.35,.33Z"/><path class="c" d="M52.41,123.86c-.62-1.34-1.05-1.39-2.63-1.69-1.11-.21-3.25-1.26-4.35-.33-.71,.6-1.25,3.76-1.34,4.51,1.74,1.48,3.71,2.85,5.55,3.15,.95,.15,1.93,.23,2.93,.26,.06,0,.11,0,.16,0,.04-.46,.13-.87,.13-1.3,.01-1.82-.31-3.37-.46-4.6Z"/></g><path class="c" d="M61.85,121.78c-.85-.07-2.43,.02-3.27-.12-2.11-.36-2.55-1.43-2.68-1.6-1.14-1.46-1.5-1.8-2.31-3.38-.27-.52-.35-1.86-.89-2.1-.18-.08-1.36-.56-1.79-.77-.42-.22-1.7-.23-2.4-.75-.67-.49-.78-1.48-.76-1.64,.04-.39,1.36-.9,1.27-.91-1.26-.11-1.86,.31-2.89,1.47-.38,.42,1.46,1.73,1.5,1.74,.99,.64,3.26,.92,3.75,1.58,.59,.81,.14,2.23-.18,3.13-.64,1.82-.49,4.18-.41,4.42,.39,1.17,.98,.73,1.19,.92,.51,.44,.16,2.44,.83,3.2,.09-.85-.23-3.73,.69-4.81,.27-.32,.88-.17,2.67,0,1.56,.15,2.36,.74,5.67-.39Z"/></g><g><g><path class="c" d="M107.36,113.26c.14-.01,.08-.77,.22-.83,.53-.22,.87-.26,1.44-.41,.99-.25,2.23,0,3.23-.04,1.52-.06,3.01-.31,4.5-.63-.71,.06-.91-.31-.82-.46-.64-1.5-.93-2.31-2.61-2.34-2.15-.04-4.27,.75-6.21,1.59-.44,.19-1.14,.42-1.77,.75-.1,.37-.26,.78-.3,1.04-.12,.79,1.64,1.38,2.31,1.32Z"/><path class="c" d="M104.03,112.54c.02,1.14,1.63,1.74,2.47,2.06,1.94,.75,3.95,.68,5.97,.71,1.16,.02,2.86,.06,3.88-.62,.98-.65,1.2-2.07,.57-3.08-1.48,.32-3.13,.32-4.64,.37-1.01,.04-2.24-.22-3.23,.04-.58,.15-.91,.19-1.44,.41-.15,.06-.08,.82-.22,.83-.66,.06-2.42-.54-2.31-1.32,.04-.26,.2-.67,.3-1.04-.72,.38-1.34,.89-1.32,1.64Z"/></g><path class="c" d="M115.52,109.95c-1.35,.34-2.75,1.29-4.14,1.38-.71,.04-1.96-.17-2.58,.22-.04,.03-.45,.67-1.22,.89,.86,.69,2.83,.04,3.89,0,.66-.02,1.4,.19,2.37,.08,1.07-.12,2.39-.57,3.06-.9-.13-.39-.73-.5-.96-.72-.09-.26-.25-.67-.42-.95Z"/><path class="c" d="M115.13,109.3c-1.13-1.54-4.14-.7-5.03-.43-1.21,.37-2.93,.98-3.99,1.68-.53,.35,.63-.03,.78-.07,1.23-.31,3.04-1.1,4.29-1.35,.74-.15,3.48,.46,3.95,.18Z"/></g></svg>